<?xml version="1.0" encoding="UTF-8"?>
<svg version="1.1" xmlns="http://www.w3.org/2000/svg" width="1200" height="1700">
<path d="M0 0 C396 0 792 0 1200 0 C1200 561 1200 1122 1200 1700 C804 1700 408 1700 0 1700 C0 1139 0 578 0 0 Z " fill="#F0EDEA" transform="translate(0,0)"/>
<path d="M0 0 C396 0 792 0 1200 0 C1200 561 1200 1122 1200 1700 C804 1700 408 1700 0 1700 C0 1139 0 578 0 0 Z M65 69 C65 579.18 65 1089.36 65 1615 C418.1 1615 771.2 1615 1135 1615 C1135 1104.82 1135 594.64 1135 69 C781.9 69 428.8 69 65 69 Z " fill="#F1EEEB" transform="translate(0,0)"/>
<path d="M0 0 C353.1 0 706.2 0 1070 0 C1070 510.18 1070 1020.36 1070 1546 C716.9 1546 363.8 1546 0 1546 C0 1035.82 0 525.64 0 0 Z M5 5 C5 511.88 5 1018.76 5 1541 C354.8 1541 704.6 1541 1065 1541 C1065 1034.12 1065 527.24 1065 5 C715.2 5 365.4 5 5 5 Z " fill="#528084" transform="translate(65,69)"/>
<path d="M0 0 C39.6 0 79.2 0 120 0 C120 39.93 120 79.86 120 121 C80.4 121 40.8 121 0 121 C0 81.07 0 41.14 0 0 Z " fill="#EEEBE8" transform="translate(543,206)"/>
<path d="M0 0 C140.58 0 281.16 0 426 0 C426 3.63 426 7.26 426 11 C285.42 11 144.84 11 0 11 C0 7.37 0 3.74 0 0 Z " fill="#7D9890" transform="translate(387,1236)"/>
<path d="M0 0 C140.58 0 281.16 0 426 0 C426 3.63 426 7.26 426 11 C285.42 11 144.84 11 0 11 C0 7.37 0 3.74 0 0 Z " fill="#7D9991" transform="translate(387,451)"/>
<path d="M0 0 C396 0 792 0 1200 0 C1200 0.99 1200 1.98 1200 3 C804 3 408 3 0 3 C0 2.01 0 1.02 0 0 Z " fill="#FEFEFE" transform="translate(0,1697)"/>
<path d="M0 0 C6.208125 -0.0825 12.41625 -0.165 18.8125 -0.25 C20.74843018 -0.28641602 22.68436035 -0.32283203 24.67895508 -0.36035156 C36.32147933 -0.48862697 46.73738163 0.03975002 55.6328125 8.48828125 C61.6998232 15.19666165 61.40850146 22.38742761 61 31 C59.91853322 38.20977852 55.58382482 43.26891541 49.88427734 47.61230469 C48.95156006 48.29921387 48.95156006 48.29921387 48 49 C48.42410156 49.59538574 48.84820312 50.19077148 49.28515625 50.80419922 C51.19496565 53.49104919 53.09755552 56.18293087 55 58.875 C55.66773438 59.81214844 56.33546875 60.74929688 57.0234375 61.71484375 C57.65507812 62.61074219 58.28671875 63.50664063 58.9375 64.4296875 C59.52402344 65.25710449 60.11054688 66.08452148 60.71484375 66.93701172 C62 69 62 69 62 71 C49.53180193 72.30619218 49.53180193 72.30619218 44 71 C40.36150382 67.89073963 38.87558573 64.33365151 37 60 C36.06072992 58.61786164 35.08651065 57.25808204 34.0625 55.9375 C32 53 32 53 32 51 C26.72 51 21.44 51 16 51 C16 57.6 16 64.2 16 71 C10.72 71 5.44 71 0 71 C0 47.57 0 24.14 0 0 Z " fill="#1B3A4B" transform="translate(432,814)"/>
<path d="M0 0 C14 0 14 0 17.02294922 2.36401367 C17.90490967 3.99947144 17.90490967 3.99947144 18.8046875 5.66796875 C19.31251266 6.553955 19.31251266 6.553955 19.83059692 7.45783997 C20.89733756 9.34404247 21.8855561 11.25983218 22.875 13.1875 C23.55755112 14.42916559 24.24502814 15.66813661 24.9375 16.90429688 C26.30723652 19.36026028 27.64774585 21.82914447 28.97167969 24.31005859 C31.5999329 29.17495496 34.56446276 33.82101918 37.53564453 38.48168945 C39 41 39 41 39 43 C41.77536724 41.61231638 42.28706073 39.87235088 43.71875 37.1328125 C46.83139993 31.28715017 50.12606852 25.5730173 53.5 19.875 C54.04269531 18.95074219 54.58539062 18.02648437 55.14453125 17.07421875 C56.22387192 15.24784039 57.32123979 13.43197995 58.4375 11.62792969 C60.03686768 9.03790149 60.03686768 9.03790149 61.25 6.31738281 C62.53125 3.8203125 62.53125 3.8203125 66 0 C70.62 0 75.24 0 80 0 C80 23.43 80 46.86 80 71 C75.05 71 70.1 71 65 71 C65 57.14 65 43.28 65 29 C64.34 29 63.68 29 63 29 C62.75507812 29.84433594 62.51015625 30.68867187 62.2578125 31.55859375 C60.86971424 35.35646509 58.9986038 38.6463458 56.875 42.0625 C56.06062272 43.37724805 55.24683244 44.69235986 54.43359375 46.0078125 C54.0247998 46.66813477 53.61600586 47.32845703 53.19482422 48.00878906 C52.0393754 49.9343797 50.96592361 51.88553093 49.91015625 53.8671875 C45.37367127 62.21806404 45.37367127 62.21806404 41.96875 64.15625 C39.41164894 64.51031015 38.26393091 64.2485922 36 63 C33.04201907 60.02901696 31.07470725 56.62394279 29 53 C28.32048927 51.83323036 27.64079553 50.6665673 26.9609375 49.5 C25.61593015 47.17493396 24.29872822 44.83962372 22.9921875 42.4921875 C20.77028693 38.5973265 18.37654647 34.80247436 16 31 C15.67 44.2 15.34 57.4 15 71 C10.05 71 5.1 71 0 71 C0 47.57 0 24.14 0 0 Z " fill="#1B3B4B" transform="translate(643,814)"/>
<path d="M0 0 C14 0 14 0 17.8125 3.3125 C18.90004372 4.8576735 19.96120692 6.42163964 21 8 C22.33804911 9.65896332 23.69364316 11.30386428 25.0625 12.9375 C25.81015625 13.85660156 26.5578125 14.77570312 27.328125 15.72265625 C31.23677771 20.52640867 35.18537601 25.29743969 39.12719727 30.07397461 C39.70010498 30.76885986 40.2730127 31.46374512 40.86328125 32.1796875 C41.37157471 32.79569824 41.87986816 33.41170898 42.40356445 34.04638672 C44.28625456 36.35029958 46.14133155 38.67666444 48 41 C48.33 27.47 48.66 13.94 49 0 C54.28 0 59.56 0 65 0 C65 23.43 65 46.86 65 71 C60.38 71 55.76 71 51 71 C47.58046854 67.58046854 45.52220912 64.96955276 43 61 C41.54560289 59.16756465 40.06577021 57.35505933 38.5625 55.5625 C37.81226563 54.64726563 37.06203125 53.73203125 36.2890625 52.7890625 C35.53367187 51.86867188 34.77828125 50.94828125 34 50 C32.47860869 48.14629114 30.9577718 46.29212711 29.4375 44.4375 C28.77621094 43.63183594 28.11492188 42.82617188 27.43359375 41.99609375 C23.93105902 37.68398438 20.47040656 33.3380082 17 29 C16.67 42.86 16.34 56.72 16 71 C10.72 71 5.44 71 0 71 C0 47.57 0 24.14 0 0 Z " fill="#1B3B4B" transform="translate(808,814)"/>
<path d="M0 0 C5.28 0 10.56 0 16 0 C19.98710994 7.73968401 23.67104629 15.25238829 26.56640625 23.4765625 C27.82609999 26.57259454 29.21779517 29.48177611 30.7265625 32.4609375 C33.99475712 38.91528419 37.00175795 45.47229099 39.9519043 52.07568359 C40.82489258 54.02771015 41.70424188 55.97679082 42.58398438 57.92578125 C43.14621311 59.17951726 43.70807609 60.43341737 44.26953125 61.6875 C44.77073486 62.80511719 45.27193848 63.92273438 45.78833008 65.07421875 C47 68 47 68 48 72 C42.06 72 36.12 72 30 72 C28.02 67.05 26.04 62.1 24 57 C13.11 56.67 2.22 56.34 -9 56 C-9.99 59.3 -10.98 62.6 -12 66 C-12.99 67.98 -13.98 69.96 -15 72 C-20.61 72 -26.22 72 -32 72 C-30.81678356 68.45035067 -29.73878733 65.22473623 -28.23046875 61.86328125 C-27.89853516 61.12013672 -27.56660156 60.37699219 -27.22460938 59.61132812 C-26.88236328 58.85271484 -26.54011719 58.09410156 -26.1875 57.3125 C-25.85685547 56.57322266 -25.52621094 55.83394531 -25.18554688 55.07226562 C-23.33375916 50.93862049 -21.45942292 46.81559638 -19.578125 42.6953125 C-16.36530417 35.63548847 -13.27844888 28.52068737 -10.19335938 21.40429688 C-7.02047357 14.14491418 -3.59178924 7.06191258 0 0 Z " fill="#1D3C4D" transform="translate(299,813)"/>
<path d="M0 0 C1.95402051 1.7224017 2.82212698 3.20941297 3.8125 5.59765625 C2.60290384 6.9693323 1.36898812 8.31959234 0.125 9.66015625 C-0.55949219 10.41425781 -1.24398437 11.16835938 -1.94921875 11.9453125 C-4.1875 13.59765625 -4.1875 13.59765625 -6.73046875 13.46875 C-8.95807456 12.67899468 -10.81064242 11.84081894 -12.8125 10.59765625 C-18.85131328 7.01910023 -24.30626536 6.98560234 -31.1875 7.59765625 C-37.40313924 9.30876092 -41.64434855 13.31357917 -45.1875 18.59765625 C-47.35341159 25.09539103 -47.36372531 33.18616883 -45.12890625 39.66796875 C-42.58255122 44.29143181 -39.69336162 48.00766395 -34.734375 50.0546875 C-27.34901818 51.62917308 -19.52515927 51.0651881 -12.1875 49.59765625 C-12.1875 42.33765625 -12.1875 35.07765625 -12.1875 27.59765625 C-7.2375 27.59765625 -2.2875 27.59765625 2.8125 27.59765625 C2.8125 37.49765625 2.8125 47.39765625 2.8125 57.59765625 C0.605625 58.73203125 -1.60125 59.86640625 -3.875 61.03515625 C-4.56037842 61.39150146 -5.24575684 61.74784668 -5.9519043 62.11499023 C-15.62713238 67.01779745 -28.04893703 67.02863966 -38.59765625 64.9140625 C-48.97618319 61.39616518 -56.37663957 54.85249303 -61.4453125 45.203125 C-65.37318174 36.0426747 -65.99630612 24.72221563 -62.75 15.22265625 C-58.70519028 6.74713624 -51.62902227 -0.33851894 -43.1875 -4.40234375 C-42.55972656 -4.71945312 -41.93195313 -5.0365625 -41.28515625 -5.36328125 C-27.8474367 -10.98597388 -11.67466229 -7.81785421 0 0 Z " fill="#1E3D4D" transform="translate(413.1875,820.40234375)"/>
<path d="M0 0 C17.82 0 35.64 0 54 0 C54 4.29 54 8.58 54 13 C41.46 13 28.92 13 16 13 C16 17.95 16 22.9 16 28 C26.89 28 37.78 28 49 28 C49 32.29 49 36.58 49 41 C38.11 41 27.22 41 16 41 C16 46.61 16 52.22 16 58 C28.87 58 41.74 58 55 58 C55 62.29 55 66.58 55 71 C36.85 71 18.7 71 0 71 C0 47.57 0 24.14 0 0 Z " fill="#1B3B4C" transform="translate(740,814)"/>
<path d="M0 0 C17.49 0 34.98 0 53 0 C53 4.29 53 8.58 53 13 C40.79 13 28.58 13 16 13 C16 17.95 16 22.9 16 28 C26.89 28 37.78 28 49 28 C49 32.29 49 36.58 49 41 C38.11 41 27.22 41 16 41 C16 46.61 16 52.22 16 58 C28.87 58 41.74 58 55 58 C55 62.29 55 66.58 55 71 C36.85 71 18.7 71 0 71 C0 47.57 0 24.14 0 0 Z " fill="#1B3B4B" transform="translate(575,814)"/>
<path d="M0 0 C17.49 0 34.98 0 53 0 C53 4.29 53 8.58 53 13 C40.79 13 28.58 13 16 13 C16 17.95 16 22.9 16 28 C26.89 28 37.78 28 49 28 C49 32.29 49 36.58 49 41 C38.11 41 27.22 41 16 41 C16 46.61 16 52.22 16 58 C28.54 58 41.08 58 54 58 C54 62.29 54 66.58 54 71 C36.18 71 18.36 71 0 71 C0 47.57 0 24.14 0 0 Z " fill="#1B3B4B" transform="translate(507,814)"/>
<path d="M0 0 C20.46 0 40.92 0 62 0 C62 4.62 62 9.24 62 14 C54.41 14 46.82 14 39 14 C39 33.14 39 52.28 39 72 C33.72 72 28.44 72 23 72 C23 52.86 23 33.72 23 14 C15.41 14 7.82 14 0 14 C0 9.38 0 4.76 0 0 Z " fill="#1C3C4C" transform="translate(882,813)"/>
<path d="M0 0 C39.6 0 79.2 0 120 0 C120 39.93 120 79.86 120 121 C80.4 121 40.8 121 0 121 C0 81.07 0 41.14 0 0 Z M4 4 C4 41.29 4 78.58 4 117 C41.29 117 78.58 117 117 117 C117 79.71 117 42.42 117 4 C79.71 4 42.42 4 4 4 Z " fill="#1D1D1C" transform="translate(543,206)"/>
<path d="M0 0 C16.83 0 33.66 0 51 0 C51 4.95 51 9.9 51 15 C45.72 15 40.44 15 35 15 C35 28.53 35 42.06 35 56 C28.73 56 22.46 56 16 56 C16 42.47 16 28.94 16 15 C10.72 15 5.44 15 0 15 C0 10.05 0 5.1 0 0 Z " fill="#080808" transform="translate(567,240)"/>
<path d="M0 0 C4.2384375 -0.0928125 4.2384375 -0.0928125 8.5625 -0.1875 C9.43849854 -0.21481201 10.31449707 -0.24212402 11.21704102 -0.27026367 C17.37199726 -0.33490635 22.29728325 0.3857157 26.91015625 4.84765625 C29.02079883 9.01598621 28.59899212 13.46381247 28 18 C26.17962457 21.43070754 24.9697033 22.57871122 21.4375 24.11328125 C17.08226193 25.23673471 13.09592577 25.21697426 8.625 25.125 C5.77875 25.08375 2.9325 25.0425 0 25 C0 16.75 0 8.5 0 0 Z " fill="#EBE9E6" transform="translate(448,827)"/>
<path d="M0 0 C1.45792884 -0.05399736 2.91642712 -0.09279177 4.375 -0.125 C5.18710937 -0.14820313 5.99921875 -0.17140625 6.8359375 -0.1953125 C9 0 9 0 11 2 C11.99 1.34 12.98 0.68 14 0 C21.06542056 -0.56074766 21.06542056 -0.56074766 24.5 1.5 C24.995 1.995 25.49 2.49 26 3 C26 2.34 26 1.68 26 1 C28.22890995 -0.11445498 29.53055106 -0.16480286 32 -0.1875 C33.051875 -0.20876953 33.051875 -0.20876953 34.125 -0.23046875 C36 0 36 0 38 2 C38 7.89403071 34.87917895 10.99032879 31 15 C33.64 15 36.28 15 39 15 C39 15.66 39 16.32 39 17 C25.8 17 12.6 17 -1 17 C0.24023608 13.27929177 1.95730148 12.37478909 5 10 C7.1519437 6.77208445 7.20086443 5.71599191 7 2 C3.95613276 1.91773332 1.92824652 2.02391783 -1 3 C-0.67 2.01 -0.34 1.02 0 0 Z " fill="#E9E6E3" transform="translate(532,1485)"/>
<path d="M0 0 C3.72693898 0.06407345 5.08829638 0.27797783 8.375 2.25 C11.01639938 6.65233229 11.14861154 10.36256131 10.25 15.375 C8.20398195 18.88245952 6.14578864 21.11459779 2.25 22.375 C-1.61105991 22.86790126 -3.21655931 22.72658591 -6.5 20.5625 C-9.67186224 17.47874504 -11.0604095 15.38088413 -11.1875 11 C-11.12512981 7.17047027 -10.87121166 6.52418359 -8.3125 3.375 C-7.466875 2.715 -6.62125 2.055 -5.75 1.375 C-4.10843264 -0.26656736 -2.25784199 0.08684008 0 0 Z " fill="#080808" transform="translate(625.75,273.625)"/>
<path d="M0 0 C0.66 0 1.32 0 2 0 C3.29375867 3.37420173 4.58463061 6.74950083 5.875 10.125 C6.23980469 11.07632813 6.60460937 12.02765625 6.98046875 13.0078125 C7.33496094 13.9359375 7.68945312 14.8640625 8.0546875 15.8203125 C8.37937012 16.66867676 8.70405273 17.51704102 9.03857422 18.39111328 C10.08792271 21.23858356 11.04035323 24.12105969 12 27 C4.74 27 -2.52 27 -10 27 C-9.228603 23.14301498 -8.41217319 20.26030444 -6.93359375 16.69921875 C-6.3293457 15.23452148 -6.3293457 15.23452148 -5.71289062 13.74023438 C-5.29201172 12.73283203 -4.87113281 11.72542969 -4.4375 10.6875 C-4.01275391 9.66076172 -3.58800781 8.63402344 -3.15039062 7.57617188 C-2.10429072 5.04907659 -1.05404084 2.52379106 0 0 Z " fill="#E7E5E3" transform="translate(306,830)"/>
<path d="M0 0 C10.9030837 -0.43612335 10.9030837 -0.43612335 15 3 C16.59251643 6.18503287 16.39129761 9.5332405 16 13 C14.25746655 16.23613354 13.52814056 16.82395315 10 18 C8.27204648 18.06802967 6.54164635 18.08495645 4.8125 18.0625 C3.224375 18.041875 1.63625 18.02125 0 18 C0 12.06 0 6.12 0 0 Z " fill="#E8E5E3" transform="translate(449,1339)"/>
<path d="M0 0 C1.45792884 -0.05399736 2.91642712 -0.09279177 4.375 -0.125 C5.18710937 -0.14820313 5.99921875 -0.17140625 6.8359375 -0.1953125 C9 0 9 0 11 2 C12.6777567 1.72793135 14.34450469 1.38499891 16 1 C18.75 0.875 18.75 0.875 21 1 C22 2 22 2 22.30859375 4.30078125 C21.90408344 7.83896638 20.66509931 8.82274808 18.0625 11.1875 C15.12442614 13.78710767 15.12442614 13.78710767 13 17 C8.38 17 3.76 17 -1 17 C0.24023608 13.27929177 1.95730148 12.37478909 5 10 C7.1519437 6.77208445 7.20086443 5.71599191 7 2 C3.95613276 1.91773332 1.92824652 2.02391783 -1 3 C-0.67 2.01 -0.34 1.02 0 0 Z " fill="#E7E4E1" transform="translate(532,1485)"/>
<path d="M0 0 C3.06881816 1.71904752 5.40357084 3.80714167 7 7 C6.91348369 8.54613014 6.75997364 10.08909387 6.5625 11.625 C6.46066406 12.44226562 6.35882812 13.25953125 6.25390625 14.1015625 C6.17011719 14.72804688 6.08632813 15.35453125 6 16 C3.23735711 16.59732819 0.83967231 17 -2 17 C-3.485 17.12375 -3.485 17.12375 -5 17.25 C-8 17 -8 17 -9.875 15.3125 C-11.20607683 12.57639764 -11.46233717 11.00519158 -11 8 C-9.76953125 6.359375 -9.76953125 6.359375 -8 5 C-5.73828125 4.70703125 -5.73828125 4.70703125 -3.3125 4.8125 C-1.889375 4.874375 -0.46625 4.93625 1 5 C1 8.3 1 11.6 1 15 C2.32 15 3.64 15 5 15 C4.88296543 8.73481951 4.88296543 8.73481951 1.875 3.4375 C-1.80117997 1.59941001 -3.93799222 1.34717732 -8 2 C-10.92488107 3.99140839 -12.66988282 5.41229358 -13.41015625 8.97265625 C-13.54306659 12.06426644 -13.28860013 14.47416869 -11.79296875 17.19921875 C-9.46664432 19.53567967 -8.0627656 19.58115503 -4.8125 19.75 C-3.91144531 19.80671875 -3.01039063 19.8634375 -2.08203125 19.921875 C-1.39496094 19.94765625 -0.70789063 19.9734375 0 20 C-0.33 20.66 -0.66 21.32 -1 22 C-5.87373151 22.42014927 -8.11318116 22.49984335 -12.4375 20.0625 C-15.73518395 16.12136552 -16.40632045 13.07900568 -16 8 C-12.95152941 0.61949225 -7.5996162 -1.44629374 0 0 Z " fill="#41403F" transform="translate(550,1388)"/>
<path d="M0 0 C0.66 0 1.32 0 2 0 C2 5.28 2 10.56 2 16 C5.63 16 9.26 16 13 16 C13.433125 14.659375 13.86625 13.31875 14.3125 11.9375 C15.67148964 7.84758831 17.24248654 3.93348251 19 0 C19.99 0 20.98 0 22 0 C23.17112946 2.62309099 24.33705964 5.24828142 25.5 7.875 C25.83386719 8.62136719 26.16773438 9.36773438 26.51171875 10.13671875 C26.82753906 10.85214844 27.14335938 11.56757812 27.46875 12.3046875 C27.90864258 13.2944458 27.90864258 13.2944458 28.35742188 14.30419922 C29 16 29 16 29 18 C28.34 18 27.68 18 27 18 C26.505 15.525 26.505 15.525 26 13 C24.3739713 13.06000106 22.74898451 13.1487885 21.125 13.25 C20.22007812 13.29640625 19.31515625 13.3428125 18.3828125 13.390625 C17.59648438 13.59171875 16.81015625 13.7928125 16 14 C15.34 15.32 14.68 16.64 14 18 C9.38 18 4.76 18 0 18 C0 12.06 0 6.12 0 0 Z " fill="#393837" transform="translate(628,1436)"/>
<path d="M0 0 C9.19925512 -0.48417132 9.19925512 -0.48417132 12.6875 1.625 C14 4 14 4 13.875 7.0625 C13 10 13 10 11 13 C11.99 14.65 12.98 16.3 14 18 C10.83884224 16.63016497 10.0072908 16.0109362 8 13 C4.93443402 12.26656572 4.93443402 12.26656572 2 12 C2 13.98 2 15.96 2 18 C1.34 18 0.68 18 0 18 C0 12.06 0 6.12 0 0 Z " fill="#313130" transform="translate(534,1339)"/>
<path d="M0 0 C3.4375 1.9375 3.4375 1.9375 6 5 C6.48731247 8.06750377 6.36193496 10.92355285 6 14 C4.68 14 3.36 14 2 14 C1.67 11.03 1.34 8.06 1 5 C-3.0100934 4.82135369 -3.0100934 4.82135369 -7 5 C-7.66 5.66 -8.32 6.32 -9 7 C-8.90304884 11.34194936 -8.90304884 11.34194936 -7 15 C-5.00047242 15.04346799 -2.99960012 15.039992 -1 15 C-0.01 15 0.98 15 2 15 C1.34 15.66 0.68 16.32 0 17 C0.66 17.33 1.32 17.66 2 18 C1.67 18.66 1.34 19.32 1 20 C-7.96684492 19.81176471 -7.96684492 19.81176471 -11.625 16.9375 C-13.40202232 13.14113414 -13.84881457 10.11924718 -13 6 C-9.39443173 0.35127638 -6.64247344 -0.66424734 0 0 Z " fill="#D7D4D1" transform="translate(549,1389)"/>
<path d="M0 0 C0.66 0 1.32 0 2 0 C2 5.94 2 11.88 2 18 C-5.51953125 18.390625 -5.51953125 18.390625 -8 18 C-9.8359375 16.2109375 -9.8359375 16.2109375 -11 14 C-10.67272727 7.67272727 -10.67272727 7.67272727 -8 5 C-4.9375 4.8125 -4.9375 4.8125 -2 5 C-1.67 5.33 -1.34 5.66 -1 6 C-0.67 4.02 -0.34 2.04 0 0 Z " fill="#333232" transform="translate(652,1387)"/>
<path d="M0 0 C0.66 0 1.32 0 2 0 C2 6.27 2 12.54 2 19 C-0.97 19 -3.94 19 -7 19 C-10.31301959 15.68698041 -10.81389523 14.55956692 -11 10 C-10 7.625 -10 7.625 -8 6 C-4.3125 5.75 -4.3125 5.75 -1 6 C-0.67 4.02 -0.34 2.04 0 0 Z " fill="#2D2C2C" transform="translate(561,1338)"/>
<path d="M0 0 C0.66 0 1.32 0 2 0 C2 6.27 2 12.54 2 19 C-7 19 -7 19 -9.625 17.4375 C-11.58662559 13.96007281 -10.98146759 11.78566071 -10 8 C-8 6 -8 6 -4.375 5.875 C-2.704375 5.936875 -2.704375 5.936875 -1 6 C-0.67 4.02 -0.34 2.04 0 0 Z " fill="#302F2E" transform="translate(715,1338)"/>
<path d="M0 0 C1.588125 -0.061875 3.17625 -0.12375 4.8125 -0.1875 C6.15248047 -0.23970703 6.15248047 -0.23970703 7.51953125 -0.29296875 C10 0 10 0 11.796875 1.29296875 C13.82466041 4.17005389 13.42309743 6.61522055 13 10 C11.375 12 11.375 12 9 13 C5.75 12.6875 5.75 12.6875 3 12 C2.67 13.98 2.34 15.96 2 18 C1.34 18 0.68 18 0 18 C0 12.06 0 6.12 0 0 Z " fill="#2E2E2E" transform="translate(639,1344)"/>
<path d="M0 0 C0.66 0 1.32 0 2 0 C2 5.94 2 11.88 2 18 C1.01 18 0.02 18 -1 18 C-1.969375 18.061875 -2.93875 18.12375 -3.9375 18.1875 C-7 18 -7 18 -9.375 16.875 C-11 15 -11 15 -11.5 12.0625 C-11 9 -11 9 -9.4375 6.5625 C-7 5 -7 5 -3.25 5.25 C-2.1775 5.4975 -1.105 5.745 0 6 C0 4.02 0 2.04 0 0 Z " fill="#373635" transform="translate(668,1387)"/>
<path d="M0 0 C8.13448006 -0.35887412 8.13448006 -0.35887412 11.5625 1.0625 C13.78375862 4.05637032 13.45864353 6.39637228 13 10 C9.91111478 12.05925681 9.29064073 12.2390374 5.8125 12.125 C3.9253125 12.063125 3.9253125 12.063125 2 12 C2 13.65 2 15.3 2 17 C1.34 17 0.68 17 0 17 C0 11.39 0 5.78 0 0 Z " fill="#131313" transform="translate(611,1436)"/>
<path d="M0 0 C2.4375 1.5625 2.4375 1.5625 4 4 C3.78571429 10.21428571 3.78571429 10.21428571 1 13 C-5.00458716 13.54587156 -5.00458716 13.54587156 -7.9375 11.9375 C-9.6140629 8.88023824 -9.36528977 6.4093712 -9 3 C-6.84532543 -0.71082843 -4.00794956 -0.57256422 0 0 Z " fill="#E7E4E1" transform="translate(528,1392)"/>
<path d="M0 0 C3.4375 0.8125 3.4375 0.8125 5.4375 3.8125 C5.76252803 6.93276907 5.94901479 8.95997535 4.3125 11.6875 C1.51303259 13.36718045 -0.36054064 13.26992277 -3.5625 12.8125 C-6 11.25 -6 11.25 -7.5625 8.8125 C-7.5 5.1875 -7.5 5.1875 -6.5625 1.8125 C-3.5625 -0.1875 -3.5625 -0.1875 0 0 Z " fill="#E9E6E3" transform="translate(454.5625,1392.1875)"/>
<path d="M0 0 C1.9375 1.125 1.9375 1.125 3 3 C3.5 5.9375 3.5 5.9375 3 9 C0.875 11.4375 0.875 11.4375 -2 13 C-5.1875 12.9375 -5.1875 12.9375 -8 12 C-10.31282587 8.53076119 -10.42478586 7.07794425 -10 3 C-7.72054654 -1.02256493 -4.21158603 -0.45124136 0 0 Z " fill="#E6E3E0" transform="translate(505,1344)"/>
<path d="M0 0 C1.875 1.0625 1.875 1.0625 3 3 C3.63316583 8.90954774 3.63316583 8.90954774 1.875 11.9375 C-0.88980433 13.50422245 -2.88188517 13.38976435 -6 13 C-7.875 11.9375 -7.875 11.9375 -9 10 C-9.63316583 4.09045226 -9.63316583 4.09045226 -7.875 1.0625 C-5.11019567 -0.50422245 -3.11811483 -0.38976435 0 0 Z " fill="#92908E" transform="translate(749,1392)"/>
<path d="M0 0 C0.66 0 1.32 0 2 0 C2.27714844 0.78246094 2.55429687 1.56492187 2.83984375 2.37109375 C3.20207031 3.38300781 3.56429688 4.39492187 3.9375 5.4375 C4.29714844 6.44683594 4.65679687 7.45617188 5.02734375 8.49609375 C5.76877639 10.90313745 5.76877639 10.90313745 7 12 C8.32 8.04 9.64 4.08 11 0 C11.99 0 12.98 0 14 0 C15.32 3.96 16.64 7.92 18 12 C19.39136272 9.21727456 20.56368395 6.64449832 21.625 3.75 C22.07875 2.5125 22.5325 1.275 23 0 C23.66 0 24.32 0 25 0 C21.92482916 11.52164009 21.92482916 11.52164009 20 17 C19.01 17 18.02 17 17 17 C15.68 13.37 14.36 9.74 13 6 C11.33167423 8.50248865 10.37618326 10.41149187 9.375 13.1875 C9.11460937 13.90292969 8.85421875 14.61835937 8.5859375 15.35546875 C8.29589844 16.16951172 8.29589844 16.16951172 8 17 C7.01 17 6.02 17 5 17 C4.16301614 14.54285453 3.33027576 12.08441143 2.5 9.625 C2.26152344 8.92632813 2.02304687 8.22765625 1.77734375 7.5078125 C0 2.2265625 0 2.2265625 0 0 Z " fill="#3C3B3A" transform="translate(472,1436)"/>
<path d="M0 0 C0.66 0 1.32 0 2 0 C3.32 3.96 4.64 7.92 6 12 C6.639375 10.576875 7.27875 9.15375 7.9375 7.6875 C8.47697266 6.48673828 8.47697266 6.48673828 9.02734375 5.26171875 C10.07846041 2.90510392 10.07846041 2.90510392 11 0 C11.99 0 12.98 0 14 0 C15.32 4.29 16.64 8.58 18 13 C18.598125 11.040625 19.19625 9.08125 19.8125 7.0625 C20.83203125 3.72265625 20.83203125 3.72265625 22 1 C22.99 0.67 23.98 0.34 25 0 C23.46745644 5.87475032 21.32330984 11.39473306 19 17 C18.01 16.67 17.02 16.34 16 16 C15.0859375 13.75 15.0859375 13.75 14.375 11 C13.712884 7.71560993 13.712884 7.71560993 12 5 C10.68 8.96 9.36 12.92 8 17 C7.01 17 6.02 17 5 17 C4.16080602 14.73117913 3.32848276 12.46022973 2.5 10.1875 C2.26152344 9.54490234 2.02304687 8.90230469 1.77734375 8.24023438 C0.72931254 5.35066261 0 3.09923939 0 0 Z " fill="#3A3938" transform="translate(526,1436)"/>
<path d="M0 0 C0.99 0.33 1.98 0.66 3 1 C3.9140625 3.25 3.9140625 3.25 4.625 6 C5.287116 9.28439007 5.287116 9.28439007 7 12 C8.32 8.04 9.64 4.08 11 0 C11.99 0 12.98 0 14 0 C15.32 3.96 16.64 7.92 18 12 C19.39136272 9.21727456 20.56368395 6.64449832 21.625 3.75 C22.07875 2.5125 22.5325 1.275 23 0 C23.66 0 24.32 0 25 0 C23.39334698 5.68507992 21.70695733 11.34428139 20 17 C19.01 17 18.02 17 17 17 C15.68 13.04 14.36 9.08 13 5 C11.60863728 7.78272544 10.43631605 10.35550168 9.375 13.25 C8.92125 14.4875 8.4675 15.725 8 17 C7.01 17 6.02 17 5 17 C4.16301614 14.54285453 3.33027576 12.08441143 2.5 9.625 C2.26152344 8.92632813 2.02304687 8.22765625 1.77734375 7.5078125 C0 2.2265625 0 2.2265625 0 0 Z " fill="#323130" transform="translate(499,1436)"/>
<path d="M0 0 C0.66 0 1.32 0 2 0 C3.5078125 2.1171875 3.5078125 2.1171875 5.125 4.875 C5.66382813 5.77992187 6.20265625 6.68484375 6.7578125 7.6171875 C8 10 8 10 8 12 C8.66 12 9.32 12 10 12 C10.2475 11.319375 10.495 10.63875 10.75 9.9375 C12.24197908 6.43134917 14.06835511 3.28379632 16 0 C16.66 0 17.32 0 18 0 C18 5.94 18 11.88 18 18 C17.34 18 16.68 18 16 18 C15.67 14.04 15.34 10.08 15 6 C13.35 8.97 11.7 11.94 10 15 C5.60841671 13.5361389 5.12052567 11.02168662 3 7 C2.67 10.63 2.34 14.26 2 18 C1.34 18 0.68 18 0 18 C0 12.06 0 6.12 0 0 Z " fill="#343332" transform="translate(588,1436)"/>
<path d="M0 0 C10.9030837 -0.43612335 10.9030837 -0.43612335 15 3 C16.59251643 6.18503287 16.39129761 9.5332405 16 13 C14.25746655 16.23613354 13.52814056 16.82395315 10 18 C8.27204648 18.06802967 6.54164635 18.08495645 4.8125 18.0625 C3.224375 18.041875 1.63625 18.02125 0 18 C0 12.06 0 6.12 0 0 Z M2 2 C2 6.62 2 11.24 2 16 C7.38318713 16.32133742 7.38318713 16.32133742 12.5 15 C14.53695749 12.28405669 14.57130196 10.21213324 14.375 6.875 C14.10949818 4.84637569 14.10949818 4.84637569 12.5 3 C8.87920862 1.55168345 5.88716564 1.80564172 2 2 Z " fill="#494847" transform="translate(449,1339)"/>
<path d="M0 0 C5.48076923 -0.36538462 5.48076923 -0.36538462 7.6875 1.1875 C9.45312631 3.62574585 9.30348915 5.21044507 9.1875 8.1875 C9.16042969 9.08855469 9.13335938 9.98960938 9.10546875 10.91796875 C9.07066406 11.60503906 9.03585937 12.29210938 9 13 C7.54207116 13.05399736 6.08357288 13.09279177 4.625 13.125 C3.81289063 13.14820313 3.00078125 13.17140625 2.1640625 13.1953125 C0 13 0 13 -2 11 C-1.625 8.375 -1.625 8.375 -1 6 C2.465 5.505 2.465 5.505 6 5 C6 4.01 6 3.02 6 2 C3.69 2 1.38 2 -1 2 C-0.67 1.34 -0.34 0.68 0 0 Z " fill="#3A3A39" transform="translate(629,1392)"/>
<path d="M0 0 C6.0546875 -0.1953125 6.0546875 -0.1953125 8 0 C10 2 10 2 10.1953125 4.6015625 C10.17210937 5.59929687 10.14890625 6.59703125 10.125 7.625 C10.10695313 8.62789062 10.08890625 9.63078125 10.0703125 10.6640625 C10.03550781 11.82035156 10.03550781 11.82035156 10 13 C8.741875 13.04125 7.48375 13.0825 6.1875 13.125 C5.47980469 13.14820313 4.77210938 13.17140625 4.04296875 13.1953125 C2 13 2 13 -1 11 C-0.125 6.125 -0.125 6.125 1 5 C3.33297433 4.95907063 5.66705225 4.95758277 8 5 C7.34 4.01 6.68 3.02 6 2 C2.91634129 1.7497843 2.91634129 1.7497843 0 2 C0 1.34 0 0.68 0 0 Z " fill="#40403F" transform="translate(691,1344)"/>
<path d="M0 0 C3.5625 0.3125 3.5625 0.3125 5.5 1.5625 C6.5625 3.3125 6.5625 3.3125 6.5625 7.3125 C3.2625 7.3125 -0.0375 7.3125 -3.4375 7.3125 C-3.4375 8.3025 -3.4375 9.2925 -3.4375 10.3125 C-0.4675 10.3125 2.5025 10.3125 5.5625 10.3125 C4.5725 11.3025 3.5825 12.2925 2.5625 13.3125 C-1.08484979 13.08919287 -2.82122835 12.92877165 -5.4375 10.3125 C-5.703125 8.4375 -5.703125 8.4375 -5.6875 6.3125 C-5.69265625 5.61125 -5.6978125 4.91 -5.703125 4.1875 C-5.17728713 0.47570326 -3.48462745 0.31678431 0 0 Z " fill="#383736" transform="translate(681.4375,1343.6875)"/>
<path d="M0 0 C1.875 1.25 1.875 1.25 3 3 C3 4.32 3 5.64 3 7 C-0.3 7 -3.6 7 -7 7 C-6.01 8.485 -6.01 8.485 -5 10 C-1.41642759 10.25015873 -1.41642759 10.25015873 2 10 C2 10.66 2 11.32 2 12 C-1.25 12.75 -1.25 12.75 -5 13 C-7.4375 11.4375 -7.4375 11.4375 -9 9 C-9.45742277 5.79804064 -9.55468045 3.92446741 -7.875 1.125 C-5.11909116 -0.52854531 -3.14924548 -0.39365568 0 0 Z " fill="#373635" transform="translate(607,1344)"/>
<path d="M0 0 C1.875 1.25 1.875 1.25 3 3 C3 4.32 3 5.64 3 7 C-0.3 7 -3.6 7 -7 7 C-6.01 8.485 -6.01 8.485 -5 10 C-1.41642759 10.25015873 -1.41642759 10.25015873 2 10 C2 10.66 2 11.32 2 12 C-1.25 12.75 -1.25 12.75 -5 13 C-7.4375 11.4375 -7.4375 11.4375 -9 9 C-9.45742277 5.79804064 -9.55468045 3.92446741 -7.875 1.125 C-5.11909116 -0.52854531 -3.14924548 -0.39365568 0 0 Z " fill="#333232" transform="translate(477,1344)"/>
<path d="M0 0 C1.8125 1.25 1.8125 1.25 3 3 C3 4.32 3 5.64 3 7 C-0.3 7 -3.6 7 -7 7 C-6.01 8.485 -6.01 8.485 -5 10 C-1.41642759 10.25015873 -1.41642759 10.25015873 2 10 C1.67 10.99 1.34 11.98 1 13 C-2.51903714 13.31991247 -4.42015168 13.37169764 -7.4375 11.4375 C-9 9 -9 9 -8.9375 5.375 C-7.52971909 0.30698873 -4.96041172 -0.62005147 0 0 Z " fill="#292928" transform="translate(568,1392)"/>
<path d="M0 0 C4.33333333 0 8.66666667 0 13 0 C14.546875 -0.061875 14.546875 -0.061875 16.125 -0.125 C19 0 19 0 21 2 C21.1953125 4.6015625 21.1953125 4.6015625 21.125 7.625 C21.10695313 8.62789062 21.08890625 9.63078125 21.0703125 10.6640625 C21.04710937 11.43492188 21.02390625 12.20578125 21 13 C20.34 13 19.68 13 19 13 C18.505 8.05 18.505 8.05 18 3 C16.35 3 14.7 3 13 3 C11.41727399 4.58272601 11.65264253 6.38034003 11.4375 8.5625 C11.35371094 9.38878906 11.26992188 10.21507812 11.18359375 11.06640625 C11.12300781 11.70449219 11.06242188 12.34257813 11 13 C10.67 13 10.34 13 10 13 C9.93941406 12.36191406 9.87882813 11.72382812 9.81640625 11.06640625 C9.73261719 10.24011719 9.64882813 9.41382813 9.5625 8.5625 C9.48128906 7.73878906 9.40007813 6.91507813 9.31640625 6.06640625 C9.21069185 4.01337975 9.21069185 4.01337975 8 3 C6.35 3 4.7 3 3 3 C2.67 6.3 2.34 9.6 2 13 C1.34 13 0.68 13 0 13 C0 8.71 0 4.42 0 0 Z " fill="#31302F" transform="translate(756,1392)"/>
<path d="M0 0 C1.8125 1.25 1.8125 1.25 3 3 C3 4.32 3 5.64 3 7 C-0.3 7 -3.6 7 -7 7 C-7 7.99 -7 8.98 -7 10 C-4.03 10 -1.06 10 2 10 C1.67 10.99 1.34 11.98 1 13 C-2.51903714 13.31991247 -4.42015168 13.37169764 -7.4375 11.4375 C-9 9 -9 9 -8.9375 5.375 C-7.52971909 0.30698873 -4.96041172 -0.62005147 0 0 Z " fill="#2F2E2E" transform="translate(692,1392)"/>
<path d="M0 0 C2.875 -0.125 2.875 -0.125 6 0 C8 2 8 2 8.1953125 4.6015625 C8.17210937 5.59929687 8.14890625 6.59703125 8.125 7.625 C8.10695313 8.62789062 8.08890625 9.63078125 8.0703125 10.6640625 C8.03550781 11.82035156 8.03550781 11.82035156 8 13 C6.52093108 13.02689216 5.04172517 13.04634621 3.5625 13.0625 C2.32693359 13.07990234 2.32693359 13.07990234 1.06640625 13.09765625 C-1 13 -1 13 -2 12 C-2.25 9.5625 -2.25 9.5625 -2 7 C1.22791555 4.8480563 2.28400809 4.79913557 6 5 C6 4.01 6 3.02 6 2 C3.69 2 1.38 2 -1 2 C-0.67 1.34 -0.34 0.68 0 0 Z " fill="#3A3A39" transform="translate(602,1392)"/>
<path d="M0 0 C4.33333333 0 8.66666667 0 13 0 C14.546875 -0.0928125 14.546875 -0.0928125 16.125 -0.1875 C17.07375 -0.125625 18.0225 -0.06375 19 0 C21.20914 3.31371 21.22481553 4.3446021 21.125 8.1875 C21.10695313 9.08855469 21.08890625 9.98960938 21.0703125 10.91796875 C21.04710937 11.60503906 21.02390625 12.29210938 21 13 C20.34 13 19.68 13 19 13 C18.505 8.05 18.505 8.05 18 3 C16.35 3 14.7 3 13 3 C11.41727399 4.58272601 11.65264253 6.38034003 11.4375 8.5625 C11.35371094 9.38878906 11.26992188 10.21507812 11.18359375 11.06640625 C11.12300781 11.70449219 11.06242188 12.34257813 11 13 C10.67 13 10.34 13 10 13 C9.93941406 12.36191406 9.87882813 11.72382812 9.81640625 11.06640625 C9.73261719 10.24011719 9.64882813 9.41382813 9.5625 8.5625 C9.48128906 7.73878906 9.40007813 6.91507813 9.31640625 6.06640625 C9.21069185 4.01337975 9.21069185 4.01337975 8 3 C6.35 3 4.7 3 3 3 C2.67 6.3 2.34 9.6 2 13 C1.34 13 0.68 13 0 13 C0 8.71 0 4.42 0 0 Z " fill="#2A2A29" transform="translate(575,1392)"/>
<path d="M0 0 C4 0 8 0 12 0 C13.175625 -0.061875 14.35125 -0.12375 15.5625 -0.1875 C16.696875 -0.125625 17.83125 -0.06375 19 0 C21.20914 3.31371 21.22481553 4.3446021 21.125 8.1875 C21.10695313 9.08855469 21.08890625 9.98960938 21.0703125 10.91796875 C21.04710937 11.60503906 21.02390625 12.29210938 21 13 C20.34 13 19.68 13 19 13 C18.505 8.05 18.505 8.05 18 3 C14.36380344 1.91915479 14.36380344 1.91915479 12 2 C11.67 5.63 11.34 9.26 11 13 C10.34 13 9.68 13 9 13 C8.67 9.7 8.34 6.4 8 3 C6.68 2.67 5.36 2.34 4 2 C1.60236815 4.39763185 1.65719414 5.33273498 1.375 8.625 C1.30023437 9.44226562 1.22546875 10.25953125 1.1484375 11.1015625 C1.07496094 12.04128906 1.07496094 12.04128906 1 13 C0.67 13 0.34 13 0 13 C0 8.71 0 4.42 0 0 Z " fill="#242323" transform="translate(614,1344)"/>
<path d="M0 0 C0.66 0 1.32 0 2 0 C2 5.94 2 11.88 2 18 C-1.93313346 16.68895551 -3.36757006 14.17504178 -5.6875 10.9375 C-6.10322266 10.36966797 -6.51894531 9.80183594 -6.94726562 9.21679688 C-7.97140082 7.81596827 -8.98657535 6.40859652 -10 5 C-10.33 9.29 -10.66 13.58 -11 18 C-11.33 18 -11.66 18 -12 18 C-12 12.39 -12 6.78 -12 1 C-6.59936566 3.70031717 -4.58713322 7.17116682 -1 12 C-0.67 8.04 -0.34 4.08 0 0 Z " fill="#31302F" transform="translate(746,1339)"/>
<path d="M0 0 C3.91797501 3.91797501 7.44527519 7.78393104 11 12 C11.33 8.04 11.66 4.08 12 0 C12.66 0 13.32 0 14 0 C14 5.94 14 11.88 14 18 C10.06686654 16.68895551 8.63242994 14.17504178 6.3125 10.9375 C5.89677734 10.36966797 5.48105469 9.80183594 5.05273438 9.21679688 C4.02859918 7.81596827 3.01342465 6.40859652 2 5 C1.67 8.96 1.34 12.92 1 17 C0.67 17 0.34 17 0 17 C0 11.39 0 5.78 0 0 Z " fill="#181717" transform="translate(695,1436)"/>
<path d="M0 0 C3.96 0 7.92 0 12 0 C12 0.66 12 1.32 12 2 C8.7 2 5.4 2 2 2 C2 3.98 2 5.96 2 8 C4.97 8 7.94 8 11 8 C11 8.33 11 8.66 11 9 C8.03 9 5.06 9 2 9 C2 11.31 2 13.62 2 16 C5.3 16 8.6 16 12 16 C12 16.66 12 17.32 12 18 C8.04 18 4.08 18 0 18 C0 12.06 0 6.12 0 0 Z " fill="#2F2F2E" transform="translate(714,1436)"/>
<path d="M0 0 C3.96 0 7.92 0 12 0 C12 0.66 12 1.32 12 2 C8.7 2 5.4 2 2 2 C2 3.98 2 5.96 2 8 C4.64 8 7.28 8 10 8 C10 8.33 10 8.66 10 9 C7.36 9 4.72 9 2 9 C2 11.31 2 13.62 2 16 C5.3 16 8.6 16 12 16 C12 16.66 12 17.32 12 18 C8.04 18 4.08 18 0 18 C0 12.06 0 6.12 0 0 Z " fill="#2F2F2E" transform="translate(572,1436)"/>
<path d="M0 0 C0.66 0 1.32 0 2 0 C2 5.94 2 11.88 2 18 C1.34 18 0.68 18 0 18 C0 15.36 0 12.72 0 10 C-3.3 10 -6.6 10 -10 10 C-10 12.64 -10 15.28 -10 18 C-10.66 18 -11.32 18 -12 18 C-12 12.39 -12 6.78 -12 1 C-11.67 1 -11.34 1 -11 1 C-11 3.31 -11 5.62 -11 8 C-7.37 8 -3.74 8 0 8 C0 5.36 0 2.72 0 0 Z " fill="#2B2A2A" transform="translate(592,1339)"/>
<path d="M0 0 C6.0546875 -0.1953125 6.0546875 -0.1953125 8 0 C8.66 0.66 9.32 1.32 10 2 C9.75 5.0625 9.75 5.0625 9 8 C6.04335481 9.4783226 3.25770263 9.06032783 0 9 C0 6.03 0 3.06 0 0 Z " fill="#E2DFDC" transform="translate(536,1341)"/>
<path d="M0 0 C1 1 1 1 1.1875 3.9375 C1 7 1 7 -1 9 C-3.5 9.25 -3.5 9.25 -6 9 C-6.66 8.34 -7.32 7.68 -8 7 C-7.75 3.4375 -7.75 3.4375 -7 0 C-4.31633121 -1.3418344 -2.84719317 -0.73004953 0 0 Z " fill="#E5E2DF" transform="translate(714,1346)"/>
<path d="M0 0 C1 1 1 1 1.1875 3.9375 C1 7 1 7 -1 9 C-3.5 9.3125 -3.5 9.3125 -6 9 C-8 6 -8 6 -7.75 2.875 C-7.37875 1.451875 -7.37875 1.451875 -7 0 C-4.31633121 -1.3418344 -2.84719317 -0.73004953 0 0 Z " fill="#E6E3E1" transform="translate(560,1346)"/>
<path d="M0 0 C1.27875 -0.061875 2.5575 -0.12375 3.875 -0.1875 C4.95394531 -0.23970703 4.95394531 -0.23970703 6.0546875 -0.29296875 C6.69664062 -0.19628906 7.33859375 -0.09960938 8 0 C10 3 10 3 9.6875 5.125 C9 7 9 7 8 8 C5.32941149 8.14115161 2.67567762 8.04247107 0 8 C0 5.36 0 2.72 0 0 Z " fill="#E9E6E3" transform="translate(613,1438)"/>
<path d="M0 0 C4.55555556 0.55555556 4.55555556 0.55555556 6 2 C6.1875 4.9375 6.1875 4.9375 6 8 C4 10 4 10 1.5 10.3125 C0.2625 10.1578125 0.2625 10.1578125 -1 10 C-3 7 -3 7 -2.75 4.4375 C-2 2 -2 2 0 0 Z " fill="#E7E4E1" transform="translate(644,1345)"/>
<path d="M0 0 C3.96 0 7.92 0 12 0 C12 0.66 12 1.32 12 2 C8.7 2 5.4 2 2 2 C2 3.98 2 5.96 2 8 C4.64 8 7.28 8 10 8 C10 8.33 10 8.66 10 9 C7.36 9 4.72 9 2 9 C2 11.31 2 13.62 2 16 C5.3 16 8.6 16 12 16 C12 16.33 12 16.66 12 17 C8.04 17 4.08 17 0 17 C0 11.39 0 5.78 0 0 Z " fill="#212020" transform="translate(673,1436)"/>
<path d="M0 0 C3 0.125 3 0.125 4 1.125 C4.125 4.625 4.125 4.625 4 8.125 C3 9.125 3 9.125 0.0625 9.3125 C-3 9.125 -3 9.125 -5 7.125 C-4.2912041 0.17880017 -4.2912041 0.17880017 0 0 Z " fill="#E5E2DF" transform="translate(664,1393.875)"/>
<path d="M0 0 C1.47906892 -0.02689216 2.95827483 -0.04634621 4.4375 -0.0625 C5.26121094 -0.07410156 6.08492187 -0.08570313 6.93359375 -0.09765625 C9 0 9 0 10 1 C10.47014607 4.42534997 10.80050156 6.92644106 8.66015625 9.796875 C7.17225365 11.26727286 5.5906036 12.64135943 4 14 C6.31 14.33 8.62 14.66 11 15 C11 15.66 11 16.32 11 17 C7.04 17 3.08 17 -1 17 C0.24023608 13.27929177 1.95730148 12.37478909 5 10 C7.1519437 6.77208445 7.20086443 5.71599191 7 2 C3.95613276 1.91773332 1.92824652 2.02391783 -1 3 C-0.67 2.01 -0.34 1.02 0 0 Z " fill="#3C3B3B" transform="translate(532,1485)"/>
<path d="M0 0 C6.0546875 -0.1953125 6.0546875 -0.1953125 8 0 C10 2 10 2 10.5 4.1875 C9.7382828 8.47215926 6.96271229 10.94029415 4 14 C6.31 14.33 8.62 14.66 11 15 C11 15.66 11 16.32 11 17 C7.04 17 3.08 17 -1 17 C0.71987391 13.56025217 1.43589163 12.40735054 4.125 10.0625 C6.68763097 7.63297268 6.68763097 7.63297268 7.375 4.125 C7.25125 3.42375 7.1275 2.7225 7 2 C4.36 2.33 1.72 2.66 -1 3 C-0.67 2.01 -0.34 1.02 0 0 Z " fill="#323130" transform="translate(546,1485)"/>
<path d="M0 0 C2.4375 1.5625 2.4375 1.5625 4 4 C3.78571429 10.21428571 3.78571429 10.21428571 1 13 C-5.00458716 13.54587156 -5.00458716 13.54587156 -7.9375 11.9375 C-9.6140629 8.88023824 -9.36528977 6.4093712 -9 3 C-6.84532543 -0.71082843 -4.00794956 -0.57256422 0 0 Z M-7 4 C-7.25005386 7.04182893 -7.25005386 7.04182893 -7 10 C-5.81575674 11.41577477 -5.81575674 11.41577477 -2.4375 11.0625 C-0.7359375 11.0315625 -0.7359375 11.0315625 1 11 C1.67673447 7.59679066 1.67673447 7.59679066 2 4 C0.17296773 1.7508092 0.17296773 1.7508092 -2.5 1.75 C-5.17296773 1.7508092 -5.17296773 1.7508092 -7 4 Z " fill="#313130" transform="translate(528,1392)"/>
<path d="M0 0 C2.5 0.25 2.5 0.25 4.5 2.25 C4.75 4.75 4.75 4.75 4.5 7.25 C2.5 9.25 2.5 9.25 -0.625 9.375 C-2.048125 9.313125 -2.048125 9.313125 -3.5 9.25 C-4.125 5.875 -4.125 5.875 -4.5 2.25 C-2.5 0.25 -2.5 0.25 0 0 Z " fill="#E9E6E3" transform="translate(647.5,1393.75)"/>
<path d="M0 0 C3.4375 0.8125 3.4375 0.8125 5.4375 3.8125 C5.76252803 6.93276907 5.94901479 8.95997535 4.3125 11.6875 C1.51303259 13.36718045 -0.36054064 13.26992277 -3.5625 12.8125 C-6 11.25 -6 11.25 -7.5625 8.8125 C-7.5 5.1875 -7.5 5.1875 -6.5625 1.8125 C-3.5625 -0.1875 -3.5625 -0.1875 0 0 Z M-5.5625 3.8125 C-5.89583333 6.3125 -5.89583333 6.3125 -5.5625 8.8125 C-3.66494856 11.16223818 -3.66494856 11.16223818 -0.4375 10.9375 C0.51125 10.89625 1.46 10.855 2.4375 10.8125 C3.11423447 7.40929066 3.11423447 7.40929066 3.4375 3.8125 C1.61046773 1.5633092 1.61046773 1.5633092 -1.0625 1.5625 C-3.73546773 1.5633092 -3.73546773 1.5633092 -5.5625 3.8125 Z " fill="#3B3B3A" transform="translate(454.5625,1392.1875)"/>
<path d="M0 0 C6.0546875 -0.1953125 6.0546875 -0.1953125 8 0 C10 2 10 2 10 4.6875 C8.66785981 9.10021437 6.16146965 11.73218122 3 15 C5.64 15 8.28 15 11 15 C11 15.66 11 16.32 11 17 C7.04 17 3.08 17 -1 17 C0.93947833 13.12104334 2.89514751 10.83169812 5.85546875 7.78125 C7.25304456 6.03475989 7.25304456 6.03475989 6.67578125 3.78125 C6.34126953 2.89953125 6.34126953 2.89953125 6 2 C3.69 2.33 1.38 2.66 -1 3 C-0.67 2.01 -0.34 1.02 0 0 Z " fill="#31302F" transform="translate(560,1485)"/>
<path d="M0 0 C3.3 0 6.6 0 10 0 C10 0.33 10 0.66 10 1 C7.36 1 4.72 1 2 1 C2 2.98 2 4.96 2 7 C2.928125 6.938125 3.85625 6.87625 4.8125 6.8125 C8 7 8 7 9.9375 8.1875 C11 10 11 10 10.875 12.5625 C10 15 10 15 7 17 C1.65454545 17.32727273 1.65454545 17.32727273 -1 16 C-1 15.34 -1 14.68 -1 14 C1.64 14 4.28 14 7 14 C7.33 12.68 7.66 11.36 8 10 C5.36 9.34 2.72 8.68 0 8 C0 5.36 0 2.72 0 0 Z " fill="#232222" transform="translate(580,1485)"/>
<path d="M0 0 C2.4375 0.1875 2.4375 0.1875 3.4375 1.1875 C3.5625 4.6875 3.5625 4.6875 3.4375 8.1875 C2.4375 9.1875 2.4375 9.1875 -0.625 9.25 C-1.594375 9.229375 -2.56375 9.20875 -3.5625 9.1875 C-4.1875 5.8125 -4.1875 5.8125 -4.5625 2.1875 C-2.5625 0.1875 -2.5625 0.1875 0 0 Z " fill="#E8E5E2" transform="translate(545.5625,1393.8125)"/>
<path d="M0 0 C1.423125 -0.061875 2.84625 -0.12375 4.3125 -0.1875 C5.51326172 -0.23970703 5.51326172 -0.23970703 6.73828125 -0.29296875 C9 0 9 0 10.78125 1.1875 C12.42341401 3.62969263 12.30107677 5.27236294 12.1875 8.1875 C12.16042969 9.08855469 12.13335937 9.98960938 12.10546875 10.91796875 C12.07066406 11.60503906 12.03585937 12.29210938 12 13 C11.34 13 10.68 13 10 13 C9.67 9.7 9.34 6.4 9 3 C6.03 2.505 6.03 2.505 3 2 C2.67 5.63 2.34 9.26 2 13 C1.34 13 0.68 13 0 13 C0 8.71 0 4.42 0 0 Z " fill="#302F2F" transform="translate(496,1392)"/>
<path d="M0 0 C1.9375 1.125 1.9375 1.125 3 3 C3.5 5.9375 3.5 5.9375 3 9 C0.875 11.4375 0.875 11.4375 -2 13 C-5.1875 12.9375 -5.1875 12.9375 -8 12 C-10.31282587 8.53076119 -10.42478586 7.07794425 -10 3 C-7.72054654 -1.02256493 -4.21158603 -0.45124136 0 0 Z M-8 3 C-8.41666667 6 -8.41666667 6 -8 9 C-6.17084359 11.23845015 -6.17084359 11.23845015 -3.5 11.3125 C-2.675 11.209375 -1.85 11.10625 -1 11 C1.36692966 8.15173402 1.36692966 8.15173402 0.625 4.8125 C0.41875 3.884375 0.2125 2.95625 0 2 C-4.17810069 0.81068813 -4.17810069 0.81068813 -8 3 Z " fill="#2B2A2A" transform="translate(505,1344)"/>
<path d="M0 0 C1.60875 -0.04125 3.2175 -0.0825 4.875 -0.125 C5.77992188 -0.14820313 6.68484375 -0.17140625 7.6171875 -0.1953125 C10 0 10 0 12 2 C12.1953125 4.6015625 12.1953125 4.6015625 12.125 7.625 C12.10695313 8.62789062 12.08890625 9.63078125 12.0703125 10.6640625 C12.03550781 11.82035156 12.03550781 11.82035156 12 13 C11.34 13 10.68 13 10 13 C9.67 9.7 9.34 6.4 9 3 C5.25308553 1.60229416 5.25308553 1.60229416 3 3 C2.53248212 5.35599235 2.53248212 5.35599235 2.375 8.0625 C2.30023437 8.98160156 2.22546875 9.90070313 2.1484375 10.84765625 C2.09945312 11.55792969 2.05046875 12.26820312 2 13 C1.34 13 0.68 13 0 13 C0 8.71 0 4.42 0 0 Z " fill="#323231" transform="translate(511,1344)"/>
<path d="M0 0 C2.97 0 5.94 0 9 0 C9 0.33 9 0.66 9 1 C6.69 1.33 4.38 1.66 2 2 C1.67 3.65 1.34 5.3 1 7 C2.11375 6.95875 3.2275 6.9175 4.375 6.875 C8 7 8 7 10 9 C10.3125 12 10.3125 12 10 15 C6.53076119 17.31282587 5.07794425 17.42478586 1 17 C0.01 16.01 -0.98 15.02 -2 14 C0.97 14 3.94 14 7 14 C7.33 12.35 7.66 10.7 8 9 C5.03 8.67 2.06 8.34 -1 8 C-0.67 5.36 -0.34 2.72 0 0 Z " fill="#262625" transform="translate(594,1485)"/>
<path d="M0 0 C4.62 0 9.24 0 14 0 C14 0.66 14 1.32 14 2 C12.02 2 10.04 2 8 2 C8 7.28 8 12.56 8 18 C7.34 18 6.68 18 6 18 C6 12.72 6 7.44 6 2 C4.02 2 2.04 2 0 2 C0 1.34 0 0.68 0 0 Z " fill="#313030" transform="translate(656,1436)"/>
<path d="M0 0 C0.66 0 1.32 0 2 0 C2 5.28 2 10.56 2 16 C5.63 16 9.26 16 13 16 C13.33 16.66 13.66 17.32 14 18 C9.38 18 4.76 18 0 18 C0 12.06 0 6.12 0 0 Z " fill="#383837" transform="translate(628,1436)"/>
<path d="M0 0 C3.44216672 2.6598561 3.99504674 5.90288286 5 10 C5.66 10 6.32 10 7 10 C7.12375 9.278125 7.2475 8.55625 7.375 7.8125 C7.9904931 5.04278106 8.88444374 2.6029646 10 0 C10.66 0 11.32 0 12 0 C7.6 14.4 7.6 14.4 4 18 C2.33382885 18.04063832 0.66611905 18.042721 -1 18 C-1 17.34 -1 16.68 -1 16 C0.65 16 2.3 16 4 16 C3.49874897 10.98748969 2.32174011 7.44158978 0 3 C0 2.01 0 1.02 0 0 Z " fill="#2F2E2E" transform="translate(434,1392)"/>
<path d="M0 0 C4.62 0 9.24 0 14 0 C14 0.66 14 1.32 14 2 C12.02 2 10.04 2 8 2 C8 6.95 8 11.9 8 17 C7.34 17 6.68 17 6 17 C6 12.05 6 7.1 6 2 C4.02 2 2.04 2 0 2 C0 1.34 0 0.68 0 0 Z " fill="#262525" transform="translate(555,1436)"/>
<path d="M0 0 C0.66 0 1.32 0 2 0 C3.65 2.97 5.3 5.94 7 9 C7.40992188 8.3503125 7.81984375 7.700625 8.2421875 7.03125 C8.78101563 6.1959375 9.31984375 5.360625 9.875 4.5 C10.40867187 3.6646875 10.94234375 2.829375 11.4921875 1.96875 C11.98976563 1.3190625 12.48734375 0.669375 13 0 C13.66 0 14.32 0 15 0 C13.77295171 2.55635061 12.44175157 4.89658082 10.9375 7.3125 C8.85603341 10.88736084 8.33470869 13.89981861 8 18 C7.34 18 6.68 18 6 18 C5.9071875 16.2675 5.9071875 16.2675 5.8125 14.5 C5.29722409 10.11234754 3.5701854 7.23578773 1.05859375 3.6640625 C0 2 0 2 0 0 Z " fill="#31302F" transform="translate(751,1339)"/>
<path d="M0 0 C1.134375 0.020625 2.26875 0.04125 3.4375 0.0625 C3.7675 0.7225 4.0975 1.3825 4.4375 2.0625 C3.303125 2.18625 2.16875 2.31 1 2.4375 C-0.7634375 2.746875 -0.7634375 2.746875 -2.5625 3.0625 C-2.8925 3.7225 -3.2225 4.3825 -3.5625 5.0625 C-2.428125 5.206875 -1.29375 5.35125 -0.125 5.5 C3.4375 6.0625 3.4375 6.0625 4.4375 7.0625 C4.5625 9.5625 4.5625 9.5625 4.4375 12.0625 C3.4375 13.0625 3.4375 13.0625 -0.125 13.125 C-1.259375 13.104375 -2.39375 13.08375 -3.5625 13.0625 C-3.8925 12.4025 -4.2225 11.7425 -4.5625 11.0625 C-2.2525 11.0625 0.0575 11.0625 2.4375 11.0625 C2.4375 10.0725 2.4375 9.0825 2.4375 8.0625 C0.1275 7.4025 -2.1825 6.7425 -4.5625 6.0625 C-4.605221 4.39638095 -4.60313832 2.72867115 -4.5625 1.0625 C-3.5625 0.0625 -3.5625 0.0625 0 0 Z " fill="#3D3C3B" transform="translate(714.5625,1391.9375)"/>
<path d="M0 0 C0.94875 0.04125 1.8975 0.0825 2.875 0.125 C3.205 0.785 3.535 1.445 3.875 2.125 C1.565 2.125 -0.745 2.125 -3.125 2.125 C-2.795 3.115 -2.465 4.105 -2.125 5.125 C-1.135 5.434375 -0.145 5.74375 0.875 6.0625 C3.875 7.125 3.875 7.125 4.875 9.125 C4.875 9.785 4.875 10.445 4.875 11.125 C2.875 13.125 2.875 13.125 -0.75 13.25 C-1.86375 13.20875 -2.9775 13.1675 -4.125 13.125 C-4.455 12.465 -4.785 11.805 -5.125 11.125 C-2.485 11.125 0.155 11.125 2.875 11.125 C2.875 10.135 2.875 9.145 2.875 8.125 C0.565 7.795 -1.745 7.465 -4.125 7.125 C-4.75 4.75 -4.75 4.75 -5.125 2.125 C-3.125 0.125 -3.125 0.125 0 0 Z " fill="#353433" transform="translate(703.125,1391.875)"/>
<path d="M0 0 C0.66 0.99 1.32 1.98 2 3 C0.700625 2.979375 -0.59875 2.95875 -1.9375 2.9375 C-3.29165633 2.91600546 -4.64756083 2.92851801 -6 3 C-7.28322547 4.0595877 -7.28322547 4.0595877 -7.125 6.5 C-7.28322547 8.9404123 -7.28322547 8.9404123 -6 10 C-3.66702567 10.04092937 -1.33294775 10.04241723 1 10 C0.67 10.99 0.34 11.98 0 13 C-3.51903714 13.31991247 -5.42015168 13.37169764 -8.4375 11.4375 C-10 9 -10 9 -9.9375 5.375 C-8.39012971 -0.19553306 -5.30693567 -0.56456762 0 0 Z " fill="#373635" transform="translate(736,1392)"/>
<path d="M0 0 C0.33 0 0.66 0 1 0 C1.33 3.3 1.66 6.6 2 10 C3.98 10 5.96 10 8 10 C8.33 6.7 8.66 3.4 9 0 C9.66 0 10.32 0 11 0 C11 4.29 11 8.58 11 13 C4.1640625 13.1953125 4.1640625 13.1953125 2 13 C0 11 0 11 -0.1953125 8.3984375 C-0.17210937 7.40070313 -0.14890625 6.40296875 -0.125 5.375 C-0.10695313 4.37210938 -0.08890625 3.36921875 -0.0703125 2.3359375 C-0.04710937 1.56507812 -0.02390625 0.79421875 0 0 Z " fill="#2A2A29" transform="translate(464,1392)"/>
<path d="M0 0 C4.29 0 8.58 0 13 0 C8.85714286 11.71428571 8.85714286 11.71428571 6 17 C5.34 17 4.68 17 4 17 C5.74807129 11.53262809 7.65794081 6.24175152 10 1 C7.36 1 4.72 1 2 1 C2 1.99 2 2.98 2 4 C1.34 4 0.68 4 0 4 C0 2.68 0 1.36 0 0 Z " fill="#292928" transform="translate(640,1485)"/>
<path d="M0 0 C3.96 0 7.92 0 12 0 C10.12270561 5.72127814 8.14779635 11.37481909 6 17 C5.34 17 4.68 17 4 17 C4.62816498 13.05050296 5.8645529 9.80107972 7.5625 6.1875 C8.01753906 5.21167969 8.47257813 4.23585938 8.94140625 3.23046875 C9.29074219 2.49441406 9.64007812 1.75835938 10 1 C7.36 1 4.72 1 2 1 C2 1.99 2 2.98 2 4 C1.34 4 0.68 4 0 4 C0 2.68 0 1.36 0 0 Z " fill="#171717" transform="translate(626,1485)"/>
<path d="M0 0 C2.0625 0.4375 2.0625 0.4375 4 1 C3.01 1.33 2.02 1.66 1 2 C0.67 2.99 0.34 3.98 0 5 C1.32 5 2.64 5 4 5 C4 5.66 4 6.32 4 7 C2.68 7 1.36 7 0 7 C0 10.63 0 14.26 0 18 C-0.66 18 -1.32 18 -2 18 C-2 14.37 -2 10.74 -2 7 C-2.66 7 -3.32 7 -4 7 C-4 6.34 -4 5.68 -4 5 C-3.34 5 -2.68 5 -2 5 C-1.7834375 4.0409375 -1.7834375 4.0409375 -1.5625 3.0625 C-1 1 -1 1 0 0 Z " fill="#3E3D3C" transform="translate(514,1387)"/>
<path d="M0 0 C3.96 0 7.92 0 12 0 C10.53012914 6.14673271 7.94033413 11.42234327 5 17 C4.34 17 3.68 17 3 17 C4.72066106 11.55123997 6.84705349 6.28830549 9 1 C6.36 1 3.72 1 1 1 C0.67 1.99 0.34 2.98 0 4 C0 2.68 0 1.36 0 0 Z " fill="#262525" transform="translate(655,1485)"/>
<path d="M0 0 C3 1 3 1 4.16796875 2.84765625 C5.11197917 4.8984375 6.05598958 6.94921875 7 9 C8.32 6.03 9.64 3.06 11 0 C11.66 0.33 12.32 0.66 13 1 C11.35 4.96 9.7 8.92 8 13 C7.01 13 6.02 13 5 13 C3.35 8.71 1.7 4.42 0 0 Z " fill="#2B2B2A" transform="translate(481,1344)"/>
<path d="M0 0 C3.96 0 7.92 0 12 0 C10.11994266 6.01618347 7.93937169 11.42532955 5 17 C4.34 16.67 3.68 16.34 3 16 C3.78767592 14.06087416 4.5802867 12.12375234 5.375 10.1875 C5.81585937 9.10855469 6.25671875 8.02960938 6.7109375 6.91796875 C8 4 8 4 10 1 C7.03 1 4.06 1 1 1 C0.67 1.99 0.34 2.98 0 4 C0 2.68 0 1.36 0 0 Z " fill="#212120" transform="translate(669,1485)"/>
<path d="M0 0 C10.19694397 -0.48556876 10.19694397 -0.48556876 13.6875 1.625 C15.32796316 4.59345714 15.30375856 6.65865579 15 10 C14.7525 9.4225 14.505 8.845 14.25 8.25 C12.73128177 5.51630719 11.50274557 3.90999004 9 2 C6.29826383 1.37373548 3.78474374 1.18564958 1 1 C1 5.95 1 10.9 1 16 C0.67 16 0.34 16 0 16 C0 10.72 0 5.44 0 0 Z " fill="#121211" transform="translate(450,1340)"/>
<path d="M0 0 C0.66 0 1.32 0 2 0 C2 0.99 2 1.98 2 3 C3.32 3.33 4.64 3.66 6 4 C4.68 4 3.36 4 2 4 C2 7.3 2 10.6 2 14 C3.32 14.33 4.64 14.66 6 15 C4.125 15.625 4.125 15.625 2 16 C0 14 0 14 -0.1953125 11.6171875 C-0.17210937 10.71226563 -0.14890625 9.80734375 -0.125 8.875 C-0.10695313 7.96492188 -0.08890625 7.05484375 -0.0703125 6.1171875 C-0.04710937 5.41851563 -0.02390625 4.71984375 0 4 C-0.66 3.67 -1.32 3.34 -2 3 C-1.34 3 -0.68 3 0 3 C0 2.01 0 1.02 0 0 Z " fill="#2F2F2E" transform="translate(668,1341)"/>
<path d="M0 0 C0.66 0 1.32 0 2 0 C-1.07517084 11.52164009 -1.07517084 11.52164009 -3 17 C-3.99 17 -4.98 17 -6 17 C-6.33 15.02 -6.66 13.04 -7 11 C-6.01 11.33 -5.02 11.66 -4 12 C-2.68 8.04 -1.36 4.08 0 0 Z " fill="#2D2C2C" transform="translate(495,1436)"/>
<path d="M0 0 C0.66 0 1.32 0 2 0 C2 5.94 2 11.88 2 18 C1.01 17.67 0.02 17.34 -1 17 C-1.6875 14.9375 -1.6875 14.9375 -2 13 C-1.67 13 -1.34 13 -1 13 C-0.67 8.71 -0.34 4.42 0 0 Z " fill="#363534" transform="translate(707,1436)"/>
<path d="M0 0 C0.66 0 1.32 0 2 0 C3.04167441 4.09725269 2.94409525 7.61495224 2.5625 11.8125 C2.46066406 12.97394531 2.35882812 14.13539062 2.25390625 15.33203125 C2.17011719 16.21246094 2.08632813 17.09289063 2 18 C1.34 18 0.68 18 0 18 C0 12.06 0 6.12 0 0 Z " fill="#2D2C2B" transform="translate(588,1436)"/>
<path d="M0 0 C0.66 0 1.32 0 2 0 C2.67260351 1.76858691 3.33788395 3.53996016 4 5.3125 C4.37125 6.29863281 4.7425 7.28476563 5.125 8.30078125 C6 11 6 11 6 14 C6.66 14 7.32 14 8 14 C8 14.99 8 15.98 8 17 C7.01 17 6.02 17 5 17 C4.16301614 14.54285453 3.33027576 12.08441143 2.5 9.625 C2.26152344 8.92632813 2.02304687 8.22765625 1.77734375 7.5078125 C0 2.2265625 0 2.2265625 0 0 Z " fill="#2D2C2C" transform="translate(472,1436)"/>
<path d="M0 0 C0.66 0 1.32 0 2 0 C2.67031719 1.9570868 3.33614683 3.91571113 4 5.875 C4.556875 7.51082031 4.556875 7.51082031 5.125 9.1796875 C6 12 6 12 6 14 C6.66 14 7.32 14 8 14 C8 14.99 8 15.98 8 17 C7.01 17 6.02 17 5 17 C4.16080602 14.73117913 3.32848276 12.46022973 2.5 10.1875 C2.26152344 9.54490234 2.02304687 8.90230469 1.77734375 8.24023438 C0.72931254 5.35066261 0 3.09923939 0 0 Z " fill="#2A2929" transform="translate(526,1436)"/>
<path d="M0 0 C2.97 0 5.94 0 9 0 C7 2 7 2 3 3 C2.67 6.3 2.34 9.6 2 13 C1.34 13 0.68 13 0 13 C0 8.71 0 4.42 0 0 Z " fill="#353434" transform="translate(575,1392)"/>
<path d="M0 0 C3.375 -0.1875 3.375 -0.1875 7 0 C9.20914 3.31371 9.22481553 4.3446021 9.125 8.1875 C9.10695313 9.08855469 9.08890625 9.98960938 9.0703125 10.91796875 C9.03550781 11.94857422 9.03550781 11.94857422 9 13 C8.34 13 7.68 13 7 13 C6.67 9.7 6.34 6.4 6 3 C2.36380344 1.91915479 2.36380344 1.91915479 0 2 C-0.33 2.66 -0.66 3.32 -1 4 C-0.67 2.68 -0.34 1.36 0 0 Z " fill="#353534" transform="translate(626,1344)"/>
<path d="M0 0 C0.6875 1.8125 0.6875 1.8125 1 4 C-0.0625 5.75 -0.0625 5.75 -2 7 C-5.1875 7.1875 -5.1875 7.1875 -8 7 C-8.66 5.68 -9.32 4.36 -10 3 C-6.7 3 -3.4 3 0 3 C0 2.01 0 1.02 0 0 Z " fill="#DAD7D5" transform="translate(571,1396)"/>
<path d="M0 0 C2.125 2 2.125 2 2.4375 5.6875 C2.2828125 7.3271875 2.2828125 7.3271875 2.125 9 C-0.79208924 10.98362069 -1.99880904 10.9876191 -5.625 10.625 C-6.6975 10.41875 -7.77 10.2125 -8.875 10 C-8.875 9.67 -8.875 9.34 -8.875 9 C-6.235 8.67 -3.595 8.34 -0.875 8 C0.13611093 4.95086772 0.13611093 4.95086772 -0.875 2 C-2.77033342 1.53476937 -2.77033342 1.53476937 -4.9375 1.375 C-6.236875 1.25125 -7.53625 1.1275 -8.875 1 C-8.875 0.67 -8.875 0.34 -8.875 0 C-5.42291082 -0.88309258 -3.40203662 -1.18331708 0 0 Z " fill="#403F3E" transform="translate(621.875,1437)"/>
<path d="M0 0 C1.98 0 3.96 0 6 0 C6 0.66 6 1.32 6 2 C5.01 2.66 4.02 3.32 3 4 C2.42006301 6.19454681 2.42006301 6.19454681 2.3125 8.625 C2.21388672 9.85089844 2.21388672 9.85089844 2.11328125 11.1015625 C2.05720703 12.04128906 2.05720703 12.04128906 2 13 C1.34 13 0.68 13 0 13 C0 8.71 0 4.42 0 0 Z " fill="#2D2D2C" transform="translate(675,1392)"/>
<path d="M0 0 C1.98 0 3.96 0 6 0 C6 0.66 6 1.32 6 2 C5.01 2 4.02 2 3 2 C2.67 5.63 2.34 9.26 2 13 C1.34 13 0.68 13 0 13 C0 8.71 0 4.42 0 0 Z " fill="#3C3C3B" transform="translate(480,1392)"/>
<path d="M0 0 C6.0546875 -0.1953125 6.0546875 -0.1953125 8 0 C8.66 0.66 9.32 1.32 10 2 C9.9765625 4.1640625 9.9765625 4.1640625 9.625 6.625 C9.45871094 7.85089844 9.45871094 7.85089844 9.2890625 9.1015625 C9.14597656 10.04128906 9.14597656 10.04128906 9 11 C8.34 10.67 7.68 10.34 7 10 C7.33 8.68 7.66 7.36 8 6 C6.35 6 4.7 6 3 6 C3 5.67 3 5.34 3 5 C4.65 5 6.3 5 8 5 C7.34 4.01 6.68 3.02 6 2 C2.91634129 1.7497843 2.91634129 1.7497843 0 2 C0 1.34 0 0.68 0 0 Z " fill="#2B2B2A" transform="translate(691,1344)"/>
<path d="M0 0 C3.71162994 1.85581497 5.01775064 2.55714584 7 6 C6.67 6.99 6.34 7.98 6 9 C4.68 7.35 3.36 5.7 2 4 C1.67 8.29 1.34 12.58 1 17 C0.67 17 0.34 17 0 17 C0 11.39 0 5.78 0 0 Z " fill="#131212" transform="translate(734,1340)"/>
<path d="M0 0 C0.66 0 1.32 0 2 0 C0.46745644 5.87475032 -1.67669016 11.39473306 -4 17 C-4.66 17 -5.32 17 -6 17 C-6 16.34 -6 15.68 -6 15 C-5.34 15 -4.68 15 -4 15 C-3.896875 13.824375 -3.79375 12.64875 -3.6875 11.4375 C-3.17085042 7.17514097 -1.8491639 3.85912466 0 0 Z " fill="#333231" transform="translate(549,1436)"/>
<path d="M0 0 C2.875 -0.125 2.875 -0.125 6 0 C8 2 8 2 8.1953125 4.6015625 C8.17210937 5.59929687 8.14890625 6.59703125 8.125 7.625 C8.10695313 8.62789062 8.08890625 9.63078125 8.0703125 10.6640625 C8.03550781 11.82035156 8.03550781 11.82035156 8 13 C7.34 13 6.68 13 6 13 C5.67 9.7 5.34 6.4 5 3 C2.525 2.01 2.525 2.01 0 1 C0 0.67 0 0.34 0 0 Z " fill="#363534" transform="translate(769,1392)"/>
<path d="M0 0 C2.46278801 2.46278801 2.99771255 4.70676982 4 8 C1.69 8 -0.62 8 -3 8 C-1.125 1.125 -1.125 1.125 0 0 Z " fill="#E5E2DF" transform="translate(648,1439)"/>
<path d="M0 0 C3.3 0 6.6 0 10 0 C9.01 0.495 9.01 0.495 8 1 C8 1.99 8 2.98 8 4 C2.25 4.125 2.25 4.125 0 3 C0 2.01 0 1.02 0 0 Z " fill="#DDDAD7" transform="translate(685,1399)"/>
<path d="M0 0 C3.3 0 6.6 0 10 0 C9.67 0.99 9.34 1.98 9 3 C6.69 3.33 4.38 3.66 2 4 C1.34 2.68 0.68 1.36 0 0 Z " fill="#E8E5E2" transform="translate(600,1351)"/>
<path d="M0 0 C3.3 0 6.6 0 10 0 C9.67 0.99 9.34 1.98 9 3 C6.69 3.33 4.38 3.66 2 4 C1.34 2.68 0.68 1.36 0 0 Z " fill="#E8E5E2" transform="translate(470,1351)"/>
<path d="M0 0 C2.31 0 4.62 0 7 0 C6.67 1.32 6.34 2.64 6 4 C4.35 4.33 2.7 4.66 1 5 C0.67 3.35 0.34 1.7 0 0 Z " fill="#D3D0CE" transform="translate(629,1399)"/>
<path d="M0 0 C3.3 0 6.6 0 10 0 C9.67 0.99 9.34 1.98 9 3 C2.25 4.125 2.25 4.125 0 3 C0 2.01 0 1.02 0 0 Z " fill="#E3E1DE" transform="translate(678,1351)"/>
<path d="M0 0 C1.65 0 3.3 0 5 0 C5.66 1.32 6.32 2.64 7 4 C4.03 4 1.06 4 -2 4 C-1.34 2.68 -0.68 1.36 0 0 Z " fill="#E3E1DE" transform="translate(687,1394)"/>
<path d="M0 0 C1.65 0 3.3 0 5 0 C5.66 1.32 6.32 2.64 7 4 C4.03 4 1.06 4 -2 4 C-1.34 2.68 -0.68 1.36 0 0 Z " fill="#E4E1DE" transform="translate(563,1394)"/>
<path d="M0 0 C1.485 0.99 1.485 0.99 3 2 C3.29296875 4.1640625 3.29296875 4.1640625 3.1875 6.625 C3.16042969 7.44226562 3.13335938 8.25953125 3.10546875 9.1015625 C3.07066406 9.72804688 3.03585937 10.35453125 3 11 C2.01 11 1.02 11 0 11 C0 7.37 0 3.74 0 0 Z " fill="#EBE8E5" transform="translate(552,1392)"/>
<path d="M0 0 C0.99 0.33 1.98 0.66 3 1 C4.01953125 3.65234375 4.01953125 3.65234375 4.8125 6.9375 C5.08707031 8.01902344 5.36164063 9.10054687 5.64453125 10.21484375 C5.76183594 11.13394531 5.87914062 12.05304688 6 13 C5.34 13.66 4.68 14.32 4 15 C3.3299166 12.87607494 2.66403203 10.75082476 2 8.625 C1.62875 7.44164062 1.2575 6.25828125 0.875 5.0390625 C0 2 0 2 0 0 Z " fill="#393837" transform="translate(499,1436)"/>
<path d="M0 0 C6.0546875 -0.1953125 6.0546875 -0.1953125 8 0 C8.66 0.66 9.32 1.32 10 2 C9.625 5.125 9.625 5.125 9 8 C8.34 8 7.68 8 7 8 C7 6.35 7 4.7 7 3 C3.71303767 2.20046862 2.28976808 1.90341064 -1 3 C-0.67 2.01 -0.34 1.02 0 0 Z " fill="#282827" transform="translate(560,1485)"/>
<path d="M0 0 C2 3 2 3 4 6 C7.58357241 6.25015873 7.58357241 6.25015873 11 6 C10.67 6.99 10.34 7.98 10 9 C6.42236811 9.32523926 4.60457419 9.42956587 1.625 7.3125 C-0.27258004 4.61209763 -0.35882213 3.22939919 0 0 Z " fill="#3A3A39" transform="translate(559,1396)"/>
<path d="M0 0 C1.134375 0.020625 2.26875 0.04125 3.4375 0.0625 C3.7675 0.7225 4.0975 1.3825 4.4375 2.0625 C3.303125 2.18625 2.16875 2.31 1 2.4375 C-0.7634375 2.746875 -0.7634375 2.746875 -2.5625 3.0625 C-2.8925 3.7225 -3.2225 4.3825 -3.5625 5.0625 C-1.9125 5.3925 -0.2625 5.7225 1.4375 6.0625 C1.4375 6.3925 1.4375 6.7225 1.4375 7.0625 C-0.22861905 7.105221 -1.89632885 7.10313832 -3.5625 7.0625 C-4.5625 6.0625 -4.5625 6.0625 -4.6875 3.5625 C-4.4904197 -0.37910609 -4.10054684 0.07193942 0 0 Z " fill="#333231" transform="translate(714.5625,1391.9375)"/>
<path d="M0 0 C2.31 0 4.62 0 7 0 C6.67 1.32 6.34 2.64 6 4 C4.02 4 2.04 4 0 4 C0 2.68 0 1.36 0 0 Z " fill="#DFDCD9" transform="translate(692,1351)"/>
<path d="M0 0 C0.66 1.32 1.32 2.64 2 4 C0.375 6.0625 0.375 6.0625 -2 8 C-5.25 7.75 -5.25 7.75 -8 7 C-8.33 5.68 -8.66 4.36 -9 3 C-8.34 3.66 -7.68 4.32 -7 5 C-4.41645782 5.16687448 -4.41645782 5.16687448 -2 5 C-1.34 3.35 -0.68 1.7 0 0 Z " fill="#3E3D3C" transform="translate(650,1349)"/>
<path d="M0 0 C0.99 0.495 0.99 0.495 2 1 C2.433125 2.485 2.433125 2.485 2.875 4 C3.24625 4.99 3.6175 5.98 4 7 C6.03243548 7.96877057 6.03243548 7.96877057 8 8 C8 8.66 8 9.32 8 10 C5.125 9.6875 5.125 9.6875 2 9 C-0.29013653 5.5647952 -0.17842973 4.014669 0 0 Z " fill="#353534" transform="translate(495,1347)"/>
<path d="M0 0 C1.65 0.33 3.3 0.66 5 1 C5.33 1.99 5.66 2.98 6 4 C3.36 4 0.72 4 -2 4 C-1.34 2.68 -0.68 1.36 0 0 Z " fill="#DDDAD7" transform="translate(680,1345)"/>
<path d="M0 0 C1.65 0.33 3.3 0.66 5 1 C5.33 1.99 5.66 2.98 6 4 C3.36 4 0.72 4 -2 4 C-1.34 2.68 -0.68 1.36 0 0 Z " fill="#E2E0DD" transform="translate(602,1345)"/>
<path d="M0 0 C0.639375 0.2475 1.27875 0.495 1.9375 0.75 C2.2675 1.74 2.5975 2.73 2.9375 3.75 C0.2975 3.75 -2.3425 3.75 -5.0625 3.75 C-4.7325 2.76 -4.4025 1.77 -4.0625 0.75 C-2.0625 -0.25 -2.0625 -0.25 0 0 Z " fill="#E3E0DD" transform="translate(475.0625,1345.25)"/>
<path d="M0 0 C0.66 0.33 1.32 0.66 2 1 C1.52269162 2.4589426 1.04308958 3.91713496 0.5625 5.375 C0.29566406 6.18710938 0.02882813 6.99921875 -0.24609375 7.8359375 C-1 10 -1 10 -2 12 C-2.66 12 -3.32 12 -4 12 C-3.33501617 7.61110675 -1.81242323 4.0188515 0 0 Z " fill="#393837" transform="translate(634,1490)"/>
<path d="M0 0 C0.33 0 0.66 0 1 0 C1.226875 1.11375 1.45375 2.2275 1.6875 3.375 C2.60623658 7.16038373 2.60623658 7.16038373 5.625 8.4375 C6.40875 8.623125 7.1925 8.80875 8 9 C8 9.33 8 9.66 8 10 C4.625 9.6875 4.625 9.6875 1 9 C-1.14809171 5.77786243 -1.29386153 4.72224599 -1 1 C-0.67 0.67 -0.34 0.34 0 0 Z " fill="#292928" transform="translate(448,1395)"/>
<path d="M0 0 C1.98 0 3.96 0 6 0 C6 1.32 6 2.64 6 4 C4.02 4 2.04 4 0 4 C0 2.68 0 1.36 0 0 Z " fill="#E6E3E0" transform="translate(602,1399)"/>
<path d="M0 0 C2.64 0 5.28 0 8 0 C7.51917969 0.39832031 7.03835938 0.79664063 6.54296875 1.20703125 C4.62608175 3.43450247 4.52258357 4.78834669 4.3125 7.6875 C4.24675781 8.49574219 4.18101562 9.30398438 4.11328125 10.13671875 C4.07589844 10.75160156 4.03851562 11.36648438 4 12 C3.67 12 3.34 12 3 12 C2.92652344 11.07767578 2.92652344 11.07767578 2.8515625 10.13671875 C2.77679687 9.32847656 2.70203125 8.52023437 2.625 7.6875 C2.55539062 6.88699219 2.48578125 6.08648438 2.4140625 5.26171875 C2.10435574 2.72775559 2.10435574 2.72775559 0 0 Z " fill="#161616" transform="translate(763,1393)"/>
<path d="M0 0 C0.5259375 0.7425 0.5259375 0.7425 1.0625 1.5 C3.94374289 3.73063966 6.47009026 3.19980621 10 3 C10 3.66 10 4.32 10 5 C6.75 5.75 6.75 5.75 3 6 C0.5625 4.0625 0.5625 4.0625 -1 2 C-0.67 1.34 -0.34 0.68 0 0 Z " fill="#393837" transform="translate(469,1351)"/>
<path d="M0 0 C0.90105469 0.01804687 1.80210937 0.03609375 2.73046875 0.0546875 C3.41753906 0.07789063 4.10460937 0.10109375 4.8125 0.125 C4.8125 0.455 4.8125 0.785 4.8125 1.125 C4.20921875 1.15078125 3.6059375 1.1765625 2.984375 1.203125 C-2.25731501 1.49888587 -2.25731501 1.49888587 -6.625 4.1875 C-7.140625 4.826875 -7.65625 5.46625 -8.1875 6.125 C-8.8475 6.125 -9.5075 6.125 -10.1875 6.125 C-7.96735818 1.00159579 -5.45984177 -0.14181407 0 0 Z " fill="#373636" transform="translate(626.1875,273.875)"/>
<path d="M0 0 C0.66 0.66 1.32 1.32 2 2 C-1.45662331 4.30441554 -2.94857881 4.25860135 -7 4 C-7.66 3.67 -8.32 3.34 -9 3 C-9 2.34 -9 1.68 -9 1 C-7.700625 1.020625 -6.40125 1.04125 -5.0625 1.0625 C-3.70834367 1.08399454 -2.35243917 1.07148199 -1 1 C-0.67 0.67 -0.34 0.34 0 0 Z " fill="#363534" transform="translate(588,1498)"/>
<path d="M0 0 C1.47906892 -0.02689216 2.95827483 -0.04634621 4.4375 -0.0625 C5.26121094 -0.07410156 6.08492187 -0.08570313 6.93359375 -0.09765625 C9 0 9 0 10 1 C10.04063832 2.66617115 10.042721 4.33388095 10 6 C9.608125 5.34 9.21625 4.68 8.8125 4 C7.16439945 1.7446498 7.16439945 1.7446498 4.5 1.6875 C1.87538454 1.93258508 1.87538454 1.93258508 -1 3 C-0.67 2.01 -0.34 1.02 0 0 Z " fill="#292928" transform="translate(532,1485)"/>
<path d="M0 0 C0.66 0 1.32 0 2 0 C1.21681311 3.91593446 -0.39179858 7.36406635 -2 11 C-2.66 11 -3.32 11 -4 11 C-3.52269162 9.5410574 -3.04308958 8.08286504 -2.5625 6.625 C-2.29566406 5.81289062 -2.02882813 5.00078125 -1.75390625 4.1640625 C-1 2 -1 2 0 0 Z " fill="#2E2E2D" transform="translate(647,1436)"/>
<path d="M0 0 C1.25541557 3.76624671 0.37061958 5.37188934 -1 9 C-1.99 9 -2.98 9 -4 9 C-3.35455571 5.51460083 -1.89865603 2.97180943 0 0 Z " fill="#232222" transform="translate(508,1444)"/>
<path d="M0 0 C3 -0.3125 3 -0.3125 6 0 C6.66 0.66 7.32 1.32 8 2 C5.51193724 3.24403138 3.76023814 3.06732288 1 3 C0.01 3 -0.98 3 -2 3 C-1.34 2.01 -0.68 1.02 0 0 Z " fill="#414140" transform="translate(522,1392)"/>
<path d="M0 0 C3 1 3 1 3.94921875 2.84765625 C4.19285156 3.57855469 4.43648438 4.30945312 4.6875 5.0625 C4.93886719 5.79597656 5.19023437 6.52945312 5.44921875 7.28515625 C5.63097656 7.85105469 5.81273437 8.41695312 6 9 C5.01 9.495 5.01 9.495 4 10 C2.68 6.7 1.36 3.4 0 0 Z " fill="#3E3D3C" transform="translate(481,1344)"/>
<path d="M0 0 C2.5 1.75 2.5 1.75 5 4 C5 5.32 5 6.64 5 8 C4.01 8 3.02 8 2 8 C1.34 5.36 0.68 2.72 0 0 Z " fill="#242323" transform="translate(514,1445)"/>
<path d="M0 0 C1.9375 0.3125 1.9375 0.3125 4 1 C4.33 1.99 4.66 2.98 5 4 C3.02 4 1.04 4 -1 4 C-0.67 2.68 -0.34 1.36 0 0 Z " fill="#DDDAD8" transform="translate(694,1345)"/>
<path d="M0 0 C0.66 0 1.32 0 2 0 C0.33333333 3.33333333 -1.33333333 6.66666667 -3 10 C-3.66 9.34 -4.32 8.68 -5 8 C-4.21718695 6.66144944 -3.42348123 5.32926356 -2.625 4 C-2.18414063 3.2575 -1.74328125 2.515 -1.2890625 1.75 C-0.86367188 1.1725 -0.43828125 0.595 0 0 Z " fill="#454443" transform="translate(764,1339)"/>
<path d="M0 0 C3.875 1.75 3.875 1.75 5 4 C5.039992 5.99960012 5.04346799 8.00047242 5 10 C4.7525 9.443125 4.505 8.88625 4.25 8.3125 C2.78393985 5.60028873 0.97010529 3.36412635 -1 1 C-0.67 0.67 -0.34 0.34 0 0 Z " fill="#2B2A2A" transform="translate(460,1340)"/>
<path d="M0 0 C2.475 0.495 2.475 0.495 5 1 C5.33 2.32 5.66 3.64 6 5 C5.34 5 4.68 5 4 5 C3.67 5.66 3.34 6.32 3 7 C2.690625 6.21625 2.38125 5.4325 2.0625 4.625 C1.07124962 2.07669872 1.07124962 2.07669872 0 0 Z " fill="#D1CFCC" transform="translate(477,1344)"/>
</svg>
