<?xml version="1.0" encoding="UTF-8"?>
<svg version="1.1" xmlns="http://www.w3.org/2000/svg" width="1200" height="1700">
<path d="M0 0 C396 0 792 0 1200 0 C1200 561 1200 1122 1200 1700 C804 1700 408 1700 0 1700 C0 1139 0 578 0 0 Z " fill="#CDC8E7" transform="translate(0,0)"/>
<path d="M0 0 C396 0 792 0 1200 0 C1200 146.52 1200 293.04 1200 444 C804 444 408 444 0 444 C0 297.48 0 150.96 0 0 Z " fill="#262425" transform="translate(0,0)"/>
<path d="M0 0 C396 0 792 0 1200 0 C1200 46.53 1200 93.06 1200 141 C804 141 408 141 0 141 C0 94.47 0 47.94 0 0 Z " fill="#272526" transform="translate(0,1559)"/>
<path d="M0 0 C45.21 0 90.42 0 137 0 C137 367.29 137 734.58 137 1113 C91.79 1113 46.58 1113 0 1113 C0 745.71 0 378.42 0 0 Z " fill="#E0E0E0" transform="translate(1063,445)"/>
<path d="M0 0 C52.47 0 104.94 0 159 0 C159 52.47 159 104.94 159 159 C106.53 159 54.06 159 0 159 C0 106.53 0 54.06 0 0 Z " fill="#D6D6D6" transform="translate(100,143)"/>
<path d="M0 0 C57.75 0 115.5 0 175 0 C175 57.75 175 115.5 175 175 C117.25 175 59.5 175 0 175 C0 117.25 0 59.5 0 0 Z M8 8 C8 60.47 8 112.94 8 167 C60.47 167 112.94 167 167 167 C167 114.53 167 62.06 167 8 C114.53 8 62.06 8 8 8 Z " fill="#302D2E" transform="translate(92,135)"/>
<path d="M0 0 C27.06 0 54.12 0 82 0 C82 7.92 82 15.84 82 24 C73.42 24 64.84 24 56 24 C56 45.12 56 66.24 56 88 C46.43 88 36.86 88 27 88 C27 66.88 27 45.76 27 24 C18.09 24 9.18 24 0 24 C0 16.08 0 8.16 0 0 Z " fill="#2A2929" transform="translate(128,186)"/>
<path d="M0 0 C396 0 792 0 1200 0 C1200 0.99 1200 1.98 1200 3 C804 3 408 3 0 3 C0 2.01 0 1.02 0 0 Z " fill="#DCDCDC" transform="translate(0,1697)"/>
<path d="M0 0 C5.61 0 11.22 0 17 0 C22.55129512 6.52277177 22.55129512 6.52277177 24.2421875 9.93359375 C27.01138737 15.18855774 30.25689002 20.08733461 33.53564453 25.03149414 C37.05193168 30.33576325 40.52106631 35.67115712 44 41 C44.33 27.8 44.66 14.6 45 1 C50.28 1 55.56 1 61 1 C61 23.11 61 45.22 61 68 C55.39 68 49.78 68 44 68 C38.37915719 61.33826038 38.37915719 61.33826038 36.69140625 57.93359375 C33.38858881 51.67126247 29.33956567 45.91806047 25.375 40.0625 C22.94125 36.411875 20.5075 32.76125 18 29 C17.67 42.2 17.34 55.4 17 69 C11.39 69 5.78 69 0 69 C0 46.23 0 23.46 0 0 Z " fill="#050505" transform="translate(173,576)"/>
<path d="M0 0 C6.6 0 13.2 0 20 0 C30.60993702 27.73519944 30.60993702 27.73519944 32.60620117 33.85986328 C35.11866009 41.55616847 38.03701027 49.0914034 40.94726562 56.64453125 C41.33978516 57.67707031 41.73230469 58.70960938 42.13671875 59.7734375 C42.49467529 60.70591309 42.85263184 61.63838867 43.22143555 62.59912109 C44 65 44 65 44 68 C38.39 68 32.78 68 27 68 C23 59.375 23 59.375 23 56 C14.09 56 5.18 56 -4 56 C-4.66 59.3 -5.32 62.6 -6 66 C-6.33 66.66 -6.66 67.32 -7 68 C-12.61 68 -18.22 68 -24 68 C-23.21801704 63.30810225 -22.36068467 59.99515378 -20.625 55.6875 C-18.8637296 51.23133448 -17.22067172 46.78139354 -15.73828125 42.2265625 C-13.55400754 35.63907037 -11.0702095 29.1572333 -8.5625 22.6875 C-6.26774415 16.76234092 -4.12244994 10.79456486 -2.015625 4.80078125 C-1 2 -1 2 0 0 Z " fill="#050506" transform="translate(122,577)"/>
<path d="M0 0 C6.6 0 13.2 0 20 0 C23.0625 8.3125 23.0625 8.3125 24.10424805 11.14135742 C25.63566957 15.29972099 27.16856131 19.45751975 28.70703125 23.61328125 C30.48008379 28.40566615 32.24323527 33.20162105 34 38 C34.38542969 39.05251953 34.77085937 40.10503906 35.16796875 41.18945312 C36.40804959 44.58304975 37.64226483 47.97872884 38.875 51.375 C39.26864746 52.45152832 39.66229492 53.52805664 40.06787109 54.63720703 C40.61822021 56.15870361 40.61822021 56.15870361 41.1796875 57.7109375 C41.50694824 58.61118652 41.83420898 59.51143555 42.17138672 60.43896484 C43 63 43 63 44 68 C38.39 68 32.78 68 27 68 C24.125 60.375 24.125 60.375 23 57 C10.13 56.505 10.13 56.505 -3 56 C-3.99 59.3 -4.98 62.6 -6 66 C-6.33 66.66 -6.66 67.32 -7 68 C-12.61 68 -18.22 68 -24 68 C-23.22538441 63.35230643 -22.39852414 60.07681714 -20.6875 55.8125 C-17.57385441 47.92101893 -14.6427962 39.99957089 -12 31.9375 C-10.49847369 27.38599836 -8.82425367 22.94945778 -7.0078125 18.515625 C-5.55575688 14.89111407 -4.2438334 11.21931904 -2.9296875 7.54296875 C-2.00352677 5.00964675 -1.00175667 2.50439167 0 0 Z " fill="#050505" transform="translate(266,577)"/>
<path d="M0 0 C3.58785785 3.68752057 6.15549081 7.84475992 6.35546875 13.06640625 C6.32066406 13.80761719 6.28585937 14.54882812 6.25 15.3125 C3.33110852 15.47466064 0.42120775 15.59341202 -2.5 15.6875 C-3.325 15.73777344 -4.15 15.78804687 -5 15.83984375 C-7.38997115 15.89766563 -9.42636458 15.88540072 -11.75 15.3125 C-14.06640625 12.31640625 -14.06640625 12.31640625 -15.75 9.3125 C-18.65855212 8.4545041 -20.66506329 8.95849087 -23.75 9.3125 C-25.11290958 10.47259906 -25.11290958 10.47259906 -25.1875 13.625 C-25.16672966 17.4629021 -25.16672966 17.4629021 -22.21484375 19.3671875 C-18.4997806 21.45298394 -14.89951868 22.7928605 -10.875 24.125 C-3.056688 26.87310898 2.56997673 30.29246509 7.25 37.3125 C8.22922419 44.3606369 7.51189066 50.52002321 3.25 56.3125 C-2.94490232 62.50740232 -8.93802922 64.74153634 -17.5625 64.75 C-25.11864262 64.66023268 -31.79083274 63.80783176 -37.6171875 58.6640625 C-42.06345351 53.79231649 -43.75 49.99519971 -43.75 43.3125 C-37.81 43.3125 -31.87 43.3125 -25.75 43.3125 C-25.09 44.9625 -24.43 46.6125 -23.75 48.3125 C-21.0513045 50.51143708 -19.65322229 50.30582568 -16.125 50.0625 C-12.69727116 49.61768815 -12.69727116 49.61768815 -10.75 47.3125 C-10.68051435 44.30956929 -10.68051435 44.30956929 -11.75 41.3125 C-15.80402399 38.29338041 -20.37727225 37.02439551 -25.125 35.5 C-32.83976479 32.88970435 -37.77782239 30.43519797 -42.6875 23.625 C-44.45610056 18.11112767 -44.96280442 12.50352318 -42.87109375 7 C-39.95412739 1.91696951 -35.63691493 -2.55629052 -29.88012695 -4.23168945 C-19.68772154 -6.41268898 -8.83861906 -5.42369806 0 0 Z " fill="#040405" transform="translate(470.75,580.6875)"/>
<path d="M0 0 C4.06331568 2.97387597 5.78756301 6.21365089 7.3046875 10.93359375 C7.34777654 12.59970332 7.35603298 14.26771818 7.3046875 15.93359375 C4.38579602 16.09575439 1.47589525 16.21450577 -1.4453125 16.30859375 C-2.2703125 16.35886719 -3.0953125 16.40914062 -3.9453125 16.4609375 C-6.33528365 16.51875938 -8.37167708 16.50649447 -10.6953125 15.93359375 C-13.01171875 12.9375 -13.01171875 12.9375 -14.6953125 9.93359375 C-17.60386462 9.07559785 -19.61037579 9.57958462 -22.6953125 9.93359375 C-24.05822208 11.09369281 -24.05822208 11.09369281 -24.1328125 14.24609375 C-24.11206418 18.06796382 -24.11206418 18.06796382 -21.234375 19.9453125 C-16.56265671 22.79806464 -11.37049962 24.45473093 -6.24023438 26.2890625 C-0.79218724 28.30753428 3.21946588 30.56075535 7.1171875 34.99609375 C9.23300356 40.22995453 9.22771707 45.84118396 7.61328125 51.25 C4.65068157 57.78259428 -0.1588426 61.57727785 -6.75756836 64.31176758 C-9.99239511 65.34983029 -13.20956467 65.42129646 -16.5703125 65.37109375 C-17.27067627 65.3649707 -17.97104004 65.35884766 -18.69262695 65.35253906 C-24.47693026 65.17837359 -28.84677893 64.03665524 -33.6953125 60.93359375 C-35.0875 60.06734375 -35.0875 60.06734375 -36.5078125 59.18359375 C-40.99780011 54.56532078 -42.6953125 50.35637822 -42.6953125 43.93359375 C-36.7553125 43.93359375 -30.8153125 43.93359375 -24.6953125 43.93359375 C-23.7053125 45.91359375 -22.7153125 47.89359375 -21.6953125 49.93359375 C-17.7568141 51.17349139 -15.62012975 51.28777908 -11.7578125 49.80859375 C-9.47200705 48.10330589 -9.47200705 48.10330589 -9.1953125 45.43359375 C-9.78102549 42.50502879 -10.4403332 41.81440116 -12.6953125 39.93359375 C-14.56856945 39.08902994 -14.56856945 39.08902994 -16.64453125 38.5390625 C-17.40685059 38.30904541 -18.16916992 38.07902832 -18.95458984 37.84204102 C-19.75590332 37.60412842 -20.5572168 37.36621582 -21.3828125 37.12109375 C-29.51788276 34.54437102 -36.19468786 31.94640572 -41.1953125 24.68359375 C-43.7128381 19.59234778 -43.5962967 14.11519422 -42.0703125 8.7265625 C-39.73101447 3.26471932 -35.82404485 -0.17147725 -30.6953125 -3.06640625 C-21.06584312 -5.9151035 -8.52282977 -5.36113486 0 0 Z " fill="#040405" transform="translate(557.6953125,580.06640625)"/>
<path d="M0 0 C6.27 0 12.54 0 19 0 C23.3125 8.625 23.3125 8.625 25.140625 12.9921875 C27.01184257 17.36403219 29.02167119 21.67582675 31 26 C33.20576758 23.26609089 34.61049779 20.79315673 35.8125 17.5 C38.13410321 11.4475714 41.04856444 5.76871495 44 0 C49.94 0 55.88 0 62 0 C61.20391772 3.18432911 60.50464212 5.18503452 58.99609375 7.984375 C58.58883057 8.74733887 58.18156738 9.51030273 57.76196289 10.29638672 C57.32489014 11.1060791 56.88781738 11.91577148 56.4375 12.75 C52.71312136 19.72590561 49.08328563 26.73482549 45.60131836 33.83496094 C44.31666026 36.43943547 43.0379342 38.94305162 41.42626953 41.36254883 C39.8297018 44.31491466 39.5813606 46.1872905 39.48828125 49.51953125 C39.45283203 50.54111328 39.41738281 51.56269531 39.38085938 52.61523438 C39.35830078 53.67033203 39.33574219 54.72542969 39.3125 55.8125 C39.27833984 56.88693359 39.24417969 57.96136719 39.20898438 59.06835938 C39.12674157 61.71187813 39.06168807 64.35592174 39 67 C33.72 67 28.44 67 23 67 C23.04382813 65.56011719 23.08765625 64.12023437 23.1328125 62.63671875 C23.23783678 48.54656468 20.74248454 39.0814458 13.32666016 27.16943359 C11.26660898 23.80071539 9.45312224 20.31071513 7.625 16.8125 C6.98263896 15.60630811 6.33945565 14.40055363 5.6953125 13.1953125 C0 2.46082949 0 2.46082949 0 0 Z " fill="#030303" transform="translate(359,577)"/>
<path d="M0 0 C57.75 0 115.5 0 175 0 C175 57.75 175 115.5 175 175 C117.25 175 59.5 175 0 175 C0 117.25 0 59.5 0 0 Z M2 3 C2 59.1 2 115.2 2 173 C58.43 173 114.86 173 173 173 C173 116.9 173 60.8 173 3 C116.57 3 60.14 3 2 3 Z " fill="#9C9B9C" transform="translate(92,135)"/>
<path d="M0 0 C5.28 0 10.56 0 16 0 C16 18.15 16 36.3 16 55 C22.93 55 29.86 55 37 55 C37 58.96 37 62.92 37 67 C24.79 67 12.58 67 0 67 C0 44.89 0 22.78 0 0 Z " fill="#010101" transform="translate(318,577)"/>
<path d="M0 0 C5.61 0 11.22 0 17 0 C17 22.44 17 44.88 17 68 C11.39 68 5.78 68 0 68 C0 45.56 0 23.12 0 0 Z " fill="#030304" transform="translate(488,577)"/>
<path d="M0 0 C4.16103963 2.31528664 6.9922428 5.02126307 8.875 9.4375 C9.80552816 14.0901408 9.3891646 18.03615832 7.1875 22.25 C4.53300926 25.90889264 1.92042193 28.41478904 -2.125 30.4375 C-7.07982094 30.98110446 -10.99625852 31.00187074 -15.5 28.75 C-19.09332162 25.58445477 -22.71204187 22.24979713 -23.43359375 17.3359375 C-23.74473137 11.24518293 -22.8441644 7.71747395 -18.83203125 3.06640625 C-13.24318245 -2.26666 -6.98583883 -3.04645603 0 0 Z " fill="#2B2929" transform="translate(229.125,243.5625)"/>
<path d="M0 0 C1.9375 1.5 1.9375 1.5 3 3 C5.6905528 1.77992056 5.6905528 1.77992056 8 0 C14.2080292 -0.45985401 14.2080292 -0.45985401 16.9375 1.125 C18.51108304 3.90191125 18.38420899 5.86229327 18 9 C16.9375 11.375 16.9375 11.375 15 13 C9.04477612 13.52238806 9.04477612 13.52238806 6 12 C6 11.34 6 10.68 6 10 C2.75016865 11.08784968 2.75016865 11.08784968 0 13 C-3.375 13.3125 -3.375 13.3125 -7 13 C-9.66266871 10.76679398 -9.95347082 9.3799883 -10.375 5.9375 C-10 3 -10 3 -8.9375 1.125 C-5.8930714 -0.64273274 -3.4368988 -0.36823916 0 0 Z " fill="#C0BBD9" transform="translate(402,1347)"/>
<path d="M0 0 C1.9375 1.5 1.9375 1.5 3 3 C3.804375 2.2575 3.804375 2.2575 4.625 1.5 C7.59358445 -0.37489544 9.55312427 -0.23501425 13 0 C13.66 1.32 14.32 2.64 15 4 C12.69 3.34 10.38 2.68 8 2 C8.72268235 5.2985139 8.72268235 5.2985139 12.0625 6.6875 C13.5165625 7.3371875 13.5165625 7.3371875 15 8 C14.125 11.875 14.125 11.875 13 13 C9.05163095 13.2632246 6.39620731 13.08997373 3 11 C2.01 11.66 1.02 12.32 0 13 C-6.01987353 13.53748871 -6.01987353 13.53748871 -8.9375 11.9375 C-10.6140629 8.88023824 -10.36528977 6.4093712 -10 3 C-7.77766882 -1.05248626 -4.20052866 -0.45005664 0 0 Z " fill="#AEAAC5" transform="translate(357,1347)"/>
<path d="M0 0 C2.6983845 1.34919225 2.74773003 2.55116176 3.7265625 5.3671875 C4.0359375 6.25277344 4.3453125 7.13835938 4.6640625 8.05078125 C4.98117187 8.98277344 5.29828125 9.91476562 5.625 10.875 C5.94984375 11.79925781 6.2746875 12.72351563 6.609375 13.67578125 C9 20.59654018 9 20.59654018 9 24 C3.72 24 -1.56 24 -7 24 C-5.55868265 15.83253503 -3.73445228 7.46890455 0 0 Z " fill="#BFBBD8" transform="translate(275,596)"/>
<path d="M0 0 C8.30078125 -0.390625 8.30078125 -0.390625 11 0 C13.00449583 1.93596606 13.84416714 3.2812034 14.43359375 6 C14.44079412 9.68659102 14.44002979 11.42796128 12.125 14.4375 C7.46980139 17.86044015 7.18660047 17 0 17 C0 11.39 0 5.78 0 0 Z " fill="#B7B2CD" transform="translate(98,1305)"/>
<path d="M0 0 C2.8567911 2.8567911 3.4925 3.75386239 4.60546875 7.37890625 C4.86650391 8.21744141 5.12753906 9.05597656 5.39648438 9.91992188 C5.65751953 10.79197266 5.91855469 11.66402344 6.1875 12.5625 C6.46013672 13.43841797 6.73277344 14.31433594 7.01367188 15.21679688 C9 21.68356438 9 21.68356438 9 24 C3.39 24 -2.22 24 -8 24 C-5.36 16.08 -2.72 8.16 0 0 Z " fill="#C0BBD9" transform="translate(131,596)"/>
<path d="M0 0 C2.5 1.5 2.5 1.5 4 4 C4.67270703 8.2863512 4.46220488 11.30669268 2 15 C-0.75 15.36328125 -0.75 15.36328125 -4 15.3125 C-5.60875 15.30669922 -5.60875 15.30669922 -7.25 15.30078125 C-10 15 -10 15 -12 13 C-12.35131571 10.25973747 -12.34419875 8.62386024 -11 6.1875 C-7.76011038 4.26381554 -4.7174181 4.81717616 -1 5 C-1.33 7.64 -1.66 10.28 -2 13 C-1.01 12.67 -0.02 12.34 1 12 C1.68493373 9.14221967 1.68493373 9.14221967 2 6 C0.39627256 2.83894097 0.39627256 2.83894097 -2.0234375 2.56640625 C-5.73690577 2.5602377 -8.27816557 2.59506849 -11.5625 4.4375 C-13.75447916 8.34494111 -13.26115032 11.56044456 -13 16 C-9.7 16.66 -6.4 17.32 -3 18 C-3.33 18.66 -3.66 19.32 -4 20 C-11.13513514 20.47567568 -11.13513514 20.47567568 -14.5 18.625 C-16.84348078 14.52390864 -16.87819432 10.59935668 -16 6 C-11.73527663 0.35212311 -6.92624203 -0.96159095 0 0 Z " fill="#201F24" transform="translate(213,1345)"/>
<path d="M0 0 C0.99 0 1.98 0 3 0 C3 6.27 3 12.54 3 19 C1.68 18.67 0.36 18.34 -1 18 C-1.33 18.33 -1.66 18.66 -2 19 C-4.3125 19.375 -4.3125 19.375 -7 19 C-9.375 16.9375 -9.375 16.9375 -11 14 C-10.9375 10.3125 -10.9375 10.3125 -10 7 C-6.1496895 4.43312633 -4.41430237 5.16711276 0 6 C0 4.02 0 2.04 0 0 Z " fill="#2A282F" transform="translate(206,1303)"/>
<path d="M0 0 C0.99 0 1.98 0 3 0 C3 5.94 3 11.88 3 18 C-7.47610182 18.36974477 -7.47610182 18.36974477 -9.83203125 16.70703125 C-11.78547961 13.85199133 -11.35745403 11.33623765 -11 8 C-9.9375 6.0625 -9.9375 6.0625 -8 5 C-4.3125 4.8125 -4.3125 4.8125 -1 5 C-0.67 3.35 -0.34 1.7 0 0 Z " fill="#403E48" transform="translate(332,1342)"/>
<path d="M0 0 C3.3 0 6.6 0 10 0 C13 3 13 3 13.3984375 4.9375 C13.33597561 10.43414634 13.33597561 10.43414634 11.8125 13 C9.36202878 14.35198412 7.76059793 14.34507474 5 14 C4.01 13.34 3.02 12.68 2 12 C2 14.64 2 17.28 2 20 C1.34 20 0.68 20 0 20 C0 13.4 0 6.8 0 0 Z " fill="#17171B" transform="translate(280,1308)"/>
<path d="M0 0 C0.66 0 1.32 0 2 0 C2 5.94 2 11.88 2 18 C1.34 18 0.68 18 0 18 C0 17.34 0 16.68 0 16 C-0.99 16.66 -1.98 17.32 -3 18 C-6.0625 17.8125 -6.0625 17.8125 -9 17 C-11.46324069 13.30513897 -11.38991688 11.36706908 -11 7 C-9.9375 5 -9.9375 5 -8 4 C-4.3125 4.3125 -4.3125 4.3125 -1 5 C-0.67 3.35 -0.34 1.7 0 0 Z " fill="#1B1A1E" transform="translate(360,1304)"/>
<path d="M0 0 C0 4.62 0 9.24 0 14 C-1.32 13.67 -2.64 13.34 -4 13 C-4.33 13.33 -4.66 13.66 -5 14 C-9.38461538 14.46153846 -9.38461538 14.46153846 -11.640625 12.76953125 C-13.36227248 10.52842117 -13.40268516 9.23831575 -13.375 6.4375 C-13.38273437 5.65246094 -13.39046875 4.86742187 -13.3984375 4.05859375 C-13.26695312 3.37925781 -13.13546875 2.69992187 -13 2 C-8.61501596 -0.92332269 -5.2225328 -0.1356502 0 0 Z " fill="#2B2A30" transform="translate(346,1308)"/>
<path d="M0 0 C2.79947917 0.06510417 5.59895833 0.13020833 8.3984375 0.1953125 C8.3984375 4.4853125 8.3984375 8.7753125 8.3984375 13.1953125 C0.09765625 13.5859375 0.09765625 13.5859375 -2.6015625 13.1953125 C-4.46875 11.40625 -4.46875 11.40625 -5.6015625 9.1953125 C-5.14592551 0.38633074 -5.14592551 0.38633074 0 0 Z " fill="#242328" transform="translate(265.6015625,1346.8046875)"/>
<path d="M0 0 C2.79947917 0.06510417 5.59895833 0.13020833 8.3984375 0.1953125 C8.3984375 4.4853125 8.3984375 8.7753125 8.3984375 13.1953125 C-2.3515625 13.3203125 -2.3515625 13.3203125 -4.6015625 12.1953125 C-4.65551728 10.57067408 -4.69433445 8.94552709 -4.7265625 7.3203125 C-4.74976563 6.41539063 -4.77296875 5.51046875 -4.796875 4.578125 C-4.50848177 1.05972759 -3.47619021 0.26097524 0 0 Z " fill="#222126" transform="translate(293.6015625,1346.8046875)"/>
<path d="M0 0 C0.66 0 1.32 0 2 0 C2 5.94 2 11.88 2 18 C-5.51953125 18.390625 -5.51953125 18.390625 -8 18 C-10.4060767 15.56260777 -10.95421099 14.3739436 -11.375 10.9375 C-11 8 -11 8 -9.875 6.125 C-7.19141229 4.51484737 -5.06449028 4.73352258 -2 5 C-1.67 5.33 -1.34 5.66 -1 6 C-0.67 4.02 -0.34 2.04 0 0 Z " fill="#1A191D" transform="translate(316,1342)"/>
<path d="M0 0 C1.32 0.33 2.64 0.66 4 1 C5.265625 3.21484375 5.265625 3.21484375 6.25 5.9375 C6.58515625 6.83339844 6.9203125 7.72929688 7.265625 8.65234375 C8 11 8 11 8 13 C8.66 13 9.32 13 10 13 C10.19335938 12.39671875 10.38671875 11.7934375 10.5859375 11.171875 C10.84632813 10.37265625 11.10671875 9.5734375 11.375 8.75 C11.63023437 7.96109375 11.88546875 7.1721875 12.1484375 6.359375 C12.95173667 4.13372042 13.89711662 2.09068328 15 0 C15.99 0 16.98 0 18 0 C18 5.61 18 11.22 18 17 C17.01 17 16.02 17 15 17 C14.67 14.36 14.34 11.72 14 9 C12.68 11.64 11.36 14.28 10 17 C9.34 17 8.68 17 8 17 C6.68 14.03 5.36 11.06 4 8 C3.67 10.97 3.34 13.94 3 17 C2.01 17 1.02 17 0 17 C0 11.39 0 5.78 0 0 Z " fill="#36343C" transform="translate(199,1382)"/>
<path d="M0 0 C0.99 0 1.98 0 3 0 C4.19287411 3.87684087 5 6.91621923 5 11 C5.66 11 6.32 11 7 11 C7.66 7.37 8.32 3.74 9 0 C10.32 0 11.64 0 13 0 C13.99 3.3 14.98 6.6 16 10 C16.33 10 16.66 10 17 10 C17.16435547 9.04287109 17.16435547 9.04287109 17.33203125 8.06640625 C17.49058594 7.24011719 17.64914063 6.41382813 17.8125 5.5625 C17.96332031 4.73878906 18.11414063 3.91507813 18.26953125 3.06640625 C18.51058594 2.38449219 18.75164062 1.70257812 19 1 C19.99 0.67 20.98 0.34 22 0 C21.35729017 5.9129304 19.80996216 11.34244531 18 17 C17.01 17 16.02 17 15 17 C14.01 13.7 13.02 10.4 12 7 C9.81024227 10.28463659 9.00193437 13.20696275 8 17 C6.68 17 5.36 17 4 17 C1.90429574 11.30601106 0.54981916 6.04801071 0 0 Z " fill="#413F49" transform="translate(144,1382)"/>
<path d="M0 0 C3.625 0.375 3.625 0.375 6.125 1.9375 C7.625 4.375 7.625 4.375 7.5625 8 C6.625 11.375 6.625 11.375 3.625 13.375 C-2.53077889 14.03454774 -2.53077889 14.03454774 -5.375 11.8125 C-6.79470326 8.35197331 -6.23801515 5.95983216 -5.375 2.375 C-3.375 0.375 -3.375 0.375 0 0 Z " fill="#2D2C33" transform="translate(186.375,1346.625)"/>
<path d="M0 0 C3.4375 0.75 3.4375 0.75 5.4375 2.75 C5.87412786 6.6796507 6.03501439 8.88692366 3.75 12.1875 C1.4375 13.75 1.4375 13.75 -1.0625 14.3125 C-3.5625 13.75 -3.5625 13.75 -5.9375 11.6875 C-8.05066666 7.86754488 -7.73591001 5.89604871 -6.5625 1.75 C-3.5625 -0.25 -3.5625 -0.25 0 0 Z " fill="#1A1A1E" transform="translate(150.5625,1308.25)"/>
<path d="M0 0 C1.423125 -0.061875 2.84625 -0.12375 4.3125 -0.1875 C5.51326172 -0.23970703 5.51326172 -0.23970703 6.73828125 -0.29296875 C9 0 9 0 10.8125 1.34375 C12 3 12 3 11.6875 5.6875 C11.460625 6.450625 11.23375 7.21375 11 8 C10.01 8.33 9.02 8.66 8 9 C9.32 11.64 10.64 14.28 12 17 C10.68 17 9.36 17 8 17 C7.34 14.69 6.68 12.38 6 10 C5.01 10 4.02 10 3 10 C3 12.31 3 14.62 3 17 C2.01 17 1.02 17 0 17 C0 11.39 0 5.78 0 0 Z " fill="#312F37" transform="translate(181,1305)"/>
<path d="M0 0 C1.9375 1.125 1.9375 1.125 3 3 C3.42030443 6.29238472 3.295454 8.33957342 1.9375 11.375 C0 13 0 13 -3.5 13.4375 C-7 13 -7 13 -8.9375 11.9375 C-10.6140629 8.88023824 -10.36528977 6.4093712 -10 3 C-7.77766882 -1.05248626 -4.20052866 -0.45005664 0 0 Z " fill="#1B1A1F" transform="translate(417,1347)"/>
<path d="M0 0 C3.5625 0.3125 3.5625 0.3125 5.5 1.375 C7.1765629 4.43226176 6.92778977 6.9031288 6.5625 10.3125 C5.5 12.25 5.5 12.25 3.5625 13.3125 C0.0625 13.75 0.0625 13.75 -3.4375 13.3125 C-5.4375 11.75 -5.4375 11.75 -6.4375 9.3125 C-5.98395669 0.54399606 -5.98395669 0.54399606 0 0 Z " fill="#1D1D21" transform="translate(117.4375,1346.6875)"/>
<path d="M0 0 C0.99 0.33 1.98 0.66 3 1 C3.66 4.3 4.32 7.6 5 11 C5.66 11 6.32 11 7 11 C7.66 7.7 8.32 4.4 9 1 C10.32 0.67 11.64 0.34 13 0 C13.99 3.63 14.98 7.26 16 11 C17.32 7.37 18.64 3.74 20 0 C20.66 0 21.32 0 22 0 C20.68 5.61 19.36 11.22 18 17 C17.01 17 16.02 17 15 17 C14.01 13.04 13.02 9.08 12 5 C11.34 5 10.68 5 10 5 C9.34 8.96 8.68 12.92 8 17 C6.68 17 5.36 17 4 17 C3.32635339 14.91891315 2.66133202 12.8350329 2 10.75 C1.62875 9.58984375 1.2575 8.4296875 0.875 7.234375 C0 4 0 4 0 0 Z " fill="#17171A" transform="translate(97,1382)"/>
<path d="M0 0 C0.66 0 1.32 0 2 0 C2.20496094 0.63808594 2.40992187 1.27617188 2.62109375 1.93359375 C2.89050781 2.75988281 3.15992187 3.58617187 3.4375 4.4375 C3.70433594 5.26121094 3.97117187 6.08492187 4.24609375 6.93359375 C4.82155494 8.96219588 4.82155494 8.96219588 6 10 C6.99 6.7 7.98 3.4 9 0 C10.32 0.33 11.64 0.66 13 1 C13.66 4.96 14.32 8.92 15 13 C15.66 13 16.32 13 17 13 C17.09087891 12.09507813 17.09087891 12.09507813 17.18359375 11.171875 C17.26738281 10.37265625 17.35117188 9.5734375 17.4375 8.75 C17.51871094 7.96109375 17.59992188 7.1721875 17.68359375 6.359375 C17.97634993 4.17635361 18.42064419 2.1226818 19 0 C19.99 0 20.98 0 22 0 C21.35083537 6.00477279 19.14204997 11.400781 17 17 C16.01 17 15.02 17 14 17 C13.01 13.37 12.02 9.74 11 6 C10.67 6 10.34 6 10 6 C9.01 9.63 8.02 13.26 7 17 C6.01 17 5.02 17 4 17 C3.32844651 14.73050898 2.6626037 12.4596039 2 10.1875 C1.443125 8.29064453 1.443125 8.29064453 0.875 6.35546875 C0 3 0 3 0 0 Z " fill="#222126" transform="translate(121,1382)"/>
<path d="M0 0 C2.1346875 -0.0309375 2.1346875 -0.0309375 4.3125 -0.0625 C5.51326172 -0.07990234 5.51326172 -0.07990234 6.73828125 -0.09765625 C9 0 9 0 12 1 C13.155 0.79375 14.31 0.5875 15.5 0.375 C19 0 19 0 20.70703125 1.12109375 C22.4971716 3.72247596 22.2977787 5.56293671 22.1875 8.6875 C22.16042969 9.68136719 22.13335937 10.67523437 22.10546875 11.69921875 C22.07066406 12.45847656 22.03585937 13.21773437 22 14 C21.01 14 20.02 14 19 14 C18.67 10.37 18.34 6.74 18 3 C16.35 3.33 14.7 3.66 13 4 C12.67 7.3 12.34 10.6 12 14 C11.34 14 10.68 14 10 14 C9.67 10.7 9.34 7.4 9 4 C7.35 3.67 5.7 3.34 4 3 C3.67 6.63 3.34 10.26 3 14 C2.01 14 1.02 14 0 14 C0 9.38 0 4.76 0 0 Z " fill="#302E36" transform="translate(255,1308)"/>
<path d="M0 0 C2.375 2.3125 2.375 2.3125 4 5 C4 5.99 4 6.98 4 8 C0.37 8 -3.26 8 -7 8 C-6.67 8.66 -6.34 9.32 -6 10 C-2.65747276 10.07427838 -0.1964086 10.06546953 3 9 C1.125 12.875 1.125 12.875 0 14 C-2.875 14.3125 -2.875 14.3125 -6 14 C-8.83268842 11.63942631 -8.98743809 10.11933812 -9.375 6.4375 C-9 3 -9 3 -7.875 1.0625 C-5.0300175 -0.54965675 -3.2088071 -0.52388687 0 0 Z " fill="#25242A" transform="translate(249,1308)"/>
<path d="M0 0 C1.423125 -0.061875 2.84625 -0.12375 4.3125 -0.1875 C5.51326172 -0.23970703 5.51326172 -0.23970703 6.73828125 -0.29296875 C9 0 9 0 10.80078125 1.3515625 C12 3 12 3 11.875 5.5625 C11 8 11 8 8 10 C4.8125 10.125 4.8125 10.125 2 10 C2 12.31 2 14.62 2 17 C1.34 17 0.68 17 0 17 C0 11.39 0 5.78 0 0 Z " fill="#323138" transform="translate(220,1382)"/>
<path d="M0 0 C1.875 1.1875 1.875 1.1875 3 3 C3 4.65 3 6.3 3 8 C-0.3 8 -3.6 8 -7 8 C-6.67 8.66 -6.34 9.32 -6 10 C-2.97065509 10.65772428 -2.97065509 10.65772428 0 11 C0 10.34 0 9.68 0 9 C0.99 9 1.98 9 3 9 C2.4375 10.9375 2.4375 10.9375 1 13 C-4.79844961 14.58139535 -4.79844961 14.58139535 -7.9375 13.0625 C-9.62822841 9.7804978 -9.54135705 6.60904698 -9 3 C-6.89283346 -0.74607384 -4.00604938 -0.50075617 0 0 Z " fill="#29282E" transform="translate(124,1308)"/>
<path d="M0 0 C2 2 2 2 2 7 C-1.3 7 -4.6 7 -8 7 C-7.01 8.485 -7.01 8.485 -6 10 C-2.535 9.505 -2.535 9.505 1 9 C0.67 9.99 0.34 10.98 0 12 C-6.27272727 13.44755245 -6.27272727 13.44755245 -9.4375 11.5 C-11.5664946 8.09360864 -11.57349318 5.9427656 -11 2 C-7.87890362 -1.99500336 -4.5824922 -1.10319257 0 0 Z " fill="#302F37" transform="translate(328,1309)"/>
<path d="M0 0 C1.32 0 2.64 0 4 0 C4.84161854 2.08000011 5.67300763 4.16414146 6.5 6.25 C6.9640625 7.41015625 7.428125 8.5703125 7.90625 9.765625 C9 13 9 13 9 17 C8.34 17 7.68 17 7 17 C6.67 15.68 6.34 14.36 6 13 C3.36 13 0.72 13 -2 13 C-2 14.32 -2 15.64 -2 17 C-2.99 17 -3.98 17 -5 17 C-1.92482916 5.47835991 -1.92482916 5.47835991 0 0 Z " fill="#1D1C20" transform="translate(249,1382)"/>
<path d="M0 0 C2.00097632 0 4.00292042 -0.06268253 6 -0.1875 C9 0 9 0 10.67578125 1.1875 C12.45676151 3.6251839 12.30379525 5.20258857 12.1875 8.1875 C12.16042969 9.08855469 12.13335937 9.98960938 12.10546875 10.91796875 C12.07066406 11.60503906 12.03585937 12.29210938 12 13 C11.01 13 10.02 13 9 13 C8.505 8.05 8.505 8.05 8 3 C6.35 3 4.7 3 3 3 C2.67 6.3 2.34 9.6 2 13 C1.34 13 0.68 13 0 13 C-0.33 9.7 -0.66 6.4 -1 3 C-2.65 3 -4.3 3 -6 3 C-7.58272601 4.58272601 -7.34735747 6.38034003 -7.5625 8.5625 C-7.64628906 9.38878906 -7.73007813 10.21507812 -7.81640625 11.06640625 C-7.87699219 11.70449219 -7.93757812 12.34257813 -8 13 C-8.66 13 -9.32 13 -10 13 C-10 8.71 -10 4.42 -10 0 C-5.5450711 -0.89098578 -4.10511473 -0.97226401 0 0 Z " fill="#222126" transform="translate(246,1347)"/>
<path d="M0 0 C0.99 0 1.98 0 3 0 C3 2.31 3 4.62 3 7 C5.64 7 8.28 7 11 7 C11 4.69 11 2.38 11 0 C11.99 0 12.98 0 14 0 C14 5.61 14 11.22 14 17 C13.01 17 12.02 17 11 17 C11 14.36 11 11.72 11 9 C8.36 9 5.72 9 3 9 C3 11.64 3 14.28 3 17 C2.01 17 1.02 17 0 17 C0 11.39 0 5.78 0 0 Z " fill="#27272D" transform="translate(223,1305)"/>
<path d="M0 0 C3.5625 0.3125 3.5625 0.3125 5.5 1.5625 C6.5625 3.3125 6.5625 3.3125 6.5625 7.3125 C3.2625 7.3125 -0.0375 7.3125 -3.4375 7.3125 C-3.1075 8.3025 -2.7775 9.2925 -2.4375 10.3125 C0.5325 10.8075 0.5325 10.8075 3.5625 11.3125 C3.5625 10.6525 3.5625 9.9925 3.5625 9.3125 C4.5525 9.3125 5.5425 9.3125 6.5625 9.3125 C5.5625 12.3125 5.5625 12.3125 3.5625 13.3125 C0.125 13.6875 0.125 13.6875 -3.4375 13.3125 C-5.4375 11.1875 -5.4375 11.1875 -6.4375 8.3125 C-6.12978047 3.08126796 -5.61474435 0.5104313 0 0 Z " fill="#0E0E10" transform="translate(226.4375,1346.6875)"/>
<path d="M0 0 C4.33333333 0 8.66666667 0 13 0 C14.546875 -0.061875 14.546875 -0.061875 16.125 -0.125 C19 0 19 0 21 2 C21.1953125 4.6015625 21.1953125 4.6015625 21.125 7.625 C21.10695313 8.62789062 21.08890625 9.63078125 21.0703125 10.6640625 C21.04710937 11.43492188 21.02390625 12.20578125 21 13 C20.34 13 19.68 13 19 13 C18.505 8.05 18.505 8.05 18 3 C16.35 3 14.7 3 13 3 C12.67 6.3 12.34 9.6 12 13 C11.34 13 10.68 13 10 13 C9.67 10.03 9.34 7.06 9 4 C7.02 3.34 5.04 2.68 3 2 C2.67 5.63 2.34 9.26 2 13 C1.34 13 0.68 13 0 13 C0 8.71 0 4.42 0 0 Z " fill="#1C1B20" transform="translate(423,1347)"/>
<path d="M0 0 C2 2 2 2 2 7 C-1.3 7 -4.6 7 -8 7 C-7.67 7.99 -7.34 8.98 -7 10 C-3.65747276 10.07427838 -1.1964086 10.06546953 2 9 C1.34 10.32 0.68 11.64 0 13 C-6.34507042 13.35915493 -6.34507042 13.35915493 -8.9375 11.9375 C-10.6140629 8.88023824 -10.36528977 6.4093712 -10 3 C-7.77611809 -1.05531408 -4.20231132 -0.3820283 0 0 Z " fill="#141417" transform="translate(357,1347)"/>
<path d="M0 0 C3.63 0 7.26 0 11 0 C11 0.66 11 1.32 11 2 C8.36 2 5.72 2 3 2 C3 3.32 3 4.64 3 6 C4.11375 5.95875 5.2275 5.9175 6.375 5.875 C10 6 10 6 12 8 C12.47171648 11.61649298 12.41791658 13.37312512 10.375 16.4375 C8 18 8 18 4.875 18 C2 17 2 17 0.625 14.9375 C0.41875 14.298125 0.2125 13.65875 0 13 C0.99 13 1.98 13 3 13 C3.33 13.66 3.66 14.32 4 15 C5.65 14.67 7.3 14.34 9 14 C9 12.35 9 10.7 9 9 C5.65976579 8.90721572 3.31243305 9.17189174 0 10 C0 6.7 0 3.4 0 0 Z " fill="#222126" transform="translate(146,1420)"/>
<path d="M0 0 C5.66748475 2.83374237 6.91171664 6.52531586 10 12 C10.33 8.04 10.66 4.08 11 0 C11.66 0 12.32 0 13 0 C13 5.61 13 11.22 13 17 C12.01 17 11.02 17 10 17 C8.17578125 14.59375 8.17578125 14.59375 6.3125 11.5 C5.68988281 10.4790625 5.06726563 9.458125 4.42578125 8.40625 C3.95527344 7.6121875 3.48476563 6.818125 3 6 C2.67 9.63 2.34 13.26 2 17 C1.34 17 0.68 17 0 17 C0 11.39 0 5.78 0 0 Z " fill="#19191D" transform="translate(292,1382)"/>
<path d="M0 0 C4 1 4 1 5.703125 3.28515625 C6.21359375 4.20167969 6.7240625 5.11820313 7.25 6.0625 C8.03117187 7.44115234 8.03117187 7.44115234 8.828125 8.84765625 C9.21484375 9.55792969 9.6015625 10.26820312 10 11 C10.33 7.37 10.66 3.74 11 0 C11.66 0 12.32 0 13 0 C13 5.61 13 11.22 13 17 C9.05124418 15.68374806 8.45007287 13.94634602 6.3125 10.4375 C5.37857422 8.91962891 5.37857422 8.91962891 4.42578125 7.37109375 C3.95527344 6.58863281 3.48476563 5.80617188 3 5 C2.67 8.96 2.34 12.92 2 17 C1.34 17 0.68 17 0 17 C0 11.39 0 5.78 0 0 Z " fill="#19181C" transform="translate(377,1305)"/>
<path d="M0 0 C3.63 0 7.26 0 11 0 C11 0.66 11 1.32 11 2 C8.03 2 5.06 2 2 2 C2.33 3.32 2.66 4.64 3 6 C3.928125 5.938125 4.85625 5.87625 5.8125 5.8125 C9 6 9 6 10.9375 7.125 C12 9 12 9 11.875 12 C10.61538462 16.31868132 10.61538462 16.31868132 8 18 C5.5 18.375 5.5 18.375 3 18 C1.1875 16.625 1.1875 16.625 0 15 C0 14.34 0 13.68 0 13 C0.86625 13.495 0.86625 13.495 1.75 14 C4.19883862 15.27075898 4.19883862 15.27075898 8 15 C8 13.02 8 11.04 8 9 C4.95613276 8.91773332 2.92824652 9.02391783 0 10 C0 6.7 0 3.4 0 0 Z " fill="#232227" transform="translate(177,1420)"/>
<path d="M0 0 C8.30078125 -0.390625 8.30078125 -0.390625 11 0 C13.00449583 1.93596606 13.84416714 3.2812034 14.43359375 6 C14.44079412 9.68659102 14.44002979 11.42796128 12.125 14.4375 C7.46980139 17.86044015 7.18660047 17 0 17 C0 11.39 0 5.78 0 0 Z M2 1 C2 5.62 2 10.24 2 15 C7.3086849 14.41825155 7.3086849 14.41825155 12 12 C12.33419015 8.99228865 12.52770924 6.89943617 12 4 C10.5 1.83333333 10.5 1.83333333 8 1 C6.02 1 4.04 1 2 1 Z " fill="#1F1E23" transform="translate(98,1305)"/>
<path d="M0 0 C3.3 0 6.6 0 10 0 C10 0.66 10 1.32 10 2 C7.36 2 4.72 2 2 2 C2.33 3.32 2.66 4.64 3 6 C3.94875 5.95875 4.8975 5.9175 5.875 5.875 C9 6 9 6 11 8 C11.543379 13.97716895 11.543379 13.97716895 9.9375 17 C6.86664787 18.58495594 4.27813225 17.68036707 1 17 C0.67 15.68 0.34 14.36 0 13 C0.66 13 1.32 13 2 13 C2 13.66 2 14.32 2 15 C3.66611905 15.042721 5.33382885 15.04063832 7 15 C8.29633621 13.93354885 8.29633621 13.93354885 8.0625 11.4375 C8.041875 10.633125 8.02125 9.82875 8 9 C4.95613276 8.91773332 2.92824652 9.02391783 0 10 C0 6.7 0 3.4 0 0 Z " fill="#232227" transform="translate(162,1420)"/>
<path d="M0 0 C3.0625 0.1875 3.0625 0.1875 5.0625 2.1875 C5.54587545 5.22585998 5.65343686 7.27741605 3.94140625 9.9140625 C2.70708637 11.38965171 1.38924117 12.79442177 0.0625 14.1875 C3.0325 14.6825 3.0325 14.6825 6.0625 15.1875 C6.0625 16.1775 6.0625 17.1675 6.0625 18.1875 C2.1025 18.1875 -1.8575 18.1875 -5.9375 18.1875 C-5.9375 17.1975 -5.9375 16.2075 -5.9375 15.1875 C-3.96261495 13.32722881 -1.84627149 11.74312832 0.3125 10.1015625 C2.33095229 8.28115383 2.33095229 8.28115383 2.3125 5.4609375 C2.18875 4.33558594 2.18875 4.33558594 2.0625 3.1875 C0.7425 3.1875 -0.5775 3.1875 -1.9375 3.1875 C-2.2675 3.8475 -2.5975 4.5075 -2.9375 5.1875 C-3.5975 5.1875 -4.2575 5.1875 -4.9375 5.1875 C-3.82120474 0.24390669 -3.82120474 0.24390669 0 0 Z " fill="#3D3C45" transform="translate(130.9375,1419.8125)"/>
<path d="M0 0 C2.97 0 5.94 0 9 0 C9 0.66 9 1.32 9 2 C7.02 2 5.04 2 3 2 C3 3.65 3 5.3 3 7 C4.98 7 6.96 7 9 7 C9 7.66 9 8.32 9 9 C7.02 9 5.04 9 3 9 C3 10.98 3 12.96 3 15 C4.98 15 6.96 15 9 15 C9 15.66 9 16.32 9 17 C6.03 17 3.06 17 0 17 C0 11.39 0 5.78 0 0 Z " fill="#2E2D34" transform="translate(274,1382)"/>
<path d="M0 0 C3.125 0.25 3.125 0.25 5.0625 1.375 C6.125 3.25 6.125 3.25 6.0625 6.125 C5.01878182 9.60406059 3.55467854 11.58519128 1.125 14.25 C2.775 14.58 4.425 14.91 6.125 15.25 C6.125 15.91 6.125 16.57 6.125 17.25 C2.495 17.25 -1.135 17.25 -4.875 17.25 C-2.875 13.25 -2.875 13.25 -0.3125 10.875 C2.44781376 7.90235442 2.84754985 6.22678555 3.125 2.25 C0.65233235 2.59444881 0.65233235 2.59444881 -1.875 3.25 C-2.205 3.91 -2.535 4.57 -2.875 5.25 C-3.535 5.25 -4.195 5.25 -4.875 5.25 C-3.76341202 0.32725322 -3.76341202 0.32725322 0 0 Z " fill="#333239" transform="translate(102.875,1419.75)"/>
<path d="M0 0 C3.125 0.1875 3.125 0.1875 6.125 2.1875 C5.75618644 8.33439273 4.22449571 10.87777374 0.125 15.1875 C2.105 15.1875 4.085 15.1875 6.125 15.1875 C6.125 15.8475 6.125 16.5075 6.125 17.1875 C2.165 17.1875 -1.795 17.1875 -5.875 17.1875 C-4.59437515 15.4800002 -3.25732443 13.81376404 -1.875 12.1875 C-1.215 12.1875 -0.555 12.1875 0.125 12.1875 C1.98276765 9.05251708 2.32640476 6.81278568 2.125 3.1875 C0.805 3.1875 -0.515 3.1875 -1.875 3.1875 C-2.205 3.8475 -2.535 4.5075 -2.875 5.1875 C-3.535 5.1875 -4.195 5.1875 -4.875 5.1875 C-3.75898577 0.24515125 -3.75898577 0.24515125 0 0 Z " fill="#43424B" transform="translate(116.875,1419.8125)"/>
<path d="M0 0 C8.625 -0.25 8.625 -0.25 12 2 C12.29296875 4.8203125 12.29296875 4.8203125 12.1875 8.125 C12.16042969 9.22070312 12.13335937 10.31640625 12.10546875 11.4453125 C12.07066406 12.28835938 12.03585938 13.13140625 12 14 C11.34 14 10.68 14 10 14 C9.67 10.37 9.34 6.74 9 3 C7.35 3 5.7 3 4 3 C3.67 6.63 3.34 10.26 3 14 C2.01 14 1.02 14 0 14 C0 9.38 0 4.76 0 0 Z " fill="#2B2930" transform="translate(159,1308)"/>
<path d="M0 0 C2 1.5 2 1.5 3 3 C1.29232528 3 -0.41715972 2.972343 -2.12109375 2.859375 C-5.82828012 2.68433079 -8.27677789 2.59429004 -11.5625 4.4375 C-13.75447916 8.34494111 -13.26115032 11.56044456 -13 16 C-9.7 16.66 -6.4 17.32 -3 18 C-3.33 18.66 -3.66 19.32 -4 20 C-11.13513514 20.47567568 -11.13513514 20.47567568 -14.5 18.625 C-16.84348078 14.52390864 -16.87819432 10.59935668 -16 6 C-11.68158849 0.28102259 -6.85494282 -0.85686785 0 0 Z " fill="#403F48" transform="translate(213,1345)"/>
<path d="M0 0 C0.99 0 1.98 0 3 0 C3.99 3.3 4.98 6.6 6 10 C6.33 10 6.66 10 7 10 C7.10957031 9.36191406 7.21914062 8.72382812 7.33203125 8.06640625 C7.49058594 7.24011719 7.64914063 6.41382813 7.8125 5.5625 C7.96332031 4.73878906 8.11414063 3.91507813 8.26953125 3.06640625 C8.51058594 2.38449219 8.75164062 1.70257812 9 1 C9.99 0.67 10.98 0.34 12 0 C11.35729017 5.9129304 9.80996216 11.34244531 8 17 C7.01 17 6.02 17 5 17 C4.49307308 15.4188708 3.99473557 13.83498617 3.5 12.25 C3.2215625 11.36828125 2.943125 10.4865625 2.65625 9.578125 C2 7 2 7 2 3 C1.34 3 0.68 3 0 3 C0 2.01 0 1.02 0 0 Z " fill="#27262C" transform="translate(154,1382)"/>
<path d="M0 0 C2.97 0 5.94 0 9 0 C9 0.66 9 1.32 9 2 C6.69 2 4.38 2 2 2 C2 3.65 2 5.3 2 7 C3.98 7 5.96 7 8 7 C8 7.66 8 8.32 8 9 C6.02 9 4.04 9 2 9 C2 10.98 2 12.96 2 15 C4.31 15 6.62 15 9 15 C9 15.66 9 16.32 9 17 C6.03 17 3.06 17 0 17 C0 11.39 0 5.78 0 0 Z " fill="#1A191D" transform="translate(309,1382)"/>
<path d="M0 0 C0.99 0 1.98 0 3 0 C3.33 3.3 3.66 6.6 4 10 C5.65 10 7.3 10 9 10 C9.33 6.7 9.66 3.4 10 0 C10.66 0 11.32 0 12 0 C12 4.29 12 8.58 12 13 C10.39125 13.061875 8.7825 13.12375 7.125 13.1875 C5.76761719 13.23970703 5.76761719 13.23970703 4.3828125 13.29296875 C3.20332031 13.14794922 3.20332031 13.14794922 2 13 C-0.20914 9.68629 -0.22481553 8.6553979 -0.125 4.8125 C-0.10695313 3.91144531 -0.08890625 3.01039062 -0.0703125 2.08203125 C-0.04710938 1.39496094 -0.02390625 0.70789062 0 0 Z " fill="#2E2D34" transform="translate(127,1347)"/>
<path d="M0 0 C1.423125 -0.061875 2.84625 -0.12375 4.3125 -0.1875 C5.51326172 -0.23970703 5.51326172 -0.23970703 6.73828125 -0.29296875 C9 0 9 0 10.78125 1.1875 C12.42341401 3.62969263 12.30107677 5.27236294 12.1875 8.1875 C12.16042969 9.08855469 12.13335937 9.98960938 12.10546875 10.91796875 C12.07066406 11.60503906 12.03585938 12.29210938 12 13 C11.01 13 10.02 13 9 13 C8.67 9.7 8.34 6.4 8 3 C6.35 3 4.7 3 3 3 C2.67 6.3 2.34 9.6 2 13 C1.34 13 0.68 13 0 13 C0 8.71 0 4.42 0 0 Z " fill="#1E1D21" transform="translate(158,1347)"/>
<path d="M0 0 C1.134375 0.020625 2.26875 0.04125 3.4375 0.0625 C3.7675 1.3825 4.0975 2.7025 4.4375 4.0625 C3.7775 4.0625 3.1175 4.0625 2.4375 4.0625 C2.4375 3.4025 2.4375 2.7425 2.4375 2.0625 C0.7875 2.0625 -0.8625 2.0625 -2.5625 2.0625 C-2.5625 3.0525 -2.5625 4.0425 -2.5625 5.0625 C-0.2525 5.7225 2.0575 6.3825 4.4375 7.0625 C5.0625 8.9375 5.0625 8.9375 5.4375 11.0625 C3.4375 13.0625 3.4375 13.0625 -0.1875 13.1875 C-1.30125 13.14625 -2.415 13.105 -3.5625 13.0625 C-4.2225 11.7425 -4.8825 10.4225 -5.5625 9.0625 C-4.5725 9.0625 -3.5825 9.0625 -2.5625 9.0625 C-2.5625 9.7225 -2.5625 10.3825 -2.5625 11.0625 C-0.9125 11.0625 0.7375 11.0625 2.4375 11.0625 C2.4375 10.0725 2.4375 9.0825 2.4375 8.0625 C1.468125 7.918125 0.49875 7.77375 -0.5 7.625 C-3.5625 7.0625 -3.5625 7.0625 -4.5625 6.0625 C-4.6875 3.5625 -4.6875 3.5625 -4.5625 1.0625 C-3.5625 0.0625 -3.5625 0.0625 0 0 Z " fill="#313038" transform="translate(379.5625,1346.9375)"/>
<path d="M0 0 C0.66 1.32 1.32 2.64 2 4 C-0.31 3.34 -2.62 2.68 -5 2 C-4.27731765 5.2985139 -4.27731765 5.2985139 -0.9375 6.6875 C0.031875 7.120625 1.00125 7.55375 2 8 C1.125 11.875 1.125 11.875 0 13 C-5.52941176 13.23529412 -5.52941176 13.23529412 -8 12 C-8 11.01 -8 10.02 -8 9 C-5.69 9.66 -3.38 10.32 -1 11 C-1 10.01 -1 9.02 -1 8 C-3.97 7.505 -3.97 7.505 -7 7 C-7.33 5.02 -7.66 3.04 -8 1 C-5.29120665 -0.35439668 -2.99066732 -0.06501451 0 0 Z " fill="#242329" transform="translate(370,1347)"/>
<path d="M0 0 C2.125 1.625 2.125 1.625 3 4 C2.6875 7.25 2.6875 7.25 2 10 C0.68 10.33 -0.64 10.66 -2 11 C-1.67 8.36 -1.34 5.72 -1 3 C-7.06264222 3.66264086 -7.06264222 3.66264086 -13 5 C-10.30741137 -0.96216054 -6.10079363 -0.79187632 0 0 Z " fill="#BDB8D4" transform="translate(213,1347)"/>
<path d="M0 0 C2.5 0.25 2.5 0.25 4.5 2.25 C4.6875 5.3125 4.6875 5.3125 4.5 8.25 C3.5 9.25 3.5 9.25 0.5625 9.4375 C-2.5 9.25 -2.5 9.25 -4.5 7.25 C-4.75 4.75 -4.75 4.75 -4.5 2.25 C-2.5 0.25 -2.5 0.25 0 0 Z " fill="#BAB6D1" transform="translate(149.5,1309.75)"/>
<path d="M0 0 C2.5625 0.1875 2.5625 0.1875 4.5625 2.1875 C4.75 5.25 4.75 5.25 4.5625 8.1875 C3.5625 9.1875 3.5625 9.1875 0.625 9.375 C-2.4375 9.1875 -2.4375 9.1875 -4.4375 7.1875 C-3.73338608 0.28718354 -3.73338608 0.28718354 0 0 Z " fill="#BEB9D7" transform="translate(286.4375,1309.8125)"/>
<path d="M0 0 C2.5 0.25 2.5 0.25 4.5 2.25 C4.75 4.75 4.75 4.75 4.5 7.25 C2.5 9.25 2.5 9.25 0 9.5 C-2.5 9.25 -2.5 9.25 -4.5 7.25 C-4.75 4.75 -4.75 4.75 -4.5 2.25 C-2.5 0.25 -2.5 0.25 0 0 Z " fill="#C2BEDC" transform="translate(311.5,1348.75)"/>
<path d="M0 0 C2.97 0 5.94 0 9 0 C9 0.66 9 1.32 9 2 C6.69 2 4.38 2 2 2 C2 3.98 2 5.96 2 8 C3.98 8 5.96 8 8 8 C8 8.33 8 8.66 8 9 C6.02 9 4.04 9 2 9 C2 10.98 2 12.96 2 15 C4.31 15 6.62 15 9 15 C9 15.66 9 16.32 9 17 C6.03 17 3.06 17 0 17 C0 11.39 0 5.78 0 0 Z " fill="#161619" transform="translate(187,1382)"/>
<path d="M0 0 C2.5625 0.1875 2.5625 0.1875 4.5625 2.1875 C4.8125 4.6875 4.8125 4.6875 4.5625 7.1875 C2.5625 9.1875 2.5625 9.1875 0.0625 9.5 C-1.175 9.3453125 -1.175 9.3453125 -2.4375 9.1875 C-4.4375 6.1875 -4.4375 6.1875 -4.125 3.5625 C-3.16420807 0.24340062 -3.16420807 0.24340062 0 0 Z " fill="#C0BCDA" transform="translate(413.4375,1348.8125)"/>
<path d="M0 0 C3 0.125 3 0.125 4 1.125 C4.125 4.625 4.125 4.625 4 8.125 C3 9.125 3 9.125 0 9.25 C-3 9.125 -3 9.125 -4 8.125 C-4.125 4.625 -4.125 4.625 -4 1.125 C-3 0.125 -3 0.125 0 0 Z " fill="#C0BBD8" transform="translate(267,1348.875)"/>
<path d="M0 0 C3 1 3 1 4.1875 3.375 C5 6 5 6 5 9 C5.66 9 6.32 9 7 9 C7.99 6.03 8.98 3.06 10 0 C10.66 0 11.32 0 12 0 C11.44171085 4.32674089 9.78925999 7.9169846 7.98828125 11.83984375 C6.9101156 14.19646668 5.93545336 16.58341215 5 19 C4.34 19 3.68 19 3 19 C3.37125 17.576875 3.37125 17.576875 3.75 16.125 C4.44525471 11.59193927 2.75250017 8.21485631 0.91015625 4.13671875 C0 2 0 2 0 0 Z " fill="#18171B" transform="translate(97,1347)"/>
<path d="M0 0 C0.99 0 1.98 0 3 0 C3.99 1.98 4.98 3.96 6 6 C6.66 5.01 7.32 4.02 8 3 C8.66 2.01 9.32 1.02 10 0 C10.66 0 11.32 0 12 0 C10.125 5.75 10.125 5.75 9 8 C8.77532169 9.53668865 8.59203195 11.07968054 8.4375 12.625 C8.35371094 13.44226562 8.26992188 14.25953125 8.18359375 15.1015625 C8.12300781 15.72804688 8.06242187 16.35453125 8 17 C7.01 17 6.02 17 5 17 C4.89042969 16.35933594 4.78085937 15.71867187 4.66796875 15.05859375 C3.67539672 9.6438309 2.37541347 4.96677361 0 0 Z " fill="#312F37" transform="translate(393,1305)"/>
<path d="M0 0 C2.33944736 0.28730055 4.6739143 0.61936779 7 1 C7.04241723 3.33294775 7.04092937 5.66702567 7 8 C6 9 6 9 3 9.125 C0 9 0 9 -1 8 C-1.125 4.5 -1.125 4.5 -1 1 C-0.67 0.67 -0.34 0.34 0 0 Z " fill="#C2BDDC" transform="translate(325,1349)"/>
<path d="M0 0 C3 0.125 3 0.125 4 1.125 C4.1875 4.0625 4.1875 4.0625 4 7.125 C2 9.125 2 9.125 -0.5625 9.3125 C-3 9.125 -3 9.125 -4 8.125 C-4.125 4.625 -4.125 4.625 -4 1.125 C-3 0.125 -3 0.125 0 0 Z " fill="#C3BEDB" transform="translate(187,1348.875)"/>
<path d="M0 0 C1.4540625 0.0309375 1.4540625 0.0309375 2.9375 0.0625 C3.5975 1.3825 4.2575 2.7025 4.9375 4.0625 C2.6275 3.7325 0.3175 3.4025 -2.0625 3.0625 C-2.0625 3.7225 -2.0625 4.3825 -2.0625 5.0625 C1.4025 6.5475 1.4025 6.5475 4.9375 8.0625 C4.0625 12.9375 4.0625 12.9375 2.9375 14.0625 C0.59805264 13.77519945 -1.7364143 13.44313221 -4.0625 13.0625 C-4.3925 12.0725 -4.7225 11.0825 -5.0625 10.0625 C-2.7525 10.3925 -0.4425 10.7225 1.9375 11.0625 C1.9375 10.4025 1.9375 9.7425 1.9375 9.0625 C0.761875 8.629375 0.761875 8.629375 -0.4375 8.1875 C-3.0625 7.0625 -3.0625 7.0625 -5.0625 5.0625 C-4.45789299 1.07209375 -4.2025713 0.08576676 0 0 Z " fill="#212025" transform="translate(301.0625,1307.9375)"/>
<path d="M0 0 C2.5625 0.1875 2.5625 0.1875 4.5625 2.1875 C4.75 5.25 4.75 5.25 4.5625 8.1875 C3.5625 9.1875 3.5625 9.1875 0.5625 9.3125 C-2.4375 9.1875 -2.4375 9.1875 -3.4375 8.1875 C-3.5625 4.6875 -3.5625 4.6875 -3.4375 1.1875 C-2.4375 0.1875 -2.4375 0.1875 0 0 Z " fill="#C2BDDC" transform="translate(338.4375,1309.8125)"/>
<path d="M0 0 C2.4375 0.1875 2.4375 0.1875 3.4375 1.1875 C3.5625 4.6875 3.5625 4.6875 3.4375 8.1875 C2.4375 9.1875 2.4375 9.1875 -0.625 9.25 C-1.594375 9.229375 -2.56375 9.20875 -3.5625 9.1875 C-4.1875 5.8125 -4.1875 5.8125 -4.5625 2.1875 C-2.5625 0.1875 -2.5625 0.1875 0 0 Z " fill="#C4BFDE" transform="translate(295.5625,1348.8125)"/>
<path d="M0 0 C2.5625 0.1875 2.5625 0.1875 4.5625 2.1875 C4.6875 5.3125 4.6875 5.3125 4.5625 8.1875 C2.2364143 8.56813221 -0.09805264 8.90019945 -2.4375 9.1875 C-3.4375 8.1875 -3.4375 8.1875 -3.5625 4.6875 C-3.40444215 0.26188017 -3.40444215 0.26188017 0 0 Z " fill="#C3BEDB" transform="translate(117.4375,1348.8125)"/>
<path d="M0 0 C3.125 0.375 3.125 0.375 6 1 C6.04241723 3.33294775 6.04092937 5.66702567 6 8 C5 9 5 9 2 9.125 C-1 9 -1 9 -2 8 C-2.1875 5.0625 -2.1875 5.0625 -2 2 C-1.34 1.34 -0.68 0.68 0 0 Z " fill="#C3BEDD" transform="translate(353,1310)"/>
<path d="M0 0 C1 1 1 1 1.125 4 C1 7 1 7 0 8 C-3 8.125 -3 8.125 -6 8 C-7 7 -7 7 -7.0625 3.4375 C-7.041875 2.303125 -7.02125 1.16875 -7 0 C-4.31633121 -1.3418344 -2.84719317 -0.73004953 0 0 Z " fill="#C3BEDB" transform="translate(205,1311)"/>
<path d="M0 0 C3.63 0 7.26 0 11 0 C10.42912225 6.70781359 7.98548202 12.02903597 5 18 C4.01 18 3.02 18 2 18 C3.63958758 12.76727367 5.38952035 7.84803364 8 3 C5.36 2.67 2.72 2.34 0 2 C0 1.34 0 0.68 0 0 Z " fill="#29282E" transform="translate(224,1420)"/>
<path d="M0 0 C0.66 1.32 1.32 2.64 2 4 C0.700625 3.814375 -0.59875 3.62875 -1.9375 3.4375 C-4.08575543 3.1018371 -4.08575543 3.1018371 -6 3 C-7.28322547 4.0595877 -7.28322547 4.0595877 -7.125 6.5 C-7.28322547 8.9404123 -7.28322547 8.9404123 -6 10 C-2.93518979 10.1613058 -0.94450722 9.98150241 2 9 C1.34 10.32 0.68 11.64 0 13 C-6.42210386 13.48468708 -6.42210386 13.48468708 -8.9375 11.375 C-10.295454 8.33957342 -10.42030443 6.29238472 -10 3 C-7.7109263 -1.03954182 -4.21983723 -0.23885871 0 0 Z " fill="#1C1B1F" transform="translate(402,1347)"/>
<path d="M0 0 C3 1 3 1 4.1875 3.3125 C5 6 5 6 5 10 C5.66 10 6.32 10 7 10 C7.10957031 9.36191406 7.21914062 8.72382812 7.33203125 8.06640625 C7.49058594 7.24011719 7.64914063 6.41382813 7.8125 5.5625 C7.96332031 4.73878906 8.11414063 3.91507813 8.26953125 3.06640625 C8.51058594 2.38449219 8.75164062 1.70257812 9 1 C9.99 0.67 10.98 0.34 12 0 C11.21824485 4.84688192 9.60155722 9.3766367 8 14 C6.68 14 5.36 14 4 14 C3.32968281 12.0429132 2.66385317 10.08428887 2 8.125 C1.62875 7.03445313 1.2575 5.94390625 0.875 4.8203125 C0 2 0 2 0 0 Z " fill="#34333A" transform="translate(129,1308)"/>
<path d="M0 0 C3.63 0 7.26 0 11 0 C10.55397709 6.69034366 7.92654458 12.02812122 5 18 C4.34 18 3.68 18 3 18 C3.60636233 12.23955788 5.75658279 7.27985631 8 2 C5.36 2 2.72 2 0 2 C0 1.34 0 0.68 0 0 Z " fill="#1E1D21" transform="translate(237,1420)"/>
<path d="M0 0 C3.96 0 7.92 0 12 0 C11.14491137 4.27544316 10.02456846 7.78378777 8.4375 11.8125 C7.98246094 12.97394531 7.52742187 14.13539062 7.05859375 15.33203125 C6.70925781 16.21246094 6.35992187 17.09289063 6 18 C5.01 18 4.02 18 3 18 C4.74807129 12.53262809 6.65794081 7.24175152 9 2 C6.03 2 3.06 2 0 2 C0 1.34 0 0.68 0 0 Z " fill="#242329" transform="translate(197,1420)"/>
<path d="M0 0 C0.99 0 1.98 0 3 0 C3 4.95 3 9.9 3 15 C4.65 15 6.3 15 8 15 C8 15.66 8 16.32 8 17 C5.36 17 2.72 17 0 17 C0 11.39 0 5.78 0 0 Z " fill="#2E2D33" transform="translate(234,1382)"/>
<path d="M0 0 C0.99 0 1.98 0 3 0 C3 0.66 3 1.32 3 2 C2.34 2 1.68 2 1 2 C1 2.99 1 3.98 1 5 C1.66 5 2.32 5 3 5 C3 5.66 3 6.32 3 7 C2.34 7 1.68 7 1 7 C1 10.63 1 14.26 1 18 C0.01 18 -0.98 18 -2 18 C-2.25034126 15.9399629 -2.47443346 13.87672534 -2.6875 11.8125 C-2.81511719 10.66394531 -2.94273437 9.51539063 -3.07421875 8.33203125 C-2.99071547 4.58317356 -2.36985035 2.87961221 0 0 Z " fill="#2D2C32" transform="translate(175,1342)"/>
<path d="M0 0 C3.63 0 7.26 0 11 0 C10.44380331 4.6889493 9.11817327 8.19924267 6.9375 12.375 C6.38964844 13.43460938 5.84179688 14.49421875 5.27734375 15.5859375 C4.85582031 16.38257813 4.43429688 17.17921875 4 18 C2.83838221 15.13421241 3.0053846 13.98369837 3.99609375 10.984375 C4.70958984 9.38335938 4.70958984 9.38335938 5.4375 7.75 C5.91058594 6.67234375 6.38367188 5.5946875 6.87109375 4.484375 C7.24363281 3.66453125 7.61617187 2.8446875 8 2 C5.36 2 2.72 2 0 2 C0 1.34 0 0.68 0 0 Z " fill="#2C2B32" transform="translate(211,1420)"/>
<path d="M0 0 C0.99 0 1.98 0 3 0 C3 2.64 3 5.28 3 8 C5.64 8 8.28 8 11 8 C11 8.33 11 8.66 11 9 C8.36 9 5.72 9 3 9 C3 11.64 3 14.28 3 17 C2.01 17 1.02 17 0 17 C0 11.39 0 5.78 0 0 Z " fill="#38363E" transform="translate(223,1305)"/>
<path d="M0 0 C0.99 0.33 1.98 0.66 3 1 C3.66 4.3 4.32 7.6 5 11 C5.66 11 6.32 11 7 11 C7 10.34 7 9.68 7 9 C7.66 9 8.32 9 9 9 C8.67 11.64 8.34 14.28 8 17 C6.68 17 5.36 17 4 17 C3.32635339 14.91891315 2.66133202 12.8350329 2 10.75 C1.62875 9.58984375 1.2575 8.4296875 0.875 7.234375 C0 4 0 4 0 0 Z " fill="#2E2D33" transform="translate(97,1382)"/>
<path d="M0 0 C1 1 1 1 1.1875 3.4375 C1 6 1 6 -1 8 C-3.625 7.625 -3.625 7.625 -6 7 C-6 6.34 -6 5.68 -6 5 C-6.66 5 -7.32 5 -8 5 C-8.33 5.66 -8.66 6.32 -9 7 C-8.6875 4.625 -8.6875 4.625 -8 2 C-4.77786243 -0.14809171 -3.72224599 -0.29386153 0 0 Z " fill="#BDB8D4" transform="translate(170,1428)"/>
<path d="M0 0 C1 1 1 1 1.1875 3.4375 C1 6 1 6 -1 8 C-3.625 7.625 -3.625 7.625 -6 7 C-6 6.34 -6 5.68 -6 5 C-6.99 4.67 -7.98 4.34 -9 4 C-9 3.34 -9 2.68 -9 2 C-5.87703962 0.14935681 -3.62059232 -0.29356154 0 0 Z " fill="#BCB8D3" transform="translate(155,1428)"/>
<path d="M0 0 C1 1 1 1 1.0625 4.0625 C1.041875 5.031875 1.02125 6.00125 1 7 C-1.25 7.75 -1.25 7.75 -4 8 C-6.3125 6.1875 -6.3125 6.1875 -8 4 C-8 3.34 -8 2.68 -8 2 C-4.77786243 -0.14809171 -3.72224599 -0.29386153 0 0 Z " fill="#BEB9D5" transform="translate(185,1428)"/>
<path d="M0 0 C1.32 0.33 2.64 0.66 4 1 C3.01 1 2.02 1 1 1 C1 1.66 1 2.32 1 3 C1.66 3 2.32 3 3 3 C3.66 5.97 4.32 8.94 5 12 C3.02 12 1.04 12 -1 12 C-2.1875 10.5 -2.1875 10.5 -3 8 C-2.27101296 5.21175762 -1.1843275 2.62334908 0 0 Z " fill="#3B3942" transform="translate(249,1382)"/>
<path d="M0 0 C0.99 0 1.98 0 3 0 C3 5.94 3 11.88 3 18 C2.01 18 1.02 18 0 18 C0 12.06 0 6.12 0 0 Z " fill="#313037" transform="translate(283,1342)"/>
<path d="M0 0 C3.63 0 7.26 0 11 0 C11 0.66 11 1.32 11 2 C9.68 2 8.36 2 7 2 C7 6.95 7 11.9 7 17 C6.34 17 5.68 17 5 17 C5 12.05 5 7.1 5 2 C3.35 2 1.7 2 0 2 C0 1.34 0 0.68 0 0 Z " fill="#19181C" transform="translate(320,1382)"/>
<path d="M0 0 C3.63 0 7.26 0 11 0 C11 0.66 11 1.32 11 2 C9.68 2 8.36 2 7 2 C7 6.95 7 11.9 7 17 C6.34 17 5.68 17 5 17 C5 12.05 5 7.1 5 2 C3.35 2 1.7 2 0 2 C0 1.34 0 0.68 0 0 Z " fill="#19181C" transform="translate(260,1382)"/>
<path d="M0 0 C3.63 0 7.26 0 11 0 C11 0.66 11 1.32 11 2 C9.68 2 8.36 2 7 2 C7 6.95 7 11.9 7 17 C6.34 17 5.68 17 5 17 C5 12.05 5 7.1 5 2 C3.35 2 1.7 2 0 2 C0 1.34 0 0.68 0 0 Z " fill="#19191C" transform="translate(173,1382)"/>
<path d="M0 0 C0.8353125 0.928125 0.8353125 0.928125 1.6875 1.875 C4.06645178 4.06106379 5.96357096 4.98785699 9 6 C8.67 6.99 8.34 7.98 8 9 C0.25 8.125 0.25 8.125 -2 7 C-2 5.02 -2 3.04 -2 1 C-1.34 0.67 -0.68 0.34 0 0 Z " fill="#AEAAC5" transform="translate(295,1311)"/>
<path d="M0 0 C2.31 0 4.62 0 7 0 C7 0.66 7 1.32 7 2 C6.01 2.33 5.02 2.66 4 3 C3.67 6.3 3.34 9.6 3 13 C2.01 13 1.02 13 0 13 C0 8.71 0 4.42 0 0 Z " fill="#29282E" transform="translate(338,1347)"/>
<path d="M0 0 C0.99 0 1.98 0 3 0 C3 1.65 3 3.3 3 5 C-0.53411321 7.12046792 -3.94393835 7.53199289 -8 8 C-8.66 6.68 -9.32 5.36 -10 4 C-6.7 4 -3.4 4 0 4 C0 2.68 0 1.36 0 0 Z " fill="#BAB6D3" transform="translate(330,1312)"/>
<path d="M0 0 C2.31 0.33 4.62 0.66 7 1 C7.042721 2.66611905 7.04063832 4.33382885 7 6 C6 7 6 7 2.9375 7.0625 C1.4834375 7.0315625 1.4834375 7.0315625 0 7 C0 4.69 0 2.38 0 0 Z " fill="#B1ADC7" transform="translate(183,1306)"/>
<path d="M0 0 C0.66 0 1.32 0 2 0 C2 0.99 2 1.98 2 3 C2.99 3 3.98 3 5 3 C5 3.66 5 4.32 5 5 C4.01 5 3.02 5 2 5 C2.11409593 6.45922693 2.24165544 7.91740598 2.375 9.375 C2.44460938 10.18710938 2.51421875 10.99921875 2.5859375 11.8359375 C2.82892588 14.20334191 2.82892588 14.20334191 5 16 C3.35 15.67 1.7 15.34 0 15 C0 11.7 0 8.4 0 5 C-0.66 5 -1.32 5 -2 5 C-2 4.34 -2 3.68 -2 3 C-1.34 3 -0.68 3 0 3 C0 2.01 0 1.02 0 0 Z " fill="#1C1C20" transform="translate(310,1305)"/>
<path d="M0 0 C0.33 0 0.66 0 1 0 C1 3.96 1 7.92 1 12 C-1 9 -1 9 -1 7 C-3.31 7 -5.62 7 -8 7 C-8.66 8.98 -9.32 10.96 -10 13 C-10.33 13 -10.66 13 -11 13 C-11.125 9.625 -11.125 9.625 -11 6 C-9 4 -9 4 -5.4375 3.8125 C-2 4 -2 4 -1 5 C-0.67 3.35 -0.34 1.7 0 0 Z " fill="#141317" transform="translate(333,1343)"/>
<path d="M0 0 C3.63 0 7.26 0 11 0 C11 0.66 11 1.32 11 2 C8.03 2 5.06 2 2 2 C2 3.65 2 5.3 2 7 C2.99 7.33 3.98 7.66 5 8 C3.35 8.66 1.7 9.32 0 10 C0 6.7 0 3.4 0 0 Z " fill="#161619" transform="translate(177,1420)"/>
<path d="M0 0 C0.99 0 1.98 0 3 0 C4.5912689 4.873261 5.21192221 8.80790596 5 14 C5.66 14 6.32 14 7 14 C7 14.66 7 15.32 7 16 C5.109375 15.375 5.109375 15.375 3 14 C1.953125 11.25 1.953125 11.25 1.25 8 C1.00765625 6.9275 0.7653125 5.855 0.515625 4.75 C0 2 0 2 0 0 Z " fill="#2F2E35" transform="translate(144,1382)"/>
<path d="M0 0 C0.66 0 1.32 0 2 0 C2.33 2.31 2.66 4.62 3 7 C5.64 7.33 8.28 7.66 11 8 C10.67 8.66 10.34 9.32 10 10 C2.57690141 10.48676056 2.57690141 10.48676056 0 8.3125 C-1.14619401 5.66192635 -1.30912771 3.85943129 -1 1 C-0.67 0.67 -0.34 0.34 0 0 Z " fill="#27262C" transform="translate(261,1350)"/>
<path d="M0 0 C3.3 0 6.6 0 10 0 C10 0.66 10 1.32 10 2 C7.36 2 4.72 2 2 2 C2 3.65 2 5.3 2 7 C2.66 7.33 3.32 7.66 4 8 C2.02 8.99 2.02 8.99 0 10 C0 6.7 0 3.4 0 0 Z " fill="#161619" transform="translate(162,1420)"/>
<path d="M0 0 C0.99 0 1.98 0 3 0 C3 4.29 3 8.58 3 13 C2.01 13 1.02 13 0 13 C0 8.71 0 4.42 0 0 Z " fill="#38373F" transform="translate(277,1347)"/>
<path d="M0 0 C0.66 0 1.32 0 2 0 C3.45184478 4.53701494 4.23509196 8.18061476 4 13 C4.99 13 5.98 13 7 13 C7 14.32 7 15.64 7 17 C6.01 17 5.02 17 4 17 C3.32844651 14.73050898 2.6626037 12.4596039 2 10.1875 C1.443125 8.29064453 1.443125 8.29064453 0.875 6.35546875 C0 3 0 3 0 0 Z " fill="#1A191D" transform="translate(121,1382)"/>
<path d="M0 0 C0.66 0 1.32 0 2 0 C2 5.61 2 11.22 2 17 C1.01 17 0.02 17 -1 17 C-0.67 11.39 -0.34 5.78 0 0 Z " fill="#161518" transform="translate(303,1382)"/>
<path d="M0 0 C0.66 0 1.32 0 2 0 C2 5.61 2 11.22 2 17 C1.01 16.67 0.02 16.34 -1 16 C-0.67 10.72 -0.34 5.44 0 0 Z " fill="#0F0F11" transform="translate(388,1305)"/>
<path d="M0 0 C2.97 0 5.94 0 9 0 C9 0.66 9 1.32 9 2 C6.69 2 4.38 2 2 2 C2 3.65 2 5.3 2 7 C3.98 7 5.96 7 8 7 C8 7.33 8 7.66 8 8 C5.36 8 2.72 8 0 8 C0 5.36 0 2.72 0 0 Z " fill="#26252B" transform="translate(309,1382)"/>
<path d="M0 0 C1.98 0 3.96 0 6 0 C6 0.66 6 1.32 6 2 C5.01 2.66 4.02 3.32 3 4 C2.42006301 6.19454681 2.42006301 6.19454681 2.3125 8.625 C2.21388672 9.85089844 2.21388672 9.85089844 2.11328125 11.1015625 C2.05720703 12.04128906 2.05720703 12.04128906 2 13 C1.34 13 0.68 13 0 13 C0 8.71 0 4.42 0 0 Z " fill="#161619" transform="translate(143,1347)"/>
<path d="M0 0 C3.0625 0.1875 3.0625 0.1875 5.0625 2.1875 C5.1875 5.3125 5.1875 5.3125 5.0625 8.1875 C4.0725 8.6825 4.0725 8.6825 3.0625 9.1875 C2.7325 7.2075 2.4025 5.2275 2.0625 3.1875 C0.7425 3.1875 -0.5775 3.1875 -1.9375 3.1875 C-2.2675 3.8475 -2.5975 4.5075 -2.9375 5.1875 C-3.5975 5.1875 -4.2575 5.1875 -4.9375 5.1875 C-3.82120474 0.24390669 -3.82120474 0.24390669 0 0 Z " fill="#1B1B1F" transform="translate(130.9375,1419.8125)"/>
<path d="M0 0 C2.125 0.375 2.125 0.375 4 1 C3.67 2.65 3.34 4.3 3 6 C1.35 6.33 -0.3 6.66 -2 7 C-2.125 4.625 -2.125 4.625 -2 2 C-1.34 1.34 -0.68 0.68 0 0 Z " fill="#C1BCD9" transform="translate(206,1351)"/>
<path d="M0 0 C1.65 0 3.3 0 5 0 C5.38218767 1.65614657 5.71395102 3.32457024 6 5 C5 6 5 6 2.4375 6.0625 C1.2309375 6.0315625 1.2309375 6.0315625 0 6 C0 4.02 0 2.04 0 0 Z " fill="#C4BFDB" transform="translate(223,1384)"/>
<path d="M0 0 C0.66 0 1.32 0 2 0 C0.68 5.61 -0.64 11.22 -2 17 C-2.99 16.67 -3.98 16.34 -5 16 C-4.34 16 -3.68 16 -3 16 C-3.061875 14.845 -3.12375 13.69 -3.1875 12.5 C-3.21274356 7.78786879 -1.84474512 4.30440528 0 0 Z " fill="#232227" transform="translate(117,1382)"/>
<path d="M0 0 C0.33 0 0.66 0 1 0 C1.66 2.64 2.32 5.28 3 8 C6.3 8.66 9.6 9.32 13 10 C12.67 10.66 12.34 11.32 12 12 C4.8 12.48 4.8 12.48 1.5 10.5 C-0.68405234 6.85991277 -0.28023018 4.20345267 0 0 Z " fill="#242329" transform="translate(197,1353)"/>
<path d="M0 0 C3.3 0 6.6 0 10 0 C10 0.66 10 1.32 10 2 C9.01 2 8.02 2 7 2 C7 2.66 7 3.32 7 4 C5.02 4 3.04 4 1 4 C0.67 2.68 0.34 1.36 0 0 Z " fill="#ADA9C2" transform="translate(223,1354)"/>
<path d="M0 0 C0.33 0 0.66 0 1 0 C1 4.29 1 8.58 1 13 C-1.97 12.67 -4.94 12.34 -8 12 C-8 11.67 -8 11.34 -8 11 C-6.35 10.67 -4.7 10.34 -3 10 C-2.814375 8.63875 -2.814375 8.63875 -2.625 7.25 C-2.07890323 4.41029677 -1.42736197 2.47409409 0 0 Z " fill="#37363E" transform="translate(301,1347)"/>
<path d="M0 0 C0.66 0.66 1.32 1.32 2 2 C5.39597063 2.21676408 7.75778445 2.08073852 11 1 C9.125 4.875 9.125 4.875 8 6 C5.0625 6.1875 5.0625 6.1875 2 6 C1.34 5.34 0.68 4.68 0 4 C0 2.68 0 1.36 0 0 Z " fill="#36343D" transform="translate(241,1316)"/>
<path d="M0 0 C0.66 0 1.32 0 2 0 C1.25 4.75 1.25 4.75 -1 7 C-4.5 7.25 -4.5 7.25 -8 7 C-8.66 6.34 -9.32 5.68 -10 5 C-9.34 4.01 -8.68 3.02 -8 2 C-7.67 2.66 -7.34 3.32 -7 4 C-5.35 4 -3.7 4 -2 4 C-1.34 2.68 -0.68 1.36 0 0 Z " fill="#26252B" transform="translate(418,1353)"/>
<path d="M0 0 C0.33 0.99 0.66 1.98 1 3 C1.66 3 2.32 3 3 3 C3.33 5.97 3.66 8.94 4 12 C3.01 11.67 2.02 11.34 1 11 C0.67 11.99 0.34 12.98 0 14 C0 9.38 0 4.76 0 0 Z " fill="#B9B4D1" transform="translate(346,1308)"/>
<path d="M0 0 C0.33 0 0.66 0 1 0 C1 2.31 1 4.62 1 7 C1.66 7 2.32 7 3 7 C3 9.31 3 11.62 3 14 C2.34 14 1.68 14 1 14 C0.67 14.99 0.34 15.98 0 17 C0 11.39 0 5.78 0 0 Z " fill="#BBB7D3" transform="translate(286,1343)"/>
<path d="M0 0 C0.33 0 0.66 0 1 0 C1.66 1.98 2.32 3.96 3 6 C6.28696233 6.79953138 7.71023192 7.09658936 11 6 C10.67 6.99 10.34 7.98 10 9 C3.62573591 10.32296047 3.62573591 10.32296047 1.0625 9 C-0.52633023 6.00926074 -0.18792343 3.31998061 0 0 Z " fill="#1C1B20" transform="translate(318,1312)"/>
<path d="M0 0 C1.98 0 3.96 0 6 0 C6.33 1.32 6.66 2.64 7 4 C4.36 4 1.72 4 -1 4 C-0.67 2.68 -0.34 1.36 0 0 Z " fill="#A5A1BB" transform="translate(350,1349)"/>
<path d="M0 0 C1.98 0 3.96 0 6 0 C6.33 1.32 6.66 2.64 7 4 C4.36 4 1.72 4 -1 4 C-0.67 2.68 -0.34 1.36 0 0 Z " fill="#A5A1BA" transform="translate(224,1349)"/>
<path d="M0 0 C0.66 0 1.32 0 2 0 C1.27991594 4.60853797 -0.31295939 8.67237409 -2 13 C-2.99 13 -3.98 13 -5 13 C-5 12.34 -5 11.68 -5 11 C-4.34 11 -3.68 11 -3 11 C-2.87625 10.29875 -2.7525 9.5975 -2.625 8.875 C-1.96161655 5.82343613 -1.02788045 2.94659062 0 0 Z " fill="#212025" transform="translate(139,1308)"/>
<path d="M0 0 C0.66 0.99 1.32 1.98 2 3 C5.06556598 3.73343428 5.06556598 3.73343428 8 4 C8 3.34 8 2.68 8 2 C8.99 2 9.98 2 11 2 C10 5 10 5 8 6 C5.6670134 6.04022391 3.33293334 6.04320247 1 6 C-0.0625 4.125 -0.0625 4.125 -1 2 C-0.67 1.34 -0.34 0.68 0 0 Z " fill="#2B2A30" transform="translate(222,1354)"/>
<path d="M0 0 C0.66 0 1.32 0 2 0 C2 4.29 2 8.58 2 13 C0.68 12.34 -0.64 11.68 -2 11 C-1.67 10.67 -1.34 10.34 -1 10 C-0.76712992 8.31816052 -0.58735834 6.6287584 -0.4375 4.9375 C-0.35371094 4.01839844 -0.26992187 3.09929687 -0.18359375 2.15234375 C-0.12300781 1.44207031 -0.06242188 0.73179688 0 0 Z " fill="#0F0F11" transform="translate(137,1347)"/>
<path d="M0 0 C1.134375 0.020625 2.26875 0.04125 3.4375 0.0625 C3.7675 1.3825 4.0975 2.7025 4.4375 4.0625 C3.7775 4.0625 3.1175 4.0625 2.4375 4.0625 C2.4375 3.4025 2.4375 2.7425 2.4375 2.0625 C0.7875 2.0625 -0.8625 2.0625 -2.5625 2.0625 C-2.2325 3.3825 -1.9025 4.7025 -1.5625 6.0625 C-2.5525 6.0625 -3.5425 6.0625 -4.5625 6.0625 C-4.605221 4.39638095 -4.60313832 2.72867115 -4.5625 1.0625 C-3.5625 0.0625 -3.5625 0.0625 0 0 Z " fill="#1F1F24" transform="translate(379.5625,1346.9375)"/>
<path d="M0 0 C2.31 0.33 4.62 0.66 7 1 C7 1.99 7 2.98 7 4 C4.36 4 1.72 4 -1 4 C-0.67 2.68 -0.34 1.36 0 0 Z " fill="#A7A3BE" transform="translate(243,1310)"/>
<path d="M0 0 C3.0625 0.1875 3.0625 0.1875 5.0625 2.1875 C4.6875 4.3125 4.6875 4.3125 4.0625 6.1875 C3.4025 5.1975 2.7425 4.2075 2.0625 3.1875 C0.7425 3.1875 -0.5775 3.1875 -1.9375 3.1875 C-2.2675 3.8475 -2.5975 4.5075 -2.9375 5.1875 C-3.5975 5.1875 -4.2575 5.1875 -4.9375 5.1875 C-3.82120474 0.24390669 -3.82120474 0.24390669 0 0 Z " fill="#1C1C20" transform="translate(116.9375,1419.8125)"/>
<path d="M0 0 C0.66 0 1.32 0 2 0 C2.96661363 3.12180401 2.98988909 5.52083795 2.5625 8.75 C2.40974609 9.94882813 2.40974609 9.94882813 2.25390625 11.171875 C2.12822266 12.07679687 2.12822266 12.07679687 2 13 C1.34 13 0.68 13 0 13 C0 8.71 0 4.42 0 0 Z " fill="#0E0D0F" transform="translate(236,1347)"/>
<path d="M0 0 C1.670625 0.061875 1.670625 0.061875 3.375 0.125 C3.705 1.445 4.035 2.765 4.375 4.125 C2.065 3.795 -0.245 3.465 -2.625 3.125 C-2.955 5.105 -3.285 7.085 -3.625 9.125 C-3.955 9.125 -4.285 9.125 -4.625 9.125 C-5.25 5.75 -5.25 5.75 -5.625 2.125 C-3.625 0.125 -3.625 0.125 0 0 Z " fill="#302E35" transform="translate(117.625,1346.875)"/>
<path d="M0 0 C1.65 0 3.3 0 5 0 C5.66 1.32 6.32 2.64 7 4 C4.36 4 1.72 4 -1 4 C-0.67 2.68 -0.34 1.36 0 0 Z " fill="#ACA8C3" transform="translate(321,1310)"/>
<path d="M0 0 C1.65 0 3.3 0 5 0 C5.66 1.32 6.32 2.64 7 4 C4.36 4 1.72 4 -1 4 C-0.67 2.68 -0.34 1.36 0 0 Z " fill="#ACA8C1" transform="translate(118,1310)"/>
<path d="M0 0 C0.33 0.99 0.66 1.98 1 3 C1.66 3 2.32 3 3 3 C3.3367697 7.93928888 3.16130459 8.78492722 0 13 C0 8.71 0 4.42 0 0 Z " fill="#BCB8D5" transform="translate(302,1347)"/>
<path d="M0 0 C0.66 0 1.32 0 2 0 C1.27991594 4.60853797 -0.31295939 8.67237409 -2 13 C-2.33 12.01 -2.66 11.02 -3 10 C-3.66 9.67 -4.32 9.34 -5 9 C-4.34 9 -3.68 9 -3 9 C-2.01 6.03 -1.02 3.06 0 0 Z " fill="#2B2A30" transform="translate(107,1347)"/>
<path d="M0 0 C0.66 1.32 1.32 2.64 2 4 C1.05125 3.835 0.1025 3.67 -0.875 3.5 C-3.80168901 2.9473365 -3.80168901 2.9473365 -6 3 C-6 4.98 -6 6.96 -6 9 C-6.33 9 -6.66 9 -7 9 C-7.33 6.69 -7.66 4.38 -8 2 C-4.77208445 -0.1519437 -3.71599191 -0.20086443 0 0 Z " fill="#2D2C33" transform="translate(204,1308)"/>
<path d="M0 0 C0.99 0 1.98 0 3 0 C3.33 1.98 3.66 3.96 4 6 C3.67 5.34 3.34 4.68 3 4 C2.34 4 1.68 4 1 4 C1 7.63 1 11.26 1 15 C0.67 15 0.34 15 0 15 C0 10.05 0 5.1 0 0 Z " fill="#09090A" transform="translate(200,1383)"/>
<path d="M0 0 C0.66 1.32 1.32 2.64 2 4 C-0.64 3.34 -3.28 2.68 -6 2 C-6 2.99 -6 3.98 -6 5 C-6.66 5 -7.32 5 -8 5 C-8 3.68 -8 2.36 -8 1 C-5.29120665 -0.35439668 -2.99066732 -0.06501451 0 0 Z " fill="#232228" transform="translate(370,1347)"/>
<path d="M0 0 C1.37478516 0.01740234 1.37478516 0.01740234 2.77734375 0.03515625 C3.69644531 0.04417969 4.61554688 0.05320312 5.5625 0.0625 C6.27277344 0.07410156 6.98304688 0.08570313 7.71484375 0.09765625 C6.37109375 2.0703125 6.37109375 2.0703125 4.71484375 4.09765625 C2.21484375 4.53515625 2.21484375 4.53515625 -0.28515625 4.09765625 C-2.09765625 2.59765625 -2.09765625 2.59765625 -3.28515625 1.09765625 C-2.28515625 0.09765625 -2.28515625 0.09765625 0 0 Z " fill="#2F2E36" transform="translate(285.28515625,1317.90234375)"/>
<path d="M0 0 C3.63 0 7.26 0 11 0 C10.67 1.32 10.34 2.64 10 4 C9.67 3.34 9.34 2.68 9 2 C6.03 2 3.06 2 0 2 C0 1.34 0 0.68 0 0 Z " fill="#111013" transform="translate(211,1420)"/>
<path d="M0 0 C0.66 0 1.32 0 2 0 C2.66 2.31 3.32 4.62 4 7 C2.35 7 0.7 7 -1 7 C-0.67 4.69 -0.34 2.38 0 0 Z " fill="#AFABC5" transform="translate(250,1386)"/>
<path d="M0 0 C1.670625 0.2475 1.670625 0.2475 3.375 0.5 C6.94351384 1.26487734 6.94351384 1.26487734 10 0 C9.34 1.32 8.68 2.64 8 4 C4.625 4.1875 4.625 4.1875 1 4 C0.34 3.01 -0.32 2.02 -1 1 C-0.67 0.67 -0.34 0.34 0 0 Z " fill="#26252B" transform="translate(394,1356)"/>
<path d="M0 0 C1.65 0 3.3 0 5 0 C5 0.66 5 1.32 5 2 C5.99 1.67 6.98 1.34 8 1 C7.67 2.32 7.34 3.64 7 5 C4.69 4.34 2.38 3.68 0 3 C0 2.01 0 1.02 0 0 Z " fill="#B4AFCC" transform="translate(377,1349)"/>
<path d="M0 0 C0.99 0 1.98 0 3 0 C2.67 1.65 2.34 3.3 2 5 C1.34 5 0.68 5 0 5 C-0.33 6.32 -0.66 7.64 -1 9 C-2.25541557 5.23375329 -1.37061958 3.62811066 0 0 Z " fill="#202024" transform="translate(107,1382)"/>
<path d="M0 0 C0.33 0 0.66 0 1 0 C1.2475 1.093125 1.495 2.18625 1.75 3.3125 C3.02002851 7.05908409 3.65756352 8.10595266 7 10 C4.6875 10.25 4.6875 10.25 2 10 C-0.36333906 7.79964984 -0.95031691 6.53409321 -1.25 3.3125 C-1 1 -1 1 0 0 Z " fill="#141316" transform="translate(112,1350)"/>
<path d="M0 0 C-2 2 -2 2 -4 2.375 C-6.19382599 2.80969443 -6.19382599 2.80969443 -7.125 5 C-7.41375 5.66 -7.7025 6.32 -8 7 C-8.99 7.495 -8.99 7.495 -10 8 C-10.21917317 5.29686424 -10.32851983 3.56041618 -8.9375 1.1875 C-6.00731249 -0.60842137 -3.3527047 -0.18977574 0 0 Z " fill="#3C3A43" transform="translate(211,1350)"/>
<path d="M0 0 C0.33 0 0.66 0 1 0 C1.29296875 6.0546875 1.29296875 6.0546875 1 8 C-2 10 -2 10 -6 10 C-6 9.01 -6 8.02 -6 7 C-4.35 6.67 -2.7 6.34 -1 6 C-0.67 4.02 -0.34 2.04 0 0 Z " fill="#403F49" transform="translate(359,1312)"/>
<path d="M0 0 C2.97 0.99 5.94 1.98 9 3 C7 5 7 5 4.5 5.25 C2 5 2 5 0 3 C0 2.01 0 1.02 0 0 Z " fill="#312F37" transform="translate(145,1317)"/>
<path d="M0 0 C3.3 0 6.6 0 10 0 C7 3 7 3 3.8125 3.1875 C2.4203125 3.0946875 2.4203125 3.0946875 1 3 C0.67 2.01 0.34 1.02 0 0 Z " fill="#C4BFDD" transform="translate(242,1316)"/>
<path d="M0 0 C4.75 0.75 4.75 0.75 7 3 C5.25 4.125 5.25 4.125 3 5 C0.75 4.125 0.75 4.125 -1 3 C-0.67 2.01 -0.34 1.02 0 0 Z " fill="#A4A0BA" transform="translate(299,1310)"/>
<path d="M0 0 C1.010625 0.0825 2.02125 0.165 3.0625 0.25 C3.7225 1.24 4.3825 2.23 5.0625 3.25 C2.7525 3.25 0.4425 3.25 -1.9375 3.25 C-2.2675 3.91 -2.5975 4.57 -2.9375 5.25 C-3.5975 5.25 -4.2575 5.25 -4.9375 5.25 C-3.82553359 0.32557733 -3.82553359 0.32557733 0 0 Z " fill="#1B1A1E" transform="translate(102.9375,1419.75)"/>
<path d="M0 0 C0.66 0.66 1.32 1.32 2 2 C1.7578125 3.9453125 1.7578125 3.9453125 1.125 6.125 C0.92132813 6.84945313 0.71765625 7.57390625 0.5078125 8.3203125 C0.34023437 8.87460938 0.17265625 9.42890625 0 10 C-1.32 9.67 -2.64 9.34 -4 9 C-3.67 7.68 -3.34 6.36 -3 5 C-2.67 5.33 -2.34 5.66 -2 6 C-1.34 4.02 -0.68 2.04 0 0 Z " fill="#323138" transform="translate(129,1386)"/>
<path d="M0 0 C3.3 0 6.6 0 10 0 C9.01 0.33 8.02 0.66 7 1 C7 1.66 7 2.32 7 3 C5.02 3 3.04 3 1 3 C0.67 2.01 0.34 1.02 0 0 Z " fill="#C6C1DE" transform="translate(117,1316)"/>
<path d="M0 0 C2.97 0 5.94 0 9 0 C6 3 6 3 2.8125 3.1875 C1.4203125 3.0946875 1.4203125 3.0946875 0 3 C0 2.01 0 1.02 0 0 Z " fill="#C2BDDB" transform="translate(350,1355)"/>
<path d="M0 0 C4.75 0.75 4.75 0.75 7 3 C6.67 3.66 6.34 4.32 6 5 C4.02 4.34 2.04 3.68 0 3 C0 2.01 0 1.02 0 0 Z " fill="#B5B0CC" transform="translate(365,1349)"/>
<path d="M0 0 C3.63 0.33 7.26 0.66 11 1 C10.67 1.99 10.34 2.98 10 4 C10 3.34 10 2.68 10 2 C3.93735778 2.66264086 3.93735778 2.66264086 -2 4 C-1.34 2.68 -0.68 1.36 0 0 Z " fill="#9D99B0" transform="translate(202,1348)"/>
<path d="M0 0 C0.94875 0.04125 1.8975 0.0825 2.875 0.125 C3.535 1.445 4.195 2.765 4.875 4.125 C1.40558454 3.66677532 -1.79895049 3.23368317 -5.125 2.125 C-3.125 0.125 -3.125 0.125 0 0 Z " fill="#2A2930" transform="translate(301.125,1307.875)"/>
<path d="M0 0 C1.32 0.99 2.64 1.98 4 3 C3.67 4.65 3.34 6.3 3 8 C2.01 8.33 1.02 8.66 0 9 C0.33 6.69 0.66 4.38 1 2 C0.34 1.67 -0.32 1.34 -1 1 C-0.67 0.67 -0.34 0.34 0 0 Z " fill="#26252B" transform="translate(189,1305)"/>
<path d="M0 0 C0.66 0.66 1.32 1.32 2 2 C4.32275177 2.40047444 6.65739357 2.7397104 9 3 C8.67 3.66 8.34 4.32 8 5 C5.69 5 3.38 5 1 5 C0.34 3.68 -0.32 2.36 -1 1 C-0.67 0.67 -0.34 0.34 0 0 Z " fill="#202024" transform="translate(182,1355)"/>
<path d="M0 0 C2.31 0 4.62 0 7 0 C7.66 1.32 8.32 2.64 9 4 C8.34 4.66 7.68 5.32 7 6 C6.67 5.01 6.34 4.02 6 3 C2.99152582 1.77479736 2.99152582 1.77479736 0 1 C0 0.67 0 0.34 0 0 Z " fill="#232228" transform="translate(350,1347)"/>
<path d="M0 0 C1.670625 0.061875 1.670625 0.061875 3.375 0.125 C3.045 0.785 2.715 1.445 2.375 2.125 C1.570625 2.269375 0.76625 2.41375 -0.0625 2.5625 C-2.96940658 2.89002717 -2.96940658 2.89002717 -4.625 6.125 C-5.25 4.25 -5.25 4.25 -5.625 2.125 C-3.625 0.125 -3.625 0.125 0 0 Z " fill="#242328" transform="translate(226.625,1346.875)"/>
<path d="M0 0 C0.99 0 1.98 0 3 0 C2.6875 2.875 2.6875 2.875 2 6 C1.01 6.66 0.02 7.32 -1 8 C-0.67 5.36 -0.34 2.72 0 0 Z " fill="#2B2A30" transform="translate(106,1423)"/>
<path d="M0 0 C0.66 0.99 1.32 1.98 2 3 C4.55183404 4.20450304 4.55183404 4.20450304 7 5 C6.34 6.32 5.68 7.64 5 9 C5 8.01 5 7.02 5 6 C2.03 5.505 2.03 5.505 -1 5 C-0.67 3.35 -0.34 1.7 0 0 Z " fill="#3C3B44" transform="translate(364,1349)"/>
<path d="M0 0 C0.99 0 1.98 0 3 0 C3 1.65 3 3.3 3 5 C1.02 5.99 1.02 5.99 -1 7 C-1.66 6.34 -2.32 5.68 -3 5 C-2.01 5 -1.02 5 0 5 C0 3.35 0 1.7 0 0 Z " fill="#9490A7" transform="translate(330,1312)"/>
<path d="M0 0 C0.99 0 1.98 0 3 0 C3.33 0.66 3.66 1.32 4 2 C6.02463255 2.65213292 6.02463255 2.65213292 8 3 C8 3.66 8 4.32 8 5 C5.125 4.75 5.125 4.75 2 4 C0.625 1.9375 0.625 1.9375 0 0 Z " fill="#2D2C33" transform="translate(146,1433)"/>
<path d="M0 0 C2.875 -0.1875 2.875 -0.1875 6 0 C8 3 8 3 7.625 5.6875 C7.41875 6.450625 7.2125 7.21375 7 8 C6.67 8 6.34 8 6 8 C5.9071875 6.824375 5.9071875 6.824375 5.8125 5.625 C5.544375 4.75875 5.27625 3.8925 5 3 C2.52363988 1.62533375 2.52363988 1.62533375 0 1 C0 0.67 0 0.34 0 0 Z " fill="#302F36" transform="translate(180,1426)"/>
<path d="M0 0 C2.40072955 2.88087546 4.47291037 5.56404834 6 9 C5.01 9.495 5.01 9.495 4 10 C0 4.5 0 4.5 0 0 Z " fill="#252429" transform="translate(297,1387)"/>
<path d="M0 0 C3.74278215 1.4488189 3.74278215 1.4488189 4.875 3.875 C5.02787435 6.47386397 4.33454536 7.8019253 3 10 C2.87625 9.030625 2.7525 8.06125 2.625 7.0625 C2.41875 6.051875 2.2125 5.04125 2 4 C1.34 3.67 0.68 3.34 0 3 C0 2.01 0 1.02 0 0 Z " fill="#2D2C32" transform="translate(107,1305)"/>
<path d="M0 0 C0.33 0.66 0.66 1.32 1 2 C1.66 2 2.32 2 3 2 C2.67 3.98 2.34 5.96 2 8 C1.34 7.34 0.68 6.68 0 6 C-0.99 6.495 -0.99 6.495 -2 7 C-1.34 4.69 -0.68 2.38 0 0 Z " fill="#B4B0CB" transform="translate(141,1308)"/>
<path d="M0 0 C0.66 0 1.32 0 2 0 C2 0.66 2 1.32 2 2 C4.64 2 7.28 2 10 2 C10 2.33 10 2.66 10 3 C6.04 3 2.08 3 -2 3 C-1.34 2.01 -0.68 1.02 0 0 Z " fill="#100F12" transform="translate(113,1434)"/>
<path d="M0 0 C0.66 0.99 1.32 1.98 2 3 C1.125 5.6875 1.125 5.6875 0 8 C-0.66 8 -1.32 8 -2 8 C-1.125 2.25 -1.125 2.25 0 0 Z " fill="#3B3942" transform="translate(242,1430)"/>
<path d="M0 0 C0.66 0 1.32 0 2 0 C2 1.98 2 3.96 2 6 C1.01 6 0.02 6 -1 6 C-1.042721 4.33388095 -1.04063832 2.66617115 -1 1 C-0.67 0.67 -0.34 0.34 0 0 Z " fill="#313037" transform="translate(261,1350)"/>
<path d="M0 0 C0.99 0 1.98 0 3 0 C2.34 2.31 1.68 4.62 1 7 C0.34 7 -0.32 7 -1 7 C-0.67 4.69 -0.34 2.38 0 0 Z " fill="#413F49" transform="translate(365,1318)"/>
<path d="M0 0 C0.33 0 0.66 0 1 0 C1.1546875 1.8871875 1.1546875 1.8871875 1.3125 3.8125 C1.64858808 6.60499657 1.80025876 7.74433121 3.5625 10 C4.036875 10.33 4.51125 10.66 5 11 C3.35 10.67 1.7 10.34 0 10 C0 6.7 0 3.4 0 0 Z " fill="#0B0B0C" transform="translate(310,1310)"/>
<path d="M0 0 C0.99 0 1.98 0 3 0 C2.39816251 2.02045442 1.72693904 4.02111039 1 6 C0.01 6.495 0.01 6.495 -1 7 C-0.67 4.69 -0.34 2.38 0 0 Z " fill="#3D3B44" transform="translate(212,1318)"/>
<path d="M0 0 C1.32 0.33 2.64 0.66 4 1 C4 4.63 4 8.26 4 12 C3.67 12 3.34 12 3 12 C2.92652344 11.07767578 2.92652344 11.07767578 2.8515625 10.13671875 C2.77679688 9.32847656 2.70203125 8.52023437 2.625 7.6875 C2.55539062 6.88699219 2.48578125 6.08648438 2.4140625 5.26171875 C2.10435574 2.72775559 2.10435574 2.72775559 0 0 Z " fill="#0A0A0C" transform="translate(272,1309)"/>
</svg>
