<?xml version="1.0" encoding="UTF-8"?>
<svg version="1.1" xmlns="http://www.w3.org/2000/svg" width="1200" height="1700">
<path d="M0 0 C396 0 792 0 1200 0 C1200 561 1200 1122 1200 1700 C804 1700 408 1700 0 1700 C0 1139 0 578 0 0 Z " fill="#FEFEFE" transform="translate(0,0)"/>
<path d="M0 0 C142.89 0 285.78 0 433 0 C433 143.55 433 287.1 433 435 C333 435 333 435 302.0625 410.3125 C289.67100694 394.8828125 289.67100694 394.8828125 284.82655334 387.49946594 C282.77593737 384.69339143 280.48899983 382.42567043 278 380 C276.97791566 378.918296 275.9625331 377.8302354 274.95254517 376.73722839 C264.39875962 365.33196946 253.46339262 354.334109 242.4609375 343.36328125 C240.52086857 341.42564957 238.58156638 339.48725117 236.64224243 337.5488739 C232.09976475 333.00947073 227.55475248 328.47261458 223.00875533 323.93673629 C217.8426986 318.78192709 212.67953955 313.62421958 207.51660609 308.46628249 C198.69331046 299.65162054 189.86792042 290.83906142 181.04006958 282.02896118 C175.02865471 276.02951842 175.02865471 276.02951842 172.12637329 273.12516785 C170.61330568 271.612958 169.09393411 270.10704439 167.5703125 268.60546875 C166.76335937 267.80753906 165.95640625 267.00960938 165.125 266.1875 C164.32320312 265.39730469 163.52140625 264.60710937 162.6953125 263.79296875 C160.68255128 261.7072814 158.79535162 259.61540881 156.91555786 257.41654968 C152.69900788 252.58410371 148.19881292 248.06597956 143.65576172 243.54223633 C142.74593536 242.63226395 141.83610901 241.72229156 140.89871216 240.78474426 C138.42589618 238.3116437 135.95002855 235.84161952 133.47356558 233.37217164 C130.87160772 230.77651305 128.27252736 228.17797623 125.67312622 225.57975769 C120.75496165 220.66469061 115.83425703 215.75217481 110.91261208 210.84059304 C105.32598588 205.26514405 99.74219605 199.68685815 94.15864921 194.1083256 C84.6111999 184.56954577 75.06164349 175.03288027 65.50970459 165.49859619 C63.98409154 163.97578216 62.4587572 162.45268882 60.93378448 160.92923355 C59.76184986 159.76005694 58.58829134 158.59250084 57.41173553 157.4279747 C54.92953989 154.96790968 52.65523858 152.40681811 50.40142822 149.73617554 C44.77507417 143.20615191 38.85667954 138.76390185 31.640625 134.0234375 C20.25 125.375 20.25 125.375 0 99 C0 66.33 0 33.66 0 0 Z " fill="#8AA68D" transform="translate(767,0)"/>
<path d="M0 0 C56.1 0 112.2 0 170 0 C169.13375 15.30375 168.2675 30.6075 167.375 46.375 C166.23602373 86.47104859 166.23602373 86.47104859 185.3107605 120.13214111 C194.49312788 129.58856173 205.0107409 137.85109612 215.85839844 145.30004883 C220.06241031 148.20644698 222.95290312 150.92410065 226 155 C227.6497514 156.68649502 229.31860711 158.34541889 231 160 C232.43841637 161.43439969 233.87583722 162.86979797 235.31259155 164.30586243 C237.05653425 166.04676776 238.80048194 167.78766809 240.54443359 169.52856445 C250.28923063 179.25680428 260.03129247 188.98777954 269.77196312 198.72015095 C275.66302342 204.60605563 281.55502239 210.49101495 287.44921875 216.3737793 C292.60485795 221.51942439 297.75871291 226.66684889 302.91046965 231.81638116 C305.63179793 234.53641176 308.3539837 237.25557094 311.07831955 239.97258949 C313.64305996 242.53049547 316.20539213 245.09079014 318.76597023 247.65286255 C320.14294093 249.02943126 321.52238685 250.40352268 322.90193176 251.7775116 C327.25311673 256.13585653 331.45882001 260.5414896 335.42276955 265.2568388 C337.7551001 267.83453955 340.4045472 269.9945932 343.05105019 272.24088478 C344.93829638 273.94430654 346.54698831 275.70296997 348.18319702 277.64584351 C352.26587133 282.37276189 356.64000147 286.765633 361.06884766 291.16650391 C362.38969612 292.48516197 362.38969612 292.48516197 363.73722839 293.83045959 C365.63708354 295.72652809 367.53780738 297.62167311 369.44011307 299.51527786 C372.45248364 302.51401134 375.46093356 305.51665818 378.46884155 308.51986694 C384.85125307 314.8912293 391.23790446 321.25833377 397.625 327.625 C404.52954632 334.50747932 411.43333528 341.39070867 418.33225095 348.27883279 C421.31834752 351.25996904 424.30685948 354.23865546 427.29729104 357.2154429 C429.59682965 359.50573104 431.89311235 361.79928021 434.18994141 364.09228516 C435.01188492 364.90906235 435.83382843 365.72583954 436.68067932 366.56736755 C440.68070431 370.5670227 444.41673777 374.62649243 448 379 C448.78375 379.61875 449.5675 380.2375 450.375 380.875 C455.56925099 385.07986985 459.60204055 390.20221308 463.1550293 395.83959961 C473.06506783 411.52422645 486.71390651 429.88387693 505.72467041 434.68862915 C537.21079892 440.7575796 571.94115524 436.43601 603 435 C603 491.76 603 548.52 603 607 C598.56708928 603.20036224 594.32831737 599.47241527 590.23583984 595.34936523 C589.70640274 594.82007416 589.17696564 594.29078308 588.63148499 593.74545288 C586.90558409 592.01886304 585.18324107 590.28877134 583.4609375 588.55859375 C582.2500268 587.34581395 581.03889215 586.13325772 579.82754517 584.9209137 C576.65443278 581.74400408 573.48433303 578.56410512 570.31488037 575.38354492 C567.09454505 572.15297602 563.87137863 568.92523451 560.6484375 565.69726562 C555.44195233 560.48202151 550.23715294 555.26510243 545.03471375 550.04582214 C542.79576647 547.79983377 540.55424863 545.55670985 538.30557251 543.32044983 C535.83475979 540.83369354 533.51324537 538.24756909 531.1875 535.625 C527.56320994 531.61239315 523.84945952 527.95534422 519.7265625 524.46484375 C515.83344238 521.16185723 512.4802813 517.41824213 509.10443115 513.60371399 C503.53368969 507.40829414 497.66522438 501.53211323 491.76660156 495.65307617 C490.56136426 494.44812163 489.35634847 493.2429455 488.15153503 492.03756714 C484.90820217 488.79394959 481.66181404 485.55340614 478.41483402 482.31344008 C475.00543892 478.9103404 471.59891775 475.50436624 468.19207764 472.09870911 C461.74755197 465.65728124 455.30048449 459.21840373 448.85247874 452.7804597 C441.52702059 445.46618569 434.20440558 438.14906812 426.88203096 430.83170736 C414.36617612 418.32452041 401.84822343 405.81943641 389.3278656 393.3167572 C388.53495231 392.52495331 388.53495231 392.52495331 387.72602057 391.71715337 C386.32104708 390.31416169 384.91604282 388.91120083 383.51103592 387.50824261 C382.68239407 386.68052255 381.85375221 385.85280249 381 385 C380.1817616 384.19206655 379.3635232 383.38413309 378.52048969 382.5517168 C375.75950656 379.75652701 373.10711326 376.87268298 370.4618988 373.96899414 C364.34619677 367.30452899 358.01558297 360.88020101 351.60961914 354.49609375 C350.42364336 353.31040105 349.23788972 352.12448612 348.05233765 350.93836975 C344.87529529 347.76104397 341.69520905 344.58678148 338.51451039 341.41311646 C335.16918431 338.07410748 331.82675297 334.73220314 328.48399353 331.390625 C322.16706829 325.07679137 315.84760259 318.765507 309.52718681 312.45516777 C302.3443313 305.28351539 295.1643355 298.10900287 287.98457539 290.93425179 C275.71446127 278.67279588 263.44225171 266.41344064 251.1676178 254.1565094 C250.64988892 253.63952012 250.13216005 253.12253084 249.59874243 252.58987522 C248.22299033 251.21610446 246.84720712 249.84236486 245.47142124 248.46862793 C244.65585223 247.65398071 243.84028322 246.8393335 243 246 C242.10231116 245.10434326 241.20462233 244.20868652 240.2797308 243.28588867 C238.50002308 241.50137371 236.7621097 239.70346787 235.0625 237.84375 C234.55976562 237.29589844 234.05703125 236.74804688 233.5390625 236.18359375 C232.51302083 235.06119792 231.48697917 233.93880208 230.4609375 232.81640625 C229.95820312 232.26855469 229.45546875 231.72070312 228.9375 231.15625 C228.49277344 230.66962891 228.04804687 230.18300781 227.58984375 229.68164062 C225.43961813 227.40726193 223.21548533 225.21090159 221 223 C173.66666667 175.66666667 126.33333333 128.33333333 79 81 C78.10563358 80.11009998 77.21126717 79.22019997 76.28979874 78.30333328 C74.14874769 76.14962691 72.087036 73.93869781 70.04437637 71.69182205 C63.32577463 64.30163321 56.33311441 57.212336 49.2490921 50.17392731 C47.21255069 48.15038958 45.17936129 46.12353323 43.14691162 44.09588623 C38.85079596 39.81105386 34.55067577 35.53025471 30.25 31.25 C25.22018336 26.24381319 20.192036 21.23597165 15.16802216 16.22396088 C13.16240374 14.22483326 11.15380838 12.22872963 9.14508057 10.23272705 C7.9302337 9.02150825 6.71552452 7.81015134 5.50097656 6.59863281 C4.94008331 6.04290588 4.37919006 5.48717896 3.80130005 4.91461182 C2.51508619 3.62857774 1.25441653 2.3170683 0 1 C0 0.67 0 0.34 0 0 Z " fill="#FDFDFD" transform="translate(597,0)"/>
<path d="M0 0 C4.06225821 -0.11638426 8.1240863 -0.18731373 12.1875 -0.25 C13.33798828 -0.28351562 14.48847656 -0.31703125 15.67382812 -0.3515625 C16.78564453 -0.36445312 17.89746094 -0.37734375 19.04296875 -0.390625 C20.06414795 -0.41157227 21.08532715 -0.43251953 22.13745117 -0.45410156 C25.74800079 0.1186594 27.42440217 1.45720668 30 4 C30 4.66 30 5.32 30 6 C30.639375 6.268125 31.27875 6.53625 31.9375 6.8125 C34 8 34 8 35 11 C35.5775 11.28875 36.155 11.5775 36.75 11.875 C39.77841504 13.38920752 41.64083273 15.57811574 44 18 C44.74048521 18.74048521 45.48097042 19.48097042 46.24389458 20.24389458 C116.42993482 90.42993482 186.61597506 160.61597506 298 272 C298.8833647 272.8826396 299.76672939 273.7652792 300.67686272 274.67466545 C302.0362657 276.03535419 303.39191829 277.39984473 304.73828125 278.7734375 C307.7198341 281.80677911 310.75715095 284.6839009 314 287.4375 C317.42736803 290.38371829 320.29769045 293.57809053 323.2109375 297.0234375 C325.65032688 299.71848341 328.37668396 301.992254 331.1484375 304.3359375 C332.86934676 305.88257746 334.3039361 307.4490738 335.75 309.25 C337.71947637 311.65713779 339.53487186 313.17397916 342 315 C342 315.66 342 316.32 342 317 C342.58195759 317.26094295 343.16391518 317.52188589 343.76350784 317.7907362 C346.14526725 319.07854551 347.8170217 320.49182267 349.78387451 322.34822083 C350.8901696 323.38752747 350.8901696 323.38752747 352.01881409 324.4478302 C352.81794724 325.2085936 353.61708038 325.96935699 354.44042969 326.75317383 C355.28957443 327.55544403 356.13871918 328.35771423 357.01359558 329.18429565 C364.85916949 336.62036281 372.62323669 344.14148074 380.3586998 351.69188404 C385.54912201 356.75537606 390.76299811 361.78823962 396.04931641 366.75170898 C400.67442006 371.09436595 405.24383169 375.4877393 409.75681424 379.94690722 C412.14188345 382.30024852 414.54659136 384.61034175 417.01021576 386.88291359 C426.26063919 395.44770937 433.68346753 402.73050734 434.24611783 415.83480924 C434.33711557 422.25572051 433.8238137 428.634696 433 435 C340.27284546 444.01712793 340.27284546 444.01712793 317.30030823 425.65444946 C311.75158551 420.94326559 306.78707931 415.84382765 302.0625 410.3125 C301.56038246 409.72478065 301.05826492 409.13706131 300.5409317 408.53153229 C294.86897869 401.80988515 289.65429201 394.85733756 284.82655334 387.49946594 C282.77593737 384.69339143 280.48899983 382.42567043 278 380 C276.97791566 378.918296 275.9625331 377.8302354 274.95254517 376.73722839 C264.39875962 365.33196946 253.46339262 354.334109 242.4609375 343.36328125 C240.52086857 341.42564957 238.58156638 339.48725117 236.64224243 337.5488739 C232.09976475 333.00947073 227.55475248 328.47261458 223.00875533 323.93673629 C217.8426986 318.78192709 212.67953955 313.62421958 207.51660609 308.46628249 C198.69331046 299.65162054 189.86792042 290.83906142 181.04006958 282.02896118 C175.02865471 276.02951842 175.02865471 276.02951842 172.12637329 273.12516785 C170.61330568 271.612958 169.09393411 270.10704439 167.5703125 268.60546875 C166.76335937 267.80753906 165.95640625 267.00960938 165.125 266.1875 C164.32320312 265.39730469 163.52140625 264.60710937 162.6953125 263.79296875 C160.68255128 261.7072814 158.79535162 259.61540881 156.91555786 257.41654968 C152.69900788 252.58410371 148.19881292 248.06597956 143.65576172 243.54223633 C142.74593536 242.63226395 141.83610901 241.72229156 140.89871216 240.78474426 C138.42589618 238.3116437 135.95002855 235.84161952 133.47356558 233.37217164 C130.87160772 230.77651305 128.27252736 228.17797623 125.67312622 225.57975769 C120.75496165 220.66469061 115.83425703 215.75217481 110.91261208 210.84059304 C105.32598588 205.26514405 99.74219605 199.68685815 94.15864921 194.1083256 C84.6111999 184.56954577 75.06164349 175.03288027 65.50970459 165.49859619 C63.98409154 163.97578216 62.4587572 162.45268882 60.93378448 160.92923355 C59.76184986 159.76005694 58.58829134 158.59250084 57.41173553 157.4279747 C54.92953989 154.96790968 52.65523858 152.40681811 50.40142822 149.73617554 C45.57764811 144.13763022 40.60732571 139.89711352 34.41165161 135.85665894 C19.95579543 126.2931328 3.63410291 114.09729217 -0.64421082 96.32373047 C-6.29118673 65.1683675 -2.54926292 31.35172232 0 0 Z " fill="#242021" transform="translate(767,0)"/>
<path d="M0 0 C39.93 0 79.86 0 121 0 C121 39.93 121 79.86 121 121 C81.07 121 41.14 121 0 121 C0 81.07 0 41.14 0 0 Z " fill="#232020" transform="translate(129,155)"/>
<path d="M0 0 C8.55171778 -1.53330572 18.04193764 -2.79158461 25.88525391 1.62451172 C32.8680535 6.94456245 38.64481676 13.49967136 44.5 20 C46.30570958 21.91274822 48.11688321 23.82035352 49.93359375 25.72265625 C56.63725266 32.78836749 63.18225208 39.98070556 69.51721191 47.37915039 C71.47585697 49.52016374 73.72008974 51.21304331 76 53 C76.61875 53.78375 77.2375 54.5675 77.875 55.375 C79.63599663 57.55034878 81.17977751 59.05977261 83.3125 60.8125 C85.75254334 62.84191729 87.85071168 64.90379127 89.87878418 67.34143066 C95.45623352 73.79170464 101.58859357 79.71096475 107.62695312 85.72460938 C109.00599615 87.10173063 110.38480975 88.47908165 111.76341248 89.85664368 C114.72043452 92.81051697 117.67899998 95.76283238 120.63877869 98.71394348 C125.32351523 103.38510181 130.00438534 108.06012185 134.68469238 112.73571777 C144.6201658 122.66011403 154.55986174 132.58027633 164.5 142.5 C175.23292638 153.2108836 185.96511771 163.92249749 196.6924262 174.63900805 C201.34050985 179.28212388 205.99101747 183.92279373 210.64342499 188.56157684 C213.54176315 191.45243047 216.4380054 194.34537704 219.33369637 197.23888206 C220.67152062 198.57484199 222.0102052 199.90994107 223.34983635 201.24408913 C229.12278997 206.99416627 234.84657576 212.70502595 240.13492584 218.90908051 C244.78546293 224.12275987 249.85117541 228.97051396 254.80078125 233.8984375 C256.0911556 235.18688976 257.38130031 236.47557204 258.67123413 237.76446533 C261.43672731 240.52681133 264.20376297 243.28759934 266.97201538 246.04718018 C271.35431154 250.41588989 275.73273374 254.78846853 280.1105957 259.16162109 C289.40409988 268.44405149 298.70182777 277.72224594 308 287 C318.04002742 297.01798018 328.07931698 307.03669315 338.1137228 317.06030464 C342.46074156 321.40235806 346.81018287 325.74196536 351.16152954 330.0796814 C353.87303926 332.7837024 356.58244919 335.48982001 359.29130936 338.19649506 C360.54205495 339.44537759 361.79366018 340.69339992 363.04621506 341.94046783 C374.51179933 353.35742766 374.51179933 353.35742766 379.63420105 359.40934753 C381.83509014 361.97257228 384.22059873 364.31427972 386.625 366.6875 C387.97464844 368.02361328 387.97464844 368.02361328 389.3515625 369.38671875 C390.66253906 370.68029297 390.66253906 370.68029297 392 372 C393.66730956 373.66602353 395.33388231 375.33278454 397 377 C398.93091983 378.92895913 400.8619706 380.85778646 402.79318237 382.78645325 C403.96279209 383.95459682 405.13239844 385.12274376 406.30200195 386.29089355 C406.92161804 386.90973419 407.54123413 387.52857483 408.17962646 388.16616821 C422.46450136 402.43333552 436.74649956 416.7033796 451.02686882 430.97505665 C459.27876212 439.22179171 467.53159468 447.46758274 475.78662109 455.71118164 C482.99902352 462.9136051 490.20965584 470.11779522 497.4181844 477.3240959 C501.22939469 481.13400556 505.04147242 484.94303787 508.85567856 488.7499485 C512.44473451 492.33219394 516.03141131 495.91680456 519.61631393 499.50320625 C520.92834572 500.81496407 522.24122769 502.1258722 523.55504608 503.43584061 C529.38878656 509.25332956 535.1688746 515.03974754 540.51710892 521.31334782 C542.97191158 524.10546001 545.67021667 526.61724753 548.39428711 529.14282227 C549.62788962 530.30025743 550.86093265 531.4582891 552.0934906 532.61683655 C552.73486906 533.21841143 553.37624752 533.81998631 554.03706169 534.43979073 C558.20254122 538.36737653 562.31583508 542.34973162 566.43515682 546.32560825 C570.03633389 549.7957021 573.6555689 553.2417084 577.32250977 556.64233398 C604.39257479 581.79658203 604.39257479 581.79658203 605.04579163 594.37181091 C604.8111591 598.72046094 604.2362595 602.82154967 603 607 C596.04283477 601.30783075 589.79450219 594.92111421 583.4609375 588.55859375 C582.2500268 587.34581395 581.03889215 586.13325772 579.82754517 584.9209137 C576.65443278 581.74400408 573.48433303 578.56410512 570.31488037 575.38354492 C567.09454505 572.15297602 563.87137863 568.92523451 560.6484375 565.69726562 C555.44195233 560.48202151 550.23715294 555.26510243 545.03471375 550.04582214 C542.79576647 547.79983377 540.55424863 545.55670985 538.30557251 543.32044983 C535.83475979 540.83369354 533.51324537 538.24756909 531.1875 535.625 C527.56320994 531.61239315 523.84945952 527.95534422 519.7265625 524.46484375 C515.83344238 521.16185723 512.4802813 517.41824213 509.10443115 513.60371399 C503.53368969 507.40829414 497.66522438 501.53211323 491.76660156 495.65307617 C490.56136426 494.44812163 489.35634847 493.2429455 488.15153503 492.03756714 C484.90820217 488.79394959 481.66181404 485.55340614 478.41483402 482.31344008 C475.00543892 478.9103404 471.59891775 475.50436624 468.19207764 472.09870911 C461.74755197 465.65728124 455.30048449 459.21840373 448.85247874 452.7804597 C441.52702059 445.46618569 434.20440558 438.14906812 426.88203096 430.83170736 C414.36617612 418.32452041 401.84822343 405.81943641 389.3278656 393.3167572 C388.53495231 392.52495331 388.53495231 392.52495331 387.72602057 391.71715337 C386.32104708 390.31416169 384.91604282 388.91120083 383.51103592 387.50824261 C382.68239407 386.68052255 381.85375221 385.85280249 381 385 C380.1817616 384.19206655 379.3635232 383.38413309 378.52048969 382.5517168 C375.75950656 379.75652701 373.10711326 376.87268298 370.4618988 373.96899414 C364.34619677 367.30452899 358.01558297 360.88020101 351.60961914 354.49609375 C350.42364336 353.31040105 349.23788972 352.12448612 348.05233765 350.93836975 C344.87529529 347.76104397 341.69520905 344.58678148 338.51451039 341.41311646 C335.16918431 338.07410748 331.82675297 334.73220314 328.48399353 331.390625 C322.16706829 325.07679137 315.84760259 318.765507 309.52718681 312.45516777 C302.3443313 305.28351539 295.1643355 298.10900287 287.98457539 290.93425179 C275.71446127 278.67279588 263.44225171 266.41344064 251.1676178 254.1565094 C250.64988892 253.63952012 250.13216005 253.12253084 249.59874243 252.58987522 C248.22299033 251.21610446 246.84720712 249.84236486 245.47142124 248.46862793 C244.65585223 247.65398071 243.84028322 246.8393335 243 246 C242.10231116 245.10434326 241.20462233 244.20868652 240.2797308 243.28588867 C238.50002308 241.50137371 236.7621097 239.70346787 235.0625 237.84375 C234.55976562 237.29589844 234.05703125 236.74804688 233.5390625 236.18359375 C232.51302083 235.06119792 231.48697917 233.93880208 230.4609375 232.81640625 C229.95820312 232.26855469 229.45546875 231.72070312 228.9375 231.15625 C228.49277344 230.66962891 228.04804687 230.18300781 227.58984375 229.68164062 C225.43961813 227.40726193 223.21548533 225.21090159 221 223 C173.66666667 175.66666667 126.33333333 128.33333333 79 81 C78.10563358 80.11009998 77.21126717 79.22019997 76.28979874 78.30333328 C74.14874769 76.14962691 72.087036 73.93869781 70.04437637 71.69182205 C63.32577463 64.30163321 56.33311441 57.212336 49.2490921 50.17392731 C47.21255069 48.15038958 45.17936129 46.12353323 43.14691162 44.09588623 C38.85079596 39.81105386 34.55067577 35.53025471 30.25 31.25 C25.22018336 26.24381319 20.192036 21.23597165 15.16802216 16.22396088 C13.16240374 14.22483326 11.15380838 12.22872963 9.14508057 10.23272705 C7.9302337 9.02150825 6.71552452 7.81015134 5.50097656 6.59863281 C4.94008331 6.04290588 4.37919006 5.48717896 3.80130005 4.91461182 C2.51508619 3.62857774 1.25441653 2.3170683 0 1 C0 0.67 0 0.34 0 0 Z " fill="#272425" transform="translate(597,0)"/>
<path d="M0 0 C171.6 0 343.2 0 520 0 C520 2.64 520 5.28 520 8 C348.4 8 176.8 8 0 8 C0 5.36 0 2.72 0 0 Z " fill="#231F21" transform="translate(113,1002)"/>
<path d="M0 0 C39.86073826 0 39.86073826 0 50.75 10.3125 C58.59735832 18.69612427 60.44821049 27.27657648 60.24609375 38.5 C59.58019968 47.97049342 56.02348214 56.05363272 49.21875 62.75390625 C34.57063602 74.73054043 18.57067631 71 0 71 C0 47.57 0 24.14 0 0 Z " fill="#F9F9F9" transform="translate(317,781)"/>
<path d="M0 0 C43.89 0 87.78 0 133 0 C133 44.22 133 88.44 133 134 C89.11 134 45.22 134 0 134 C0 89.78 0 45.56 0 0 Z M6 7 C6 46.93 6 86.86 6 128 C45.93 128 85.86 128 127 128 C127 88.07 127 48.14 127 7 C87.07 7 47.14 7 6 7 Z " fill="#BAB9B9" transform="translate(123,148)"/>
<path d="M0 0 C0.83265381 0.00523682 1.66530762 0.01047363 2.52319336 0.01586914 C3.42231445 0.0190918 4.32143555 0.02231445 5.24780273 0.02563477 C6.66609375 0.03820312 6.66609375 0.03820312 8.11303711 0.05102539 C9.06243164 0.05553711 10.01182617 0.06004883 10.98999023 0.06469727 C13.34356776 0.07652429 15.69702188 0.09300514 18.05053711 0.11352539 C20.79046673 6.03966437 23.14837708 11.99329531 25.23803711 18.17602539 C27.9044402 25.93383798 30.711962 33.62798024 33.61303711 41.30102539 C36.33411267 48.51124066 39.03261406 55.72660155 41.61303711 62.98852539 C41.99020874 64.04076294 41.99020874 64.04076294 42.375 65.11425781 C44.05053711 69.8711456 44.05053711 69.8711456 44.05053711 72.11352539 C37.78053711 72.11352539 31.51053711 72.11352539 25.05053711 72.11352539 C22.05053711 63.11352539 22.05053711 63.11352539 22.05053711 59.11352539 C12.81053711 59.11352539 3.57053711 59.11352539 -5.94946289 59.11352539 C-6.27946289 60.76352539 -6.60946289 62.41352539 -6.94946289 64.11352539 C-7.60946289 66.75352539 -8.26946289 69.39352539 -8.94946289 72.11352539 C-15.21946289 72.11352539 -21.48946289 72.11352539 -27.94946289 72.11352539 C-24.08789697 58.59804468 -19.12352967 45.48330589 -14.06762695 32.37890625 C-11.01850318 24.41981786 -8.2168901 16.38193808 -5.4753418 8.31225586 C-5.15871582 7.38558105 -4.84208984 6.45890625 -4.51586914 5.50415039 C-4.23686768 4.67947266 -3.95786621 3.85479492 -3.67041016 3.00512695 C-2.58237976 0.15038279 -2.58237976 0.15038279 0 0 Z " fill="#060606" transform="translate(232.949462890625,678.886474609375)"/>
<path d="M0 0 C8.25090451 5.3527941 13.6187756 11.6547899 16.03515625 21.3203125 C9.43515625 21.3203125 2.83515625 21.3203125 -3.96484375 21.3203125 C-4.62484375 20.0003125 -5.28484375 18.6803125 -5.96484375 17.3203125 C-10.72593193 13.74949637 -14.50905127 12.59770281 -20.46875 12.87890625 C-25.50416251 13.76936261 -29.08640709 16.07043357 -32.34765625 19.9765625 C-35.93536171 25.89753096 -35.79262628 32.62279933 -34.96484375 39.3203125 C-33.36092592 44.74961724 -30.73270224 48.18356349 -25.96484375 51.3203125 C-21.78341631 53.41102622 -16.51825762 52.75482127 -11.96484375 52.3203125 C-8.55136303 50.64351495 -6.60647134 49.62272074 -4.91796875 46.1953125 C-2.09847307 43.48859665 0.25997432 43.91106544 4.05273438 43.96875 C4.93380859 44.00226562 5.81488281 44.03578125 6.72265625 44.0703125 C8.06166992 44.09738281 8.06166992 44.09738281 9.42773438 44.125 C11.63129129 44.17213491 13.83268226 44.23790593 16.03515625 44.3203125 C13.94676475 52.96436903 9.57403503 59.4551384 2.23828125 64.57421875 C-7.33038942 70.31118723 -18.74115227 71.12825316 -29.4609375 68.4453125 C-38.82999207 64.81704168 -45.28882035 59.52462282 -49.95703125 50.62890625 C-52.66740185 44.42026661 -53.32982889 39.21276051 -53.33984375 32.5078125 C-53.37658203 31.23067383 -53.37658203 31.23067383 -53.4140625 29.92773438 C-53.45774307 20.36896968 -49.53808461 12.2127836 -42.96484375 5.3203125 C-31.64095219 -3.84858354 -13.42587372 -6.77213383 0 0 Z " fill="#040404" transform="translate(182.96484375,681.6796875)"/>
<path d="M0 0 C3.74092655 3.04564323 5.21855173 5.63017781 6.5625 10.25 C6.5625 11.9 6.5625 13.55 6.5625 15.25 C0.6225 15.25 -5.3175 15.25 -11.4375 15.25 C-12.0975 13.6 -12.7575 11.95 -13.4375 10.25 C-15.03865576 10.0006643 -16.64370159 9.77621352 -18.25 9.5625 C-19.14332031 9.43488281 -20.03664063 9.30726563 -20.95703125 9.17578125 C-23.4766717 9.01611756 -23.4766717 9.01611756 -25.23828125 10.57421875 C-26.92965141 12.9377295 -26.86357188 14.40952079 -26.4375 17.25 C-24.29296231 19.8983926 -22.13775084 20.96840352 -18.98046875 22.15234375 C-18.11486328 22.48556641 -17.24925781 22.81878906 -16.35742188 23.16210938 C-15.45572266 23.50048828 -14.55402344 23.83886719 -13.625 24.1875 C-5.86798865 27.10269833 0.984198 29.84528289 6.5625 36.25 C8.62435331 42.43555992 8.65979467 49.78739529 5.875 55.75 C2.40009088 61.61012548 -3.21187874 64.83390484 -9.4375 67.25 C-12.41933981 67.80340699 -15.28541246 67.87153664 -18.3125 67.8125 C-19.10043945 67.80299316 -19.88837891 67.79348633 -20.70019531 67.78369141 C-28.98276416 67.48849478 -34.84286056 64.85126387 -40.9375 59.25 C-45.14513228 54.20084126 -45.4375 51.96797882 -45.4375 45.25 C-39.4975 45.25 -33.5575 45.25 -27.4375 45.25 C-26.1175 47.56 -24.7975 49.87 -23.4375 52.25 C-21.81286158 52.30395478 -20.18771459 52.34277195 -18.5625 52.375 C-17.20511719 52.40980469 -17.20511719 52.40980469 -15.8203125 52.4453125 C-13.24943006 52.49324836 -13.24943006 52.49324836 -11.4375 50.25 C-10.99846713 46.8840813 -10.87449787 45.01854259 -12.9140625 42.234375 C-16.39196487 39.4994301 -19.97956856 38.59265787 -24.1875 37.375 C-30.81118482 35.30814671 -36.52015115 33.37110639 -41.4375 28.25 C-42.2625 27.404375 -43.0875 26.55875 -43.9375 25.6875 C-46.53874527 19.72631292 -46.78032919 12.96951802 -44.5546875 6.8046875 C-41.1786086 0.92449709 -36.43334869 -2.51641524 -30.25 -5.0625 C-19.52198579 -6.99705994 -9.17039796 -6.24722921 0 0 Z " fill="#050505" transform="translate(328.4375,683.75)"/>
<path d="M0 0 C14.52 0 29.04 0 44 0 C44 4.62 44 9.24 44 14 C35.42 14 26.84 14 18 14 C18 18.62 18 23.24 18 28 C25.59 28 33.18 28 41 28 C41 32.62 41 37.24 41 42 C33.08 42 25.16 42 17 42 C17 47.28 17 52.56 17 58 C25.91 58 34.82 58 44 58 C44 62.62 44 67.24 44 72 C29.48 72 14.96 72 0 72 C0 48.24 0 24.48 0 0 Z " fill="#070707" transform="translate(347,679)"/>
<path d="M0 0 C20.79 0 41.58 0 63 0 C63 5.94 63 11.88 63 18 C56.4 18 49.8 18 43 18 C43 34.5 43 51 43 68 C35.74 68 28.48 68 21 68 C21 51.5 21 35 21 18 C14.07 18 7.14 18 0 18 C0 12.06 0 6.12 0 0 Z " fill="#F2F2F2" transform="translate(150,187)"/>
<path d="M0 0 C39.86073826 0 39.86073826 0 50.75 10.3125 C58.59735832 18.69612427 60.44821049 27.27657648 60.24609375 38.5 C59.58019968 47.97049342 56.02348214 56.05363272 49.21875 62.75390625 C34.57063602 74.73054043 18.57067631 71 0 71 C0 47.57 0 24.14 0 0 Z M9 8 C9 26.48 9 44.96 9 64 C26.9168546 64.53586322 26.9168546 64.53586322 41.9375 58.125 C48.60189779 51.25865076 50.36063668 44.91593412 50.375 35.6875 C50.41173828 34.46256836 50.41173828 34.46256836 50.44921875 33.21289062 C50.48267553 26.21484798 48.63698086 21.19035157 44.17578125 15.79296875 C43.56089844 15.26316406 42.94601562 14.73335937 42.3125 14.1875 C41.71050781 13.64480469 41.10851562 13.10210938 40.48828125 12.54296875 C30.02731815 6.05618629 21.63540003 8 9 8 Z " fill="#070707" transform="translate(317,781)"/>
<path d="M0 0 C3.3 0 6.6 0 10 0 C10.01458252 1.50828369 10.02916504 3.01656738 10.04418945 4.57055664 C10.1022909 10.18228511 10.1795239 15.79361731 10.26245117 21.4050293 C10.29564466 23.83074498 10.32369384 26.25653686 10.34643555 28.68237305 C10.38008331 32.17529684 10.43240631 35.66752585 10.48828125 39.16015625 C10.49467117 40.23959 10.5010611 41.31902374 10.50764465 42.4311676 C10.63769177 49.13602135 11.21067807 54.32316655 15.375 59.8125 C20.47279008 63.53780814 25.8945961 63.6272004 32 63 C36.73829769 61.33282118 39.2011938 59.14637955 42 55 C42.98964237 52.03107289 43.15273727 49.98850092 43.20532227 46.88598633 C43.22526749 45.84513382 43.24521271 44.80428131 43.26576233 43.73188782 C43.28247482 42.60993515 43.29918732 41.48798248 43.31640625 40.33203125 C43.33718735 39.18208176 43.35796844 38.03213226 43.37937927 36.84733582 C43.44483342 33.16911875 43.50374074 29.49082952 43.5625 25.8125 C43.60568913 23.32095604 43.64930355 20.82941941 43.69335938 18.33789062 C43.80051065 12.22533462 43.90178997 6.11270594 44 0 C47.3 0 50.6 0 54 0 C54.04960576 6.83185784 54.08581712 13.66360976 54.10986328 20.49560547 C54.11989264 22.81756416 54.1335194 25.13951032 54.15087891 27.46142578 C54.17526201 30.80764877 54.18651404 34.15370408 54.1953125 37.5 C54.20563507 38.5305249 54.21595764 39.5610498 54.22659302 40.62280273 C54.22817102 50.86422425 52.36136815 57.44916781 45.9375 65.625 C39.53196254 70.80394518 31.86690148 72.71748675 23.70703125 72.390625 C17.22855655 71.45578017 10.48045009 68.86448867 6 64 C2.0850563 57.43047908 -0.1334018 51.62649481 -0.11352539 43.93432617 C-0.11344986 42.95368698 -0.11337433 41.97304779 -0.11329651 40.96269226 C-0.10813522 39.9166835 -0.10297394 38.87067474 -0.09765625 37.79296875 C-0.0962413 36.71243729 -0.09482635 35.63190582 -0.09336853 34.51863098 C-0.0877808 31.07489224 -0.0752305 27.63121902 -0.0625 24.1875 C-0.05748342 21.84961032 -0.05292079 19.51171961 -0.04882812 17.17382812 C-0.03781538 11.44919358 -0.02055912 5.7246079 0 0 Z " fill="#111111" transform="translate(248,781)"/>
<path d="M0 0 C0.81210938 -0.02835938 1.62421875 -0.05671875 2.4609375 -0.0859375 C9.46800385 -0.10839605 14.03050741 2.26411487 19.1887207 6.90771484 C22.55971443 10.50815421 23.33478822 13.66313694 23.625 18.5 C20.325 18.5 17.025 18.5 13.625 18.5 C13.109375 17.406875 12.59375 16.31375 12.0625 15.1875 C10.17702088 11.94868046 8.3540769 10.13933686 4.6875 8.875 C-0.91701731 7.85599685 -5.69948218 8.4276686 -10.5 11.5 C-13.05111586 15.58178538 -13.28340915 18.80802266 -12.375 23.5 C-9.01795508 29.14593918 -0.58474492 30.8610654 5.3671875 32.58203125 C13.22018237 34.87187831 19.2547994 37.09235501 23.625 44.5 C25.44209841 49.95129524 25.44391217 55.3754545 23.125 60.6875 C19.96847901 66.27554598 15.13883228 69.45652245 9.3125 71.875 C0.45994884 73.3754324 -7.51076999 73.25325277 -15.375 68.5 C-19.64880589 64.981311 -22.57829269 61.59585028 -23.3125 56 C-23.333125 54.845 -23.35375 53.69 -23.375 52.5 C-20.075 52.5 -16.775 52.5 -13.375 52.5 C-12.983125 53.5725 -12.59125 54.645 -12.1875 55.75 C-10.50581691 59.51849891 -9.17008662 61.56373132 -5.375 63.5 C0.01075943 64.23373408 5.58564072 64.67680721 10.3125 61.625 C12.76403991 59.3722336 13.50191008 58.50933731 13.8984375 55.2578125 C13.93195313 54.38898437 13.96546875 53.52015625 14 52.625 C14.04898438 51.76132812 14.09796875 50.89765625 14.1484375 50.0078125 C13.81310536 47.35982096 13.81310536 47.35982096 11.75390625 45.3984375 C7.45135029 42.78789793 2.98546303 41.45232053 -1.8125 40 C-15.40845011 35.86743501 -15.40845011 35.86743501 -20.6875 29.875 C-23.38976275 24.4704745 -23.8592625 19.24415416 -22.8125 13.3125 C-17.74918362 3.40601144 -10.90008907 -0.03427701 0 0 Z " fill="#0A0A0A" transform="translate(155.375,780.5)"/>
<path d="M0 0 C15.84 0 31.68 0 48 0 C48 15.51 48 31.02 48 47 C43.35845972 43.02153691 38.95989451 39.08930724 34.69140625 34.75390625 C34.12099106 34.17970444 33.55057587 33.60550262 32.96287537 33.01390076 C30.55624785 30.59114554 28.15568571 28.16241462 25.75463867 25.73413086 C23.985701 23.94691457 22.21453874 22.16196062 20.44140625 20.37890625 C19.87314117 19.80741852 19.3048761 19.23593079 18.71939087 18.64712524 C15.23686414 15.16868561 11.68687146 11.83977862 7.85913086 8.73803711 C4.99743075 6.0627327 2.54945651 2.97436593 0 0 Z " fill="#8BA78E" transform="translate(719,0)"/>
<path d="M0 0 C1.5798928 -0.16281338 3.16465741 -0.27877979 4.75 -0.375 C5.63171875 -0.44460938 6.5134375 -0.51421875 7.421875 -0.5859375 C10 0 10 0 11.9765625 2.3046875 C14.83301451 7.20084284 17.20402003 12.3796921 19.625 17.5 C20.11484375 18.51964844 20.6046875 19.53929687 21.109375 20.58984375 C23.37127097 25.3422973 25.40315216 29.97633327 27 35 C27.66 35 28.32 35 29 35 C29.33 33.845 29.66 32.69 30 31.5 C32.27680117 24.63707075 35.72839735 18.31268299 39.02636719 11.89892578 C40.37120207 9.27602565 41.68632249 6.63861511 43 4 C43.66 2.68 44.32 1.36 45 0 C48.3 0 51.6 0 55 0 C53.62548642 4.48815571 51.83850855 8.49173876 49.6640625 12.6484375 C49.34343842 13.26465973 49.02281433 13.88088196 48.69247437 14.51577759 C47.67410292 16.47103469 46.64977537 18.42309296 45.625 20.375 C44.9448927 21.67686411 44.26520162 22.97894575 43.5859375 24.28125 C43.25565552 24.91351501 42.92537354 25.54578003 42.58508301 26.19720459 C41.93164534 27.45205308 41.28114926 28.70843791 40.63366699 29.96636963 C39.37001205 32.41651037 38.10057016 34.83611602 36.65820312 37.18652344 C32.89885453 43.48022642 33.32997121 50.34621138 33.25 57.5 C33.20552734 59.4490625 33.20552734 59.4490625 33.16015625 61.4375 C33.0898424 64.62506106 33.03695232 67.81190682 33 71 C29.7 71 26.4 71 23 71 C23.04825928 70.30366455 23.09651855 69.6073291 23.14624023 68.88989258 C24.3610477 46.47715149 18.3719481 32.78205622 7 14 C5.66092003 11.76518089 4.33300615 9.52439895 3.0078125 7.28125 C2.42918457 6.31251953 1.85055664 5.34378906 1.25439453 4.34570312 C0 2 0 2 0 0 Z " fill="#0C0C0C" transform="translate(383,781)"/>
<path d="M0 0 C32.67 0 65.34 0 99 0 C99 13.86 99 27.72 99 42 C91.16592281 35.28507669 91.16592281 35.28507669 89.00463867 32.21362305 C79.23811354 18.86193667 67.87516117 3.44158781 50.72802734 0.31787109 C33.97199494 -1.72783534 16.74725654 -0.61968286 0 1 C0 0.67 0 0.34 0 0 Z " fill="#8BA58E" transform="translate(1101,435)"/>
<path d="M0 0 C15.84 0 31.68 0 48 0 C48 2.64 48 5.28 48 8 C41.73 8 35.46 8 29 8 C29 28.79 29 49.58 29 71 C26.03 71 23.06 71 20 71 C20 50.21 20 29.42 20 8 C13.4 8 6.8 8 0 8 C0 5.36 0 2.72 0 0 Z " fill="#090909" transform="translate(189,781)"/>
<path d="M0 0 C3.78580423 2.03850997 7.05061257 4.10122513 9 8 C9.40258518 12.22714439 9.47401512 14.84129638 7.875 18.75 C4.60377759 22.67546689 1.61832848 24.70575846 -3.4375 25.625 C-8.16276813 24.79600559 -10.89620164 22.6035625 -14 19 C-15.2517847 15.24464589 -15.77373976 11.88289586 -15 8 C-11.05337391 1.64896787 -7.56987948 -0.63082329 0 0 Z " fill="#F1F1F1" transform="translate(225,230)"/>
<path d="M0 0 C2.9375 2 2.9375 2 5 4 C5.33 3.01 5.66 2.02 6 1 C8.80915474 -0.40457737 10.88810534 -0.24895157 14 0 C16.375 1.0625 16.375 1.0625 18 3 C18.43060657 6.44485259 18.63335287 8.84506242 16.9375 11.9375 C13.91362524 13.5957539 11.37613017 13.30144019 8 13 C7.01 12.34 6.02 11.68 5 11 C5 10.34 5 9.68 5 9 C4.319375 9.66 3.63875 10.32 2.9375 11 C-0.71329152 13.48564529 -2.66546502 13.64215333 -7 13 C-9.66266871 10.76679398 -9.95347082 9.3799883 -10.375 5.9375 C-10 3 -10 3 -8.9375 1.125 C-5.8385295 -0.67440223 -3.50712967 -0.42327427 0 0 Z " fill="#EBEBEB" transform="translate(432,1500)"/>
<path d="M0 0 C3.41417993 2.27611995 3.51652165 2.84329158 4.5 6.625 C5.4114352 9.96210666 6.40164007 13.16336862 7.6875 16.375 C9 20 9 20 9 24 C3.72 24 -1.56 24 -7 24 C-5.875 16.125 -5.875 16.125 -4.58984375 12.59765625 C-4.18862305 11.48100586 -4.18862305 11.48100586 -3.77929688 10.34179688 C-3.50150391 9.58962891 -3.22371094 8.83746094 -2.9375 8.0625 C-2.65583984 7.28326172 -2.37417969 6.50402344 -2.08398438 5.70117188 C-1.39532294 3.79859875 -0.69850097 1.89898275 0 0 Z " fill="#F3F3F3" transform="translate(240,700)"/>
<path d="M0 0 C7.96153846 0 7.96153846 0 12 3 C14 5 14 5 14.4375 8.3125 C14 12 14 12 12.0625 14.9375 C7.7768922 17.82372566 5.09427214 17.38016956 0 17 C0 11.39 0 5.78 0 0 Z " fill="#EEEEEE" transform="translate(128,1457)"/>
<path d="M0 0 C2.5625 1.5 2.5625 1.5 4 4 C4.66459751 8.28967484 4.46496064 11.30255904 2 15 C-0.75 15.36328125 -0.75 15.36328125 -4 15.3125 C-5.60875 15.30669922 -5.60875 15.30669922 -7.25 15.30078125 C-10 15 -10 15 -12 13 C-11.54545455 7.54545455 -11.54545455 7.54545455 -9 5 C-6.31160615 4.73008094 -3.70858064 4.91262643 -1 5 C-1.33 7.64 -1.66 10.28 -2 13 C-1.01 12.67 -0.02 12.34 1 12 C1.04125 10.72125 1.0825 9.4425 1.125 8.125 C1.14820313 7.40570312 1.17140625 6.68640625 1.1953125 5.9453125 C1.18331689 3.76136355 1.18331689 3.76136355 -1 2 C-5.19216724 1.52541503 -7.30057329 1.54385214 -10.875 3.875 C-13.45371765 6.45371765 -13.94069718 7.30319184 -14.25 10.9375 C-14.21932019 13.89547043 -14.21932019 13.89547043 -13 15.8125 C-9.81931546 17.70103144 -6.66530121 17.69956547 -3 18 C-5 20 -5 20 -7.8125 20.375 C-11.92827924 19.89079068 -13.37807687 19.23884621 -16 16 C-16.72453606 12.5350816 -16.71783065 9.46577609 -16 6 C-11.40363705 0.07311094 -7.19595207 -0.88191953 0 0 Z " fill="#222222" transform="translate(243,1498)"/>
<path d="M0 0 C0.99 0 1.98 0 3 0 C3 5.94 3 11.88 3 18 C-5.30078125 18.390625 -5.30078125 18.390625 -8 18 C-10.43815473 15.57224252 -10.95276521 14.38575078 -11.375 10.9375 C-11 8 -11 8 -9.875 6.125 C-7.18282457 4.50969474 -5.07846795 4.73800273 -2 5 C-1.34 5.33 -0.68 5.66 0 6 C0 4.02 0 2.04 0 0 Z " fill="#292929" transform="translate(362,1495)"/>
<path d="M0 0 C0.99 0 1.98 0 3 0 C3 5.94 3 11.88 3 18 C-6.46868997 19.35267 -6.46868997 19.35267 -8.80078125 17.8046875 C-10.30573278 15.53990702 -10.40173212 14.14189921 -10.375 11.4375 C-10.38273437 10.65246094 -10.39046875 9.86742187 -10.3984375 9.05859375 C-10.26695312 8.37925781 -10.13546875 7.69992187 -10 7 C-6.1496895 4.43312633 -4.41430237 5.16711276 0 6 C0 4.02 0 2.04 0 0 Z " fill="#2D2D2D" transform="translate(389,1456)"/>
<path d="M0 0 C1.32 0 2.64 0 4 0 C5.010625 -0.061875 6.02125 -0.12375 7.0625 -0.1875 C10 0 10 0 11.875 1 C13.68540577 4.21849915 13.67217898 7.40757681 13 11 C11.3125 13.0625 11.3125 13.0625 9 14 C4.58974359 13.58974359 4.58974359 13.58974359 3 12 C2.67 14.64 2.34 17.28 2 20 C1.34 20 0.68 20 0 20 C0 13.4 0 6.8 0 0 Z " fill="#232323" transform="translate(310,1461)"/>
<path d="M0 0 C0.66 0 1.32 0 2 0 C2 5.94 2 11.88 2 18 C0.68 18 -0.64 18 -2 18 C-3.010625 18.061875 -4.02125 18.12375 -5.0625 18.1875 C-8 18 -8 18 -9.875 16.9375 C-11.64273274 13.8930714 -11.36823916 11.4368988 -11 8 C-9.875 6.0625 -9.875 6.0625 -8 5 C-4.875 4.75 -4.875 4.75 -2 5 C-1.67 5.33 -1.34 5.66 -1 6 C-0.67 4.02 -0.34 2.04 0 0 Z " fill="#262626" transform="translate(346,1495)"/>
<path d="M0 0 C2.79947917 0.06510417 5.59895833 0.13020833 8.3984375 0.1953125 C8.3984375 4.4853125 8.3984375 8.7753125 8.3984375 13.1953125 C0 13.390625 0 13.390625 -2.6015625 13.1953125 C-4.6015625 11.1953125 -4.6015625 11.1953125 -4.8671875 9.1015625 C-4.85945313 7.91046875 -4.85945313 7.91046875 -4.8515625 6.6953125 C-4.85671875 5.90125 -4.861875 5.1071875 -4.8671875 4.2890625 C-4.44336476 0.94834204 -3.26874604 0.24540135 0 0 Z " fill="#232323" transform="translate(323.6015625,1499.8046875)"/>
<path d="M0 0 C0.66 0 1.32 0 2 0 C2 5.61 2 11.22 2 17 C0.411875 17.061875 -1.17625 17.12375 -2.8125 17.1875 C-4.15248047 17.23970703 -4.15248047 17.23970703 -5.51953125 17.29296875 C-8 17 -8 17 -9.80078125 15.70703125 C-11.79958597 12.86182713 -11.35896649 10.35035393 -11 7 C-9.875 5.0625 -9.875 5.0625 -8 4 C-4.875 3.75 -4.875 3.75 -2 4 C-1.67 4.33 -1.34 4.66 -1 5 C-0.67 3.35 -0.34 1.7 0 0 Z " fill="#1F1F1F" transform="translate(236,1457)"/>
<path d="M0 0 C4 1 4 1 5.265625 2.9609375 C5.59046875 3.75757813 5.9153125 4.55421875 6.25 5.375 C6.58515625 6.16648437 6.9203125 6.95796875 7.265625 7.7734375 C8 10 8 10 8 13 C8.66 13 9.32 13 10 13 C10.0825 12.34 10.165 11.68 10.25 11 C11.24759791 7.00960837 13.07166683 3.61450357 15 0 C15.99 0 16.98 0 18 0 C18 5.61 18 11.22 18 17 C17.01 17 16.02 17 15 17 C14.67 14.36 14.34 11.72 14 9 C12.68 11.64 11.36 14.28 10 17 C9.34 17 8.68 17 8 17 C6.68 14.36 5.36 11.72 4 9 C3.67 11.64 3.34 14.28 3 17 C2.01 17 1.02 17 0 17 C0 11.39 0 5.78 0 0 Z " fill="#414141" transform="translate(229,1535)"/>
<path d="M0 0 C2.3821875 0.0928125 2.3821875 0.0928125 4.8125 0.1875 C4.8125 4.4775 4.8125 8.7675 4.8125 13.1875 C-2.70703125 13.578125 -2.70703125 13.578125 -5.1875 13.1875 C-7.5935767 10.75010777 -8.14171099 9.5614436 -8.5625 6.125 C-8.1875 3.1875 -8.1875 3.1875 -6.98828125 1.515625 C-4.55953174 -0.27564362 -2.98289917 -0.11621685 0 0 Z " fill="#151515" transform="translate(370.1875,1460.8125)"/>
<path d="M0 0 C2.3821875 0.0928125 2.3821875 0.0928125 4.8125 0.1875 C4.8125 4.4775 4.8125 8.7675 4.8125 13.1875 C-2.70703125 13.578125 -2.70703125 13.578125 -5.1875 13.1875 C-7.5935767 10.75010777 -8.14171099 9.5614436 -8.5625 6.125 C-8.1875 3.1875 -8.1875 3.1875 -6.98828125 1.515625 C-4.55953174 -0.27564362 -2.98289917 -0.11621685 0 0 Z " fill="#2A2A2A" transform="translate(298.1875,1499.8125)"/>
<path d="M0 0 C2.375 1.0625 2.375 1.0625 4 3 C4.43060657 6.44485259 4.63335287 8.84506242 2.9375 11.9375 C-0.08637476 13.5957539 -2.62386983 13.30144019 -6 13 C-6.99 12.34 -7.98 11.68 -9 11 C-9.3984375 8.90625 -9.3984375 8.90625 -9.375 6.5 C-9.38273437 5.7059375 -9.39046875 4.911875 -9.3984375 4.09375 C-9.26695312 3.4028125 -9.13546875 2.711875 -9 2 C-5.51131349 -0.32579101 -4.10281481 -0.41865457 0 0 Z " fill="#404040" transform="translate(446,1500)"/>
<path d="M0 0 C0.99 0.66 1.98 1.32 3 2 C3.64608076 8.78384798 3.64608076 8.78384798 1.9375 12 C-1.13215135 13.58433618 -3.61681143 13.36248449 -7 13 C-8.9375 11.9375 -8.9375 11.9375 -10 10 C-10.36528977 6.5906288 -10.6140629 4.11976176 -8.9375 1.0625 C-5.91362524 -0.5957539 -3.37613017 -0.30144019 0 0 Z " fill="#202020" transform="translate(220,1500)"/>
<path d="M0 0 C1.9375 1.0625 1.9375 1.0625 3 3 C3.36528977 6.4093712 3.6140629 8.88023824 1.9375 11.9375 C-1.11976176 13.6140629 -3.5906288 13.36528977 -7 13 C-8.9375 11.9375 -8.9375 11.9375 -10 10 C-10.36528977 6.5906288 -10.6140629 4.11976176 -8.9375 1.0625 C-5.88023824 -0.6140629 -3.4093712 -0.36528977 0 0 Z " fill="#1A1A1A" transform="translate(183,1461)"/>
<path d="M0 0 C0.66 0 1.32 0 2 0 C2.99 3.3 3.98 6.6 5 10 C6.32 6.7 7.64 3.4 9 0 C9.99 0 10.98 0 12 0 C12.20496094 0.71027344 12.40992188 1.42054687 12.62109375 2.15234375 C12.89050781 3.07144531 13.15992188 3.99054688 13.4375 4.9375 C13.83775391 6.31228516 13.83775391 6.31228516 14.24609375 7.71484375 C14.79026051 9.9402493 14.79026051 9.9402493 16 11 C16.99 7.37 17.98 3.74 19 0 C19.66 0 20.32 0 21 0 C20.58411954 6.19518473 19.39748106 11.26689311 17 17 C16.01 17 15.02 17 14 17 C13.01 13.37 12.02 9.74 11 6 C8.58749273 11.3599996 8.58749273 11.3599996 7 17 C5.68 16.67 4.36 16.34 3 16 C2.49411853 14.08487728 1.99551609 12.16783078 1.5 10.25 C1.2215625 9.18265625 0.943125 8.1153125 0.65625 7.015625 C0 4 0 4 0 0 Z " fill="#2B2B2B" transform="translate(151,1535)"/>
<path d="M0 0 C1.9375 1.125 1.9375 1.125 3 3 C3.42030443 6.29238472 3.295454 8.33957342 1.9375 11.375 C0 13 0 13 -3.5 13.4375 C-7 13 -7 13 -8.9375 11.9375 C-10.6140629 8.88023824 -10.36528977 6.4093712 -10 3 C-7.77766882 -1.05248626 -4.20052866 -0.45005664 0 0 Z " fill="#292929" transform="translate(151,1500)"/>
<path d="M0 0 C0.99 0.33 1.98 0.66 3 1 C3.73046875 3.06640625 3.73046875 3.06640625 4.1875 5.5625 C4.34605469 6.38878906 4.50460938 7.21507812 4.66796875 8.06640625 C4.77753906 8.70449219 4.88710937 9.34257813 5 10 C7.19797403 7.80202597 7.45897517 6.82453855 8.125 3.875 C8.41375 2.59625 8.7025 1.3175 9 0 C10.32 0.33 11.64 0.66 13 1 C13.66 4.3 14.32 7.6 15 11 C15.66 11 16.32 11 17 11 C17.66 7.7 18.32 4.4 19 1 C19.99 0.67 20.98 0.34 22 0 C20.83348574 5.92863717 19.24480642 11.38798394 17 17 C16.01 16.67 15.02 16.34 14 16 C12.63930056 12.41066525 11.90267559 8.73965603 11 5 C9.68 8.96 8.36 12.92 7 17 C6.01 17 5.02 17 4 17 C3.32844651 14.73050898 2.6626037 12.4596039 2 10.1875 C1.443125 8.29064453 1.443125 8.29064453 0.875 6.35546875 C0 3 0 3 0 0 Z " fill="#282828" transform="translate(127,1535)"/>
<path d="M0 0 C0.99 0 1.98 0 3 0 C5.28571429 8.42857143 5.28571429 8.42857143 5 13 C5.66 13 6.32 13 7 13 C7.185625 11.453125 7.185625 11.453125 7.375 9.875 C7.93889814 6.37883154 8.78682059 3.31602373 10 0 C10.99 0 11.98 0 13 0 C13.99 3.96 14.98 7.92 16 12 C16.433125 10.205625 16.86625 8.41125 17.3125 6.5625 C18.05078125 3.50390625 18.05078125 3.50390625 19 1 C19.99 0.67 20.98 0.34 22 0 C21.52294177 2.27127721 21.04328294 4.54200832 20.5625 6.8125 C20.29566406 8.07707031 20.02882812 9.34164063 19.75390625 10.64453125 C19 14 19 14 18 17 C17.01 17 16.02 17 15 17 C13.68 13.37 12.36 9.74 11 6 C9.68 9.63 8.36 13.26 7 17 C6.01 16.67 5.02 16.34 4 16 C3.11917378 13.28681956 2.42123771 10.71116483 1.8125 7.9375 C1.63525391 7.17888672 1.45800781 6.42027344 1.27539062 5.63867188 C0.83863033 3.76178303 0.41780844 1.8811984 0 0 Z " fill="#232323" transform="translate(174,1535)"/>
<path d="M0 0 C1.9375 1 1.9375 1 3 3 C3.23595284 5.71882023 3.13477523 8.25957022 3 11 C1.68 11.33 0.36 11.66 -1 12 C-0.67 9.36 -0.34 6.72 0 4 C-1.27875 4.103125 -2.5575 4.20625 -3.875 4.3125 C-4.59429687 4.37050781 -5.31359375 4.42851563 -6.0546875 4.48828125 C-8.39519216 4.87393036 -8.39519216 4.87393036 -10 8 C-9.6878236 10.64632287 -9.6878236 10.64632287 -9 13 C-6.69 13 -4.38 13 -2 13 C-2 14.33333333 -2 15.66666667 -2 17 C-9.25581395 17.48372093 -9.25581395 17.48372093 -12.5 15.375 C-14.49476086 12.21662863 -14.66260372 10.68113179 -14 7 C-10.21257804 0.97646176 -7.0421066 -0.49418292 0 0 Z " fill="#E5E5E5" transform="translate(242,1499)"/>
<path d="M0 0 C7 0 7 0 9.4375 1.1875 C11 3 11 3 11.375 5.4375 C11 8 11 8 9.875 10 C8.69689905 12.09393753 8.69689905 12.09393753 9.875 14.75 C10.24625 15.4925 10.6175 16.235 11 17 C10.01 17 9.02 17 8 17 C7.566875 16.030625 7.13375 15.06125 6.6875 14.0625 C5.2985139 10.72268235 5.2985139 10.72268235 2 10 C2 12.31 2 14.62 2 17 C1.34 17 0.68 17 0 17 C0 11.39 0 5.78 0 0 Z " fill="#1D1D1D" transform="translate(211,1457)"/>
<path d="M0 0 C1.9375 1.1875 1.9375 1.1875 3 3 C3 4.65 3 6.3 3 8 C-0.3 8.33 -3.6 8.66 -7 9 C-4.69 9.66 -2.38 10.32 0 11 C0 10.34 0 9.68 0 9 C0.66 9 1.32 9 2 9 C2 9.99 2 10.98 2 12 C-1.24826674 14.16551116 -2.23094157 14.55156953 -6 14 C-8.3125 12.4375 -8.3125 12.4375 -10 10 C-10.42519574 6.53769185 -10.63902633 4.1652833 -8.9375 1.0625 C-5.88023824 -0.6140629 -3.4093712 -0.36528977 0 0 Z " fill="#292929" transform="translate(357,1461)"/>
<path d="M0 0 C6.8359375 -0.1953125 6.8359375 -0.1953125 9 0 C11 2 11 2 11.3125 5 C11.1578125 6.485 11.1578125 6.485 11 8 C7.77208445 10.1519437 6.71599191 10.20086443 3 10 C3 12.31 3 14.62 3 17 C2.01 17 1.02 17 0 17 C0 11.39 0 5.78 0 0 Z " fill="#454545" transform="translate(250,1535)"/>
<path d="M0 0 C4.33333333 0 8.66666667 0 13 0 C14.010625 -0.061875 15.02125 -0.12375 16.0625 -0.1875 C19 0 19 0 20.671875 1.15625 C22.52490692 3.72869431 22.29806368 5.55486247 22.1875 8.6875 C22.16042969 9.68136719 22.13335937 10.67523437 22.10546875 11.69921875 C22.07066406 12.45847656 22.03585937 13.21773437 22 14 C21.01 14 20.02 14 19 14 C18.67 10.37 18.34 6.74 18 3 C16.35 3.33 14.7 3.66 13 4 C12.67 6.97 12.34 9.94 12 13 C11.34 13 10.68 13 10 13 C9.67 10.03 9.34 7.06 9 4 C7.34385343 3.61781233 5.67542976 3.28604898 4 3 C2.41727399 4.58272601 2.65264253 6.38034003 2.4375 8.5625 C2.35371094 9.38878906 2.26992188 10.21507812 2.18359375 11.06640625 C2.12300781 11.70449219 2.06242187 12.34257813 2 13 C1.34 13 0.68 13 0 13 C0 8.71 0 4.42 0 0 Z " fill="#3E3E3E" transform="translate(285,1461)"/>
<path d="M0 0 C3.12522772 -0.05378021 6.2495371 -0.09356575 9.375 -0.125 C10.26445312 -0.14175781 11.15390625 -0.15851563 12.0703125 -0.17578125 C12.92109375 -0.18222656 13.771875 -0.18867187 14.6484375 -0.1953125 C15.82672119 -0.21102295 15.82672119 -0.21102295 17.02880859 -0.22705078 C19 0 19 0 21 2 C21.1953125 4.6015625 21.1953125 4.6015625 21.125 7.625 C21.10695313 8.62789062 21.08890625 9.63078125 21.0703125 10.6640625 C21.04710937 11.43492188 21.02390625 12.20578125 21 13 C20.34 13 19.68 13 19 13 C18.505 8.05 18.505 8.05 18 3 C16.35 3 14.7 3 13 3 C12.67 6.3 12.34 9.6 12 13 C11.01 13 10.02 13 9 13 C8.67 9.7 8.34 6.4 8 3 C6.35 2.67 4.7 2.34 3 2 C2.67 5.63 2.34 9.26 2 13 C1.34 13 0.68 13 0 13 C0 8.71 0 4.42 0 0 Z " fill="#414141" transform="translate(266,1500)"/>
<path d="M0 0 C1.875 1.1875 1.875 1.1875 3 3 C3 4.65 3 6.3 3 8 C-0.3 8 -3.6 8 -7 8 C-6.01 9.485 -6.01 9.485 -5 11 C-3.68 11 -2.36 11 -1 11 C-0.67 10.34 -0.34 9.68 0 9 C0.99 9 1.98 9 3 9 C2.34 10.32 1.68 11.64 1 13 C-6.36270368 13.48280024 -6.36270368 13.48280024 -9.0625 11.4375 C-10.40411569 7.9492992 -9.92678615 5.57474656 -9 2 C-5.53076119 -0.31282587 -4.07794425 -0.42478586 0 0 Z " fill="#222222" transform="translate(154,1461)"/>
<path d="M0 0 C1.32 0 2.64 0 4 0 C4.83698386 2.45714547 5.66972424 4.91558857 6.5 7.375 C6.73847656 8.07367187 6.97695313 8.77234375 7.22265625 9.4921875 C9 14.7734375 9 14.7734375 9 17 C8.01 16.67 7.02 16.34 6 16 C6 15.01 6 14.02 6 13 C3.36 13 0.72 13 -2 13 C-2.33 14.32 -2.66 15.64 -3 17 C-3.66 17 -4.32 17 -5 17 C-3.83348574 11.07136283 -2.24480642 5.61201606 0 0 Z " fill="#2A2A2A" transform="translate(279,1535)"/>
<path d="M0 0 C1.875 1.1875 1.875 1.1875 3 3 C3 4.65 3 6.3 3 8 C-0.3 8 -3.6 8 -7 8 C-6.01 9.485 -6.01 9.485 -5 11 C-3.68 11 -2.36 11 -1 11 C-0.67 10.34 -0.34 9.68 0 9 C0.99 9 1.98 9 3 9 C2.34 10.32 1.68 11.64 1 13 C-6.42309859 13.48676056 -6.42309859 13.48676056 -9 11.3125 C-10.19862599 8.5406774 -10.52258446 6.98619691 -10 4 C-7.16144342 -0.03948437 -4.8329989 -0.71980835 0 0 Z " fill="#1D1D1D" transform="translate(279,1461)"/>
<path d="M0 0 C4 1 4 1 5.921875 3.50390625 C6.52515625 4.51324219 7.1284375 5.52257813 7.75 6.5625 C8.67039062 8.08037109 8.67039062 8.08037109 9.609375 9.62890625 C10.06828125 10.41136719 10.5271875 11.19382812 11 12 C11.33 8.04 11.66 4.08 12 0 C12.66 0 13.32 0 14 0 C14 5.61 14 11.22 14 17 C13.01 17 12.02 17 11 17 C9.17578125 14.59375 9.17578125 14.59375 7.3125 11.5 C6.68988281 10.4790625 6.06726563 9.458125 5.42578125 8.40625 C4.95527344 7.6121875 4.48476563 6.818125 4 6 C3.67 9.63 3.34 13.26 3 17 C2.01 17 1.02 17 0 17 C0 11.39 0 5.78 0 0 Z " fill="#686868" transform="translate(321,1535)"/>
<path d="M0 0 C4.33333333 0 8.66666667 0 13 0 C14.546875 -0.061875 14.546875 -0.061875 16.125 -0.125 C19 0 19 0 21 2 C21.1953125 4.6015625 21.1953125 4.6015625 21.125 7.625 C21.10695313 8.62789062 21.08890625 9.63078125 21.0703125 10.6640625 C21.04710937 11.43492188 21.02390625 12.20578125 21 13 C20.34 13 19.68 13 19 13 C18.505 8.05 18.505 8.05 18 3 C16.35 3 14.7 3 13 3 C12.67 6.3 12.34 9.6 12 13 C11.01 13 10.02 13 9 13 C8.67 9.7 8.34 6.4 8 3 C6.35 3 4.7 3 3 3 C2.67 6.3 2.34 9.6 2 13 C1.34 13 0.68 13 0 13 C0 8.71 0 4.42 0 0 Z " fill="#262626" transform="translate(453,1500)"/>
<path d="M0 0 C3.5625 0.3125 3.5625 0.3125 5.5 1.5625 C6.5625 3.3125 6.5625 3.3125 6.5625 7.3125 C3.2625 7.3125 -0.0375 7.3125 -3.4375 7.3125 C-3.1075 8.3025 -2.7775 9.2925 -2.4375 10.3125 C0.60636724 10.39476668 2.63425348 10.28858217 5.5625 9.3125 C4.9025 10.6325 4.2425 11.9525 3.5625 13.3125 C-2.8208448 13.79426187 -2.8208448 13.79426187 -5.4375 11.75 C-6.85720326 8.28947331 -6.30051515 5.89733216 -5.4375 2.3125 C-3.4375 0.3125 -3.4375 0.3125 0 0 Z " fill="#131313" transform="translate(256.4375,1499.6875)"/>
<path d="M0 0 C3.5625 0.25 3.5625 0.25 6.5625 2.25 C6.5625 3.9 6.5625 5.55 6.5625 7.25 C3.2625 7.25 -0.0375 7.25 -3.4375 7.25 C-3.1075 8.24 -2.7775 9.23 -2.4375 10.25 C0.5325 10.745 0.5325 10.745 3.5625 11.25 C3.5625 10.59 3.5625 9.93 3.5625 9.25 C4.5525 9.25 5.5425 9.25 6.5625 9.25 C5.5625 12.25 5.5625 12.25 3.5625 13.25 C0.0625 13.4375 0.0625 13.4375 -3.4375 13.25 C-5.4375 11.25 -5.4375 11.25 -5.703125 9.15625 C-5.69539063 7.96515625 -5.69539063 7.96515625 -5.6875 6.75 C-5.69265625 5.9559375 -5.6978125 5.161875 -5.703125 4.34375 C-5.21357776 0.48496591 -3.67885468 0.26755307 0 0 Z " fill="#0F0F0F" transform="translate(382.4375,1499.75)"/>
<path d="M0 0 C0.99 0 1.98 0 3 0 C3 2.64 3 5.28 3 8 C5.64 8 8.28 8 11 8 C11 5.36 11 2.72 11 0 C11.66 0 12.32 0 13 0 C13 5.61 13 11.22 13 17 C12.34 17 11.68 17 11 17 C11 14.69 11 12.38 11 10 C8.36 10 5.72 10 3 10 C3 12.64 3 15.28 3 18 C2.01 18 1.02 18 0 18 C0 12.06 0 6.12 0 0 Z " fill="#363636" transform="translate(253,1457)"/>
<path d="M0 0 C3.63 0 7.26 0 11 0 C11 0.66 11 1.32 11 2 C8.36 2 5.72 2 3 2 C3 3.32 3 4.64 3 6 C4.11375 5.95875 5.2275 5.9175 6.375 5.875 C10 6 10 6 12 8 C12.375 11.4375 12.375 11.4375 12 15 C10.375 17 10.375 17 8 18 C4.75 17.6875 4.75 17.6875 2 17 C1.67 15.68 1.34 14.36 1 13 C1.5775 13.350625 2.155 13.70125 2.75 14.0625 C5.35801776 15.14917407 6.39417629 14.93065133 9 14 C9 12.35 9 10.7 9 9 C5.65976579 8.90721572 3.31243305 9.17189174 0 10 C0 6.7 0 3.4 0 0 Z " fill="#404040" transform="translate(191,1573)"/>
<path d="M0 0 C3.94875582 1.31625194 4.54992713 3.05365398 6.6875 6.5625 C7.31011719 7.57441406 7.93273437 8.58632812 8.57421875 9.62890625 C9.04472656 10.41136719 9.51523437 11.19382812 10 12 C10.33 8.04 10.66 4.08 11 0 C11.66 0 12.32 0 13 0 C13 5.61 13 11.22 13 17 C12.01 17 11.02 17 10 17 C8.17578125 14.59375 8.17578125 14.59375 6.3125 11.5 C5.68988281 10.4790625 5.06726563 9.458125 4.42578125 8.40625 C3.95527344 7.6121875 3.48476563 6.818125 3 6 C2.67 9.63 2.34 13.26 2 17 C1.34 17 0.68 17 0 17 C0 11.39 0 5.78 0 0 Z " fill="#212121" transform="translate(407,1457)"/>
<path d="M0 0 C3.63 0 7.26 0 11 0 C11 0.66 11 1.32 11 2 C8.36 2 5.72 2 3 2 C3 3.32 3 4.64 3 6 C4.11375 5.95875 5.2275 5.9175 6.375 5.875 C10 6 10 6 12 8 C12.47171648 11.61649298 12.41791658 13.37312512 10.375 16.4375 C8 18 8 18 4.875 18 C2 17 2 17 0.625 14.9375 C0.41875 14.298125 0.2125 13.65875 0 13 C0.99 13 1.98 13 3 13 C3.33 13.66 3.66 14.32 4 15 C5.65 14.67 7.3 14.34 9 14 C9 12.35 9 10.7 9 9 C6.03 8.505 6.03 8.505 3 8 C3 8.66 3 9.32 3 10 C2.01 10 1.02 10 0 10 C0 6.7 0 3.4 0 0 Z " fill="#3D3D3D" transform="translate(176,1573)"/>
<path d="M0 0 C3.3 0 6.6 0 10 0 C10 0.66 10 1.32 10 2 C7.36 2 4.72 2 2 2 C2.33 3.32 2.66 4.64 3 6 C3.94875 5.95875 4.8975 5.9175 5.875 5.875 C9 6 9 6 11 8 C11.55416667 14.09583333 11.55416667 14.09583333 9.8125 16.9375 C7.3648354 18.37233787 5.79523674 18.34940459 3 18 C2.01 17.34 1.02 16.68 0 16 C0 15.01 0 14.02 0 13 C0.5775 13.350625 1.155 13.70125 1.75 14.0625 C4.35801776 15.14917407 5.39417629 14.93065133 8 14 C8 12.35 8 10.7 8 9 C4.95613276 8.91773332 2.92824652 9.02391783 0 10 C0 6.7 0 3.4 0 0 Z " fill="#262626" transform="translate(207,1573)"/>
<path d="M0 0 C3.3 0 6.6 0 10 0 C10 0.66 10 1.32 10 2 C7.69 2 5.38 2 3 2 C3 3.65 3 5.3 3 7 C4.98 7 6.96 7 9 7 C9 7.66 9 8.32 9 9 C7.02 9 5.04 9 3 9 C3 10.98 3 12.96 3 15 C5.31 15 7.62 15 10 15 C10 15.66 10 16.32 10 17 C6.7 17 3.4 17 0 17 C0 11.39 0 5.78 0 0 Z " fill="#3B3B3B" transform="translate(338,1535)"/>
<path d="M0 0 C7.96153846 0 7.96153846 0 12 3 C14 5 14 5 14.4375 8.3125 C14 12 14 12 12.0625 14.9375 C7.7768922 17.82372566 5.09427214 17.38016956 0 17 C0 11.39 0 5.78 0 0 Z M2 2 C2 6.62 2 11.24 2 16 C7.76878204 16.64594224 7.76878204 16.64594224 10.4375 13.9375 C12.47767494 10.10197111 12.24298846 8.11739929 11 4 C7.95019358 1.49480187 6.15432681 2 2 2 Z " fill="#161616" transform="translate(128,1457)"/>
<path d="M0 0 C2.5625 1.5 2.5625 1.5 4 4 C4.50350771 6.90980618 4.33546025 8.98085779 4 12 C2.5 14 2.5 14 1 15 C0.34 14.34 -0.32 13.68 -1 13 C-0.34 12.67 0.32 12.34 1 12 C1.04125 10.72125 1.0825 9.4425 1.125 8.125 C1.14820313 7.40570312 1.17140625 6.68640625 1.1953125 5.9453125 C1.18331689 3.76136355 1.18331689 3.76136355 -1 2 C-5.19216724 1.52541503 -7.30057329 1.54385214 -10.875 3.875 C-13.45371765 6.45371765 -13.94069718 7.30319184 -14.25 10.9375 C-14.21932019 13.89547043 -14.21932019 13.89547043 -13 15.8125 C-9.81931546 17.70103144 -6.66530121 17.69956547 -3 18 C-5 20 -5 20 -7.8125 20.375 C-11.92827924 19.89079068 -13.37807687 19.23884621 -16 16 C-16.72453606 12.5350816 -16.71783065 9.46577609 -16 6 C-11.40363705 0.07311094 -7.19595207 -0.88191953 0 0 Z " fill="#2E2E2E" transform="translate(243,1498)"/>
<path d="M0 0 C1.4540625 0.0309375 1.4540625 0.0309375 2.9375 0.0625 C3.5975 1.3825 4.2575 2.7025 4.9375 4.0625 C2.9575 3.4025 0.9775 2.7425 -1.0625 2.0625 C-1.3925 3.0525 -1.7225 4.0425 -2.0625 5.0625 C-0.639375 5.5265625 -0.639375 5.5265625 0.8125 6 C3.9375 7.0625 3.9375 7.0625 5.9375 8.0625 C5.9375 8.7225 5.9375 9.3825 5.9375 10.0625 C7.2575 10.0625 8.5775 10.0625 9.9375 10.0625 C9.9375 11.0525 9.9375 12.0425 9.9375 13.0625 C9.31875 12.876875 8.7 12.69125 8.0625 12.5 C5.89589822 11.82563824 5.89589822 11.82563824 3.9375 13.0625 C1.6045134 13.10272391 -0.72956666 13.10570247 -3.0625 13.0625 C-3.7225 11.7425 -4.3825 10.4225 -5.0625 9.0625 C-4.0725 9.0625 -3.0825 9.0625 -2.0625 9.0625 C-2.0625 9.7225 -2.0625 10.3825 -2.0625 11.0625 C-0.4125 11.0625 1.2375 11.0625 2.9375 11.0625 C2.9375 10.0725 2.9375 9.0825 2.9375 8.0625 C1.98875 7.93875 1.04 7.815 0.0625 7.6875 C-3.0625 7.0625 -3.0625 7.0625 -5.0625 5.0625 C-4.45789299 1.07209375 -4.2025713 0.08576676 0 0 Z " fill="#303030" transform="translate(409.0625,1499.9375)"/>
<path d="M0 0 C3.375 -0.125 3.375 -0.125 7 0 C9 2 9 2 9.4375 4.75 C8.83839921 9.20046302 7.06348779 10.78333782 4 14 C6.97 14.495 6.97 14.495 10 15 C10 15.66 10 16.32 10 17 C6.04 17 2.08 17 -2 17 C-2 16.34 -2 15.68 -2 15 C-0.89121049 14.03885609 0.26274351 13.1292946 1.4375 12.25 C4.26535612 9.93526293 4.91918654 9.29092844 5.9375 5.625 C5.958125 4.75875 5.97875 3.8925 6 3 C4.35 2.67 2.7 2.34 1 2 C0.67 2.99 0.34 3.98 0 5 C-0.33 4.01 -0.66 3.02 -1 2 C-0.67 1.34 -0.34 0.68 0 0 Z " fill="#333333" transform="translate(157,1573)"/>
<path d="M0 0 C3.0625 0.1875 3.0625 0.1875 5.0625 2.1875 C5.54587545 5.22585998 5.65343686 7.27741605 3.94140625 9.9140625 C2.70708637 11.38965171 1.38924117 12.79442177 0.0625 14.1875 C3.0325 14.6825 3.0325 14.6825 6.0625 15.1875 C6.0625 15.8475 6.0625 16.5075 6.0625 17.1875 C2.4325 17.1875 -1.1975 17.1875 -4.9375 17.1875 C-2.9375 13.1875 -2.9375 13.1875 -0.3125 10.1875 C2.47630196 7.30252061 2.47630196 7.30252061 2.0625 3.1875 C0.7425 3.1875 -0.5775 3.1875 -1.9375 3.1875 C-2.2675 3.8475 -2.5975 4.5075 -2.9375 5.1875 C-3.5975 5.1875 -4.2575 5.1875 -4.9375 5.1875 C-3.82120474 0.24390669 -3.82120474 0.24390669 0 0 Z " fill="#323232" transform="translate(132.9375,1572.8125)"/>
<path d="M0 0 C1.60875 -0.04125 3.2175 -0.0825 4.875 -0.125 C5.77992188 -0.14820313 6.68484375 -0.17140625 7.6171875 -0.1953125 C10 0 10 0 12 2 C12.1953125 4.6015625 12.1953125 4.6015625 12.125 7.625 C12.10695312 8.62789062 12.08890625 9.63078125 12.0703125 10.6640625 C12.03550781 11.82035156 12.03550781 11.82035156 12 13 C11.34 13 10.68 13 10 13 C9.67 9.7 9.34 6.4 9 3 C7.35 3 5.7 3 4 3 C3.67 6.3 3.34 9.6 3 13 C2.01 13 1.02 13 0 13 C0 8.71 0 4.42 0 0 Z " fill="#222222" transform="translate(187,1500)"/>
<path d="M0 0 C2.97 0 5.94 0 9 0 C9 0.66 9 1.32 9 2 C6.69 2 4.38 2 2 2 C2 3.65 2 5.3 2 7 C4.31 7 6.62 7 9 7 C9 7.66 9 8.32 9 9 C6.69 9 4.38 9 2 9 C2 10.98 2 12.96 2 15 C4.31 15 6.62 15 9 15 C9 15.66 9 16.32 9 17 C6.03 17 3.06 17 0 17 C0 11.39 0 5.78 0 0 Z " fill="#252525" transform="translate(304,1535)"/>
<path d="M0 0 C3 0.25 3 0.25 5 2.25 C5.48337545 5.28835998 5.59093686 7.33991605 3.87890625 9.9765625 C2.64458637 11.45215171 1.32674117 12.85692177 0 14.25 C2.97 14.745 2.97 14.745 6 15.25 C6 15.91 6 16.57 6 17.25 C2.37 17.25 -1.26 17.25 -5 17.25 C-3 13.25 -3 13.25 -0.375 10.25 C2.41380196 7.36502061 2.41380196 7.36502061 2 3.25 C0.35 2.92 -1.3 2.59 -3 2.25 C-3.33 3.24 -3.66 4.23 -4 5.25 C-4.33 4.26 -4.66 3.27 -5 2.25 C-3 0.25 -3 0.25 0 0 Z " fill="#323232" transform="translate(147,1572.75)"/>
<path d="M0 0 C0.99 0.33 1.98 0.66 3 1 C4.6875 4.5625 4.6875 4.5625 6 8 C7.32 5.36 8.64 2.72 10 0 C10.66 0 11.32 0 12 0 C9.94235079 6.45353615 7.57616518 12.7361263 5 19 C4.01 18.67 3.02 18.34 2 18 C2.33 17.34 2.66 16.68 3 16 C2.97663986 13.91761534 2.97663986 13.91761534 2.6875 11.625 C2.60886719 10.85414062 2.53023437 10.08328125 2.44921875 9.2890625 C1.97973316 6.89672722 1.09076499 5.16372157 0 3 C0 2.01 0 1.02 0 0 Z " fill="#2C2C2C" transform="translate(127,1500)"/>
<path d="M0 0 C2.97 0 5.94 0 9 0 C9 0.66 9 1.32 9 2 C6.69 2 4.38 2 2 2 C2 3.65 2 5.3 2 7 C3.98 7 5.96 7 8 7 C8 7.66 8 8.32 8 9 C6.02 9 4.04 9 2 9 C2 10.98 2 12.96 2 15 C4.31 15 6.62 15 9 15 C9 15.66 9 16.32 9 17 C6.03 17 3.06 17 0 17 C0 11.39 0 5.78 0 0 Z " fill="#202020" transform="translate(217,1535)"/>
<path d="M0 0 C2.31 0 4.62 0 7 0 C7.66 1.32 8.32 2.64 9 4 C8.01 4 7.02 4 6 4 C6 3.34 6 2.68 6 2 C4.35 2 2.7 2 1 2 C1 2.99 1 3.98 1 5 C1.94875 5.12375 2.8975 5.2475 3.875 5.375 C7 6 7 6 9 8 C8.46428571 11.53571429 8.46428571 11.53571429 7 13 C4.66702567 13.04092937 2.33294775 13.04241723 0 13 C-0.33 11.68 -0.66 10.36 -1 9 C-0.34 9 0.32 9 1 9 C1 9.66 1 10.32 1 11 C2.65 11 4.3 11 6 11 C6 10.01 6 9.02 6 8 C5.21625 7.87625 4.4325 7.7525 3.625 7.625 C1 7 1 7 -1 5 C-0.625 2.375 -0.625 2.375 0 0 Z " fill="#2E2E2E" transform="translate(393,1500)"/>
<path d="M0 0 C2.5 0.25 2.5 0.25 4.5 2.25 C4.87271546 5.15718056 4.89278138 6.66082793 3.25 9.125 C1.5 10.25 1.5 10.25 -0.5625 10.0625 C-2.5 9.25 -2.5 9.25 -4.5 7.25 C-4.75 4.75 -4.75 4.75 -4.5 2.25 C-2.5 0.25 -2.5 0.25 0 0 Z " fill="#EDEDED" transform="translate(179.5,1462.75)"/>
<path d="M0 0 C2.6875 0.875 2.6875 0.875 5 2 C5.04241723 4.33294775 5.04092937 6.66702567 5 9 C4 10 4 10 1 10.125 C-2 10 -2 10 -3 9 C-3.25 5.5625 -3.25 5.5625 -3 2 C-2.01 1.34 -1.02 0.68 0 0 Z " fill="#EEEEEE" transform="translate(442,1501)"/>
<path d="M0 0 C2.5 0.25 2.5 0.25 4.5 2.25 C4.75 4.75 4.75 4.75 4.5 7.25 C2.5 9.25 2.5 9.25 0 9.5 C-2.5 9.25 -2.5 9.25 -4.5 7.25 C-4.75 4.75 -4.75 4.75 -4.5 2.25 C-2.5 0.25 -2.5 0.25 0 0 Z " fill="#F1F1F1" transform="translate(357.5,1501.75)"/>
<path d="M0 0 C2.33944736 0.28730055 4.6739143 0.61936779 7 1 C7.125 3.875 7.125 3.875 7 7 C5 9 5 9 2.5 9.3125 C1.2625 9.1578125 1.2625 9.1578125 0 9 C-2 6 -2 6 -1.6875 3.375 C-1 1 -1 1 0 0 Z " fill="#F0F0F0" transform="translate(294,1502)"/>
<path d="M0 0 C2.5625 0.1875 2.5625 0.1875 4.5625 2.1875 C4.75 5.25 4.75 5.25 4.5625 8.1875 C3.5625 9.1875 3.5625 9.1875 0.625 9.4375 C-0.385625 9.355 -1.39625 9.2725 -2.4375 9.1875 C-4.4375 6.1875 -4.4375 6.1875 -4.125 3.5625 C-3.16420807 0.24340062 -3.16420807 0.24340062 0 0 Z " fill="#EFEFEF" transform="translate(316.4375,1462.8125)"/>
<path d="M0 0 C2.5 0.25 2.5 0.25 4.5 2.25 C4.75 4.75 4.75 4.75 4.5 7.25 C2.5 9.25 2.5 9.25 0 9.5 C-2.5 9.25 -2.5 9.25 -4.5 7.25 C-4.75 4.75 -4.75 4.75 -4.5 2.25 C-2.5 0.25 -2.5 0.25 0 0 Z " fill="#F1F1F1" transform="translate(231.5,1462.75)"/>
<path d="M0 0 C0.94875 0.04125 1.8975 0.0825 2.875 0.125 C3.535 1.445 4.195 2.765 4.875 4.125 C3.885 4.125 2.895 4.125 1.875 4.125 C1.875 3.465 1.875 2.805 1.875 2.125 C-0.105 3.115 -0.105 3.115 -2.125 4.125 C-1.155625 4.516875 -0.18625 4.90875 0.8125 5.3125 C3.875 7.125 3.875 7.125 4.75 9.8125 C4.811875 10.9571875 4.811875 10.9571875 4.875 12.125 C1.875 14.125 1.875 14.125 -1.3125 13.75 C-2.7046875 13.440625 -2.7046875 13.440625 -4.125 13.125 C-4.455 12.135 -4.785 11.145 -5.125 10.125 C-2.815 10.455 -0.505 10.785 1.875 11.125 C1.875 10.465 1.875 9.805 1.875 9.125 C0.905625 8.7125 -0.06375 8.3 -1.0625 7.875 C-4.125 6.125 -4.125 6.125 -5.125 4.0625 C-5.125 0.38549767 -3.32480402 0.13299216 0 0 Z " fill="#272727" transform="translate(331.125,1460.875)"/>
<path d="M0 0 C0.66 0 1.32 0 2 0 C2.99 3.3 3.98 6.6 5 10 C5.99 7.36 6.98 4.72 8 2 C8.66 2.66 9.32 3.32 10 4 C9.79296875 6.0234375 9.79296875 6.0234375 9.1875 8.375 C8.99542969 9.14585938 8.80335938 9.91671875 8.60546875 10.7109375 C8.30576172 11.84402344 8.30576172 11.84402344 8 13 C7.66559625 14.33306527 7.33190022 15.66630921 7 17 C5.68 16.67 4.36 16.34 3 16 C2.49411853 14.08487728 1.99551609 12.16783078 1.5 10.25 C1.2215625 9.18265625 0.943125 8.1153125 0.65625 7.015625 C0 4 0 4 0 0 Z " fill="#3B3B3B" transform="translate(151,1535)"/>
<path d="M0 0 C2.5 0.25 2.5 0.25 4.5 2.25 C3.93181818 7.81818182 3.93181818 7.81818182 2.5 9.25 C0.0625 9.4375 0.0625 9.4375 -2.5 9.25 C-4.5 7.25 -4.5 7.25 -4.75 4.75 C-4.40058445 1.25584452 -3.49415548 0.34941555 0 0 Z " fill="#F3F3F3" transform="translate(341.5,1501.75)"/>
<path d="M0 0 C2.5 0.25 2.5 0.25 4.5 2.25 C3.93181818 7.81818182 3.93181818 7.81818182 2.5 9.25 C0.0625 9.4375 0.0625 9.4375 -2.5 9.25 C-4.5 7.25 -4.5 7.25 -4.75 4.75 C-4.40058445 1.25584452 -3.49415548 0.34941555 0 0 Z " fill="#F3F3F3" transform="translate(147.5,1501.75)"/>
<path d="M0 0 C3.63 0 7.26 0 11 0 C11 0.66 11 1.32 11 2 C9.68 2 8.36 2 7 2 C7 6.95 7 11.9 7 17 C6.01 17 5.02 17 4 17 C4 12.05 4 7.1 4 2 C2.68 2 1.36 2 0 2 C0 1.34 0 0.68 0 0 Z " fill="#3F3F3F" transform="translate(203,1535)"/>
<path d="M0 0 C3 0.125 3 0.125 4 1.125 C4.125 4.625 4.125 4.625 4 8.125 C3 9.125 3 9.125 -0.0625 9.1875 C-1.031875 9.166875 -2.00125 9.14625 -3 9.125 C-4.36623674 6.39252652 -4.128426 4.14301098 -4 1.125 C-3 0.125 -3 0.125 0 0 Z " fill="#F2F2F2" transform="translate(325,1501.875)"/>
<path d="M0 0 C8.625 -0.25 8.625 -0.25 12 2 C12.29296875 4.6015625 12.29296875 4.6015625 12.1875 7.625 C12.16042969 8.62789062 12.13335937 9.63078125 12.10546875 10.6640625 C12.07066406 11.43492188 12.03585938 12.20578125 12 13 C11.34 13 10.68 13 10 13 C9.67 10.03 9.34 7.06 9 4 C7.34385343 3.61781233 5.67542976 3.28604898 4 3 C2.41727399 4.58272601 2.65264253 6.38034003 2.4375 8.5625 C2.35371094 9.38878906 2.26992187 10.21507812 2.18359375 11.06640625 C2.12300781 11.70449219 2.06242188 12.34257813 2 13 C1.34 13 0.68 13 0 13 C0 8.71 0 4.42 0 0 Z " fill="#242424" transform="translate(189,1461)"/>
<path d="M0 0 C3 0.125 3 0.125 4 1.125 C4.1875 4.0625 4.1875 4.0625 4 7.125 C2 9.125 2 9.125 -0.5625 9.3125 C-3 9.125 -3 9.125 -4 8.125 C-4.125 4.625 -4.125 4.625 -4 1.125 C-3 0.125 -3 0.125 0 0 Z " fill="#F4F4F4" transform="translate(217,1501.875)"/>
<path d="M0 0 C0.66 0 1.32 0 2 0 C2.33 3.3 2.66 6.6 3 10 C4.65 10 6.3 10 8 10 C9.58272601 8.41727399 9.34735747 6.61965997 9.5625 4.4375 C9.64628906 3.61121094 9.73007813 2.78492188 9.81640625 1.93359375 C9.87699219 1.29550781 9.93757812 0.65742187 10 0 C10.66 0 11.32 0 12 0 C12 4.29 12 8.58 12 13 C10.39125 13.061875 8.7825 13.12375 7.125 13.1875 C5.76761719 13.23970703 5.76761719 13.23970703 4.3828125 13.29296875 C3.20332031 13.14794922 3.20332031 13.14794922 2 13 C-0.20914 9.68629 -0.22481553 8.6553979 -0.125 4.8125 C-0.10695312 3.91144531 -0.08890625 3.01039062 -0.0703125 2.08203125 C-0.04710937 1.39496094 -0.02390625 0.70789062 0 0 Z " fill="#1C1C1C" transform="translate(157,1500)"/>
<path d="M0 0 C2.5625 0.1875 2.5625 0.1875 4.5625 2.1875 C4.75 5.25 4.75 5.25 4.5625 8.1875 C3.5625 9.1875 3.5625 9.1875 0.5625 9.3125 C-2.4375 9.1875 -2.4375 9.1875 -3.4375 8.1875 C-3.5625 4.6875 -3.5625 4.6875 -3.4375 1.1875 C-2.4375 0.1875 -2.4375 0.1875 0 0 Z " fill="#F3F3F3" transform="translate(368.4375,1462.8125)"/>
<path d="M0 0 C3.125 0.375 3.125 0.375 6 1 C6.04241723 3.33294775 6.04092937 5.66702567 6 8 C5 9 5 9 2 9.125 C-1 9 -1 9 -2 8 C-2.1875 5.0625 -2.1875 5.0625 -2 2 C-1.34 1.34 -0.68 0.68 0 0 Z " fill="#F6F6F6" transform="translate(383,1463)"/>
<path d="M0 0 C0.99 0 1.98 0 3 0 C3 4.95 3 9.9 3 15 C4.65 15 6.3 15 8 15 C8 15.66 8 16.32 8 17 C5.36 17 2.72 17 0 17 C0 11.39 0 5.78 0 0 Z " fill="#373737" transform="translate(264,1535)"/>
<path d="M0 0 C0.66 1.32 1.32 2.64 2 4 C1.4225 3.649375 0.845 3.29875 0.25 2.9375 C-2.37371272 1.84428637 -3.38850805 2.00943409 -6 3 C-7.28322547 4.0595877 -7.28322547 4.0595877 -7.125 6.5 C-7.28322547 8.9404123 -7.28322547 8.9404123 -6 10 C-2.93518979 10.1613058 -0.94450722 9.98150241 2 9 C1.34 10.32 0.68 11.64 0 13 C-6.42210386 13.48468708 -6.42210386 13.48468708 -8.9375 11.375 C-10.295454 8.33957342 -10.42030443 6.29238472 -10 3 C-7.7109263 -1.03954182 -4.21983723 -0.23885871 0 0 Z " fill="#222222" transform="translate(432,1500)"/>
<path d="M0 0 C0.99 0.33 1.98 0.66 3 1 C3.73046875 2.84765625 3.73046875 2.84765625 4.1875 5.0625 C4.34605469 5.79597656 4.50460938 6.52945312 4.66796875 7.28515625 C4.83232422 8.13400391 4.83232422 8.13400391 5 9 C7.61047801 7.694761 7.68066423 6.64173426 8.625 3.9375 C8.88539063 3.20402344 9.14578125 2.47054688 9.4140625 1.71484375 C9.60742188 1.14894531 9.80078125 0.58304688 10 0 C10.66 0 11.32 0 12 0 C11.27991594 4.60853797 9.68704061 8.67237409 8 13 C6.68 13 5.36 13 4 13 C3.32694982 11.39850114 2.66177773 9.79368971 2 8.1875 C1.62875 7.29417969 1.2575 6.40085937 0.875 5.48046875 C0 3 0 3 0 0 Z " fill="#323232" transform="translate(159,1461)"/>
<path d="M0 0 C0.99 0 1.98 0 3 0 C3 0.99 3 1.98 3 3 C3.99 3 4.98 3 6 3 C6 3.66 6 4.32 6 5 C5.01 5 4.02 5 3 5 C3 7.97 3 10.94 3 14 C3.99 14 4.98 14 6 14 C6 14.66 6 15.32 6 16 C4.33388095 16.042721 2.66617115 16.04063832 1 16 C-0.78989392 14.21010608 -0.42127056 11.55229071 -0.625 9.125 C-0.72039062 8.05507812 -0.81578125 6.98515625 -0.9140625 5.8828125 C-1 3 -1 3 0 0 Z " fill="#3D3D3D" transform="translate(339,1458)"/>
<path d="M0 0 C3.96 0 7.92 0 12 0 C10.02989474 6.20583158 7.74844552 12.09851546 5 18 C4.34 18 3.68 18 3 18 C3.62816498 14.05050296 4.8645529 10.80107972 6.5625 7.1875 C7.01753906 6.21167969 7.47257813 5.23585938 7.94140625 4.23046875 C8.29074219 3.49441406 8.64007813 2.75835938 9 2 C6.03 2 3.06 2 0 2 C0 1.34 0 0.68 0 0 Z " fill="#292929" transform="translate(227,1573)"/>
<path d="M0 0 C3.96 0 7.92 0 12 0 C11.09789442 4.51052789 9.88930512 7.70125091 7.9375 11.8125 C7.38964844 12.97394531 6.84179688 14.13539062 6.27734375 15.33203125 C5.85582031 16.21246094 5.43429687 17.09289063 5 18 C4.34 18 3.68 18 3 18 C4.74807129 12.53262809 6.65794081 7.24175152 9 2 C6.03 2 3.06 2 0 2 C0 1.34 0 0.68 0 0 Z " fill="#2E2E2E" transform="translate(253,1573)"/>
<path d="M0 0 C3.96 0 7.92 0 12 0 C11.09789442 4.51052789 9.88930512 7.70125091 7.9375 11.8125 C7.38964844 12.97394531 6.84179688 14.13539062 6.27734375 15.33203125 C5.85582031 16.21246094 5.43429688 17.09289063 5 18 C4.34 18 3.68 18 3 18 C4.74807129 12.53262809 6.65794081 7.24175152 9 2 C6.03 2 3.06 2 0 2 C0 1.34 0 0.68 0 0 Z " fill="#333333" transform="translate(240,1573)"/>
<path d="M0 0 C0.99 0 1.98 0 3 0 C3 0.66 3 1.32 3 2 C2.34 2 1.68 2 1 2 C1 2.99 1 3.98 1 5 C1.66 5.33 2.32 5.66 3 6 C2.34 6 1.68 6 1 6 C1 9.96 1 13.92 1 18 C0.01 18 -0.98 18 -2 18 C-2.25034126 15.9399629 -2.47443346 13.87672534 -2.6875 11.8125 C-2.81511719 10.66394531 -2.94273437 9.51539063 -3.07421875 8.33203125 C-2.99071547 4.58317356 -2.36985035 2.87961221 0 0 Z " fill="#3B3B3B" transform="translate(205,1495)"/>
<path d="M0 0 C0.66 0 1.32 0 2 0 C5 5.75 5 5.75 5 8 C5.66 8 6.32 8 7 8 C7.309375 7.05125 7.61875 6.1025 7.9375 5.125 C9 2 9 2 10 0 C10.66 0 11.32 0 12 0 C11.50074534 2.59612425 10.75826178 4.45325917 9.5 6.8125 C7.87568599 10.26416726 7.37765918 13.22340818 7 17 C6.34 17 5.68 17 5 17 C4.89042969 16.40832031 4.78085937 15.81664062 4.66796875 15.20703125 C3.72820129 10.52347471 2.62190335 7.05203244 0 3 C0 2.01 0 1.02 0 0 Z " fill="#202020" transform="translate(423,1457)"/>
<path d="M0 0 C1 1 1 1 1.1875 3.4375 C1 6 1 6 -1 8 C-4.01305957 7.61121812 -5.39685311 6.73543126 -8 5 C-8.33 5.66 -8.66 6.32 -9 7 C-8.6875 4.625 -8.6875 4.625 -8 2 C-4.77786243 -0.14809171 -3.72224599 -0.29386153 0 0 Z " fill="#F0F0F0" transform="translate(215,1581)"/>
<path d="M0 0 C1.99954746 -0.04254356 4.00041636 -0.04080783 6 0 C7 1 7 1 7.1875 3.4375 C7 6 7 6 5 8 C2.375 7.625 2.375 7.625 0 7 C0 6.34 0 5.68 0 5 C-0.99 4.67 -1.98 4.34 -3 4 C-2.34 3.67 -1.68 3.34 -1 3 C-0.67 2.01 -0.34 1.02 0 0 Z " fill="#E8E8E8" transform="translate(179,1581)"/>
<path d="M0 0 C3.63 0 7.26 0 11 0 C10.49487476 6.22987798 7.67395877 11.45474233 5 17 C4.34 17 3.68 17 3 17 C4.54269924 12.27934033 6.07794619 7.58335908 8 3 C5.36 2.67 2.72 2.34 0 2 C0 1.34 0 0.68 0 0 Z " fill="#282828" transform="translate(267,1573)"/>
<path d="M0 0 C0.66 0 1.32 0 2 0 C2 5.61 2 11.22 2 17 C1.01 17 0.02 17 -1 17 C-2.640625 14.8828125 -2.640625 14.8828125 -4.25 12.125 C-4.79140625 11.22007813 -5.3328125 10.31515625 -5.890625 9.3828125 C-6.25671875 8.59648438 -6.6228125 7.81015625 -7 7 C-6.67 6.34 -6.34 5.68 -6 5 C-3.525 8.465 -3.525 8.465 -1 12 C-0.67 8.04 -0.34 4.08 0 0 Z " fill="#1F1F1F" transform="translate(333,1535)"/>
<path d="M0 0 C2.3125 0.3125 2.3125 0.3125 3.3125 1.3125 C3.5 3.75 3.5 3.75 3.3125 6.3125 C2.6525 6.9725 1.9925 7.6325 1.3125 8.3125 C-1.70055957 7.92371812 -3.08435311 7.04793126 -5.6875 5.3125 C-6.0175 5.9725 -6.3475 6.6325 -6.6875 7.3125 C-6.6875 4.3125 -6.6875 4.3125 -5 2.125 C-2.6875 0.3125 -2.6875 0.3125 0 0 Z " fill="#EBEBEB" transform="translate(197.6875,1580.6875)"/>
<path d="M0 0 C0.99 0 1.98 0 3 0 C3 5.94 3 11.88 3 18 C2.67 18 2.34 18 2 18 C1.67 14.37 1.34 10.74 1 7 C0.01 7.33 -0.98 7.66 -2 8 C-3.66666667 8 -5.33333333 8 -7 8 C-7.99 8.33 -8.98 8.66 -10 9 C-10 10.65 -10 12.3 -10 14 C-10.33 14 -10.66 14 -11 14 C-11.36 8.6 -11.36 8.6 -9.875 6.125 C-7.18282457 4.50969474 -5.07846795 4.73800273 -2 5 C-1.34 5.33 -0.68 5.66 0 6 C0 4.02 0 2.04 0 0 Z " fill="#505050" transform="translate(362,1495)"/>
<path d="M0 0 C6.30818278 -0.35706695 6.30818278 -0.35706695 8.9375 1 C10.67278693 4.26642246 10.17982715 7.34351452 10 11 C8.68 11.33 7.36 11.66 6 12 C6.875 5.25 6.875 5.25 8 3 C5.03 3 2.06 3 -1 3 C-0.67 2.01 -0.34 1.02 0 0 Z " fill="#EAEAEA" transform="translate(235,1499)"/>
<path d="M0 0 C3.63 0 7.26 0 11 0 C11 0.66 11 1.32 11 2 C9.68 2 8.36 2 7 2 C7 6.95 7 11.9 7 17 C6.34 17 5.68 17 5 17 C5 12.05 5 7.1 5 2 C3.35 2 1.7 2 0 2 C0 1.34 0 0.68 0 0 Z " fill="#222222" transform="translate(350,1535)"/>
<path d="M0 0 C3.63 0 7.26 0 11 0 C11 0.66 11 1.32 11 2 C9.68 2 8.36 2 7 2 C7 6.95 7 11.9 7 17 C6.34 17 5.68 17 5 17 C5 12.05 5 7.1 5 2 C3.35 2 1.7 2 0 2 C0 1.34 0 0.68 0 0 Z " fill="#222222" transform="translate(290,1535)"/>
<path d="M0 0 C0.7425 0.61875 1.485 1.2375 2.25 1.875 C4.48801188 3.60437281 6.43739987 4.86106661 9 6 C8.67 6.99 8.34 7.98 8 9 C4.7 8.67 1.4 8.34 -2 8 C-2 5.69 -2 3.38 -2 1 C-1.34 0.67 -0.68 0.34 0 0 Z " fill="#D7D7D7" transform="translate(325,1464)"/>
<path d="M0 0 C1.670625 0.061875 1.670625 0.061875 3.375 0.125 C3.705 2.105 4.035 4.085 4.375 6.125 C1.405 6.125 -1.565 6.125 -4.625 6.125 C-4.955 4.805 -5.285 3.485 -5.625 2.125 C-3.625 0.125 -3.625 0.125 0 0 Z " fill="#434343" transform="translate(256.625,1499.875)"/>
<path d="M0 0 C2 2 2 2 2.1953125 4.6015625 C2.17210937 5.59929687 2.14890625 6.59703125 2.125 7.625 C2.10695313 8.62789062 2.08890625 9.63078125 2.0703125 10.6640625 C2.03550781 11.82035156 2.03550781 11.82035156 2 13 C1.34 13 0.68 13 0 13 C-0.33 9.7 -0.66 6.4 -1 3 C-2.65 3 -4.3 3 -6 3 C-6.33 6.3 -6.66 9.6 -7 13 C-7.33 13 -7.66 13 -8 13 C-8.33 9.37 -8.66 5.74 -9 2 C-5.54754176 -0.30163882 -4.05261287 -0.34490322 0 0 Z " fill="#2E2E2E" transform="translate(472,1500)"/>
<path d="M0 0 C2.375 -0.125 2.375 -0.125 5 0 C7 2 7 2 7.375 5.4375 C7 9 7 9 5.375 11 C2.2448901 12.31794101 0.24216891 11.81054223 -3 11 C-3.33 9.68 -3.66 8.36 -4 7 C-3.13375 7.5259375 -3.13375 7.5259375 -2.25 8.0625 C0.35801776 9.14917407 1.39417629 8.93065133 4 8 C4.33425735 5.62625139 4.33425735 5.62625139 4 3 C2.0995533 1.15684329 2.0995533 1.15684329 0 0 Z " fill="#202020" transform="translate(196,1579)"/>
<path d="M0 0 C0.66 0 1.32 0 2 0 C2.33 0.66 2.66 1.32 3 2 C5.35599235 2.46751788 5.35599235 2.46751788 8.0625 2.625 C9.44115234 2.73714844 9.44115234 2.73714844 10.84765625 2.8515625 C11.55792969 2.90054687 12.26820313 2.94953125 13 3 C13 3.33 13 3.66 13 4 C9.7 4 6.4 4 3 4 C3.99 5.485 3.99 5.485 5 7 C6.32 7 7.64 7 9 7 C9.33 6.34 9.66 5.68 10 5 C10.99 5 11.98 5 13 5 C12.34 6.32 11.68 7.64 11 9 C3.57690141 9.48676056 3.57690141 9.48676056 1 7.3125 C-0.13489245 4.6880612 -0.23590819 2.83089822 0 0 Z " fill="#2E2E2E" transform="translate(269,1465)"/>
<path d="M0 0 C0.33 0 0.66 0 1 0 C1 2.31 1 4.62 1 7 C2.98 6.67 4.96 6.34 7 6 C7 4.02 7 2.04 7 0 C7.99 0.33 8.98 0.66 10 1 C10.1875 3.875 10.1875 3.875 10 7 C6.5647952 9.29013653 5.014669 9.17842973 1 9 C1 10.98 1 12.96 1 15 C0.67 15 0.34 15 0 15 C0 10.05 0 5.1 0 0 Z " fill="#171717" transform="translate(251,1536)"/>
<path d="M0 0 C0.66 0 1.32 0 2 0 C3.18225237 6.83079148 2.74464946 13.12631267 2 20 C1.34 20 0.68 20 0 20 C0 13.4 0 6.8 0 0 Z " fill="#121212" transform="translate(310,1461)"/>
<path d="M0 0 C2.375 -0.125 2.375 -0.125 5 0 C5.66 0.66 6.32 1.32 7 2 C6.46428571 5.53571429 6.46428571 5.53571429 5 7 C3.33382885 7.04063832 1.66611905 7.042721 0 7 C0 4.69 0 2.38 0 0 Z " fill="#E0E0E0" transform="translate(213,1459)"/>
<path d="M0 0 C0 0.99 0 1.98 0 3 C-0.64453125 3.23460937 -1.2890625 3.46921875 -1.953125 3.7109375 C-4.2077908 4.81161073 -4.2077908 4.81161073 -4.609375 7.1640625 C-4.65578125 7.97617188 -4.7021875 8.78828125 -4.75 9.625 C-4.80671875 10.44226562 -4.8634375 11.25953125 -4.921875 12.1015625 C-4.94765625 12.72804688 -4.9734375 13.35453125 -5 14 C-5.66 14 -6.32 14 -7 14 C-7 9.71 -7 5.42 -7 1 C-2 0 -2 0 0 0 Z " fill="#282828" transform="translate(375,1499)"/>
<path d="M0 0 C1.65 0.33 3.3 0.66 5 1 C4.67 2.65 4.34 4.3 4 6 C2.35 6.33 0.7 6.66 -1 7 C-1.625 5.1875 -1.625 5.1875 -2 3 C-1.34 2.01 -0.68 1.02 0 0 Z " fill="#E2E2E2" transform="translate(235,1504)"/>
<path d="M0 0 C0.66 0 1.32 0 2 0 C2.66 2.64 3.32 5.28 4 8 C3.01 7.67 2.02 7.34 1 7 C1 6.01 1 5.02 1 4 C-1.64 4 -4.28 4 -7 4 C-7.33 5.32 -7.66 6.64 -8 8 C-8.66 8 -9.32 8 -10 8 C-9.67 6.02 -9.34 4.04 -9 2 C-6.03 2.33 -3.06 2.66 0 3 C0 2.01 0 1.02 0 0 Z " fill="#202020" transform="translate(284,1544)"/>
<path d="M0 0 C0.66 0 1.32 0 2 0 C0.84941444 5.39795989 -0.42421759 10.70987333 -2 16 C-2.33 15.34 -2.66 14.68 -3 14 C-3.66 14 -4.32 14 -5 14 C-5 13.01 -5 12.02 -5 11 C-4.34 11 -3.68 11 -3 11 C-2.86722656 10.28972656 -2.73445312 9.57945313 -2.59765625 8.84765625 C-2.42105469 7.92855469 -2.24445313 7.00945312 -2.0625 6.0625 C-1.88847656 5.14597656 -1.71445313 4.22945312 -1.53515625 3.28515625 C-1 1 -1 1 0 0 Z " fill="#353535" transform="translate(147,1535)"/>
<path d="M0 0 C0.33 0.66 0.66 1.32 1 2 C2.32 2 3.64 2 5 2 C5 2.99 5 3.98 5 5 C4.38125 4.814375 3.7625 4.62875 3.125 4.4375 C0.95839822 3.76313824 0.95839822 3.76313824 -1 5 C-3.3329866 5.04022391 -5.66706666 5.04320247 -8 5 C-8.66 3.68 -9.32 2.36 -10 1 C-9.01 1 -8.02 1 -7 1 C-7 1.66 -7 2.32 -7 3 C-5.35 3 -3.7 3 -2 3 C-1.67 2.34 -1.34 1.68 -1 1 C-0.67 0.67 -0.34 0.34 0 0 Z " fill="#575757" transform="translate(414,1508)"/>
<path d="M0 0 C0.66 0 1.32 0 2 0 C2 5.94 2 11.88 2 18 C1.34 18 0.68 18 0 18 C-0.73030908 11.78675502 -1.23180249 6.15901243 0 0 Z " fill="#060606" transform="translate(346,1495)"/>
<path d="M0 0 C0.99 0.33 1.98 0.66 3 1 C3.33 2.98 3.66 4.96 4 7 C7.62885324 7.15149298 7.62885324 7.15149298 11 6 C11.33 6.99 11.66 7.98 12 9 C8.95016004 10.52491998 6.3576631 10.23562548 3 10 C1.0625 8.9375 1.0625 8.9375 0 7 C-0.1875 3.3125 -0.1875 3.3125 0 0 Z " fill="#444444" transform="translate(210,1503)"/>
<path d="M0 0 C0.66 0 1.32 0 2 0 C3.32229189 2.64458379 3.09677194 4.67761301 3.0625 7.625 C3.05347656 8.62789062 3.04445312 9.63078125 3.03515625 10.6640625 C3.02355469 11.43492188 3.01195312 12.20578125 3 13 C2.01 13 1.02 13 0 13 C0 8.71 0 4.42 0 0 Z " fill="#444444" transform="translate(187,1500)"/>
<path d="M0 0 C0.66 0 1.32 0 2 0 C2 5.61 2 11.22 2 17 C1.01 17 0.02 17 -1 17 C-0.67 11.39 -0.34 5.78 0 0 Z " fill="#060606" transform="translate(418,1457)"/>
<path d="M0 0 C2.46800047 1.15173355 4.04783565 2.04783565 6 4 C6.375 7.375 6.375 7.375 6 11 C4 13.4375 4 13.4375 2 15 C2 11.58862243 2.50940156 8.37286428 3 5 C3 4.34 3 3.68 3 3 C1.68 2.34 0.36 1.68 -1 1 C-0.67 0.67 -0.34 0.34 0 0 Z " fill="#232323" transform="translate(136,1458)"/>
<path d="M0 0 C3.0625 0.1875 3.0625 0.1875 5.0625 2.1875 C5.1875 5.3125 5.1875 5.3125 5.0625 8.1875 C4.0725 8.6825 4.0725 8.6825 3.0625 9.1875 C2.7325 7.2075 2.4025 5.2275 2.0625 3.1875 C0.7425 3.1875 -0.5775 3.1875 -1.9375 3.1875 C-2.2675 3.8475 -2.5975 4.5075 -2.9375 5.1875 C-3.5975 5.1875 -4.2575 5.1875 -4.9375 5.1875 C-3.82120474 0.24390669 -3.82120474 0.24390669 0 0 Z " fill="#202020" transform="translate(132.9375,1572.8125)"/>
<path d="M0 0 C3.375 -0.125 3.375 -0.125 7 0 C9 2 9 2 9.25 5 C9 8 9 8 7 10 C6.67 7.69 6.34 5.38 6 3 C4.35 2.67 2.7 2.34 1 2 C0.67 2.99 0.34 3.98 0 5 C-0.33 4.01 -0.66 3.02 -1 2 C-0.67 1.34 -0.34 0.68 0 0 Z " fill="#272727" transform="translate(157,1573)"/>
<path d="M0 0 C0.99 0.66 1.98 1.32 3 2 C3.1875 5.625 3.1875 5.625 3 9 C2.67 9 2.34 9 2 9 C1.7525 8.030625 1.505 7.06125 1.25 6.0625 C0.34420999 2.92410579 0.34420999 2.92410579 -1.9375 1.9375 C-4.05762054 1.80724896 -4.05762054 1.80724896 -5.625 3.1875 C-7.03563777 5.04697706 -8.04667135 6.87334378 -9 9 C-9.1875 5.625 -9.1875 5.625 -9 2 C-5.53001271 -0.31332486 -4.07490752 -0.33957563 0 0 Z " fill="#151515" transform="translate(446,1500)"/>
<path d="M0 0 C1.65 0 3.3 0 5 0 C5.38218767 1.65614657 5.71395102 3.32457024 6 5 C5 6 5 6 2.4375 6.0625 C1.2309375 6.0315625 1.2309375 6.0315625 0 6 C0 4.02 0 2.04 0 0 Z " fill="#F2F2F2" transform="translate(253,1537)"/>
<path d="M0 0 C3.3 0 6.6 0 10 0 C9.67 1.32 9.34 2.64 9 4 C9 3.34 9 2.68 9 2 C8.01 2.66 7.02 3.32 6 4 C3.3125 4.125 3.3125 4.125 1 4 C0.67 2.68 0.34 1.36 0 0 Z " fill="#E0E0E0" transform="translate(253,1507)"/>
<path d="M0 0 C1.98 0 3.96 0 6 0 C6 0.66 6 1.32 6 2 C5.01 2.33 4.02 2.66 3 3 C2.67 6.3 2.34 9.6 2 13 C1.34 13 0.68 13 0 13 C0 8.71 0 4.42 0 0 Z " fill="#191919" transform="translate(173,1500)"/>
<path d="M0 0 C0.33 0 0.66 0 1 0 C1.36190476 5.42857143 1.36190476 5.42857143 -0.1875 7.875 C-2.63169911 9.3920891 -4.16920408 9.35384949 -7 9 C-7.99 8.34 -8.98 7.68 -10 7 C-10 6.01 -10 5.02 -10 4 C-9.13375 4.5259375 -9.13375 4.5259375 -8.25 5.0625 C-6.07900995 6.14822022 -6.07900995 6.14822022 -3.875 5.9375 C-1.72815849 5.10150656 -1.72815849 5.10150656 -0.75 2.4375 C-0.37875 1.2309375 -0.37875 1.2309375 0 0 Z " fill="#2D2D2D" transform="translate(217,1582)"/>
<path d="M0 0 C3 0.25 3 0.25 5 2.25 C5.125 5.375 5.125 5.375 5 8.25 C4.01 8.745 4.01 8.745 3 9.25 C2.67 7.27 2.34 5.29 2 3.25 C0.35 2.92 -1.3 2.59 -3 2.25 C-3.33 3.24 -3.66 4.23 -4 5.25 C-4.33 4.26 -4.66 3.27 -5 2.25 C-3 0.25 -3 0.25 0 0 Z " fill="#1A1A1A" transform="translate(147,1572.75)"/>
<path d="M0 0 C0.33 0 0.66 0 1 0 C1 4.29 1 8.58 1 13 C-0.98 13 -2.96 13 -5 13 C-5.66 12.34 -6.32 11.68 -7 11 C-5.68 10.67 -4.36 10.34 -3 10 C-2.814375 8.63875 -2.814375 8.63875 -2.625 7.25 C-2.07890323 4.41029677 -1.42736197 2.47409409 0 0 Z " fill="#363636" transform="translate(331,1500)"/>
<path d="M0 0 C0.33 0 0.66 0 1 0 C1.33 1.65 1.66 3.3 2 5 C4.31 5 6.62 5 9 5 C9 5.99 9 6.98 9 8 C2.61292897 9.32561852 2.61292897 9.32561852 0 7.9375 C-1.47177143 5.08594286 -0.74138999 3.03295907 0 0 Z " fill="#424242" transform="translate(380,1466)"/>
<path d="M0 0 C1.74271938 2.297221 3.39911152 4.59866729 5 7 C6.32 7 7.64 7 9 7 C9.33 6.34 9.66 5.68 10 5 C10.99 5 11.98 5 13 5 C12.34 6.32 11.68 7.64 11 9 C3.57690141 9.48676056 3.57690141 9.48676056 1 7.3125 C-0.13489245 4.6880612 -0.23590819 2.83089822 0 0 Z " fill="#343434" transform="translate(144,1465)"/>
<path d="M0 0 C0.66 0 1.32 0 2 0 C2 4.29 2 8.58 2 13 C0.68 12.67 -0.64 12.34 -2 12 C-1.34 8.04 -0.68 4.08 0 0 Z " fill="#222222" transform="translate(167,1500)"/>
<path d="M0 0 C3.3 0 6.6 0 10 0 C8.515 1.98 8.515 1.98 7 4 C3.8125 4.25 3.8125 4.25 1 4 C0.67 2.68 0.34 1.36 0 0 Z " fill="#DEDEDE" transform="translate(379,1507)"/>
<path d="M0 0 C2.375 -0.125 2.375 -0.125 5 0 C7 2 7 2 7.1953125 4.6015625 C7.17210937 5.59929687 7.14890625 6.59703125 7.125 7.625 C7.10695313 8.62789062 7.08890625 9.63078125 7.0703125 10.6640625 C7.03550781 11.82035156 7.03550781 11.82035156 7 13 C6.34 13 5.68 13 5 13 C4.97421875 12.31292969 4.9484375 11.62585937 4.921875 10.91796875 C4.86515625 10.01691406 4.8084375 9.11585937 4.75 8.1875 C4.70359375 7.29417969 4.6571875 6.40085937 4.609375 5.48046875 C4.20878584 2.83946485 4.20878584 2.83946485 1.953125 1.17578125 C1.30859375 0.78777344 0.6640625 0.39976563 0 0 Z " fill="#191919" transform="translate(280,1500)"/>
<path d="M0 0 C0.33 0 0.66 0 1 0 C1 1.98 1 3.96 1 6 C1.66 5.67 2.32 5.34 3 5 C4.99960012 4.960008 7.00047242 4.95653201 9 5 C9.33 6.65 9.66 8.3 10 10 C9.34 9.34 8.68 8.68 8 8 C6.01178687 7.60235737 4.01055661 7.26224651 2 7 C2 7.66 2 8.32 2 9 C1.34 9 0.68 9 0 9 C0 6.03 0 3.06 0 0 Z " fill="#1B1B1B" transform="translate(177,1574)"/>
<path d="M0 0 C0.66 0.99 1.32 1.98 2 3 C5.06556598 3.73343428 5.06556598 3.73343428 8 4 C8 3.34 8 2.68 8 2 C8.99 2 9.98 2 11 2 C10 5 10 5 8 6 C5.6670134 6.04022391 3.33293334 6.04320247 1 6 C-0.0625 4.125 -0.0625 4.125 -1 2 C-0.67 1.34 -0.34 0.68 0 0 Z " fill="#333333" transform="translate(378,1507)"/>
<path d="M0 0 C1.84765625 0.33984375 1.84765625 0.33984375 4.0625 0.9375 C5.16271484 1.22947266 5.16271484 1.22947266 6.28515625 1.52734375 C7.13400391 1.76130859 7.13400391 1.76130859 8 2 C8 1.34 8 0.68 8 0 C8.66 0 9.32 0 10 0 C10 0.99 10 1.98 10 3 C6.77856724 5.14762184 5.7404533 5.561068 2 5 C0.1875 3 0.1875 3 -1 1 C-0.67 0.67 -0.34 0.34 0 0 Z " fill="#444444" transform="translate(349,1470)"/>
<path d="M0 0 C1.305239 3.91571701 0.32239848 5.03892997 -1.4375 8.6875 C-1.91058594 9.68136719 -2.38367188 10.67523437 -2.87109375 11.69921875 C-3.42990234 12.83810547 -3.42990234 12.83810547 -4 14 C-4.66 14 -5.32 14 -6 14 C-4.45941767 8.98491285 -2.97068161 4.3852919 0 0 Z " fill="#2C2C2C" transform="translate(249,1577)"/>
<path d="M0 0 C0.33 0 0.66 0 1 0 C0.46148032 5.27749285 -0.77343836 9.25645564 -3 14 C-3.66 14 -4.32 14 -5 14 C-4.34580901 8.93001981 -2.1453591 4.58009223 0 0 Z " fill="#333333" transform="translate(235,1577)"/>
<path d="M0 0 C0.66 0 1.32 0 2 0 C1.27991594 4.60853797 -0.31295939 8.67237409 -2 13 C-2.99 12.67 -3.98 12.34 -5 12 C-1.85714286 3.42857143 -1.85714286 3.42857143 0 0 Z " fill="#272727" transform="translate(169,1461)"/>
<path d="M0 0 C0.99 0 1.98 0 3 0 C3.39012425 1.76756294 3.7616098 3.53924783 4.125 5.3125 C4.33382812 6.29863281 4.54265625 7.28476563 4.7578125 8.30078125 C5 11 5 11 3 14 C2.01 9.38 1.02 4.76 0 0 Z " fill="#2E2E2E" transform="translate(174,1535)"/>
<path d="M0 0 C0.33 0 0.66 0 1 0 C1 5.61 1 11.22 1 17 C-1.39763185 14.60236815 -1.34280586 13.66726502 -1.625 10.375 C-1.69976562 9.55773438 -1.77453125 8.74046875 -1.8515625 7.8984375 C-1.90054687 7.27195312 -1.94953125 6.64546875 -2 6 C-1.34 6 -0.68 6 0 6 C0 4.02 0 2.04 0 0 Z " fill="#0C0C0C" transform="translate(363,1496)"/>
<path d="M0 0 C0.99 0.33 1.98 0.66 3 1 C2.67 4.96 2.34 8.92 2 13 C1.34 13 0.68 13 0 13 C0 8.71 0 4.42 0 0 Z " fill="#191919" transform="translate(453,1500)"/>
<path d="M0 0 C0.66 0 1.32 0 2 0 C2.96661363 3.12180401 2.98988909 5.52083795 2.5625 8.75 C2.40974609 9.94882813 2.40974609 9.94882813 2.25390625 11.171875 C2.12822266 12.07679687 2.12822266 12.07679687 2 13 C1.34 13 0.68 13 0 13 C0 8.71 0 4.42 0 0 Z " fill="#090909" transform="translate(266,1500)"/>
<path d="M0 0 C2.3828125 0.2421875 2.3828125 0.2421875 5.125 0.875 C6.03507813 1.07867188 6.94515625 1.28234375 7.8828125 1.4921875 C8.58148438 1.65976563 9.28015625 1.82734375 10 2 C9.67 2.66 9.34 3.32 9 4 C7.1128125 3.9071875 7.1128125 3.9071875 5.1875 3.8125 C1.83041021 3.76367078 1.83041021 3.76367078 -1 5.5 C-1.495 6.2425 -1.495 6.2425 -2 7 C-2.66 6.67 -3.32 6.34 -4 6 C-2.84826645 3.53199953 -1.95216435 1.95216435 0 0 Z " fill="#C5C5C5" transform="translate(233,1500)"/>
<path d="M0 0 C0.66 0 1.32 0 2 0 C2.96661363 3.12180401 2.98988909 5.52083795 2.5625 8.75 C2.40974609 9.94882813 2.40974609 9.94882813 2.25390625 11.171875 C2.12822266 12.07679687 2.12822266 12.07679687 2 13 C1.34 13 0.68 13 0 13 C0 8.71 0 4.42 0 0 Z " fill="#1C1C1C" transform="translate(285,1461)"/>
<path d="M0 0 C0.66 0 1.32 0 2 0 C2.96661363 3.12180401 2.98988909 5.52083795 2.5625 8.75 C2.40974609 9.94882813 2.40974609 9.94882813 2.25390625 11.171875 C2.12822266 12.07679687 2.12822266 12.07679687 2 13 C1.34 13 0.68 13 0 13 C0 8.71 0 4.42 0 0 Z " fill="#1D1D1D" transform="translate(189,1461)"/>
<path d="M0 0 C1.65 0 3.3 0 5 0 C5.33 1.32 5.66 2.64 6 4 C3.36 4 0.72 4 -2 4 C-1.34 2.68 -0.68 1.36 0 0 Z " fill="#E0E0E0" transform="translate(351,1463)"/>
<path d="M0 0 C1.65 0 3.3 0 5 0 C5.66 1.32 6.32 2.64 7 4 C4.36 4 1.72 4 -1 4 C-0.67 2.68 -0.34 1.36 0 0 Z " fill="#E0E0E0" transform="translate(273,1463)"/>
<path d="M0 0 C1.65 0 3.3 0 5 0 C5.66 1.32 6.32 2.64 7 4 C4.36 4 1.72 4 -1 4 C-0.67 2.68 -0.34 1.36 0 0 Z " fill="#E1E1E1" transform="translate(148,1463)"/>
<path d="M0 0 C0.66 0.99 1.32 1.98 2 3 C5.10494126 3.31845551 7.01726077 2.99424641 10 2 C9.34 3.32 8.68 4.64 8 6 C4.625 6.1875 4.625 6.1875 1 6 C0.34 5.01 -0.32 4.02 -1 3 C-0.67 2.01 -0.34 1.02 0 0 Z " fill="#2E2E2E" transform="translate(252,1507)"/>
<path d="M0 0 C0.33 0 0.66 0 1 0 C1.33 1.98 1.66 3.96 2 6 C4.64 6.33 7.28 6.66 10 7 C9.67 7.66 9.34 8.32 9 9 C7.72125 9.061875 6.4425 9.12375 5.125 9.1875 C4.40570313 9.22230469 3.68640625 9.25710938 2.9453125 9.29296875 C2.30335938 9.19628906 1.66140625 9.09960938 1 9 C-1 6 -1 6 -0.625 2.8125 C-0.41875 1.884375 -0.2125 0.95625 0 0 Z " fill="#404040" transform="translate(364,1465)"/>
<path d="M0 0 C0.66 0 1.32 0 2 0 C2.66 2.31 3.32 4.62 4 7 C2.02 7 0.04 7 -2 7 C-1.34 4.69 -0.68 2.38 0 0 Z " fill="#DDDDDD" transform="translate(280,1539)"/>
<path d="M0 0 C0.66 0.99 1.32 1.98 2 3 C-1 3 -1 3 -3.5625 2.8125 C-4.366875 2.874375 -5.17125 2.93625 -6 3 C-6.66 3.99 -7.32 4.98 -8 6 C-8.33 4.68 -8.66 3.36 -9 2 C-5.54970958 -0.30019361 -4.05445642 -0.43132515 0 0 Z " fill="#292929" transform="translate(154,1461)"/>
<path d="M0 0 C0.99 0.33 1.98 0.66 3 1 C3 2.32 3 3.64 3 5 C2.34 5 1.68 5 1 5 C1 8.63 1 12.26 1 16 C0.67 16 0.34 16 0 16 C0 10.72 0 5.44 0 0 Z " fill="#0C0C0C" transform="translate(230,1535)"/>
<path d="M0 0 C2.74086056 -0.22223194 4.43963721 -0.34781139 6.8125 1.125 C8.49106106 3.77535957 8.20450238 5.93246424 8 9 C7.01 9.495 7.01 9.495 6 10 C5.62875 8.3603125 5.62875 8.3603125 5.25 6.6875 C3.97997149 2.94091591 3.34243648 1.89404734 0 0 Z " fill="#131313" transform="translate(146,1500)"/>
<path d="M0 0 C3.5 -0.375 3.5 -0.375 7 0 C7.66 0.99 8.32 1.98 9 3 C8.01 4.485 8.01 4.485 7 6 C6.67 5.01 6.34 4.02 6 3 C3.36 3 0.72 3 -2 3 C-1.34 2.01 -0.68 1.02 0 0 Z " fill="#313131" transform="translate(350,1461)"/>
<path d="M0 0 C0.33 0 0.66 0 1 0 C1 4.29 1 8.58 1 13 C-2.317124 8.577168 -2.30466674 7.28089024 -2 2 C-1.34 2 -0.68 2 0 2 C0 1.34 0 0.68 0 0 Z " fill="#0E0E0E" transform="translate(302,1500)"/>
<path d="M0 0 C2.625 0.9375 2.625 0.9375 5 2 C5 2.66 5 3.32 5 4 C2.36 4 -0.28 4 -3 4 C-2.67 3.01 -2.34 2.02 -2 1 C-1.34 0.67 -0.68 0.34 0 0 Z " fill="#E7E7E7" transform="translate(382,1501)"/>
<path d="M0 0 C2.31 0 4.62 0 7 0 C6.67 1.32 6.34 2.64 6 4 C4.35 3.67 2.7 3.34 1 3 C0.67 2.01 0.34 1.02 0 0 Z " fill="#E7E7E7" transform="translate(272,1469)"/>
<path d="M0 0 C2.31 0 4.62 0 7 0 C6.67 1.32 6.34 2.64 6 4 C4.35 3.67 2.7 3.34 1 3 C0.67 2.01 0.34 1.02 0 0 Z " fill="#E7E7E7" transform="translate(147,1469)"/>
<path d="M0 0 C0.99 0.33 1.98 0.66 3 1 C3 1.99 3 2.98 3 4 C2.34 4 1.68 4 1 4 C1 7.96 1 11.92 1 16 C0.67 16 0.34 16 0 16 C0 10.72 0 5.44 0 0 Z " fill="#060606" transform="translate(322,1535)"/>
<path d="M0 0 C2.31 0 4.62 0 7 0 C7.66 1.32 8.32 2.64 9 4 C8.01 4 7.02 4 6 4 C6 3.34 6 2.68 6 2 C3.69 2.33 1.38 2.66 -1 3 C-0.67 2.01 -0.34 1.02 0 0 Z " fill="#3D3D3D" transform="translate(393,1500)"/>
<path d="M0 0 C0.33 1.32 0.66 2.64 1 4 C-2 6 -2 6 -5.1875 5.625 C-6.115625 5.41875 -7.04375 5.2125 -8 5 C-8.33 4.01 -8.66 3.02 -9 2 C-6.03 2.33 -3.06 2.66 0 3 C0 2.01 0 1.02 0 0 Z " fill="#363636" transform="translate(335,1469)"/>
<path d="M0 0 C0.66 0 1.32 0 2 0 C2.33 0.66 2.66 1.32 3 2 C5.35599235 2.46751788 5.35599235 2.46751788 8.0625 2.625 C9.44115234 2.73714844 9.44115234 2.73714844 10.84765625 2.8515625 C11.55792969 2.90054687 12.26820313 2.94953125 13 3 C13 3.33 13 3.66 13 4 C6.565 4.495 6.565 4.495 0 5 C0 3.35 0 1.7 0 0 Z " fill="#3B3B3B" transform="translate(269,1465)"/>
<path d="M0 0 C0.99 0.33 1.98 0.66 3 1 C3.33 3.64 3.66 6.28 4 9 C3.01 9.495 3.01 9.495 2 10 C1.34 6.7 0.68 3.4 0 0 Z " fill="#2C2C2C" transform="translate(127,1535)"/>
<path d="M0 0 C0 0.99 0 1.98 0 3 C-1.65 3 -3.3 3 -5 3 C-5 2.34 -5 1.68 -5 1 C-5.99 0.67 -6.98 0.34 -8 0 C-5.13822943 -1.43088528 -3.06624227 -0.59991697 0 0 Z " fill="#EDEDED" transform="translate(412,1508)"/>
<path d="M0 0 C0.99 0.33 1.98 0.66 3 1 C2.01 2.32 1.02 3.64 0 5 C2.64 5 5.28 5 8 5 C8 5.33 8 5.66 8 6 C5.03 6 2.06 6 -1 6 C-1.33 4.68 -1.66 3.36 -2 2 C-1.34 1.34 -0.68 0.68 0 0 Z " fill="#444444" transform="translate(379,1500)"/>
<path d="M0 0 C2.66666667 1.33333333 5.33333333 2.66666667 8 4 C5.6875 4.625 5.6875 4.625 3 5 C2.01 4.34 1.02 3.68 0 3 C0 2.01 0 1.02 0 0 Z " fill="#3A3A3A" transform="translate(192,1586)"/>
<path d="M0 0 C2.64 0.33 5.28 0.66 8 1 C8 1.66 8 2.32 8 3 C6.02 3.33 4.04 3.66 2 4 C1.34 2.68 0.68 1.36 0 0 Z " fill="#424242" transform="translate(313,1471)"/>
<path d="M0 0 C2.31 0 4.62 0 7 0 C7.33 0.99 7.66 1.98 8 3 C5.125 3.1875 5.125 3.1875 2 3 C1.34 2.01 0.68 1.02 0 0 Z " fill="#F2F2F2" transform="translate(349,1469)"/>
<path d="M0 0 C1.134375 0.020625 2.26875 0.04125 3.4375 0.0625 C1.33967213 2.16032787 0.0575793 2.7134396 -2.6875 3.6875 C-3.41195312 3.94789062 -4.13640625 4.20828125 -4.8828125 4.4765625 C-5.71425781 4.76660156 -5.71425781 4.76660156 -6.5625 5.0625 C-4.14811644 0.07277397 -4.14811644 0.07277397 0 0 Z " fill="#303030" transform="translate(179.5625,1460.9375)"/>
<path d="M0 0 C1.485 0.99 1.485 0.99 3 2 C3.375 4.5 3.375 4.5 3 7 C2.01 7.66 1.02 8.32 0 9 C0 8.01 0 7.02 0 6 C-0.185625 5.13375 -0.37125 4.2675 -0.5625 3.375 C-0.706875 2.59125 -0.85125 1.8075 -1 1 C-0.67 0.67 -0.34 0.34 0 0 Z " fill="#1F1F1F" transform="translate(219,1458)"/>
<path d="M0 0 C0.99 0 1.98 0 3 0 C3.33 2.64 3.66 5.28 4 8 C3.34 6.68 2.68 5.36 2 4 C1.34 4 0.68 4 0 4 C0 2.68 0 1.36 0 0 Z " fill="#111111" transform="translate(160,1535)"/>
<path d="M0 0 C0 0.99 0 1.98 0 3 C-1.65 3 -3.3 3 -5 3 C-5 2.34 -5 1.68 -5 1 C-5.66 0.67 -6.32 0.34 -7 0 C-4.3333581 -1.33332095 -2.83319697 -0.67102033 0 0 Z " fill="#EFEFEF" transform="translate(399,1508)"/>
<path d="M0 0 C1.32 0.66 2.64 1.32 4 2 C4 2.99 4 3.98 4 5 C2.35 4.67 0.7 4.34 -1 4 C-0.67 2.68 -0.34 1.36 0 0 Z " fill="#E2E2E2" transform="translate(408,1501)"/>
<path d="M0 0 C1.65 0 3.3 0 5 0 C5.33 0.99 5.66 1.98 6 3 C3.69 3 1.38 3 -1 3 C-0.67 2.01 -0.34 1.02 0 0 Z " fill="#F9F9F9" transform="translate(254,1502)"/>
<path d="M0 0 C1.32 0 2.64 0 4 0 C4 0.66 4 1.32 4 2 C4.99 2.33 5.98 2.66 7 3 C5.02 3.33 3.04 3.66 1 4 C0.34 3.01 -0.32 2.02 -1 1 C-0.67 0.67 -0.34 0.34 0 0 Z " fill="#E9E9E9" transform="translate(329,1463)"/>
<path d="M0 0 C3.3 0 6.6 0 10 0 C9.34 1.32 8.68 2.64 8 4 C5.36 3.01 2.72 2.02 0 1 C0 0.67 0 0.34 0 0 Z " fill="#323232" transform="translate(365,1461)"/>
<path d="M0 0 C2.15377564 2.62198774 3.40072174 4.64404172 4 8 C3.01 8.495 3.01 8.495 2 9 C1.01 6.36 0.02 3.72 -1 1 C-0.67 0.67 -0.34 0.34 0 0 Z " fill="#343434" transform="translate(233,1539)"/>
<path d="M0 0 C1.98 0 3.96 0 6 0 C6.66 1.32 7.32 2.64 8 4 C7.071875 3.649375 6.14375 3.29875 5.1875 2.9375 C2.0197047 1.67617372 2.0197047 1.67617372 -1 3 C-0.67 2.01 -0.34 1.02 0 0 Z " fill="#202020" transform="translate(406,1500)"/>
<path d="M0 0 C0.99 0.33 1.98 0.66 3 1 C3.125 3.875 3.125 3.875 3 7 C2.34 7.66 1.68 8.32 1 9 C0.67 6.03 0.34 3.06 0 0 Z " fill="#191919" transform="translate(163,1574)"/>
<path d="M0 0 C0.99 0.495 0.99 0.495 2 1 C2 2.32 2 3.64 2 5 C2.66 5 3.32 5 4 5 C4 5.99 4 6.98 4 8 C3.01 8 2.02 8 1 8 C0.67 5.36 0.34 2.72 0 0 Z " fill="#1C1C1C" transform="translate(130,1544)"/>
<path d="M0 0 C2.09350689 3.4019487 2.17942163 6.05272412 2 10 C0.4375 8.375 0.4375 8.375 -1 6 C-0.6875 2.75 -0.6875 2.75 0 0 Z " fill="#333333" transform="translate(187,1538)"/>
<path d="M0 0 C0.66 0 1.32 0 2 0 C2.33 2.97 2.66 5.94 3 9 C0.23776722 6.23776722 0.42143709 3.79293383 0 0 Z " fill="#1C1C1C" transform="translate(151,1535)"/>
<path d="M0 0 C1.32 0.33 2.64 0.66 4 1 C4 4.63 4 8.26 4 12 C3.67 12 3.34 12 3 12 C2.92652344 11.07767578 2.92652344 11.07767578 2.8515625 10.13671875 C2.77679688 9.32847656 2.70203125 8.52023437 2.625 7.6875 C2.55539062 6.88699219 2.48578125 6.08648438 2.4140625 5.26171875 C2.10435574 2.72775559 2.10435574 2.72775559 0 0 Z " fill="#090909" transform="translate(302,1462)"/>
<path d="M0 0 C0.33 0 0.66 0 1 0 C1.66 2.31 2.32 4.62 3 7 C2.01 7.33 1.02 7.66 0 8 C-0.38063221 5.6739143 -0.71269945 3.33944736 -1 1 C-0.67 0.67 -0.34 0.34 0 0 Z " fill="#232323" transform="translate(174,1465)"/>
</svg>
