<?xml version="1.0" standalone="no"?>
<!DOCTYPE svg PUBLIC "-//W3C//DTD SVG 20010904//EN"
 "http://www.w3.org/TR/2001/REC-SVG-20010904/DTD/svg10.dtd">
<svg version="1.0" xmlns="http://www.w3.org/2000/svg"
 width="1200.000000pt" height="1700.000000pt" viewBox="0 0 1200.000000 1700.000000"
 preserveAspectRatio="xMidYMid meet">

<g transform="translate(0.000000,1700.000000) scale(0.100000,-0.100000)"
fill="#000000" stroke="none">
<path d="M0 13476 l0 -3494 83 -163 c102 -200 167 -321 244 -459 33 -58 72
-127 88 -155 28 -50 98 -169 140 -235 12 -19 59 -96 105 -170 155 -251 466
-711 610 -905 20 -27 83 -113 140 -190 173 -234 424 -554 625 -794 66 -80 133
-161 150 -180 16 -20 90 -106 164 -191 1490 -1714 3463 -3382 5706 -4826 207
-133 463 -294 468 -294 10 0 134 -76 182 -111 163 -120 1245 -742 1845 -1061
398 -212 410 -218 446 -218 35 0 37 1 18 15 -17 13 39 14 484 15 l502 0 0
2297 c0 1263 -2 2294 -4 2292 -2 -2 -33 -52 -70 -111 -247 -402 -568 -840
-885 -1208 -168 -196 -580 -605 -831 -826 -408 -359 -1130 -946 -1238 -1005
-20 -12 -46 -29 -57 -39 -20 -18 -45 -17 -45 2 0 6 6 6 15 -2 20 -16 20 4 0
24 -18 18 -19 27 -2 21 8 -4 12 5 12 24 0 24 -9 37 -43 61 -47 35 -49 41 -24
56 9 6 103 78 207 159 291 226 671 547 860 724 765 720 1301 1338 1727 1991
149 229 237 378 357 605 l21 40 0 4253 c0 3826 -2 4256 -16 4283 -8 17 -43 76
-76 132 -509 851 -1364 1702 -2421 2410 -117 79 -248 164 -292 191 -44 26
-109 65 -145 88 -36 22 -83 50 -105 63 -22 12 -67 38 -101 58 -33 20 -144 81
-245 136 -101 55 -200 109 -219 120 l-35 20 70 1 c79 0 88 -4 385 -152 523
-261 973 -543 1410 -882 687 -533 1098 -927 1450 -1391 85 -111 293 -414 323
-470 15 -28 16 81 17 1458 l0 1487 -6000 0 -6000 0 0 -3494z m2820 2134 c19
-19 20 -33 20 -330 0 -297 -1 -311 -20 -330 -19 -19 -33 -20 -332 -20 -276 0
-314 2 -330 17 -17 15 -18 39 -18 334 0 317 0 318 22 333 19 14 68 16 330 16
295 0 309 -1 328 -20z m2064 -317 c10 -27 24 -63 32 -81 17 -39 18 -52 4 -52
-6 0 -15 11 -20 25 -8 20 -16 25 -45 25 -29 0 -37 -5 -45 -25 -5 -14 -14 -25
-20 -25 -14 0 -13 10 9 66 10 27 25 64 31 82 17 45 34 40 54 -15z m456 37 c0
-5 -7 -10 -15 -10 -8 0 -15 5 -15 10 0 6 7 10 15 10 8 0 15 -4 15 -10z m450 0
c0 -5 -11 -10 -25 -10 -25 0 -25 -1 -25 -80 0 -64 -3 -80 -15 -80 -12 0 -15
16 -15 80 0 79 0 80 -25 80 -14 0 -25 5 -25 10 0 6 28 10 65 10 37 0 65 -4 65
-10z m73 -26 l25 -35 22 35 c12 20 26 36 31 36 15 0 10 -14 -16 -50 -27 -37
-29 -27 22 -107 14 -21 15 -25 3 -21 -8 2 -24 19 -35 36 -11 17 -23 31 -27 32
-3 0 -16 -16 -28 -35 -12 -19 -28 -35 -37 -35 -11 0 -6 12 16 42 17 23 31 46
31 52 0 5 -11 24 -25 42 -27 36 -30 44 -15 44 5 0 20 -16 33 -36z m307 27 c0
-8 -77 -161 -86 -170 -2 -2 -7 -2 -10 1 -3 3 11 38 30 77 20 39 36 73 36 76 0
3 -20 5 -45 5 -25 0 -45 5 -45 10 0 6 27 10 60 10 33 0 60 -4 60 -9z m118 0
c7 -4 13 -16 12 -27 0 -10 0 -28 -1 -39 0 -11 3 -32 6 -46 13 -52 -62 -81
-100 -39 -23 26 -11 39 14 16 26 -24 65 -17 69 12 2 13 -3 24 -12 27 -51 16
-52 17 -23 27 17 6 27 17 27 29 0 25 -27 36 -52 20 -25 -15 -35 -7 -18 14 13
16 57 20 78 6z m164 -17 c9 -19 9 -30 0 -44 -7 -12 -8 -21 -2 -25 6 -3 10 -20
10 -36 0 -22 -7 -32 -25 -41 -33 -15 -78 0 -84 27 -3 19 -3 19 17 2 29 -26 67
-19 67 13 0 18 -6 26 -22 28 -25 4 -32 22 -8 22 17 0 34 29 28 48 -6 15 -45
16 -61 0 -17 -17 -28 -2 -12 17 7 8 28 15 46 15 27 0 37 -5 46 -26z m152 4
c23 -33 21 -113 -4 -138 -27 -27 -65 -26 -84 2 -22 30 -21 116 1 140 23 25 68
23 87 -4z m106 -68 c0 -53 -4 -90 -10 -90 -6 0 -10 32 -10 75 0 75 -5 86 -28
63 -9 -9 -12 -9 -12 1 0 16 29 40 48 41 9 0 12 -24 12 -90z m210 0 c0 -53 -4
-90 -10 -90 -6 0 -10 37 -10 90 0 53 4 90 10 90 6 0 10 -37 10 -90z m-1660 69
c0 -7 8 -18 18 -25 16 -13 16 -13 0 -14 -15 0 -18 -9 -18 -50 0 -38 4 -50 15
-50 8 0 15 -5 15 -11 0 -6 -10 -9 -22 -7 -20 3 -23 10 -26 58 -2 30 -9 58 -15
63 -9 7 -9 10 1 14 6 2 12 11 12 19 0 8 5 14 10 14 6 0 10 -5 10 -11z m-278
-84 c2 -40 7 -51 22 -53 28 -6 46 25 46 76 0 26 4 41 10 37 6 -3 10 -35 10
-71 0 -36 -4 -64 -10 -64 -5 0 -10 5 -10 12 0 9 -3 9 -12 0 -7 -7 -21 -12 -33
-12 -34 0 -45 20 -45 84 0 72 17 65 22 -9z m204 51 c10 -8 16 -18 12 -22 -4
-4 -14 -1 -23 6 -8 7 -22 10 -30 6 -26 -10 -16 -33 17 -42 35 -10 47 -36 28
-59 -16 -19 -64 -19 -79 -2 -15 19 -3 28 19 15 20 -13 53 -3 48 14 -3 7 -19
16 -37 20 -42 11 -51 36 -22 60 28 22 41 23 67 4z m154 -62 c0 -36 -4 -64 -10
-64 -6 0 -10 30 -10 71 0 44 4 68 10 64 6 -3 10 -35 10 -71z m82 67 c12 6 25
6 38 -1 17 -9 20 -21 20 -70 0 -33 -4 -60 -10 -60 -5 0 -10 24 -10 54 0 56
-12 72 -45 60 -11 -5 -15 -21 -15 -60 0 -30 -4 -54 -10 -54 -6 0 -10 31 -10
72 0 54 3 69 12 60 7 -7 17 -8 30 -1z m122 -138 c-8 -32 -12 -39 -19 -31 -9 8
6 58 16 58 5 0 6 -12 3 -27z m341 -102 c3 -6 -4 -15 -15 -21 -23 -13 -27 -30
-5 -30 8 0 15 -4 15 -10 0 -5 -7 -10 -15 -10 -12 0 -15 -13 -15 -61 0 -37 -4
-58 -10 -54 -5 3 -10 30 -10 60 0 33 -5 56 -12 59 -10 5 -10 7 0 12 6 3 12 12
12 19 0 15 27 45 40 45 5 0 11 -4 15 -9z m-1070 -10 c7 -12 -12 -24 -25 -16
-11 7 -4 25 10 25 5 0 11 -4 15 -9z m497 -6 c0 -5 -5 -11 -11 -13 -6 -2 -11 4
-11 13 0 9 5 15 11 13 6 -2 11 -8 11 -13z m940 0 c0 -5 -5 -11 -11 -13 -6 -2
-11 4 -11 13 0 9 5 15 11 13 6 -2 11 -8 11 -13z m208 -81 c0 -61 -4 -93 -10
-89 -11 7 -14 168 -3 178 12 13 13 7 13 -89z m762 81 c0 -5 -5 -11 -11 -13 -6
-2 -11 4 -11 13 0 9 5 15 11 13 6 -2 11 -8 11 -13z m58 -81 c0 -61 -4 -93 -10
-89 -11 7 -14 168 -3 178 12 13 13 7 13 -89z m-1545 72 c41 -17 64 -75 48
-122 -9 -27 -14 -29 -64 -30 -78 -3 -108 31 -79 87 8 14 21 19 50 19 l40 0 0
-46 c0 -38 3 -45 18 -42 12 2 18 14 20 40 6 77 -88 119 -143 63 -34 -33 -34
-93 -2 -131 19 -22 31 -26 70 -26 28 1 45 -3 42 -8 -3 -6 -26 -10 -50 -10 -59
0 -94 30 -102 87 -7 55 11 97 50 117 40 19 59 20 102 2z m445 -10 c0 -8 6 -17
13 -20 10 -5 10 -7 0 -12 -20 -9 -17 -91 3 -102 10 -6 13 -12 6 -16 -15 -9
-40 3 -46 22 -5 18 -10 95 -7 125 1 20 31 23 31 3z m-1370 -81 c0 -37 -4 -65
-10 -65 -6 0 -10 28 -10 65 0 37 4 65 10 65 6 0 10 -28 10 -65z m118 59 c20
-4 22 -9 21 -72 l-2 -67 -6 52 c-7 58 -20 77 -47 71 -15 -2 -20 -14 -22 -53
-5 -80 -22 -79 -22 2 0 71 0 71 28 71 15 0 37 -2 50 -4z m150 -6 c9 -9 12 -9
12 0 0 7 5 12 10 12 6 0 10 -37 10 -90 0 -53 -4 -90 -10 -90 -5 0 -10 14 -10
30 0 29 -13 40 -25 20 -20 -32 -75 14 -75 62 0 54 55 89 88 56z m92 -42 c0
-41 4 -55 16 -60 28 -11 44 13 44 65 0 27 5 49 10 49 6 0 10 -31 10 -72 0 -55
-3 -69 -12 -60 -8 8 -15 9 -25 0 -10 -8 -20 -8 -38 0 -23 10 -25 17 -25 72 0
33 4 60 10 60 6 0 10 -24 10 -54z m140 -17 c0 -44 -4 -68 -10 -64 -5 3 -10 35
-10 71 0 36 4 64 10 64 6 0 10 -30 10 -71z m110 62 c0 -3 -10 -11 -22 -16 -19
-8 -24 -19 -26 -57 -5 -71 -22 -58 -22 15 l0 63 35 1 c19 1 35 -2 35 -6z m112
-8 c10 -9 18 -24 18 -35 0 -15 -8 -18 -45 -18 -33 0 -45 -4 -45 -15 0 -22 38
-39 55 -25 8 7 20 10 27 8 8 -3 2 -11 -14 -22 -67 -44 -130 51 -72 108 20 21
53 20 76 -1z m470 0 c38 -34 10 -123 -39 -123 -26 0 -63 41 -63 70 0 60 60 91
102 53z m118 8 c0 -5 -9 -11 -20 -14 -17 -4 -20 -14 -20 -55 0 -28 -4 -54 -10
-57 -6 -4 -10 19 -10 62 l0 68 30 2 c17 1 30 -2 30 -6z m130 -62 c0 -44 -4
-68 -10 -64 -5 3 -10 35 -10 71 0 36 4 64 10 64 6 0 10 -30 10 -71z m60 59 c0
-9 3 -9 12 0 17 17 48 15 70 -5 24 -22 24 -77 -2 -103 -23 -23 -33 -24 -61
-10 -17 10 -19 7 -19 -20 0 -16 -4 -30 -10 -30 -6 0 -10 37 -10 90 0 53 4 90
10 90 6 0 10 -5 10 -12z m282 0 c9 -7 19 -23 23 -35 6 -22 4 -23 -44 -23 -38
0 -51 -4 -51 -15 0 -23 36 -38 61 -25 28 15 39 2 15 -16 -43 -31 -96 1 -96 58
0 56 52 87 92 56z m81 -10 l15 -23 20 25 c11 14 23 22 27 18 4 -4 -2 -19 -14
-34 -20 -26 -17 -53 9 -69 6 -3 10 -14 10 -23 -1 -13 -7 -10 -26 12 l-26 29
-24 -29 c-26 -33 -33 -16 -8 22 15 21 15 28 3 52 -7 15 -15 30 -17 35 -9 17
17 5 31 -15z m262 11 c5 -7 11 -6 20 1 8 6 24 10 37 8 21 -3 23 -9 26 -73 3
-81 -15 -81 -20 0 -3 42 -6 50 -23 50 -17 0 -20 -8 -23 -50 -4 -68 -22 -84
-22 -19 0 57 -10 77 -36 72 -15 -2 -20 -14 -22 -53 -5 -80 -22 -79 -22 1 l0
71 39 1 c22 1 43 -3 46 -9z m213 -1 c7 -7 12 -38 12 -71 0 -48 -3 -57 -13 -48
-10 8 -17 7 -25 -1 -19 -19 -62 6 -62 37 0 26 4 29 53 39 15 4 27 11 27 17 0
16 -31 23 -50 11 -22 -13 -34 -4 -19 15 14 16 61 17 77 1z m72 -53 c0 -37 -4
-65 -10 -65 -6 0 -10 28 -10 65 0 37 4 65 10 65 6 0 10 -28 10 -65z m-415 -65
c-5 -8 -11 -8 -17 -2 -6 6 -7 16 -3 22 5 8 11 8 17 2 6 -6 7 -16 3 -22z
m-5330 -115 c14 -13 25 -29 25 -35 0 -16 -47 -12 -54 5 -9 24 -53 18 -72 -10
-21 -33 -10 -83 22 -97 20 -10 28 -8 49 12 14 13 31 20 39 17 19 -8 20 -16 3
-38 -56 -73 -167 -31 -167 63 0 42 21 93 42 101 36 15 90 6 113 -18z m197 14
c43 -23 58 -115 25 -160 -35 -47 -111 -48 -147 -2 -30 38 -28 116 5 148 26 27
80 34 117 14z m156 -57 c14 -35 28 -60 32 -55 4 4 17 34 30 66 20 51 25 57 52
57 l29 0 -3 -102 c-3 -95 -4 -103 -23 -103 -17 0 -21 8 -25 59 l-5 59 -19 -57
c-26 -76 -50 -74 -80 4 l-21 55 -5 -60 c-4 -52 -8 -60 -25 -60 -18 0 -20 8
-23 89 -3 108 0 118 35 114 23 -3 31 -12 51 -66z m304 51 c11 -10 18 -30 18
-54 0 -43 -27 -69 -72 -69 -23 0 -27 -5 -30 -32 -2 -25 -8 -33 -23 -33 -19 0
-20 8 -23 103 l-3 102 57 0 c39 0 63 -5 76 -17z m196 -76 c17 -50 32 -98 32
-104 0 -24 -40 -14 -50 12 -8 20 -16 25 -43 25 -26 0 -36 -6 -45 -25 -11 -25
-36 -33 -46 -16 -3 4 8 46 25 92 16 46 32 90 34 97 2 6 17 12 32 12 26 0 30
-6 61 -93z m138 36 l39 -57 3 57 c3 53 5 57 28 57 l25 0 -3 -102 c-4 -129 -16
-136 -79 -46 l-44 63 -5 -60 c-4 -44 -9 -60 -20 -60 -12 0 -16 19 -18 103 -2
94 -1 102 16 102 11 0 34 -22 58 -57z m184 17 c11 -22 22 -40 25 -40 3 0 14
18 25 40 16 31 26 40 46 40 l26 0 -33 -57 c-17 -32 -35 -78 -38 -103 -5 -36
-10 -45 -26 -45 -16 0 -21 8 -25 45 -3 25 -20 71 -38 103 l-33 57 25 0 c20 0
30 -9 46 -40z m286 -17 l39 -58 3 58 c3 53 5 57 28 57 l25 0 -3 -102 c-4 -129
-16 -136 -79 -46 l-44 63 -5 -60 c-4 -44 -9 -60 -20 -60 -12 0 -16 19 -18 103
-2 94 -1 102 16 102 12 0 34 -21 58 -57z m273 -35 c17 -51 31 -99 31 -105 0
-24 -40 -14 -50 12 -8 20 -16 25 -43 25 -26 0 -36 -6 -45 -25 -11 -23 -31 -32
-44 -19 -5 4 27 110 57 192 2 6 17 12 33 12 28 0 31 -4 61 -92z m139 32 c13
-33 27 -60 32 -60 4 0 18 27 30 60 20 54 25 60 52 60 l29 0 -3 -102 c-3 -89
-5 -103 -20 -106 -16 -3 -18 5 -18 58 0 71 -11 71 -35 0 -23 -70 -46 -67 -76
8 l-24 57 -5 -60 c-4 -44 -9 -60 -20 -60 -12 0 -16 19 -18 103 l-3 102 28 0
c25 0 31 -7 51 -60z m312 40 c0 -17 -7 -20 -45 -20 -38 0 -45 -3 -45 -20 0
-17 7 -20 40 -20 33 0 40 -3 40 -20 0 -17 -7 -20 -40 -20 -36 0 -40 -2 -40
-25 0 -23 4 -25 46 -25 38 0 45 -3 42 -17 -3 -15 -14 -18 -68 -18 l-65 0 -3
103 -3 102 71 0 c63 0 70 -2 70 -20z m1190 -6 c0 -4 -8 -13 -17 -20 -17 -13
-17 -15 1 -29 17 -13 18 -15 3 -15 -14 0 -17 -10 -17 -60 0 -33 -4 -60 -10
-60 -6 0 -10 27 -10 60 0 50 -3 60 -17 60 -17 1 -17 1 0 11 9 5 17 16 17 22 0
7 5 18 12 25 13 13 38 16 38 6z m370 -14 c0 -5 -4 -10 -10 -10 -5 0 -10 5 -10
10 0 6 5 10 10 10 6 0 10 -4 10 -10z m210 -80 c0 -53 -4 -90 -10 -90 -6 0 -10
37 -10 90 0 53 4 90 10 90 6 0 10 -37 10 -90z m980 0 c0 -53 -4 -90 -10 -90
-6 0 -10 37 -10 90 0 53 4 90 10 90 6 0 10 -37 10 -90z m278 78 c23 -23 13
-63 -23 -98 -19 -19 -35 -38 -35 -42 0 -4 16 -8 35 -8 19 0 35 -4 35 -10 0 -5
-25 -10 -55 -10 -30 0 -55 3 -55 6 0 3 20 29 45 57 52 59 56 90 13 95 -20 2
-28 -1 -28 -12 0 -9 -7 -16 -15 -16 -19 0 -19 9 2 32 18 20 63 24 81 6z m150
0 c22 -22 13 -62 -25 -103 l-36 -40 42 -3 c63 -5 49 -22 -19 -22 -33 0 -60 3
-60 6 0 3 20 29 45 57 30 32 45 58 43 71 -4 27 -38 33 -54 11 -19 -26 -37 -14
-19 13 18 24 63 30 83 10z m150 0 c21 -21 13 -60 -24 -104 l-35 -44 40 0 c23
0 41 -4 41 -10 0 -11 -103 -14 -113 -4 -4 4 14 29 39 57 47 52 55 89 21 95
-10 2 -27 -4 -38 -14 -15 -14 -19 -14 -19 -3 0 23 21 39 50 39 14 0 31 -5 38
-12z m232 2 c0 -5 -18 -10 -40 -10 -36 0 -40 -2 -40 -26 0 -15 4 -23 11 -19
37 23 87 -34 69 -80 -15 -40 -90 -46 -104 -8 -10 24 2 28 23 9 25 -23 55 -17
59 12 5 37 -15 53 -56 46 -31 -6 -34 -5 -29 10 4 10 7 31 7 47 0 28 1 29 50
29 28 0 50 -4 50 -10z m140 0 c0 -5 -15 -10 -34 -10 -28 0 -34 -4 -38 -25 -5
-22 -2 -25 14 -19 10 3 30 -2 43 -10 45 -29 25 -106 -26 -106 -29 0 -59 18
-59 35 0 20 16 19 24 -1 8 -20 45 -15 60 9 18 28 -5 52 -48 50 -39 -3 -41 1
-30 56 6 29 9 31 50 31 24 0 44 -4 44 -10z m150 1 c0 -6 -17 -11 -37 -13 -31
-2 -39 -7 -41 -26 -3 -20 0 -22 21 -17 18 5 31 1 46 -14 25 -25 27 -49 5 -79
-25 -37 -94 -25 -94 17 0 12 3 11 18 -2 22 -20 43 -22 60 -5 30 30 -4 73 -49
63 -27 -6 -29 -4 -29 23 0 53 8 62 56 62 24 0 44 -4 44 -9z m220 -1 c0 -19
-80 -170 -90 -170 -15 0 -13 3 25 77 19 37 35 71 35 75 0 4 -18 8 -40 8 -22 0
-40 5 -40 10 0 6 25 10 55 10 31 0 55 -4 55 -10z m150 5 c0 -13 -85 -175 -92
-175 -14 0 -9 17 27 86 19 37 35 68 35 70 0 2 -20 4 -45 4 -25 0 -45 5 -45 10
0 6 27 10 60 10 33 0 60 -2 60 -5z m140 -5 c0 -19 -80 -170 -90 -170 -15 0
-13 4 25 80 19 38 35 72 35 75 0 3 -20 5 -45 5 -25 0 -45 5 -45 10 0 6 27 10
60 10 34 0 60 -4 60 -10z m140 -5 c0 -20 -72 -165 -82 -165 -14 0 -8 20 24 83
18 34 34 65 36 70 2 4 -17 7 -42 7 -25 0 -46 5 -46 10 0 6 25 10 55 10 42 0
55 -4 55 -15z m-3002 -32 c14 -12 14 -13 -1 -13 -25 0 -24 -85 0 -99 10 -5 14
-13 10 -17 -18 -19 -42 14 -45 62 -2 27 -9 52 -15 56 -9 5 -9 8 -1 8 7 0 15
10 19 23 5 16 8 18 12 7 3 -8 12 -21 21 -27z m-184 -25 c22 -31 20 -64 -4 -88
-24 -24 -63 -26 -84 -4 -19 18 -21 85 -4 102 21 21 75 15 92 -10z m101 10
c-29 -16 -35 -28 -35 -75 0 -24 -4 -43 -10 -43 -6 0 -10 28 -10 63 l0 64 38 1
c32 1 34 0 17 -10z m145 -53 c0 -37 -4 -65 -10 -65 -6 0 -10 28 -10 65 0 37 4
65 10 65 6 0 10 -28 10 -65z m144 43 c20 -28 20 -58 0 -86 -17 -24 -53 -29
-72 -10 -9 9 -12 4 -12 -25 0 -20 -4 -37 -10 -37 -6 0 -10 36 -10 88 l0 89 44
1 c36 2 48 -2 60 -20z m204 10 c7 -7 12 -22 12 -35 0 -21 -5 -23 -46 -23 -38
0 -45 -3 -42 -17 4 -21 43 -29 63 -13 9 7 15 8 20 1 3 -6 -6 -16 -20 -23 -61
-28 -118 40 -81 97 18 28 72 35 94 13z m74 -10 l15 -22 12 22 c6 12 19 22 27
22 13 0 12 -5 -5 -29 l-21 -29 21 -36 c24 -41 10 -49 -18 -10 l-19 26 -17 -26
c-26 -40 -42 -31 -17 9 21 33 21 37 6 60 -18 28 -20 35 -7 35 5 0 15 -10 23
-22z m268 7 c15 -18 9 -19 -24 -4 -34 16 -58 -4 -54 -44 4 -39 30 -57 59 -39
27 17 40 5 15 -14 -60 -43 -123 27 -86 97 13 23 72 26 90 4z m144 -1 c36 -36
5 -114 -46 -114 -48 0 -74 61 -48 111 13 24 72 26 94 3z m136 4 c0 -9 3 -9 12
0 17 17 65 15 72 -4 10 -26 7 -114 -4 -114 -5 0 -10 24 -10 54 0 41 -4 55 -16
60 -28 11 -44 -13 -44 -65 0 -27 -4 -49 -10 -49 -5 0 -10 25 -10 55 0 41 -4
57 -16 62 -24 9 -36 -11 -42 -66 -7 -72 -22 -63 -22 12 l0 64 45 1 c29 2 45
-2 45 -10z m-420 -103 c0 -8 -4 -15 -9 -15 -13 0 -22 16 -14 24 11 11 23 6 23
-9z m-2003 -4031 c63 -30 116 -90 137 -152 25 -72 25 -72 -54 -72 -68 0 -71 1
-81 28 -43 113 -199 136 -285 40 -61 -67 -73 -227 -24 -323 42 -82 152 -120
229 -80 34 17 81 70 81 91 0 11 17 14 76 14 l77 0 -7 -32 c-10 -49 -56 -118
-104 -155 -61 -46 -139 -67 -228 -60 -188 14 -304 154 -304 367 0 184 94 321
247 360 64 16 181 3 240 -26z m720 6 c26 -11 65 -38 86 -58 82 -79 112 -171
105 -319 -5 -104 -36 -181 -98 -243 -64 -64 -121 -85 -230 -85 -84 0 -102 3
-152 28 -68 33 -121 90 -156 166 -23 50 -26 69 -26 166 0 125 19 188 79 260
35 44 119 94 175 106 57 13 165 2 217 -21z m3556 -12 c45 -24 71 -46 94 -81
33 -49 56 -113 47 -129 -3 -4 -35 -8 -72 -8 l-67 1 -20 42 c-15 31 -32 48 -65
65 -91 46 -184 15 -233 -79 -27 -51 -29 -60 -25 -156 3 -94 6 -105 33 -144 43
-60 86 -81 158 -76 66 4 102 26 132 80 l20 37 73 0 c51 0 72 -4 72 -12 0 -29
-50 -117 -85 -153 -62 -61 -114 -80 -225 -80 -84 0 -102 3 -152 28 -97 47
-160 142 -177 264 -25 179 42 338 172 405 59 30 101 38 185 33 59 -4 87 -12
135 -37z m-2961 -165 c68 -109 139 -228 158 -264 l35 -67 -3 264 -3 264 75 0
76 0 0 -360 0 -360 -83 0 -83 0 -112 180 c-62 99 -133 217 -157 262 l-45 83 7
-262 6 -263 -81 0 -82 0 0 353 c0 195 3 357 7 360 3 4 41 7 84 7 l78 0 123
-197z m1028 132 l0 -65 -110 0 -110 0 0 -295 0 -295 -75 0 -75 0 -2 298 -3
297 -105 0 -105 0 -3 63 -3 62 296 0 295 0 0 -65z m530 29 c71 -40 110 -108
110 -191 0 -86 -17 -129 -72 -178 l-48 -43 70 -130 c38 -71 70 -132 70 -136 0
-3 -35 -6 -78 -6 l-79 0 -65 123 -66 122 -61 3 -61 3 0 -126 0 -125 -75 0 -75
0 0 353 c0 195 3 357 7 361 5 4 89 6 188 4 l180 -3 55 -31z m657 -59 c18 -49
48 -135 67 -190 19 -55 60 -171 90 -259 31 -87 56 -162 56 -167 0 -5 -35 -9
-79 -9 l-79 0 -28 83 -29 82 -127 3 -127 3 -27 -86 -28 -85 -78 0 c-43 0 -78
4 -78 9 0 4 47 145 104 312 103 300 124 362 132 387 3 9 28 12 101 10 l98 -3
32 -90z m1558 30 l0 -60 -105 0 -105 0 -3 -297 -2 -298 -75 0 -75 0 -2 298 -3
297 -105 0 -105 0 -3 63 -3 62 293 -2 293 -3 0 -60z"/>
<path d="M2172 15598 c-17 -17 -17 -619 0 -636 9 -9 94 -12 320 -12 294 0 308
1 318 19 6 12 10 129 10 311 0 182 -4 299 -10 311 -10 18 -24 19 -318 19 -226
0 -311 -3 -320 -12z m288 -188 c11 -11 20 -31 20 -45 0 -27 -31 -65 -53 -65
-29 0 -51 28 -51 65 0 59 46 83 84 45z m72 -40 c2 -38 7 -46 25 -48 24 -3 29
8 36 78 3 23 4 16 5 -20 2 -58 -9 -80 -39 -80 -32 0 -49 29 -49 83 0 62 17 52
22 -13z m176 48 c5 -7 10 -37 9 -66 -1 -47 -3 -52 -14 -36 -7 10 -13 21 -13
26 0 4 -7 8 -15 8 -8 0 -15 -9 -15 -20 0 -11 -4 -20 -10 -20 -6 0 -10 27 -10
60 0 59 0 60 29 60 16 0 33 -6 39 -12z m-424 -20 l15 -21 20 24 c23 27 29 13
6 -17 -8 -10 -15 -31 -15 -46 0 -16 -4 -28 -10 -28 -5 0 -10 12 -10 26 0 14
-9 39 -21 55 -11 16 -16 29 -10 29 5 0 17 -10 25 -22z m21 -259 c29 -6 29 -7
-7 -8 l-38 -1 2 63 1 62 6 -55 c6 -51 8 -55 36 -61z m139 95 c35 -35 12 -104
-34 -104 -52 0 -74 62 -38 108 14 17 53 15 72 -4z m136 1 c16 -19 5 -34 -12
-17 -30 30 -73 -2 -62 -46 7 -23 27 -34 49 -26 21 8 19 32 -2 37 -11 3 -7 5
10 6 20 1 27 -4 27 -17 0 -25 -20 -42 -50 -42 -14 0 -31 5 -38 12 -15 15 -16
63 -2 89 13 23 62 26 80 4z m138 -17 c19 -40 -2 -82 -43 -86 -34 -4 -55 18
-55 59 0 61 72 80 98 27z"/>
<path d="M2394 15386 c-7 -31 0 -54 21 -62 25 -10 46 16 43 50 -2 25 -8 32
-30 34 -22 3 -29 -2 -34 -22z"/>
<path d="M2660 15390 c0 -16 5 -21 23 -18 12 2 22 10 22 18 0 8 -10 16 -22 18
-18 3 -23 -2 -23 -18z"/>
<path d="M2386 15224 c-9 -8 -16 -24 -16 -34 0 -18 25 -50 39 -50 16 0 31 25
31 52 0 36 -32 55 -54 32z"/>
<path d="M2650 15220 c-24 -24 -25 -32 -2 -60 30 -37 73 0 57 49 -9 28 -33 33
-55 11z"/>
<path d="M4842 15281 c-17 -47 -15 -51 13 -51 28 0 30 11 11 55 l-12 30 -12
-34z"/>
<path d="M6532 15308 c-17 -17 -15 -103 3 -118 39 -32 77 28 59 93 -10 35 -40
47 -62 25z"/>
<path d="M5661 14956 c-21 -25 -10 -61 19 -61 22 0 25 4 25 35 0 38 -23 52
-44 26z"/>
<path d="M5022 14968 c-17 -17 -15 -54 4 -72 21 -22 31 -20 50 9 30 46 -17
100 -54 63z"/>
<path d="M5467 14973 c-18 -18 -5 -33 29 -33 29 0 35 3 30 16 -3 9 -6 18 -6
20 0 7 -46 5 -53 -3z"/>
<path d="M5930 14960 c-22 -42 7 -88 45 -74 20 8 31 53 18 73 -16 25 -50 25
-63 1z"/>
<path d="M6322 14968 c-24 -24 -4 -88 28 -88 16 0 40 32 40 54 0 26 -17 46
-40 46 -9 0 -21 -5 -28 -12z"/>
<path d="M6526 14965 c-9 -25 -9 -25 30 -25 28 0 35 3 32 18 -4 23 -53 29 -62
7z"/>
<path d="M7093 14923 c-18 -7 -16 -32 2 -39 18 -7 45 12 45 32 0 14 -23 17
-47 7z"/>
<path d="M1580 14721 c-16 -31 -12 -69 10 -91 24 -24 29 -24 58 -4 43 30 23
114 -28 114 -19 0 -33 -7 -40 -19z"/>
<path d="M2050 14710 c0 -25 4 -30 24 -30 26 0 39 20 30 45 -4 8 -17 15 -30
15 -20 0 -24 -5 -24 -30z"/>
<path d="M2257 14699 c-10 -36 -9 -39 13 -39 23 0 24 6 6 39 l-13 23 -6 -23z"/>
<path d="M3136 14698 c-9 -35 -8 -38 15 -38 16 0 19 4 14 23 -11 35 -22 41
-29 15z"/>
<path d="M4902 14678 c-14 -14 -16 -57 -3 -76 14 -23 55 -10 65 20 15 44 -32
86 -62 56z"/>
<path d="M5292 14678 c-7 -7 -12 -24 -12 -38 0 -52 53 -70 71 -24 17 46 -28
93 -59 62z"/>
<path d="M5503 14683 c-28 -11 -13 -33 22 -33 33 0 35 2 25 20 -11 20 -23 23
-47 13z"/>
<path d="M5980 14671 c-21 -41 -6 -81 32 -81 34 0 49 57 22 84 -21 21 -41 20
-54 -3z"/>
<path d="M4275 10442 c-69 -33 -101 -87 -111 -190 -13 -123 39 -235 122 -262
51 -17 125 -8 164 20 83 59 111 231 56 343 -45 94 -142 131 -231 89z"/>
<path d="M6360 10345 l0 -115 63 0 c118 0 164 26 174 98 7 52 -18 99 -62 118
-19 8 -66 14 -105 14 l-70 0 0 -115z"/>
<path d="M7128 10319 c-20 -79 -40 -152 -44 -162 -6 -16 1 -18 82 -15 73 2 88
6 85 18 -2 8 -18 65 -36 125 -18 61 -36 125 -41 144 -8 31 -12 22 -46 -110z"/>
<path d="M0 4497 l0 -4467 5228 1 5227 0 -66 33 c-37 17 -100 47 -140 66 -234
107 -814 393 -1074 530 -1280 670 -2427 1404 -3570 2284 -178 137 -722 571
-860 686 -44 37 -132 109 -196 161 -206 167 -530 441 -709 599 -53 47 -125
110 -160 140 -35 30 -87 76 -114 101 -28 25 -105 95 -171 154 -502 453 -1069
1023 -1447 1455 -688 787 -1338 1685 -1841 2545 -54 94 -101 172 -103 174 -2
2 -4 -2006 -4 -4462z m1853 -2518 c30 -16 37 -28 37 -71 0 -47 -36 -78 -91
-78 -37 0 -38 0 -41 -42 -2 -30 -8 -43 -18 -43 -12 0 -15 22 -18 123 l-3 122
56 0 c31 0 66 -5 78 -11z m1297 -114 c0 -119 -7 -146 -28 -109 -8 14 -10 14
-21 0 -17 -20 -50 -20 -78 -1 -26 19 -47 77 -38 107 18 59 84 88 119 52 15
-14 16 -11 16 30 0 34 4 46 15 46 13 0 15 -21 15 -125z m180 85 c0 -38 12 -52
25 -30 8 13 51 13 75 0 45 -24 47 -125 3 -160 -31 -24 -51 -25 -81 -4 -20 14
-22 14 -22 -1 0 -9 -6 -15 -12 -13 -9 3 -14 40 -16 126 -2 104 0 122 13 122
11 0 15 -11 15 -40z m-1360 -32 c0 -9 3 -9 12 0 17 17 48 15 48 -3 0 -8 -8
-15 -18 -15 -32 0 -42 -22 -42 -93 0 -50 -3 -68 -12 -65 -9 3 -14 34 -16 96
-2 77 0 92 13 92 8 0 15 -5 15 -12z m225 -13 c14 -13 25 -36 25 -50 0 -24 -2
-25 -65 -25 -56 0 -65 -3 -65 -18 0 -39 49 -55 90 -30 29 19 38 -1 10 -24 -31
-25 -87 -19 -112 13 -26 31 -24 106 4 136 30 32 81 31 113 -2z m98 13 c4 -10
7 -10 18 0 35 33 104 2 115 -53 14 -78 -42 -144 -102 -116 -34 15 -34 16 -34
-29 0 -29 -4 -40 -15 -40 -13 0 -15 21 -15 125 0 101 3 125 14 125 8 0 16 -6
19 -12z m302 -2 c15 -11 20 -30 23 -86 3 -46 0 -76 -7 -83 -9 -9 -14 -9 -19 0
-6 10 -15 10 -39 1 -42 -16 -83 9 -83 51 0 31 22 46 83 56 40 6 45 15 21 39
-19 20 -22 20 -58 1 -37 -20 -57 -4 -25 19 29 20 79 21 104 2z m105 2 c0 -9 3
-9 12 0 17 17 48 15 48 -3 0 -8 -8 -15 -19 -15 -30 0 -40 -21 -43 -90 -2 -39
-8 -65 -15 -68 -10 -3 -13 20 -13 92 0 79 3 96 15 96 8 0 15 -5 15 -12z m225
-13 c14 -13 25 -36 25 -50 0 -24 -2 -25 -65 -25 -56 0 -65 -3 -65 -18 0 -10 5
-23 12 -30 17 -17 63 -15 78 3 10 12 16 13 24 5 20 -20 -32 -53 -74 -46 -47 7
-70 38 -70 91 0 86 79 127 135 70z m620 -43 c13 -35 25 -65 28 -68 2 -3 16 26
30 63 14 40 31 69 41 71 13 3 12 -7 -10 -65 -55 -149 -67 -173 -91 -179 -35
-9 -52 2 -21 14 30 12 43 43 30 69 -5 10 -21 51 -36 91 -22 62 -24 73 -10 70
10 -2 26 -29 39 -66z m195 37 c0 -14 -5 -19 -17 -17 -26 5 -29 38 -4 38 15 0
21 -6 21 -21z m-2 -136 c-2 -10 -10 -18 -18 -18 -8 0 -16 8 -18 18 -2 12 3 17
18 17 15 0 20 -5 18 -17z m-1438 -228 c0 -8 -6 -15 -14 -15 -17 0 -28 14 -19
24 12 12 33 6 33 -9z m-510 -15 c27 -27 26 -74 -2 -102 l-22 -22 27 -48 c24
-42 25 -48 9 -48 -10 0 -27 18 -42 45 -21 39 -29 45 -57 45 -32 0 -33 -1 -33
-45 0 -33 -4 -45 -15 -45 -12 0 -15 20 -15 120 l0 120 65 0 c52 0 69 -4 85
-20z m300 -20 c0 -40 0 -40 24 -25 29 20 71 11 91 -18 23 -32 19 -113 -5 -137
-22 -22 -79 -27 -98 -8 -9 9 -12 9 -12 0 0 -7 -7 -12 -15 -12 -12 0 -15 20
-15 120 0 100 3 120 15 120 11 0 15 -11 15 -40z m593 -17 c9 -32 19 -75 23
-95 3 -21 10 -38 14 -38 4 0 17 43 30 95 20 85 26 96 43 93 13 -2 24 -14 29
-33 5 -16 16 -61 26 -98 l18 -68 17 58 c9 32 21 77 27 101 7 26 16 42 26 42
10 0 14 -6 10 -17 -2 -10 -17 -64 -32 -120 -21 -83 -30 -103 -45 -103 -18 0
-26 19 -62 154 l-14 50 -12 -50 c-32 -127 -42 -154 -61 -154 -14 0 -24 22 -49
113 -36 129 -35 127 -17 127 8 0 20 -23 29 -57z m-714 -8 c34 -17 41 -33 41
-88 0 -105 -138 -122 -163 -19 -9 37 11 90 41 107 34 18 47 18 81 0z m331 -80
c0 -78 -3 -95 -15 -95 -12 0 -15 17 -15 95 0 78 3 95 15 95 12 0 15 -17 15
-95z m80 79 c0 -14 2 -14 22 0 30 21 54 20 78 -4 16 -16 20 -33 20 -95 0 -60
-3 -75 -15 -75 -12 0 -15 14 -15 68 0 70 -10 92 -41 92 -35 0 -49 -28 -49 -96
0 -50 -3 -64 -15 -64 -12 0 -15 17 -15 95 0 78 3 95 15 95 8 0 15 -7 15 -16z
m649 -54 c13 -38 27 -70 31 -70 4 0 18 32 31 70 13 39 29 70 36 70 7 0 13 -6
13 -13 0 -25 -82 -222 -98 -234 -22 -18 -52 -16 -52 2 0 8 9 15 20 15 32 0 34
39 5 115 -36 96 -40 115 -23 115 8 0 23 -28 37 -70z m183 59 c2 -7 12 -7 30 2
22 10 31 9 51 -4 20 -13 27 -13 48 -1 33 18 46 17 69 -6 16 -16 20 -33 20 -95
0 -59 -3 -75 -15 -75 -11 0 -15 18 -17 78 -3 73 -4 77 -27 80 -36 6 -51 -22
-51 -95 0 -49 -3 -63 -15 -63 -11 0 -15 18 -17 78 -3 73 -4 77 -27 80 -36 6
-51 -22 -51 -95 0 -49 -3 -63 -15 -63 -12 0 -15 17 -15 95 0 75 3 95 14 95 8
0 16 -5 18 -11z m395 -10 c20 -17 18 -169 -2 -169 -8 0 -15 5 -15 11 0 8 -4 8
-14 0 -25 -21 -79 -9 -96 21 -14 26 -13 29 6 49 12 11 40 23 63 26 36 5 42 9
39 27 -2 16 -10 21 -33 20 -16 -1 -40 -5 -53 -9 -17 -6 -21 -4 -17 8 14 34 87
44 122 16z m93 6 c0 -14 4 -14 31 1 63 32 99 -10 99 -117 0 -46 -3 -59 -15
-59 -12 0 -15 13 -15 61 0 71 -12 99 -43 99 -37 0 -47 -19 -47 -92 0 -54 -3
-68 -15 -68 -12 0 -15 17 -15 95 0 57 4 95 10 95 6 0 10 -7 10 -15z"/>
<path d="M1760 1910 l0 -50 38 0 c45 0 62 14 62 50 0 36 -17 50 -62 50 l-38 0
0 -50z"/>
<path d="M3042 1894 c-17 -11 -22 -25 -22 -58 0 -47 13 -66 46 -66 52 0 74 80
34 120 -24 24 -29 24 -58 4z"/>
<path d="M3358 1899 c-26 -15 -34 -74 -13 -105 22 -34 65 -30 83 9 28 59 -20
125 -70 96z"/>
<path d="M2112 1894 c-34 -24 -26 -34 28 -34 28 0 50 4 50 9 0 10 -39 41 -50
41 -3 0 -16 -7 -28 -16z"/>
<path d="M2324 1900 c-49 -19 -34 -122 18 -128 55 -6 79 101 28 128 -21 11
-18 11 -46 0z"/>
<path d="M2517 1823 c-12 -3 -17 -12 -15 -26 6 -46 88 -27 88 20 0 13 -35 16
-73 6z"/>
<path d="M2842 1894 c-34 -24 -26 -34 28 -34 28 0 50 4 50 9 0 10 -39 41 -50
41 -3 0 -16 -7 -28 -16z"/>
<path d="M1670 1470 l0 -50 39 0 c43 0 71 20 71 50 0 30 -28 50 -71 50 l-39 0
0 -50z"/>
<path d="M2106 1444 c-34 -34 -7 -124 37 -124 39 0 65 98 35 128 -17 17 -54
15 -72 -4z"/>
<path d="M1885 1426 c-15 -37 -12 -59 13 -88 34 -40 82 -6 82 58 0 47 -14 64
-53 64 -23 0 -31 -7 -42 -34z"/>
<path d="M3550 1383 c-50 -9 -63 -35 -29 -54 31 -16 69 3 69 36 0 14 -3 24 -7
24 -5 -1 -19 -4 -33 -6z"/>
</g>
</svg>
