<?xml version="1.0" encoding="UTF-8"?>
<svg version="1.1" xmlns="http://www.w3.org/2000/svg" width="1200" height="1700">
<path d="M0 0 C396 0 792 0 1200 0 C1200 561 1200 1122 1200 1700 C804 1700 408 1700 0 1700 C0 1139 0 578 0 0 Z " fill="#3B1419" transform="translate(0,0)"/>
<path d="M0 0 C396 0 792 0 1200 0 C1200 202.29 1200 404.58 1200 613 C804 613 408 613 0 613 C0 410.71 0 208.42 0 0 Z " fill="#DDAE76" transform="translate(0,0)"/>
<path d="M0 0 C396 0 792 0 1200 0 C1200 6.93 1200 13.86 1200 21 C804 21 408 21 0 21 C0 14.07 0 7.14 0 0 Z " fill="#F8F5FA" transform="translate(0,592)"/>
<path d="M0 0 C2.47199508 1.92390568 4.82346864 3.92173549 7.15234375 6.015625 C8.08626953 6.81033203 8.08626953 6.81033203 9.0390625 7.62109375 C21.24094211 18.7261752 28.23287974 35.788788 29.15234375 52.015625 C29.22390791 73.32640961 22.62779339 90.9659666 7.96484375 106.703125 C-6.26694508 120.46546246 -25.3001333 126.7533544 -44.81787109 126.5534668 C-62.06145637 125.85745043 -77.97481244 117.59919894 -90.30859375 105.79296875 C-96.64341065 98.86365365 -102.33674707 90.75207343 -105.84765625 82.015625 C-106.21761719 81.19191406 -106.58757813 80.36820312 -106.96875 79.51953125 C-112.12324661 66.08930306 -112.41776372 47.45588656 -107.2265625 33.98046875 C-106.77152344 33.00207031 -106.31648437 32.02367187 -105.84765625 31.015625 C-105.58452637 30.42668457 -105.32139648 29.83774414 -105.05029297 29.23095703 C-97.08395055 11.69779028 -84.00973481 -1.03252319 -66.22265625 -8.73046875 C-43.64384942 -17.11912268 -19.65448126 -13.69612686 0 0 Z " fill="#DAAC75" transform="translate(1091.84765625,95.984375)"/>
<path d="M0 0 C182.49 0 364.98 0 553 0 C553 6.6 553 13.2 553 20 C370.51 20 188.02 20 0 20 C0 13.4 0 6.8 0 0 Z " fill="#3D161A" transform="translate(93,485)"/>
<path d="M0 0 C6.6 0 13.2 0 20 0 C24.24567903 9.9305713 28.37452089 19.77050304 31.91015625 29.97265625 C33.14784528 33.41068135 34.56452074 36.72375732 36.10546875 40.03515625 C37.14912491 42.32755384 38.0779899 44.65638842 39 47 C42.27160079 40.16727623 45.08251888 33.24380008 47.68896484 26.13916016 C49.82480711 20.35990294 52.21361558 14.72079484 54.703125 9.0859375 C55.95137442 6.11570546 56.98115727 3.05652818 58 0 C64.93 0 71.86 0 79 0 C79 23.1 79 46.2 79 70 C73.06 70 67.12 70 61 70 C60.67 58.12 60.34 46.24 60 34 C56.48142246 42.79644385 52.97550098 51.57887971 49.625 60.4375 C49.27050781 61.37142578 48.91601562 62.30535156 48.55078125 63.26757812 C47.69933001 65.51126721 46.8494793 67.75556358 46 70 C41.38 70 36.76 70 32 70 C26.58898351 56.78868701 21.6306653 43.50610714 17 30 C16.67 43.2 16.34 56.4 16 70 C10.72 70 5.44 70 0 70 C0 46.9 0 23.8 0 0 Z " fill="#D9AB74" transform="translate(98,747)"/>
<path d="M0 0 C396 0 792 0 1200 0 C1200 0.99 1200 1.98 1200 3 C804 3 408 3 0 3 C0 2.01 0 1.02 0 0 Z " fill="#DFD9DA" transform="translate(0,1697)"/>
<path d="M0 0 C17 0 17 0 20.56640625 2.859375 C21.64282227 4.72290039 21.64282227 4.72290039 22.5625 6.75 C23.33260535 8.13972657 24.10344761 9.52904503 24.875 10.91796875 C25.23078125 11.61196777 25.5865625 12.3059668 25.953125 13.02099609 C27.44874982 15.84831297 29.24242112 18.43547209 31.0625 21.0625 C35.44101704 27.66502569 39.71589062 34.33582985 44 41 C44.33 27.47 44.66 13.94 45 0 C50.61 0 56.22 0 62 0 C62 23.1 62 46.2 62 70 C45 70 45 70 41.06640625 66.58984375 C39.74633789 64.36083984 39.74633789 64.36083984 38.5625 61.9375 C37.61557623 60.28198377 36.66764268 58.62704475 35.71875 56.97265625 C35.26886719 56.13750488 34.81898438 55.30235352 34.35546875 54.44189453 C32.31418793 50.76450066 29.94660758 47.33574349 27.5625 43.875 C24.26396829 38.98011824 21.13073922 34.00918275 18 29 C17.67 42.53 17.34 56.06 17 70 C11.39 70 5.78 70 0 70 C0 46.9 0 23.8 0 0 Z " fill="#DBAC75" transform="translate(262,747)"/>
<path d="M0 0 C6.6 0 13.2 0 20 0 C23.40154987 7.83387242 26.34386599 15.71837995 29.12451172 23.7878418 C32.21492403 32.71358223 35.54627484 41.54435079 38.88671875 50.37890625 C39.59147557 52.25248017 40.29589963 54.12617928 41 56 C41.57355225 57.51182861 41.57355225 57.51182861 42.15869141 59.05419922 C42.52526855 60.03533691 42.8918457 61.01647461 43.26953125 62.02734375 C43.60186768 62.910271 43.9342041 63.79319824 44.27661133 64.70288086 C45 67 45 67 45 70 C39.06 70 33.12 70 27 70 C25.68 66.37 24.36 62.74 23 59 C10.13 58.505 10.13 58.505 -3 58 C-3.99 61.63 -4.98 65.26 -6 69 C-7 70 -7 70 -10.81640625 70.09765625 C-12.39846682 70.09098089 -13.98051159 70.07901875 -15.5625 70.0625 C-16.36880859 70.05798828 -17.17511719 70.05347656 -18.00585938 70.04882812 C-20.00393756 70.03700518 -22.00197783 70.01906914 -24 70 C-22.73596646 62.2322926 -20.4324464 55.11078159 -17.6875 47.75 C-16.87614161 45.53912138 -16.06494259 43.32818428 -15.25390625 41.1171875 C-14.86477051 40.06370117 -14.47563477 39.01021484 -14.07470703 37.92480469 C-12.72536359 34.2525797 -11.42271824 30.56575831 -10.125 26.875 C-8.56900805 22.50340357 -6.82803603 18.26541741 -5 14 C-3.29406874 9.34605459 -1.64753615 4.67544043 0 0 Z " fill="#D9AB74" transform="translate(209,747)"/>
<path d="M0 0 C0.83265381 0.00523682 1.66530762 0.01047363 2.52319336 0.01586914 C3.42231445 0.0190918 4.32143555 0.02231445 5.24780273 0.02563477 C6.66609375 0.03820312 6.66609375 0.03820312 8.11303711 0.05102539 C9.06243164 0.05553711 10.01182617 0.06004883 10.98999023 0.06469727 C13.34356776 0.07652429 15.69702188 0.09300514 18.05053711 0.11352539 C21.94405561 10.57513741 25.75446467 21.05853104 29.41503906 31.60400391 C31.74531252 38.29528308 34.17305765 44.94742472 36.65405273 51.58422852 C38.06300114 55.36720455 39.43808882 59.16025765 40.75366211 62.97680664 C41.1273291 64.05828979 41.1273291 64.05828979 41.50854492 65.16162109 C42.05053711 67.11352539 42.05053711 67.11352539 42.05053711 70.11352539 C36.44053711 70.11352539 30.83053711 70.11352539 25.05053711 70.11352539 C21.05053711 61.48852539 21.05053711 61.48852539 21.05053711 58.11352539 C12.14053711 58.11352539 3.23053711 58.11352539 -5.94946289 58.11352539 C-6.60946289 61.08352539 -7.26946289 64.05352539 -7.94946289 67.11352539 C-8.27946289 68.10352539 -8.60946289 69.09352539 -8.94946289 70.11352539 C-14.88946289 70.11352539 -20.82946289 70.11352539 -26.94946289 70.11352539 C-26.21465987 66.4395103 -25.42787772 63.39959695 -24.16430664 59.92993164 C-23.80248291 58.9309082 -23.44065918 57.93188477 -23.06787109 56.90258789 C-22.67817139 55.83782227 -22.28847168 54.77305664 -21.88696289 53.67602539 C-21.48501709 52.5687207 -21.08307129 51.46141602 -20.66894531 50.32055664 C-19.43264848 46.91691563 -18.19153816 43.51506139 -16.94946289 40.11352539 C-15.88591685 37.19462001 -14.82302016 34.27547941 -13.76049805 31.35620117 C-13.09945078 29.54050314 -12.43767724 27.72506935 -11.77514648 25.90991211 C-9.37941752 19.33527643 -7.04027695 12.74195623 -4.76318359 6.12524414 C-2.68699339 0.15647488 -2.68699339 0.15647488 0 0 Z " fill="#DAAB75" transform="translate(428.949462890625,746.886474609375)"/>
<path d="M0 0 C5.61 0 11.22 0 17 0 C17.00410889 1.39234863 17.00821777 2.78469727 17.01245117 4.21923828 C17.03426198 9.39685829 17.08857295 14.5737205 17.15258789 19.75097656 C17.17575071 21.98950932 17.19015955 24.22815079 17.19555664 26.46679688 C17.20485837 29.68948989 17.24587802 32.91047701 17.29296875 36.1328125 C17.2890361 37.12991241 17.28510345 38.12701233 17.28105164 39.15432739 C17.3754834 43.67577171 17.49173391 46.99831908 20.35839844 50.63378906 C23.50447834 53.45188577 24.8936725 53.76202846 29.0625 53.625 C30.08472656 53.61726562 31.10695313 53.60953125 32.16015625 53.6015625 C35.67986504 52.85598457 36.81895704 51.827098 39 49 C41.60346899 44.17135387 41.3481102 39.23451856 41.4140625 33.88671875 C41.43342865 32.91716751 41.4527948 31.94761627 41.4727478 30.94868469 C41.53237436 27.86171172 41.5788614 24.77470112 41.625 21.6875 C41.66319534 19.59047882 41.70224798 17.49347306 41.7421875 15.39648438 C41.83806209 10.26444869 41.92215577 5.13233957 42 0 C47.28 0 52.56 0 58 0 C58.12408991 7.09832465 58.21457327 14.19601049 58.2746582 21.29516602 C58.29971982 23.70738736 58.33377837 26.11953338 58.37719727 28.53149414 C58.43821433 32.00946696 58.4662946 35.48643119 58.48828125 38.96484375 C58.51408768 40.03395493 58.5398941 41.1030661 58.56648254 42.20457458 C58.56942694 50.15998003 56.74848728 55.86619739 51.35346985 61.81578064 C44.88756584 68.09600976 37.35013268 70.23235486 28.5 70.5 C19.33629063 70.19546585 13.01423539 68.49799392 6.5625 61.8125 C0.10768581 54.54914958 -0.43656531 45.92741163 -0.29296875 36.62109375 C-0.28660149 35.04208031 -0.28660149 35.04208031 -0.28010559 33.4311676 C-0.26343768 30.09967458 -0.2258075 26.76880732 -0.1875 23.4375 C-0.17243781 21.16602442 -0.1587521 18.89453927 -0.14648438 16.62304688 C-0.11357309 11.08179356 -0.06187342 5.54100254 0 0 Z " fill="#DBAC75" transform="translate(336,747)"/>
<path d="M0 0 C2.47199508 1.92390568 4.82346864 3.92173549 7.15234375 6.015625 C8.08626953 6.81033203 8.08626953 6.81033203 9.0390625 7.62109375 C21.24094211 18.7261752 28.23287974 35.788788 29.15234375 52.015625 C29.22390791 73.32640961 22.62779339 90.9659666 7.96484375 106.703125 C-6.26694508 120.46546246 -25.3001333 126.7533544 -44.81787109 126.5534668 C-62.06145637 125.85745043 -77.97481244 117.59919894 -90.30859375 105.79296875 C-96.64341065 98.86365365 -102.33674707 90.75207343 -105.84765625 82.015625 C-106.21761719 81.19191406 -106.58757813 80.36820312 -106.96875 79.51953125 C-112.12324661 66.08930306 -112.41776372 47.45588656 -107.2265625 33.98046875 C-106.77152344 33.00207031 -106.31648437 32.02367187 -105.84765625 31.015625 C-105.58452637 30.42668457 -105.32139648 29.83774414 -105.05029297 29.23095703 C-97.08395055 11.69779028 -84.00973481 -1.03252319 -66.22265625 -8.73046875 C-43.64384942 -17.11912268 -19.65448126 -13.69612686 0 0 Z M-89.32421875 12.65234375 C-101.70502988 27.16563573 -107.57522892 43.69454645 -106.12255859 62.73388672 C-104.01354175 80.23910114 -94.8722594 97.03402868 -81.296875 108.2890625 C-64.29242778 120.27624858 -46.7840724 122.9119087 -26.2890625 120.6171875 C-10.45749101 117.30909794 3.50448217 106.9486659 13.02734375 94.140625 C23.14450226 78.53200149 26.41119809 61.82183809 23.6171875 43.5078125 C19.67206499 26.64942015 10.31023716 11.8714121 -4.22265625 2.265625 C-16.12606109 -4.89969272 -26.77630837 -8.38137068 -40.66015625 -8.296875 C-42.11591064 -8.28841553 -42.11591064 -8.28841553 -43.60107422 -8.27978516 C-61.87894572 -7.97050973 -76.79797437 -0.68395744 -89.32421875 12.65234375 Z " fill="#322B27" transform="translate(1091.84765625,95.984375)"/>
<path d="M0 0 C5.61 0 11.22 0 17 0 C17 18.81 17 37.62 17 57 C24.26 57 31.52 57 39 57 C39 61.29 39 65.58 39 70 C26.13 70 13.26 70 0 70 C0 46.9 0 23.8 0 0 Z " fill="#DAAB75" transform="translate(479,747)"/>
<path d="M0 0 C3.73647845 0.16245558 5.52538742 0.58783644 8.375 3.0625 C8.91125 3.701875 9.4475 4.34125 10 5 C11.32 3.35 12.64 1.7 14 0 C19.75 0.75 19.75 0.75 22 3 C21.88271462 9.09883958 20.02942919 11.76393342 16 16 C17.98 16.33 19.96 16.66 22 17 C22 17.66 22 18.32 22 19 C13.42 19 4.84 19 -4 19 C-3 16 -3 16 -0.0625 13.8125 C3.79698833 10.79525013 4.20073397 7.71566956 5 3 C2.52733235 3.34444881 2.52733235 3.34444881 0 4 C-0.33 4.66 -0.66 5.32 -1 6 C-1.66 6 -2.32 6 -3 6 C-2.42655063 3.13275314 -2.1385485 2.1385485 0 0 Z " fill="#482429" transform="translate(294,1590)"/>
<path d="M0 0 C2.91611944 1.84891489 5.42997066 3.85994132 7 7 C7.4136968 11.65408901 6.81070393 14.25239476 4 18 C0.33218328 20.44521115 -2.73453233 20.72237759 -7 20 C-9.93401712 17.74306375 -11.73237351 15.72432762 -12.30859375 12.01171875 C-12.64362493 5.97100508 -12.64362493 5.97100508 -10.87109375 3.296875 C-7.40704811 0.14938705 -4.5430607 -0.94647098 0 0 Z " fill="#382F29" transform="translate(1041,155)"/>
<path d="M0 0 C2.5 1.5 2.5 1.5 4 4 C4.76869372 7.8507895 4.75506889 11.29152616 3.15234375 14.91796875 C1.52209954 17.24452065 -0.17526341 18.770537 -2.9375 19.5390625 C-7.07035541 19.83650285 -8.63820486 19.29251522 -11.9375 16.625 C-14.90672736 12.84598336 -15.55686828 10.82619179 -15 6 C-11.00138865 -0.46044296 -7.29015034 -1.80092647 0 0 Z " fill="#3A302A" transform="translate(1086,156)"/>
<path d="M0 0 C3 1.375 3 1.375 5 4 C6.03363749 9.02415602 5.77798684 12.74518251 3.0625 17.125 C-1.04687669 19.64094491 -4.30058883 20.05210698 -9 19 C-11.99623584 16.80763231 -12.79512943 15.2193739 -13.40625 11.58203125 C-13.65927856 7.29952285 -13.64582209 4.84764149 -11 1.375 C-7.13243146 -0.39763558 -4.17818001 -0.7918325 0 0 Z " fill="#D3A772" transform="translate(1042,128)"/>
<path d="M0 0 C2.5 1.5 2.5 1.5 4 4 C4.7099846 8.9698922 4.79117716 10.84919686 1.9375 15 C-1.77807226 17.52975133 -3.5882483 17.7878128 -8 17 C-10.93602134 15.00100675 -12.62130844 13.55479057 -13.48046875 10.02734375 C-13.73368112 6.36602972 -13.28906589 4.36133237 -11 1.5 C-6.85314682 -0.57342659 -4.61882953 -0.58651804 0 0 Z " fill="#441F23" transform="translate(223,1560)"/>
<path d="M0 0 C9.17647059 0 9.17647059 0 14 4 C15.58939347 7.17878694 15.41576711 9.4956772 15 13 C12.5625 15.9375 12.5625 15.9375 9 18 C6.03 18 3.06 18 0 18 C0 12.06 0 6.12 0 0 Z " fill="#CEC5C6" transform="translate(93,1559)"/>
<path d="M0 0 C2 1 2 1 2.86962891 2.99365234 C3.15241699 3.84910645 3.43520508 4.70456055 3.7265625 5.5859375 C4.0359375 6.51664063 4.3453125 7.44734375 4.6640625 8.40625 C4.98117187 9.3859375 5.29828125 10.365625 5.625 11.375 C5.94984375 12.34695313 6.2746875 13.31890625 6.609375 14.3203125 C9 21.59263393 9 21.59263393 9 25 C3.39 25 -2.22 25 -8 25 C-6.2825872 16.26981826 -3.3181248 8.23605976 0 0 Z " fill="#492121" transform="translate(436,767)"/>
<path d="M0 0 C0.66 0 1.32 0 2 0 C3.17652472 3.4133521 4.33948174 6.83117595 5.5 10.25 C5.83386719 11.21808594 6.16773438 12.18617188 6.51171875 13.18359375 C6.98544922 14.58544922 6.98544922 14.58544922 7.46875 16.015625 C7.76201172 16.87446289 8.05527344 17.73330078 8.35742188 18.61816406 C9 21 9 21 9 25 C3.72 25 -1.56 25 -7 25 C-5.875 17.125 -5.875 17.125 -4.58984375 13.37890625 C-4.32236328 12.58935547 -4.05488281 11.79980469 -3.77929688 10.98632812 C-3.50150391 10.18646484 -3.22371094 9.38660156 -2.9375 8.5625 C-2.65583984 7.73556641 -2.37417969 6.90863281 -2.08398438 6.05664062 C-1.39482208 4.03587662 -0.6981769 2.01766718 0 0 Z " fill="#492121" transform="translate(218,767)"/>
<path d="M0 0 C0.76183594 -0.02578125 1.52367187 -0.0515625 2.30859375 -0.078125 C5.21974166 0.34568163 6.51773571 1.14105028 8.5625 3.25 C9.05859375 5.625 9.05859375 5.625 9 8.25 C8.99871094 9.11625 8.99742187 9.9825 8.99609375 10.875 C8.5625 13.25 8.5625 13.25 7.3828125 15.04296875 C4.85511667 16.7190589 3.00885703 16.61458408 0 16.5625 C-1.45599609 16.55669922 -1.45599609 16.55669922 -2.94140625 16.55078125 C-5.4375 16.25 -5.4375 16.25 -7.4375 14.25 C-7.76089354 11.21010077 -7.89420212 9.10631647 -6.4375 6.375 C-3.18436316 4.54511053 -0.12359891 5.06871645 3.5625 5.25 C3.2325 8.22 2.9025 11.19 2.5625 14.25 C3.5525 14.25 4.5425 14.25 5.5625 14.25 C5.64340971 12.62581255 5.70164995 11.00048255 5.75 9.375 C5.78480469 8.47007813 5.81960938 7.56515625 5.85546875 6.6328125 C5.71044922 5.45332031 5.71044922 5.45332031 5.5625 4.25 C2.04996854 1.90831236 0.69780644 1.75376323 -3.4375 2.25 C-6.13740662 4.04993774 -7.9793865 5.333773 -9.4375 8.25 C-9.67184712 10.1629402 -9.67184712 10.1629402 -9.6875 12.25 C-9.71328125 12.95125 -9.7390625 13.6525 -9.765625 14.375 C-9.65734375 14.99375 -9.5490625 15.6125 -9.4375 16.25 C-5.99299263 18.54633824 -3.49937717 18.79016485 0.5625 19.25 C0.5625 19.91 0.5625 20.57 0.5625 21.25 C-6.51714602 21.6039823 -6.51714602 21.6039823 -9.875 20.3125 C-12.40741855 16.96970751 -12.50991087 13.36293734 -12.4375 9.25 C-11.5225961 5.74286838 -10.27479855 3.51983884 -7.4375 1.25 C-4.69320004 0.33523335 -2.84716906 0.05761556 0 0 Z " fill="#DCD6D7" transform="translate(429.4375,1560.75)"/>
<path d="M0 0 C3.4375 0.875 3.4375 0.875 5.4375 3.875 C5.73828125 6.43359375 5.73828125 6.43359375 5.75 9.3125 C5.77513672 10.73369141 5.77513672 10.73369141 5.80078125 12.18359375 C5.38049911 15.29729688 4.63889631 16.6581372 2.4375 18.875 C-0.6428011 19.32421058 -2.5916145 19.52909422 -5.2265625 17.75390625 C-7.19636623 14.98350977 -6.96020085 12.73472626 -6.9375 9.375 C-6.94910156 7.65796875 -6.94910156 7.65796875 -6.9609375 5.90625 C-6.5625 2.875 -6.5625 2.875 -5.26171875 0.9609375 C-3.5625 -0.125 -3.5625 -0.125 0 0 Z " fill="#E4DFDF" transform="translate(288.5625,1558.125)"/>
<path d="M0 0 C10.47866595 -0.36983527 10.47866595 -0.36983527 12.828125 1.296875 C14.81834173 4.18932331 14.41568583 6.6151297 14 10 C12.3125 12.4375 12.3125 12.4375 10 14 C7.3125 14.3125 7.3125 14.3125 5 14 C4.67 13.67 4.34 13.34 4 13 C3.67 15.64 3.34 18.28 3 21 C2.01 21 1.02 21 0 21 C0 14.07 0 7.14 0 0 Z " fill="#EEEBEC" transform="translate(147,1595)"/>
<path d="M0 0 C2.375 1.75 2.375 1.75 4 4 C3.75 6.0625 3.75 6.0625 3 8 C2.85295708 10.94715645 2.85295708 10.94715645 3.75 13.4375 C4 16 4 16 2.375 18.3125 C0 20 0 20 -2.5625 20.4375 C-5 20 -5 20 -6.8125 18.875 C-8.5046408 16.20319873 -8.19409671 14.10554744 -8 11 C-7.96260503 8.08076276 -7.96260503 8.08076276 -8.1875 5.5 C-8 3 -8 3 -6.8125 1.1875 C-4.31014509 -0.4519739 -2.93962197 -0.50188668 0 0 Z " fill="#D3CBCC" transform="translate(245,1558)"/>
<path d="M0 0 C0 6.93 0 13.86 0 21 C-0.99 21 -1.98 21 -3 21 C-3 18.36 -3 15.72 -3 13 C-4.0725 13.2475 -5.145 13.495 -6.25 13.75 C-10 14 -10 14 -12.4375 12.5 C-14.5664946 9.09360864 -14.57349318 6.9427656 -14 3 C-10 0 -10 0 0 0 Z " fill="#C1B4B6" transform="translate(367,1563)"/>
<path d="M0 0 C2.2822441 2.28769099 2.95707828 3.68650315 3.3984375 6.91015625 C3.39070313 7.95042969 3.38296875 8.99070312 3.375 10.0625 C3.38273437 11.10535156 3.39046875 12.14820313 3.3984375 13.22265625 C3 16 3 16 1.67578125 17.859375 C-0.83485896 19.56824899 -3.0491688 19.19672208 -6 19 C-9.01759496 13.97067506 -9.46070653 10.71276096 -9 5 C-7.30344151 0.27387277 -4.92622402 -0.60075903 0 0 Z " fill="#4A272B" transform="translate(261,1558)"/>
<path d="M0 0 C0 4.62 0 9.24 0 14 C-1.32 13.67 -2.64 13.34 -4 13 C-4.33 13.33 -4.66 13.66 -5 14 C-8.4375 13.75 -8.4375 13.75 -12 13 C-14.46324069 9.30513897 -14.38991688 7.36706908 -14 3 C-10.72628003 -1.80072358 -5.18839068 -0.18311967 0 0 Z " fill="#D5CDCE" transform="translate(572,1563)"/>
<path d="M0 0 C1.4375 2.0625 1.4375 2.0625 2 4 C1.01 4.495 1.01 4.495 0 5 C-0.66 4.67 -1.32 4.34 -2 4 C-5 3.75 -5 3.75 -8 4 C-10.32483785 5.88375675 -10.32483785 5.88375675 -10.1875 9 C-10.20079609 11.92386603 -10.20079609 11.92386603 -9 14 C-6.11993606 14.92457659 -6.11993606 14.92457659 -3 15 C-1.10041919 13.68681738 -1.10041919 13.68681738 0 12 C-1.65 12 -3.3 12 -5 12 C-5 11.01 -5 10.02 -5 9 C-2.03 9 0.94 9 4 9 C3.69750921 12.32739873 3.28765829 14.5627594 1.4375 17.375 C-1.40168249 19.26778832 -3.62874104 19.62110115 -7.03125 19.46875 C-10.32138595 18.6853843 -11.94441778 16.55390519 -14 14 C-14.33 13.67 -14.66 13.34 -15 13 C-15.38144737 9.75769737 -15.65935301 7.1481398 -13.98828125 4.23828125 C-9.70423282 -1.07496801 -6.49671487 -1.53558715 0 0 Z " fill="#302926" transform="translate(1065,156)"/>
<path d="M0 0 C1.32 0 2.64 0 4 0 C4 4.62 4 9.24 4 14 C3.34 14 2.68 14 2 14 C2 13.34 2 12.68 2 12 C1.01 12.66 0.02 13.32 -1 14 C-4.25995538 14.5015316 -5.55815654 14.29854288 -8.3125 12.4375 C-10.63226055 9.08673477 -10.58004676 6.98782145 -10 3 C-7.09437793 -0.46439554 -4.3138567 -0.26961604 0 0 Z " fill="#DCD5D6" transform="translate(179,1595)"/>
<path d="M0 0 C2.3821875 0.0928125 2.3821875 0.0928125 4.8125 0.1875 C4.8125 4.8075 4.8125 9.4275 4.8125 14.1875 C3.4925 14.1875 2.1725 14.1875 0.8125 14.1875 C-0.198125 14.249375 -1.20875 14.31125 -2.25 14.375 C-5.1875 14.1875 -5.1875 14.1875 -7.0625 13.1875 C-8.82278603 10.05810262 -8.90664054 6.68449715 -8.1875 3.1875 C-5.89729217 -0.13218236 -3.87754895 -0.15107334 0 0 Z " fill="#F0EEEE" transform="translate(519.1875,1562.8125)"/>
<path d="M0 0 C1.588125 -0.061875 3.17625 -0.12375 4.8125 -0.1875 C6.15248047 -0.23970703 6.15248047 -0.23970703 7.51953125 -0.29296875 C10 0 10 0 11.80078125 1.359375 C13.51945589 3.71065627 13.4169534 5.15081845 13 8 C11.5 10.3125 11.5 10.3125 10 12 C10.7425 13.175625 10.7425 13.175625 11.5 14.375 C13 17 13 17 13 19 C12.34 19 11.68 19 11 19 C10.46375 17.865625 9.9275 16.73125 9.375 15.5625 C7.63257149 12.45370668 7.37723731 12.10881846 3.75 11.0625 C2.38875 11.0315625 2.38875 11.0315625 1 11 C1 13.64 1 16.28 1 19 C0.67 19 0.34 19 0 19 C0 12.73 0 6.46 0 0 Z " fill="#CBA06E" transform="translate(1073,128)"/>
<path d="M0 0 C15.11111111 0 15.11111111 0 21 1 C22 2 22 2 22.09765625 4.72265625 C22.08605469 5.82480469 22.07445312 6.92695312 22.0625 8.0625 C22.05347656 9.16722656 22.04445313 10.27195312 22.03515625 11.41015625 C22.02355469 12.26480469 22.01195312 13.11945313 22 14 C21.34 14 20.68 14 20 14 C19.505 9.05 19.505 9.05 19 4 C16.525 3.505 16.525 3.505 14 3 C13.67 6.63 13.34 10.26 13 14 C12.01 14 11.02 14 10 14 C10 10.37 10 6.74 10 3 C8.02 3 6.04 3 4 3 C3.67 6.63 3.34 10.26 3 14 C2.01 14 1.02 14 0 14 C0 9.38 0 4.76 0 0 Z " fill="#DED7D8" transform="translate(533,1563)"/>
<path d="M0 0 C3.96 0 7.92 0 12 0 C12 0.99 12 1.98 12 3 C9.03 3 6.06 3 3 3 C3 4.32 3 5.64 3 7 C3.9075 6.773125 4.815 6.54625 5.75 6.3125 C9 6 9 6 11.375 7.0625 C13 9 13 9 13.5 11.9375 C13 15 13 15 11.4375 17.4375 C9 19 9 19 5.25 18.75 C4.1775 18.5025 3.105 18.255 2 18 C1.67 16.68 1.34 15.36 1 14 C1.66 14 2.32 14 3 14 C3.33 14.66 3.66 15.32 4 16 C5.65 15.67 7.3 15.34 9 15 C9 13.35 9 11.7 9 10 C5.65976579 9.90721572 3.31243305 10.17189174 0 11 C0 7.37 0 3.74 0 0 Z " fill="#AE9EA0" transform="translate(341,1590)"/>
<path d="M0 0 C2.9026701 0 5.35753369 0.14304908 8.1875 0.5625 C9.445625 0.706875 10.70375 0.85125 12 1 C12.33 0.67 12.66 0.34 13 0 C18.32770051 -0.4632783 18.32770051 -0.4632783 20.68359375 1.16015625 C22.52272301 3.73057132 22.29773326 5.56422438 22.1875 8.6875 C22.16042969 9.68136719 22.13335937 10.67523437 22.10546875 11.69921875 C22.07066406 12.45847656 22.03585938 13.21773437 22 14 C21.01 14 20.02 14 19 14 C18.67 10.37 18.34 6.74 18 3 C16.35 3.33 14.7 3.66 13 4 C12.67 7.3 12.34 10.6 12 14 C11.34 14 10.68 14 10 14 C9.67 10.7 9.34 7.4 9 4 C7.34385343 3.61781233 5.67542976 3.28604898 4 3 C2.33657163 4.66342837 2.63951903 6.7825709 2.4375 9.0625 C2.31181641 10.44115234 2.31181641 10.44115234 2.18359375 11.84765625 C2.12300781 12.55792969 2.06242187 13.26820312 2 14 C1.34 14 0.68 14 0 14 C0 9.38 0 4.76 0 0 Z " fill="#DBD3D4" transform="translate(122,1595)"/>
<path d="M0 0 C2.375 1.75 2.375 1.75 4 4 C4 5.32 4 6.64 4 8 C0.37 8 -3.26 8 -7 8 C-6.01 9.485 -6.01 9.485 -5 11 C-2.36 10.67 0.28 10.34 3 10 C1.875 12 1.875 12 0 14 C-2.9375 14.5625 -2.9375 14.5625 -6 14 C-8.4375 11.875 -8.4375 11.875 -10 9 C-9.93572343 5.78617168 -9.53112958 3.83862565 -7.8125 1.125 C-5.05655076 -0.58558918 -3.17374516 -0.45339217 0 0 Z " fill="#E7E2E3" transform="translate(493,1563)"/>
<path d="M0 0 C1.9375 1.1875 1.9375 1.1875 3 3 C3 4.65 3 6.3 3 8 C-0.3 8 -3.6 8 -7 8 C-6.67 8.99 -6.34 9.98 -6 11 C-3.36 10.67 -0.72 10.34 2 10 C1.67 10.99 1.34 11.98 1 13 C-5.27272727 14.44755245 -5.27272727 14.44755245 -8.4375 12.5 C-10.55253414 9.11594538 -10.49891602 6.92005446 -10 3 C-7.77766882 -1.05248626 -4.20052866 -0.45005664 0 0 Z " fill="#E7E2E2" transform="translate(411,1563)"/>
<path d="M0 0 C3.5 0.5 3.5 0.5 5.4375 2.25 C6.5 4.5 6.5 4.5 6.5 8.5 C3.2 8.5 -0.1 8.5 -3.5 8.5 C-3.5 9.49 -3.5 10.48 -3.5 11.5 C0.955 11.005 0.955 11.005 5.5 10.5 C5.17 11.49 4.84 12.48 4.5 13.5 C1.25 14.25 1.25 14.25 -2.5 14.5 C-4.9375 12.9375 -4.9375 12.9375 -6.5 10.5 C-6.98746608 7.15737548 -6.81565201 5.20557508 -5.4375 2.125 C-3.5 0.5 -3.5 0.5 0 0 Z " fill="#E5E0E0" transform="translate(161.5,1562.5)"/>
<path d="M0 0 C2.375 1.75 2.375 1.75 4 4 C4 5.32 4 6.64 4 8 C0.37 8 -3.26 8 -7 8 C-6.01 9.485 -6.01 9.485 -5 11 C-2.36 10.67 0.28 10.34 3 10 C1.875 12 1.875 12 0 14 C-3.12242157 14.45535315 -5.06836961 14.49686954 -7.875 13 C-9.68523932 9.78179676 -9.53967465 6.59783102 -9 3 C-6.89524812 -0.74178112 -4.00297686 -0.57185384 0 0 Z " fill="#EBE7E8" transform="translate(462,1563)"/>
<path d="M0 0 C3.0625 0.3125 3.0625 0.3125 4.9375 1.4375 C6.59104531 4.19340884 6.45615568 6.16325452 6.0625 9.3125 C4.9375 11.1875 4.9375 11.1875 3.0625 12.3125 C0.0625 12.75 0.0625 12.75 -2.9375 12.3125 C-4.875 10.6875 -4.875 10.6875 -5.9375 8.3125 C-5.64908355 3.50555913 -5.26034464 0.55961113 0 0 Z " fill="#D6A973" transform="translate(1037.9375,158.6875)"/>
<path d="M0 0 C3.63 0 7.26 0 11 0 C11 0.99 11 1.98 11 3 C8.36 3 5.72 3 3 3 C3.33 3.99 3.66 4.98 4 6 C4.94875 6.12375 5.8975 6.2475 6.875 6.375 C10 7 10 7 12 9 C12.55021834 15.05240175 12.55021834 15.05240175 10.875 17.9375 C8.11019567 19.50422245 6.11811483 19.38976435 3 19 C1.125 17.625 1.125 17.625 0 16 C0 15.34 0 14.68 0 14 C0.556875 14.350625 1.11375 14.70125 1.6875 15.0625 C4.53886783 16.21845993 6.08517222 15.80967438 9 15 C9 13.35 9 11.7 9 10 C6.03 9.505 6.03 9.505 3 9 C3 9.66 3 10.32 3 11 C2.01 11 1.02 11 0 11 C0 7.37 0 3.74 0 0 Z " fill="#C6BBBC" transform="translate(326,1590)"/>
<path d="M0 0 C2 2 2 2 2.265625 3.875 C2.26046875 4.57625 2.2553125 5.2775 2.25 6 C2.25515625 6.70125 2.2603125 7.4025 2.265625 8.125 C2 10 2 10 0 12 C-3.5 12.3125 -3.5 12.3125 -7 12 C-9.31282587 8.53076119 -9.42478586 7.07794425 -9 3 C-6.78679539 -0.68867435 -4.02162985 -0.42783296 0 0 Z " fill="#D7A973" transform="translate(1084,159)"/>
<path d="M0 0 C1.32 0 2.64 0 4 0 C4 5.28 4 10.56 4 16 C6.97 16 9.94 16 13 16 C13 17.32 13 18.64 13 20 C8.71 20 4.42 20 0 20 C0 13.4 0 6.8 0 0 Z " fill="#483B31" transform="translate(1014,155)"/>
<path d="M0 0 C3.5 0.4375 3.5 0.4375 5.4375 1.6875 C6.5 3.4375 6.5 3.4375 6.5 7.4375 C3.2 7.4375 -0.1 7.4375 -3.5 7.4375 C-2.84 8.7575 -2.18 10.0775 -1.5 11.4375 C-0.18 11.4375 1.14 11.4375 2.5 11.4375 C2.83 10.7775 3.16 10.1175 3.5 9.4375 C4.49 9.4375 5.48 9.4375 6.5 9.4375 C5.9375 11.375 5.9375 11.375 4.5 13.4375 C1.125 14.4375 1.125 14.4375 -2.5 14.4375 C-4.9375 12.875 -4.9375 12.875 -6.5 10.4375 C-6.98746608 7.09487548 -6.81565201 5.14307508 -5.4375 2.0625 C-3.5 0.4375 -3.5 0.4375 0 0 Z " fill="#DFD9DA" transform="translate(201.5,1594.5625)"/>
<path d="M0 0 C3.63 0 7.26 0 11 0 C11 0.99 11 1.98 11 3 C8.36 3 5.72 3 3 3 C3.33 3.99 3.66 4.98 4 6 C4.94875 6.12375 5.8975 6.2475 6.875 6.375 C10 7 10 7 12 9 C12.375 12.4375 12.375 12.4375 12 16 C9.89172636 18.42061048 8.59654522 18.9127007 5.4375 19.375 C3 19 3 19 1.1875 17.625 C0 16 0 16 0 14 C0.556875 14.350625 1.11375 14.70125 1.6875 15.0625 C4.53886783 16.21845993 6.08517222 15.80967438 9 15 C9 13.35 9 11.7 9 10 C5.65747276 9.92572162 3.1964086 9.93453047 0 11 C0 7.37 0 3.74 0 0 Z " fill="#DBD4D5" transform="translate(357,1590)"/>
<path d="M0 0 C0.99 0.66 1.98 1.32 3 2 C3 3.65 3 5.3 3 7 C-0.3 7 -3.6 7 -7 7 C-6.34 8.32 -5.68 9.64 -5 11 C-2.23723823 10.47731534 0.3260876 9.89130413 3 9 C1.125 12.875 1.125 12.875 0 14 C-2.8125 14.375 -2.8125 14.375 -6 14 C-8.4375 11.9375 -8.4375 11.9375 -10 9 C-9.9375 5.3125 -9.9375 5.3125 -9 2 C-5.53001271 -0.31332486 -4.07490752 -0.33957563 0 0 Z " fill="#E5E0E0" transform="translate(241,1595)"/>
<path d="M0 0 C1.875 1.25 1.875 1.25 3 3 C3 4.32 3 5.64 3 7 C-0.63 7 -4.26 7 -8 7 C-7.67 8.32 -7.34 9.64 -7 11 C-3.65747276 11.07427838 -1.1964086 11.06546953 2 10 C1.34 11.32 0.68 12.64 0 14 C-3.49644963 14.31785906 -5.397402 14.39644605 -8.375 12.4375 C-10.61372366 9.07941451 -10.57491549 6.95254396 -10 3 C-7.15121935 -0.39662308 -4.26361577 -0.54429137 0 0 Z " fill="#D6CED0" transform="translate(120,1563)"/>
<path d="M0 0 C1.9375 1.25 1.9375 1.25 3 3 C3 4.32 3 5.64 3 7 C-0.63 7 -4.26 7 -8 7 C-7.67 7.99 -7.34 8.98 -7 10 C-2.46859347 10.93380961 -2.46859347 10.93380961 2 10 C1.67 10.99 1.34 11.98 1 13 C-5.27272727 14.44755245 -5.27272727 14.44755245 -8.4375 12.5 C-10.55253414 9.11594538 -10.49891602 6.92005446 -10 3 C-7.77766882 -1.05248626 -4.20052866 -0.45005664 0 0 Z " fill="#DDD7D8" transform="translate(116,1595)"/>
<path d="M0 0 C2.5 1.5 2.5 1.5 4 4 C4.7099846 8.9698922 4.79117716 10.84919686 1.9375 15 C-1.77807226 17.52975133 -3.5882483 17.7878128 -8 17 C-10.93602134 15.00100675 -12.62130844 13.55479057 -13.48046875 10.02734375 C-13.73368112 6.36602972 -13.28906589 4.36133237 -11 1.5 C-6.85314682 -0.57342659 -4.61882953 -0.58651804 0 0 Z M-10 4 C-10.49676908 9.22930121 -10.49676908 9.22930121 -8.9375 14.0625 C-5.76026699 15.59987081 -3.32611047 14.8466463 0 14 C2.31282587 10.53076119 2.42478586 9.07794425 2 5 C1.06402685 2.98048938 1.06402685 2.98048938 -1 2 C-6.03541882 1.37014553 -6.03541882 1.37014553 -10 4 Z " fill="#DFD8D9" transform="translate(223,1560)"/>
<path d="M0 0 C3.375 -0.125 3.375 -0.125 7 0 C9 2 9 2 9.375 5.9375 C9.29486433 8.88115036 9.26281734 9.68851278 7.3125 12 C5 13 5 13 0 13 C0 8.71 0 4.42 0 0 Z " fill="#3E181C" transform="translate(96,1562)"/>
<path d="M0 0 C-0.33 3.3 -0.66 6.6 -1 10 C-7.0546875 10.9765625 -7.0546875 10.9765625 -9 11 C-11 9 -11 9 -11.3125 6.0625 C-11 3 -11 3 -10 1.125 C-6.74686316 -0.70488947 -3.68609891 -0.18128355 0 0 Z " fill="#DCD5D6" transform="translate(433,1566)"/>
<path d="M0 0 C2.375 -0.125 2.375 -0.125 5 0 C7 2 7 2 7.265625 4.05859375 C7.26046875 4.84363281 7.2553125 5.62867188 7.25 6.4375 C7.25515625 7.21996094 7.2603125 8.00242187 7.265625 8.80859375 C7 11 7 11 5 14 C2.5625 13.625 2.5625 13.625 0 13 C-1.18306728 10.63386544 -1.13354608 9.13219264 -1.125 6.5 C-1.12757813 5.7059375 -1.13015625 4.911875 -1.1328125 4.09375 C-1 2 -1 2 0 0 Z " fill="#462126" transform="translate(285,1561)"/>
<path d="M0 0 C0.99 0 1.98 0 3 0 C3.33 3.3 3.66 6.6 4 10 C5.32 10.33 6.64 10.66 8 11 C9.66342837 9.33657163 9.36048097 7.2174291 9.5625 4.9375 C9.64628906 4.01839844 9.73007812 3.09929687 9.81640625 2.15234375 C9.87699219 1.44207031 9.93757813 0.73179688 10 0 C10.99 0 11.98 0 13 0 C13 4.62 13 9.24 13 14 C5.48046875 14.390625 5.48046875 14.390625 3 14 C0.69255364 11.85168787 0.0632743 10.55681386 -0.29296875 7.421875 C-0.25816406 6.54015625 -0.22335937 5.6584375 -0.1875 4.75 C-0.16042969 3.85796875 -0.13335937 2.9659375 -0.10546875 2.046875 C-0.07066406 1.37140625 -0.03585937 0.6959375 0 0 Z " fill="#D1C8C9" transform="translate(370,1563)"/>
<path d="M0 0 C1.588125 -0.061875 3.17625 -0.12375 4.8125 -0.1875 C6.15248047 -0.23970703 6.15248047 -0.23970703 7.51953125 -0.29296875 C10 0 10 0 11.8125 1.15625 C13.47611355 3.73922894 13.29488288 5.64498508 13.1875 8.6875 C13.16042969 9.68136719 13.13335937 10.67523437 13.10546875 11.69921875 C13.07066406 12.45847656 13.03585938 13.21773437 13 14 C12.01 14 11.02 14 10 14 C10 10.37 10 6.74 10 3 C8.02 3 6.04 3 4 3 C3.67 6.63 3.34 10.26 3 14 C2.01 14 1.02 14 0 14 C0 9.38 0 4.76 0 0 Z " fill="#D0C6C7" transform="translate(216,1595)"/>
<path d="M0 0 C2.2822441 2.28769099 2.95707828 3.68650315 3.3984375 6.91015625 C3.39070313 7.95042969 3.38296875 8.99070312 3.375 10.0625 C3.38273437 11.10535156 3.39046875 12.14820313 3.3984375 13.22265625 C3 16 3 16 1.67578125 17.859375 C-0.83485896 19.56824899 -3.0491688 19.19672208 -6 19 C-9.01759496 13.97067506 -9.46070653 10.71276096 -9 5 C-7.30344151 0.27387277 -4.92622402 -0.60075903 0 0 Z M-7 5 C-7.31863689 7.10589077 -7.31863689 7.10589077 -7.25 9.4375 C-7.25515625 10.21996094 -7.2603125 11.00242187 -7.265625 11.80859375 C-7.13176831 14.29044107 -7.13176831 14.29044107 -5 17 C-1.70924004 16.62095792 -1.70924004 16.62095792 1 15 C1.09851171 13.16884117 1.12972629 11.33380067 1.125 9.5 C1.12757813 8.4996875 1.13015625 7.499375 1.1328125 6.46875 C1.27870382 4.05600378 1.27870382 4.05600378 0 3 C-3.961168 2.60909667 -3.961168 2.60909667 -7 5 Z " fill="#E4DFDF" transform="translate(261,1558)"/>
<path d="M0 0 C2.4375 0.75 2.4375 0.75 4.4375 2.75 C4.9375 5.4375 4.9375 5.4375 4.4375 8.75 C2.66733136 11.3177737 0.63348621 13.54094244 -1.5625 15.75 C0.7475 16.08 3.0575 16.41 5.4375 16.75 C5.4375 17.41 5.4375 18.07 5.4375 18.75 C1.4775 18.75 -2.4825 18.75 -6.5625 18.75 C-4.84262609 15.31025217 -4.12660837 14.15735054 -1.4375 11.8125 C1.12513097 9.38297268 1.12513097 9.38297268 1.8125 5.875 C1.68875 5.17375 1.565 4.4725 1.4375 3.75 C-0.2125 3.75 -1.8625 3.75 -3.5625 3.75 C-3.8925 4.74 -4.2225 5.73 -4.5625 6.75 C-5.2225 6.75 -5.8825 6.75 -6.5625 6.75 C-6.25 4.375 -6.25 4.375 -5.5625 1.75 C-2.5625 -0.25 -2.5625 -0.25 0 0 Z " fill="#E4DFDF" transform="translate(303.5625,1558.25)"/>
<path d="M0 0 C5.45454545 0.45454545 5.45454545 0.45454545 8 3 C7.80069497 8.28158342 6.67791474 11.2106333 3 15 C2.01 15.495 2.01 15.495 1 16 C3.31 16.33 5.62 16.66 8 17 C8 17.66 8 18.32 8 19 C4.04 19 0.08 19 -4 19 C-3 16 -3 16 -0.0625 13.8125 C3.79698833 10.79525013 4.20073397 7.71566956 5 3 C2.52733235 3.34444881 2.52733235 3.34444881 0 4 C-0.33 4.66 -0.66 5.32 -1 6 C-1.66 6 -2.32 6 -3 6 C-2.42655063 3.13275314 -2.1385485 2.1385485 0 0 Z " fill="#E7E2E3" transform="translate(294,1590)"/>
<path d="M0 0 C5.56818182 0.56818182 5.56818182 0.56818182 7 2 C7.69558168 8.8398865 7.69558168 8.8398865 5.8828125 11.86328125 C4.66230891 13.30788861 3.33725828 14.66274172 2 16 C3.98 16.33 5.96 16.66 8 17 C8 17.66 8 18.32 8 19 C4.04 19 0.08 19 -4 19 C-2.04034872 15.08069743 -0.13572386 12.97491751 3 10 C4.29633621 8.93354885 4.29633621 8.93354885 4.0625 6.4375 C4.041875 5.633125 4.02125 4.82875 4 4 C2.68 4 1.36 4 0 4 C-0.33 4.66 -0.66 5.32 -1 6 C-1.66 6 -2.32 6 -3 6 C-2.42655063 3.13275314 -2.1385485 2.1385485 0 0 Z " fill="#E5E0E0" transform="translate(271,1558)"/>
<path d="M0 0 C1 1 1 1 1.4375 4.125 C0.85855767 9.25277491 -1.41149325 11.4862538 -5 15 C-2.69 15.33 -0.38 15.66 2 16 C2 16.66 2 17.32 2 18 C-1.96 18 -5.92 18 -10 18 C-8 14 -8 14 -5.5 11.6875 C-2.45074319 8.40954893 -1.92873731 6.30596389 -1 2 C-3.47266765 2.34444881 -3.47266765 2.34444881 -6 3 C-6.33 3.66 -6.66 4.32 -7 5 C-7.66 5 -8.32 5 -9 5 C-8.625 2.5625 -8.625 2.5625 -8 0 C-5.11795733 -1.44102133 -3.08226581 -0.65580124 0 0 Z " fill="#E4DEDF" transform="translate(286,1591)"/>
<path d="M0 0 C5.45454545 0.45454545 5.45454545 0.45454545 8 3 C7.88271462 9.09883958 6.02942919 11.76393342 2 16 C3.98 16.33 5.96 16.66 8 17 C8 17.66 8 18.32 8 19 C4.37 19 0.74 19 -3 19 C-3 18.01 -3 17.02 -3 16 C-1.53311963 14.72445185 -0.06023134 13.45118883 1.4921875 12.28125 C3.27499979 10.88527155 3.27499979 10.88527155 5 8 C5 6.68 5 5.36 5 4 C3.35 4 1.7 4 0 4 C-0.33 4.66 -0.66 5.32 -1 6 C-1.66 6 -2.32 6 -3 6 C-2.42655063 3.13275314 -2.1385485 2.1385485 0 0 Z " fill="#DCD5D6" transform="translate(308,1590)"/>
<path d="M0 0 C2 1.375 2 1.375 3 3 C3 3.66 3 4.32 3 5 C2.484375 4.67 1.96875 4.34 1.4375 4 C-1.80521778 2.66965425 -4.52984772 2.80357629 -8 3 C-9.23267348 4.00836062 -9.23267348 4.00836062 -9.09765625 6.06640625 C-9.08605469 6.89011719 -9.07445312 7.71382812 -9.0625 8.5625 C-9.05347656 9.38878906 -9.04445312 10.21507812 -9.03515625 11.06640625 C-9.02355469 11.70449219 -9.01195312 12.34257813 -9 13 C-6.2201184 14.3899408 -4.0813674 14.18488204 -1 14 C1.30230766 13.10168984 1.30230766 13.10168984 3 12 C2 15 2 15 -1 17 C-4.375 17.5 -4.375 17.5 -8 17 C-11.22341676 14.11949992 -12.75697586 12.19081827 -13.625 7.9375 C-11.9847418 0.22828645 -6.88366943 -0.88821541 0 0 Z " fill="#E7E2E3" transform="translate(204,1560)"/>
<path d="M0 0 C1.60875 -0.04125 3.2175 -0.0825 4.875 -0.125 C5.77992188 -0.14820313 6.68484375 -0.17140625 7.6171875 -0.1953125 C10 0 10 0 12 2 C12.1953125 4.8203125 12.1953125 4.8203125 12.125 8.125 C12.10695313 9.22070312 12.08890625 10.31640625 12.0703125 11.4453125 C12.04710937 12.28835938 12.02390625 13.13140625 12 14 C11.34 14 10.68 14 10 14 C9.67 10.7 9.34 7.4 9 4 C7.35 3.67 5.7 3.34 4 3 C3.67 6.63 3.34 10.26 3 14 C2.01 14 1.02 14 0 14 C0 9.38 0 4.76 0 0 Z " fill="#E1DBDC" transform="translate(338,1563)"/>
<path d="M0 0 C2.375 1 2.375 1 4 3 C4.50343003 6.46728571 4.59702542 9.80594916 3 13 C2.01 13 1.02 13 0 13 C0.33 10.03 0.66 7.06 1 4 C-5.28908482 4.52480001 -5.28908482 4.52480001 -11 7 C-11 4 -11 4 -8.875 1.8125 C-5.50708956 -0.31074789 -3.9088785 -0.58217339 0 0 Z " fill="#512E32" transform="translate(432,1562)"/>
<path d="M0 0 C1.423125 -0.061875 2.84625 -0.12375 4.3125 -0.1875 C5.51326172 -0.23970703 5.51326172 -0.23970703 6.73828125 -0.29296875 C9 0 9 0 10.78125 1.15625 C12.48719934 3.73704515 12.29557492 5.62537733 12.1875 8.6875 C12.16042969 9.68136719 12.13335937 10.67523437 12.10546875 11.69921875 C12.07066406 12.45847656 12.03585937 13.21773437 12 14 C11.01 14 10.02 14 9 14 C8.67 10.37 8.34 6.74 8 3 C6.35 3 4.7 3 3 3 C2.67 6.63 2.34 10.26 2 14 C1.34 14 0.68 14 0 14 C0 9.38 0 4.76 0 0 Z " fill="#DDD7D7" transform="translate(469,1563)"/>
<path d="M0 0 C3 1.375 3 1.375 5 4 C6.03363749 9.02415602 5.77798684 12.74518251 3.0625 17.125 C-1.04687669 19.64094491 -4.30058883 20.05210698 -9 19 C-11.99623584 16.80763231 -12.79512943 15.2193739 -13.40625 11.58203125 C-13.65927856 7.29952285 -13.64582209 4.84764149 -11 1.375 C-7.13243146 -0.39763558 -4.17818001 -0.7918325 0 0 Z M-12 6 C-12.83333333 9.5 -12.83333333 9.5 -12 13 C-9.55401113 16.38121991 -8.10703441 17.76936783 -4 18.625 C0.10703441 17.76936783 1.55401113 16.38121991 4 13 C4.83333333 9.5 4.83333333 9.5 4 6 C1.55401113 2.61878009 0.10703441 1.23063217 -4 0.375 C-8.10703441 1.23063217 -9.55401113 2.61878009 -12 6 Z " fill="#4A3D32" transform="translate(1042,128)"/>
<path d="M0 0 C3.96 0 7.92 0 12 0 C10.80767745 6.2596934 9.42898129 12.53315438 6 18 C5.01 18.33 4.02 18.66 3 19 C4.74807129 13.53262809 6.65794081 8.24175152 9 3 C6.03 3 3.06 3 0 3 C0 2.01 0 1.02 0 0 Z " fill="#CDC4C5" transform="translate(391,1590)"/>
<path d="M0 0 C3.96 0 7.92 0 12 0 C11.41347648 4.48993869 10.2356462 8.22543184 8.4375 12.375 C7.98246094 13.43460938 7.52742188 14.49421875 7.05859375 15.5859375 C6.70925781 16.38257813 6.35992187 17.17921875 6 18 C5.01 18 4.02 18 3 18 C4.98 13.05 6.96 8.1 9 3 C6.03 3 3.06 3 0 3 C0 2.01 0 1.02 0 0 Z " fill="#CDC4C5" transform="translate(418,1590)"/>
<path d="M0 0 C5.56818182 0.56818182 5.56818182 0.56818182 7 2 C7.2982732 4.83359542 7.35602594 6.43785378 5.8125 8.875 C4 10 4 10 1.375 9.75 C-1 9 -1 9 -2 8 C-2.1875 5.0625 -2.1875 5.0625 -2 2 C-1.34 1.34 -0.68 0.68 0 0 Z " fill="#492529" transform="translate(174,1597)"/>
<path d="M0 0 C3.96 0 7.92 0 12 0 C11.10656817 4.46715914 9.76463639 8.19614401 7.9375 12.3125 C7.65583984 12.95767578 7.37417969 13.60285156 7.08398438 14.26757812 C6.3937257 15.84698358 5.69746802 17.42376493 5 19 C4.34 19 3.68 19 3 19 C3.56825653 13.45949887 5.62886517 8.96284034 8 4 C5.36 3.67 2.72 3.34 0 3 C0 2.01 0 1.02 0 0 Z " fill="#CEC5C6" transform="translate(405,1590)"/>
<path d="M0 0 C2.5625 0.1875 2.5625 0.1875 4.5625 2.1875 C4.8125 5.1875 4.8125 5.1875 4.5625 8.1875 C3.9025 8.8475 3.2425 9.5075 2.5625 10.1875 C-0.73464793 9.85778521 -2.0601839 9.5648161 -4.4375 7.1875 C-3.73338608 0.28718354 -3.73338608 0.28718354 0 0 Z " fill="#492529" transform="translate(564.4375,1564.8125)"/>
<path d="M0 0 C5.56818182 0.56818182 5.56818182 0.56818182 7 2 C7.25 4.9375 7.25 4.9375 7 8 C4 10 4 10 1.3125 9.625 C0.549375 9.41875 -0.21375 9.2125 -1 9 C-1.625 5.625 -1.625 5.625 -2 2 C-1.34 1.34 -0.68 0.68 0 0 Z " fill="#49252A" transform="translate(515,1565)"/>
<path d="M0 0 C1.32 0 2.64 0 4 0 C5.546875 -0.061875 5.546875 -0.061875 7.125 -0.125 C10 0 10 0 12 2 C12.1953125 4.8203125 12.1953125 4.8203125 12.125 8.125 C12.10695312 9.22070312 12.08890625 10.31640625 12.0703125 11.4453125 C12.04710937 12.28835938 12.02390625 13.13140625 12 14 C11.34 14 10.68 14 10 14 C9.67 10.7 9.34 7.4 9 4 C7.35 3.67 5.7 3.34 4 3 C2.85185003 5.29629994 2.69230191 7.07698086 2.4375 9.625 C2.35371094 10.44226562 2.26992187 11.25953125 2.18359375 12.1015625 C2.12300781 12.72804688 2.06242188 13.35453125 2 14 C1.34 14 0.68 14 0 14 C0 9.38 0 4.76 0 0 Z " fill="#E4DEDF" transform="translate(126,1563)"/>
<path d="M0 0 C1.588125 -0.061875 3.17625 -0.12375 4.8125 -0.1875 C6.15248047 -0.23970703 6.15248047 -0.23970703 7.51953125 -0.29296875 C10 0 10 0 11.80078125 1.359375 C13.51945589 3.71065627 13.4169534 5.15081845 13 8 C11.5 10.3125 11.5 10.3125 10 12 C10.7425 13.175625 10.7425 13.175625 11.5 14.375 C13 17 13 17 13 19 C12.34 19 11.68 19 11 19 C10.46375 17.865625 9.9275 16.73125 9.375 15.5625 C7.63257149 12.45370668 7.37723731 12.10881846 3.75 11.0625 C2.38875 11.0315625 2.38875 11.0315625 1 11 C1 13.64 1 16.28 1 19 C0.67 19 0.34 19 0 19 C0 12.73 0 6.46 0 0 Z M1 1 C1 3.97 1 6.94 1 10 C5.0100934 10.17864631 5.0100934 10.17864631 9 10 C9.66 9.34 10.32 8.68 11 8 C10.83557723 4.93008319 10.83557723 4.93008319 10 2 C7.04335481 0.5216774 4.25770263 0.93967217 1 1 Z " fill="#42372E" transform="translate(1073,128)"/>
<path d="M0 0 C1.4375 2.0625 1.4375 2.0625 2 4 C1.01 4.495 1.01 4.495 0 5 C-0.66 4.67 -1.32 4.34 -2 4 C-5 3.75 -5 3.75 -8 4 C-10.35953094 6.35953094 -10.49141413 7.77895617 -11 11 C-11.66 9.68 -12.32 8.36 -13 7 C-13.33 8.98 -13.66 10.96 -14 13 C-14.33 13 -14.66 13 -15 13 C-15.42968661 8.70313391 -15.41369759 5.98785452 -12.6875 2.625 C-8.46657441 -1.49776453 -5.59124481 -1.32156696 0 0 Z " fill="#3B312B" transform="translate(1065,156)"/>
<path d="M0 0 C3.96 0 7.92 0 12 0 C11.1666311 4.1668445 10.14907016 7.32848408 8.5 11.1875 C8.0565625 12.23292969 7.613125 13.27835938 7.15625 14.35546875 C6.47246222 15.91940229 5.76334184 17.47331631 5 19 C4.34 19 3.68 19 3 19 C3.75970078 15.64132288 4.87093255 12.47876342 6.0625 9.25 C6.42472656 8.26515625 6.78695313 7.2803125 7.16015625 6.265625 C7.43730469 5.51796875 7.71445312 4.7703125 8 4 C5.36 3.67 2.72 3.34 0 3 C0 2.01 0 1.02 0 0 Z " fill="#D0C7C8" transform="translate(378,1590)"/>
<path d="M0 0 C2.375 1.75 2.375 1.75 4 4 C3.75 6.0625 3.75 6.0625 3 8 C2.89279635 10.94887974 2.89279635 10.94887974 3.5625 13.5625 C4 16 4 16 3 18 C2.01 17.67 1.02 17.34 0 17 C0.33 15.35 0.66 13.7 1 12 C-0.98 11.34 -2.96 10.68 -5 10 C-5 9.67 -5 9.34 -5 9 C-3.35 8.67 -1.7 8.34 0 8 C0.33 6.35 0.66 4.7 1 3 C-0.98 3.33 -2.96 3.66 -5 4 C-5.33 5.32 -5.66 6.64 -6 8 C-6.66 8 -7.32 8 -8 8 C-8.36075949 3.55063291 -8.36075949 3.55063291 -6.8125 1.1875 C-4.31014509 -0.4519739 -2.93962197 -0.50188668 0 0 Z " fill="#DFD9D9" transform="translate(245,1558)"/>
<path d="M0 0 C2.5625 0.1875 2.5625 0.1875 4.5625 2.1875 C4.8125 5.1875 4.8125 5.1875 4.5625 8.1875 C3.9025 8.8475 3.2425 9.5075 2.5625 10.1875 C-1.99305556 9.63194444 -1.99305556 9.63194444 -3.4375 8.1875 C-3.5625 4.6875 -3.5625 4.6875 -3.4375 1.1875 C-2.4375 0.1875 -2.4375 0.1875 0 0 Z " fill="#452025" transform="translate(359.4375,1564.8125)"/>
<path d="M0 0 C3.125 0.375 3.125 0.375 6 1 C6.125 4.375 6.125 4.375 6 8 C5.34 8.66 4.68 9.32 4 10 C-0.55555556 9.44444444 -0.55555556 9.44444444 -2 8 C-2.1875 5.0625 -2.1875 5.0625 -2 2 C-1.34 1.34 -0.68 0.68 0 0 Z " fill="#462226" transform="translate(152,1597)"/>
<path d="M0 0 C0.66 0 1.32 0 2 0 C2.19335938 0.56589844 2.38671875 1.13179687 2.5859375 1.71484375 C2.84632813 2.44832031 3.10671875 3.18179687 3.375 3.9375 C3.63023437 4.66839844 3.88546875 5.39929687 4.1484375 6.15234375 C4.85271413 8.18682116 4.85271413 8.18682116 7 9 C7.99 6.03 8.98 3.06 10 0 C10.66 0 11.32 0 12 0 C11.00956295 4.83628305 10.04301154 9.47618873 8 14 C6.140625 13.76953125 6.140625 13.76953125 4 13 C2.734375 11.07421875 2.734375 11.07421875 1.75 8.6875 C1.41484375 7.90761719 1.0796875 7.12773438 0.734375 6.32421875 C0 4 0 4 0 0 Z " fill="#DDD7D7" transform="translate(141,1563)"/>
<path d="M0 0 C2.99332739 0.9977758 3.94766315 1.7522025 6 4 C6.33 2.68 6.66 1.36 7 0 C7.99 0.33 8.98 0.66 10 1 C9.46375 1.721875 8.9275 2.44375 8.375 3.1875 C6.65681513 5.90707671 6.65681513 5.90707671 7.75 8.625 C8.1625 9.40875 8.575 10.1925 9 11 C9.33 11.99 9.66 12.98 10 14 C9.01 14 8.02 14 7 14 C5.3125 12 5.3125 12 4 10 C3.34 11.32 2.68 12.64 2 14 C1.01 13.67 0.02 13.34 -1 13 C-0.484375 12.443125 0.03125 11.88625 0.5625 11.3125 C2.26622575 9.09592692 2.26622575 9.09592692 1.75 6.5 C1.5025 5.675 1.255 4.85 1 4 C0.814375 3.236875 0.62875 2.47375 0.4375 1.6875 C0.2209375 0.8521875 0.2209375 0.8521875 0 0 Z " fill="#DAD3D4" transform="translate(499,1563)"/>
<path d="M0 0 C2.97 0 5.94 0 9 0 C8.46884894 4.51478398 6.63379708 7.34666857 4 11 C5.65 11.33 7.3 11.66 9 12 C9 12.66 9 13.32 9 14 C6.03 14 3.06 14 0 14 C0.53115106 9.48521602 2.36620292 6.65333143 5 3 C3.35 2.67 1.7 2.34 0 2 C0 1.34 0 0.68 0 0 Z " fill="#DED8D9" transform="translate(441,1563)"/>
<path d="M0 0 C0.33 0 0.66 0 1 0 C1.33 3.63 1.66 7.26 2 11 C4.83967231 11 7.23735711 10.59732819 10 10 C10.33 8.02 10.66 6.04 11 4 C11.33 4 11.66 4 12 4 C12.33 6.64 12.66 9.28 13 12 C9.77786243 14.14809171 8.72224599 14.29386153 5 14 C4.67 13.67 4.34 13.34 4 13 C3.67 15.64 3.34 18.28 3 21 C2.01 21 1.02 21 0 21 C0 14.07 0 7.14 0 0 Z " fill="#C1B5B6" transform="translate(147,1595)"/>
<path d="M0 0 C0.99 0 1.98 0 3 0 C3 0.99 3 1.98 3 3 C3.99 3 4.98 3 6 3 C6 3.66 6 4.32 6 5 C5.01 5 4.02 5 3 5 C3 8.3 3 11.6 3 15 C3.99 15 4.98 15 6 15 C6 15.66 6 16.32 6 17 C1.125 16.125 1.125 16.125 0 15 C-0.26218917 13.04814727 -0.46028318 11.08748327 -0.625 9.125 C-0.72039062 8.05507812 -0.81578125 6.98515625 -0.9140625 5.8828125 C-1 3 -1 3 0 0 Z " fill="#CFC7C8" transform="translate(187,1592)"/>
<path d="M0 0 C3.96 0 7.92 0 12 0 C12 0.66 12 1.32 12 2 C10.35 2 8.7 2 7 2 C7 7.28 7 12.56 7 18 C6.34 18 5.68 18 5 18 C5 13.05 5 8.1 5 3 C3.35 3 1.7 3 0 3 C0 2.01 0 1.02 0 0 Z " fill="#DED7D8" transform="translate(92,1591)"/>
<path d="M0 0 C3.3 0 6.6 0 10 0 C10.33 0.66 10.66 1.32 11 2 C8.69 2.33 6.38 2.66 4 3 C3.67 6.63 3.34 10.26 3 14 C2.01 14 1.02 14 0 14 C0 9.38 0 4.76 0 0 Z " fill="#CCC2C4" transform="translate(533,1563)"/>
<path d="M0 0 C6.19230769 -0.47633136 6.19230769 -0.47633136 9.4375 1.4375 C11.73784649 5.21006824 11.33148757 8.69066159 11 13 C10.01 12.67 9.02 12.34 8 12 C7.7525 10.865625 7.505 9.73125 7.25 8.5625 C6.63125 6.7990625 6.63125 6.7990625 6 5 C2.48599332 3.45913678 2.48599332 3.45913678 -1 3 C-0.67 2.01 -0.34 1.02 0 0 Z " fill="#322A27" transform="translate(1079,156)"/>
<path d="M0 0 C0.99 0 1.98 0 3 0 C3 6.27 3 12.54 3 19 C2.01 19 1.02 19 0 19 C0 12.73 0 6.46 0 0 Z " fill="#C3B7B9" transform="translate(581,1558)"/>
<path d="M0 0 C1.99954746 -0.04254356 4.00041636 -0.04080783 6 0 C7 1 7 1 7.1875 3.4375 C7 6 7 6 5 8 C2.04337034 7.77256695 0.44966312 7.38764062 -1.8125 5.4375 C-2.204375 4.963125 -2.59625 4.48875 -3 4 C-2.505 3.525625 -2.01 3.05125 -1.5 2.5625 C0.11542197 1.24076302 0.11542197 1.24076302 0 0 Z " fill="#4B272C" transform="translate(360,1599)"/>
<path d="M0 0 C2.3125 0.3125 2.3125 0.3125 3.3125 1.3125 C3.5 3.75 3.5 3.75 3.3125 6.3125 C2.6525 6.9725 1.9925 7.6325 1.3125 8.3125 C-1.3125 7.9375 -1.3125 7.9375 -3.6875 7.3125 C-3.6875 6.6525 -3.6875 5.9925 -3.6875 5.3125 C-4.3475 5.3125 -5.0075 5.3125 -5.6875 5.3125 C-6.0175 5.9725 -6.3475 6.6325 -6.6875 7.3125 C-6.6875 4.3125 -6.6875 4.3125 -5 2.125 C-2.6875 0.3125 -2.6875 0.3125 0 0 Z " fill="#472227" transform="translate(347.6875,1598.6875)"/>
<path d="M0 0 C1.99954746 -0.04254356 4.00041636 -0.04080783 6 0 C7 1 7 1 7.1875 3.4375 C7 6 7 6 5 8 C2.04337034 7.77256695 0.44966312 7.38764062 -1.8125 5.4375 C-2.204375 4.963125 -2.59625 4.48875 -3 4 C-2.505 3.525625 -2.01 3.05125 -1.5 2.5625 C0.11542197 1.24076302 0.11542197 1.24076302 0 0 Z " fill="#482429" transform="translate(329,1599)"/>
<path d="M0 0 C5.75 0.75 5.75 0.75 8 3 C8.55021834 9.05240175 8.55021834 9.05240175 6.875 11.9375 C4.11019567 13.50422245 2.11811483 13.38976435 -1 13 C-2.875 11.625 -2.875 11.625 -4 10 C-4 9.34 -4 8.68 -4 8 C-3.443125 8.350625 -2.88625 8.70125 -2.3125 9.0625 C0.53886783 10.21845993 2.08517222 9.80967438 5 9 C5 7.35 5 5.7 5 4 C2.525 3.01 2.525 3.01 0 2 C0 1.34 0 0.68 0 0 Z " fill="#DFD8D9" transform="translate(330,1596)"/>
<path d="M0 0 C2.31 0 4.62 0 7 0 C7 0.99 7 1.98 7 3 C5.68 3 4.36 3 3 3 C3 6.63 3 10.26 3 14 C2.01 14 1.02 14 0 14 C0 9.38 0 4.76 0 0 Z " fill="#C9BEC0" transform="translate(392,1563)"/>
<path d="M0 0 C2.31 0 4.62 0 7 0 C7 0.99 7 1.98 7 3 C5.68 3 4.36 3 3 3 C3 6.63 3 10.26 3 14 C2.01 14 1.02 14 0 14 C0 9.38 0 4.76 0 0 Z " fill="#D3CBCC" transform="translate(171,1563)"/>
<path d="M0 0 C0.66 0 1.32 0 2 0 C2 0.99 2 1.98 2 3 C3.32 3 4.64 3 6 3 C6 3.66 6 4.32 6 5 C4.68 5 3.36 5 2 5 C2 8.3 2 11.6 2 15 C3.32 15 4.64 15 6 15 C6 15.66 6 16.32 6 17 C1.125 16.125 1.125 16.125 0 15 C-0.07205511 13.31391034 -0.08386068 11.62499341 -0.0625 9.9375 C-0.05347656 9.01839844 -0.04445312 8.09929687 -0.03515625 7.15234375 C-0.02355469 6.44207031 -0.01195312 5.73179688 0 5 C-0.66 5 -1.32 5 -2 5 C-2 4.34 -2 3.68 -2 3 C-1.34 3 -0.68 3 0 3 C0 2.01 0 1.02 0 0 Z " fill="#EDE9E9" transform="translate(248,1592)"/>
<path d="M0 0 C0.33 1.32 0.66 2.64 1 4 C-2.63 4 -6.26 4 -10 4 C-9.01 5.485 -9.01 5.485 -8 7 C-5.36 6.67 -2.72 6.34 0 6 C-1.125 8 -1.125 8 -3 10 C-5.9375 10.5625 -5.9375 10.5625 -9 10 C-11.4375 7.75 -11.4375 7.75 -13 5 C-12.75 2.6875 -12.75 2.6875 -12 1 C-12 1.66 -12 2.32 -12 3 C-8.04 3 -4.08 3 0 3 C0 2.01 0 1.02 0 0 Z " fill="#BAACAE" transform="translate(496,1567)"/>
<path d="M0 0 C0.33 0 0.66 0 1 0 C1 5.61 1 11.22 1 17 C0.67 17 0.34 17 0 17 C0 14.36 0 11.72 0 9 C-0.99 9.66 -1.98 10.32 -3 11 C-6.625 10.75 -6.625 10.75 -10 10 C-11.4783226 7.04335481 -11.06032783 4.25770263 -11 1 C-10.67 1 -10.34 1 -10 1 C-9.34 2.98 -8.68 4.96 -8 7 C-5.60280568 7.67958603 -5.60280568 7.67958603 -3 8 C-0.4345406 5.4345406 -0.45953913 3.52313332 0 0 Z " fill="#EFEBEC" transform="translate(365,1566)"/>
<path d="M0 0 C0.66 0 1.32 0 2 0 C2 1.32 2 2.64 2 4 C-1.63 4 -5.26 4 -9 4 C-8.67 5.32 -8.34 6.64 -8 8 C-4.65747276 8.07427838 -2.1964086 8.06546953 1 7 C0.34 8.32 -0.32 9.64 -1 11 C-6.36842105 11.35789474 -6.36842105 11.35789474 -8.875 9.9375 C-10.58196395 6.99772876 -10.18799766 4.32129197 -10 1 C-9.67 1.66 -9.34 2.32 -9 3 C-6.03 3 -3.06 3 0 3 C0 2.01 0 1.02 0 0 Z " fill="#F4F1F2" transform="translate(121,1566)"/>
<path d="M0 0 C0.33 0.99 0.66 1.98 1 3 C4.96 3 8.92 3 13 3 C13 3.33 13 3.66 13 4 C9.7 4 6.4 4 3 4 C3 4.99 3 5.98 3 7 C7.455 6.505 7.455 6.505 12 6 C11.67 6.99 11.34 7.98 11 9 C7.75 9.75 7.75 9.75 4 10 C1.5625 8.4375 1.5625 8.4375 0 6 C-0.25 2.75 -0.25 2.75 0 0 Z " fill="#C3B7B9" transform="translate(155,1567)"/>
<path d="M0 0 C4.39460523 1.46486841 5.44257315 4.19841955 8 8 C9.65 5.36 11.3 2.72 13 0 C13.66 0.33 14.32 0.66 15 1 C14.57847656 1.54527344 14.15695312 2.09054688 13.72265625 2.65234375 C9.66176571 8.24204014 8.21929625 12.09216823 8 19 C7.67 19 7.34 19 7 19 C6.99742187 18.443125 6.99484375 17.88625 6.9921875 17.3125 C6.69091044 11.3672994 5.14420739 8.13266507 1.27734375 3.62890625 C0 2 0 2 0 0 Z " fill="#45392F" transform="translate(1012,128)"/>
<path d="M0 0 C1.4540625 0.0309375 1.4540625 0.0309375 2.9375 0.0625 C3.31968767 1.71864657 3.65145102 3.38707024 3.9375 5.0625 C2.9375 6.0625 2.9375 6.0625 -0.125 6.125 C-1.094375 6.104375 -2.06375 6.08375 -3.0625 6.0625 C-3.44468767 4.40635343 -3.77645102 2.73792976 -4.0625 1.0625 C-3.0625 0.0625 -3.0625 0.0625 0 0 Z " fill="#4A262A" transform="translate(243.0625,1568.9375)"/>
<path d="M0 0 C0.33 1.32 0.66 2.64 1 4 C-2.63 4 -6.26 4 -10 4 C-9.01 5.485 -9.01 5.485 -8 7 C-5.36 6.67 -2.72 6.34 0 6 C-1.125 8 -1.125 8 -3 10 C-6 10.5 -6 10.5 -9 10 C-10.9375 8.1875 -10.9375 8.1875 -12 6 C-11.67 5.01 -11.34 4.02 -11 3 C-7.37 3 -3.74 3 0 3 C0 2.01 0 1.02 0 0 Z " fill="#C8BDBF" transform="translate(465,1567)"/>
<path d="M0 0 C0.33 0.66 0.66 1.32 1 2 C6.445 1.505 6.445 1.505 12 1 C12 1.66 12 2.32 12 3 C8.37 3 4.74 3 1 3 C1.33 3.99 1.66 4.98 2 6 C6.53140653 6.93380961 6.53140653 6.93380961 11 6 C10.67 6.99 10.34 7.98 10 9 C3.62573591 10.32296047 3.62573591 10.32296047 1.0625 9 C-0.52633023 6.00926074 -0.18792343 3.31998061 0 0 Z " fill="#ECE8E9" transform="translate(107,1599)"/>
<path d="M0 0 C0.33 1.32 0.66 2.64 1 4 C-1.1875 6.0625 -1.1875 6.0625 -4 8 C-6.8125 7.75 -6.8125 7.75 -9 7 C-9.33 5.68 -9.66 4.36 -10 3 C-6.7 3 -3.4 3 0 3 C0 2.01 0 1.02 0 0 Z " fill="#5E3F43" transform="translate(244,1599)"/>
<path d="M0 0 C3.63 0 7.26 0 11 0 C10.67 1.32 10.34 2.64 10 4 C3.375 5.25 3.375 5.25 0 3 C0 2.01 0 1.02 0 0 Z " fill="#67484C" transform="translate(108,1602)"/>
<path d="M0 0 C0.33 0 0.66 0 1 0 C1 1.65 1 3.3 1 5 C-2.3 5 -5.6 5 -9 5 C-8.67 5.99 -8.34 6.98 -8 8 C-5.36 7.67 -2.72 7.34 0 7 C-0.33 7.99 -0.66 8.98 -1 10 C-7.625 11.25 -7.625 11.25 -11 9 C-10.67 7.35 -10.34 5.7 -10 4 C-6.7 4 -3.4 4 0 4 C0 2.68 0 1.36 0 0 Z " fill="#C7BBBD" transform="translate(413,1566)"/>
<path d="M0 0 C0.99 0 1.98 0 3 0 C3 4.62 3 9.24 3 14 C2.01 14 1.02 14 0 14 C0 9.38 0 4.76 0 0 Z " fill="#CFC5C7" transform="translate(575,1563)"/>
<path d="M0 0 C0.99 0 1.98 0 3 0 C3 4.62 3 9.24 3 14 C2.01 14 1.02 14 0 14 C0 9.38 0 4.76 0 0 Z " fill="#D2CACB" transform="translate(386,1563)"/>
<path d="M0 0 C3 0 6 0 9 0 C7.60804085 2.7839183 5.84424221 2.97898997 3 4 C2.67 7.3 2.34 10.6 2 14 C1.34 14 0.68 14 0 14 C0 9.38 0 4.76 0 0 Z " fill="#EAE6E6" transform="translate(122,1595)"/>
<path d="M0 0 C3.63 0 7.26 0 11 0 C10.67 1.32 10.34 2.64 10 4 C6.6875 4.6875 6.6875 4.6875 3 5 C1.0625 3.6875 1.0625 3.6875 0 2 C0 1.34 0 0.68 0 0 Z " fill="#684A4E" transform="translate(112,1570)"/>
<path d="M0 0 C0.66 0 1.32 0 2 0 C3.38226016 2.76452033 3.09525387 5.0461363 3.0625 8.125 C3.05347656 9.22070312 3.04445313 10.31640625 3.03515625 11.4453125 C3.02355469 12.28835938 3.01195312 13.13140625 3 14 C2.01 14 1.02 14 0 14 C0 9.38 0 4.76 0 0 Z " fill="#CEC5C6" transform="translate(338,1563)"/>
<path d="M0 0 C0.66 0 1.32 0 2 0 C2.25 3.3125 2.25 3.3125 2 7 C-0.10827364 9.42061048 -1.40345478 9.9127007 -4.5625 10.375 C-7 10 -7 10 -8.8125 8.625 C-10 7 -10 7 -10 5 C-9.443125 5.350625 -8.88625 5.70125 -8.3125 6.0625 C-5.46113217 7.21845993 -3.91482778 6.80967438 -1 6 C-0.67 4.02 -0.34 2.04 0 0 Z " fill="#E2DCDD" transform="translate(367,1599)"/>
<path d="M0 0 C2 1.375 2 1.375 3 3 C3 3.66 3 4.32 3 5 C2.484375 4.67 1.96875 4.34 1.4375 4 C-1.78026512 2.67989123 -4.5570528 2.86757895 -8 3 C-8.66 5.31 -9.32 7.62 -10 10 C-10.33 10 -10.66 10 -11 10 C-11.33 7.69 -11.66 5.38 -12 3 C-8.22561516 -0.77438484 -5.06382535 -0.48226908 0 0 Z " fill="#D9D2D3" transform="translate(204,1560)"/>
<path d="M0 0 C0.33 0.66 0.66 1.32 1 2 C1.66 2 2.32 2 3 2 C3.66 3.32 4.32 4.64 5 6 C7.76276177 5.47731534 10.3260876 4.89130413 13 4 C11.125 7.875 11.125 7.875 10 9 C7.1875 9.375 7.1875 9.375 4 9 C1.625 6.75 1.625 6.75 0 4 C0 2.68 0 1.36 0 0 Z " fill="#D6CECF" transform="translate(231,1600)"/>
<path d="M0 0 C5.45454545 0.45454545 5.45454545 0.45454545 8 3 C8.125 5.625 8.125 5.625 8 8 C7.01 8 6.02 8 5 8 C5 6.35 5 4.7 5 3 C2.52733235 3.34444881 2.52733235 3.34444881 0 4 C-0.33 4.66 -0.66 5.32 -1 6 C-1.66 6 -2.32 6 -3 6 C-2.42655063 3.13275314 -2.1385485 2.1385485 0 0 Z " fill="#C6BABC" transform="translate(294,1590)"/>
<path d="M0 0 C0.99 0.33 1.98 0.66 3 1 C3.125 3.375 3.125 3.375 3 6 C2.34 6.66 1.68 7.32 1 8 C-1.125 7.625 -1.125 7.625 -3 7 C-2.25 2.25 -2.25 2.25 0 0 Z " fill="#452025" transform="translate(427,1567)"/>
<path d="M0 0 C2.4375 0.875 2.4375 0.875 3.75 2.9375 C4.0903125 3.8965625 4.0903125 3.8965625 4.4375 4.875 C3.7775 5.535 3.1175 6.195 2.4375 6.875 C2.1075 5.885 1.7775 4.895 1.4375 3.875 C-0.2125 3.875 -1.8625 3.875 -3.5625 3.875 C-3.8925 4.865 -4.2225 5.855 -4.5625 6.875 C-5.2225 6.875 -5.8825 6.875 -6.5625 6.875 C-6.25 4.5 -6.25 4.5 -5.5625 1.875 C-2.5625 -0.125 -2.5625 -0.125 0 0 Z " fill="#D2C9CA" transform="translate(303.5625,1558.125)"/>
<path d="M0 0 C3.3 0 6.6 0 10 0 C9.01 0.33 8.02 0.66 7 1 C6.26676204 3.01508358 6.26676204 3.01508358 6 5 C4.35 4.67 2.7 4.34 1 4 C0.67 2.68 0.34 1.36 0 0 Z " fill="#5C3B3F" transform="translate(198,1602)"/>
<path d="M0 0 C0.33 0.99 0.66 1.98 1 3 C0.01 4.485 0.01 4.485 -1 6 C-1 4.68 -1 3.36 -1 2 C-3.47266765 2.34444881 -3.47266765 2.34444881 -6 3 C-6.33 3.66 -6.66 4.32 -7 5 C-7.66 5 -8.32 5 -9 5 C-8.625 2.5625 -8.625 2.5625 -8 0 C-5.13822943 -1.43088528 -3.06624227 -0.59991697 0 0 Z " fill="#CDC3C4" transform="translate(286,1591)"/>
<path d="M0 0 C2.97 0 5.94 0 9 0 C9 0.33 9 0.66 9 1 C6.36 1 3.72 1 1 1 C1.33 1.99 1.66 2.98 2 4 C4.97 4.495 4.97 4.495 8 5 C8 5.99 8 6.98 8 8 C5.36 7.34 2.72 6.68 0 6 C0 4.02 0 2.04 0 0 Z " fill="#B4A5A7" transform="translate(359,1592)"/>
<path d="M0 0 C0 0.33 0 0.66 0 1 C-0.94875 1.268125 -1.8975 1.53625 -2.875 1.8125 C-6.25267273 2.74986588 -6.25267273 2.74986588 -8 6 C-8.39013716 7.9896995 -8.73202649 9.99019869 -9 12 C-9.66 12 -10.32 12 -11 12 C-11.23816991 9.1419611 -11.42242213 6.80188855 -11 4 C-7.65899814 0.06940958 -5.03930644 -0.46877269 0 0 Z " fill="#E4DEDF" transform="translate(221,1560)"/>
<path d="M0 0 C1.4540625 0.0309375 1.4540625 0.0309375 2.9375 0.0625 C2.9375 1.7125 2.9375 3.3625 2.9375 5.0625 C0.9575 5.0625 -1.0225 5.0625 -3.0625 5.0625 C-3.625 3.125 -3.625 3.125 -4.0625 1.0625 C-3.0625 0.0625 -3.0625 0.0625 0 0 Z " fill="#462126" transform="translate(243.0625,1560.9375)"/>
<path d="M0 0 C3.3 0 6.6 0 10 0 C10 0.99 10 1.98 10 3 C7.36 3.33 4.72 3.66 2 4 C1.34 2.68 0.68 1.36 0 0 Z " fill="#4E2B2F" transform="translate(486,1571)"/>
<path d="M0 0 C3.3 0 6.6 0 10 0 C10 0.99 10 1.98 10 3 C7.36 3.33 4.72 3.66 2 4 C1.34 2.68 0.68 1.36 0 0 Z " fill="#4C292E" transform="translate(455,1571)"/>
<path d="M0 0 C0.66 0 1.32 0 2 0 C2.19335938 0.56589844 2.38671875 1.13179687 2.5859375 1.71484375 C2.84632813 2.44832031 3.10671875 3.18179687 3.375 3.9375 C3.63023437 4.66839844 3.88546875 5.39929687 4.1484375 6.15234375 C4.85271413 8.18682116 4.85271413 8.18682116 7 9 C7 9.66 7 10.32 7 11 C6.34 11 5.68 11 5 11 C4.67 11.66 4.34 12.32 4 13 C3.32404685 11.58774074 2.65959941 10.16997095 2 8.75 C1.62875 7.96109375 1.2575 7.1721875 0.875 6.359375 C0 4 0 4 0 0 Z " fill="#D3CBCC" transform="translate(141,1563)"/>
<path d="M0 0 C0.33 0 0.66 0 1 0 C1.22111261 2.72705554 1.30361625 4.46420662 -0.0625 6.875 C-3.11569315 8.64782183 -5.66411708 7.69235306 -9 7 C-9.33 5.68 -9.66 4.36 -10 3 C-9.34 3 -8.68 3 -8 3 C-7.67 3.66 -7.34 4.32 -7 5 C-4.55519921 4.81171228 -4.55519921 4.81171228 -2 4 C-0.63979849 2.03241727 -0.63979849 2.03241727 0 0 Z " fill="#E3DDDE" transform="translate(352,1601)"/>
<path d="M0 0 C0.4125 0.66 0.825 1.32 1.25 2 C1.8275 2.66 2.405 3.32 3 4 C4.32 4 5.64 4 7 4 C7.33 3.34 7.66 2.68 8 2 C8.99 2 9.98 2 11 2 C10.4375 3.9375 10.4375 3.9375 9 6 C5.375 6.75 5.375 6.75 2 7 C0.4375 5.1875 0.4375 5.1875 -1 3 C-0.67 2.01 -0.34 1.02 0 0 Z " fill="#D3CBCC" transform="translate(197,1602)"/>
<path d="M0 0 C0.33 0 0.66 0 1 0 C1.33 2.64 1.66 5.28 2 8 C4.97 8.33 7.94 8.66 11 9 C10.67 9.66 10.34 10.32 10 11 C3.6 11.36923077 3.6 11.36923077 0.5625 9.5 C0.046875 9.005 -0.46875 8.51 -1 8 C-0.67 5.36 -0.34 2.72 0 0 Z " fill="#D1C8C9" transform="translate(212,1566)"/>
<path d="M0 0 C3.3 0 6.6 0 10 0 C9.67 0.99 9.34 1.98 9 3 C2.25 4.125 2.25 4.125 0 3 C0 2.01 0 1.02 0 0 Z " fill="#4D2A2F" transform="translate(158,1571)"/>
<path d="M0 0 C1.65 0 3.3 0 5 0 C5.66 1.32 6.32 2.64 7 4 C4.03 4 1.06 4 -2 4 C-1.34 2.68 -0.68 1.36 0 0 Z " fill="#523035" transform="translate(110,1597)"/>
<path d="M0 0 C0.33 0 0.66 0 1 0 C1.2493357 1.60115576 1.47378648 3.20620159 1.6875 4.8125 C1.81511719 5.70582031 1.94273437 6.59914063 2.07421875 7.51953125 C2 10 2 10 0.71875 11.8125 C-1.81773328 13.56497936 -4.00260072 13.19982662 -7 13 C-7 12.34 -7 11.68 -7 11 C-5.02 10.34 -3.04 9.68 -1 9 C-0.67 6.03 -0.34 3.06 0 0 Z " fill="#D9D2D3" transform="translate(262,1564)"/>
<path d="M0 0 C0.66 0 1.32 0 2 0 C2 0.66 2 1.32 2 2 C4.64 1.67 7.28 1.34 10 1 C10.66 2.32 11.32 3.64 12 5 C10.68 5 9.36 5 8 5 C6.453125 5.061875 6.453125 5.061875 4.875 5.125 C2 5 2 5 0 3 C0 2.01 0 1.02 0 0 Z " fill="#DAD3D4" transform="translate(512,1572)"/>
<path d="M0 0 C0.33 0.99 0.66 1.98 1 3 C3.31 3 5.62 3 8 3 C8 3.66 8 4.32 8 5 C4.37 5 0.74 5 -3 5 C-3 4.01 -3 3.02 -3 2 C-2.01 1.34 -1.02 0.68 0 0 Z " fill="#E8E4E4" transform="translate(308,1604)"/>
<path d="M0 0 C6.625 -0.125 6.625 -0.125 10 1 C9.67 1.66 9.34 2.32 9 3 C6.35139573 3.59355614 3.70802678 3.74209269 1 4 C0.67 2.68 0.34 1.36 0 0 Z " fill="#533035" transform="translate(404,1571)"/>
<path d="M0 0 C2.97 0.495 2.97 0.495 6 1 C6.33 1.99 6.66 2.98 7 4 C4.03 4 1.06 4 -2 4 C-1.34 2.68 -0.68 1.36 0 0 Z " fill="#533035" transform="translate(405,1565)"/>
<path d="M0 0 C-0.99 1.485 -0.99 1.485 -2 3 C-3.65 2.67 -5.3 2.34 -7 2 C-7.66 3.32 -8.32 4.64 -9 6 C-9.6875 4.1875 -9.6875 4.1875 -10 2 C-7.63939534 -2.27859594 -4.19472714 -0.87060375 0 0 Z " fill="#CEC5C6" transform="translate(292,1559)"/>
<path d="M0 0 C1.65 0 3.3 0 5 0 C5.66 1.32 6.32 2.64 7 4 C4.36 4 1.72 4 -1 4 C-0.67 2.68 -0.34 1.36 0 0 Z " fill="#502E32" transform="translate(235,1597)"/>
<path d="M0 0 C1.65 0 3.3 0 5 0 C5.66 1.32 6.32 2.64 7 4 C4.36 4 1.72 4 -1 4 C-0.67 2.68 -0.34 1.36 0 0 Z " fill="#4F2C31" transform="translate(199,1597)"/>
<path d="M0 0 C2.97 0.495 2.97 0.495 6 1 C6.33 1.99 6.66 2.98 7 4 C4.03 4 1.06 4 -2 4 C-1.34 2.68 -0.68 1.36 0 0 Z " fill="#502E32" transform="translate(114,1565)"/>
<path d="M0 0 C2.97 0.495 2.97 0.495 6 1 C6.33 1.99 6.66 2.98 7 4 C4.36 4 1.72 4 -1 4 C-0.67 2.68 -0.34 1.36 0 0 Z " fill="#4E2B30" transform="translate(159,1565)"/>
<path d="M0 0 C2.97 0.495 2.97 0.495 6 1 C6 1.99 6 2.98 6 4 C3.36 4 0.72 4 -2 4 C-1.34 2.68 -0.68 1.36 0 0 Z " fill="#4D2A2F" transform="translate(488,1565)"/>
<path d="M0 0 C1.65 0 3.3 0 5 0 C5.66 1.32 6.32 2.64 7 4 C4.36 4 1.72 4 -1 4 C-0.67 2.68 -0.34 1.36 0 0 Z " fill="#4C292E" transform="translate(456,1565)"/>
<path d="M0 0 C0.66 0 1.32 0 2 0 C2.125 7.75 2.125 7.75 1 10 C0.01 10 -0.98 10 -2 10 C-1.33333333 6.66666667 -0.66666667 3.33333333 0 0 Z " fill="#452025" transform="translate(434,1565)"/>
<path d="M0 0 C3.125 0.375 3.125 0.375 6 1 C5.01 2.485 5.01 2.485 4 4 C2.68 4 1.36 4 0 4 C-0.33 4.66 -0.66 5.32 -1 6 C-1.66 6 -2.32 6 -3 6 C-2.42655063 3.13275314 -2.1385485 2.1385485 0 0 Z " fill="#D3CACB" transform="translate(271,1558)"/>
<path d="M0 0 C3.3 0 6.6 0 10 0 C10 0.33 10 0.66 10 1 C7.36 1.33 4.72 1.66 2 2 C1.67 3.65 1.34 5.3 1 7 C1.66 7 2.32 7 3 7 C2.67 7.99 2.34 8.98 2 10 C1.34 10 0.68 10 0 10 C0 6.7 0 3.4 0 0 Z " fill="#F3F1F1" transform="translate(342,1591)"/>
<path d="M0 0 C3.125 0.375 3.125 0.375 6 1 C5.67 1.66 5.34 2.32 5 3 C3.33333333 3.33333333 1.66666667 3.66666667 0 4 C-0.33 4.66 -0.66 5.32 -1 6 C-1.66 6 -2.32 6 -3 6 C-2.42655063 3.13275314 -2.1385485 2.1385485 0 0 Z " fill="#D3CBCC" transform="translate(308,1590)"/>
<path d="M0 0 C0.66 0 1.32 0 2 0 C2 0.66 2 1.32 2 2 C7.445 1.505 7.445 1.505 13 1 C13 1.66 13 2.32 13 3 C9.37 3 5.74 3 2 3 C2 3.99 2 4.98 2 6 C1.34 6 0.68 6 0 6 C0 4.02 0 2.04 0 0 Z " fill="#EFECED" transform="translate(195,1599)"/>
<path d="M0 0 C-0.33 2.64 -0.66 5.28 -1 8 C-1.33 8 -1.66 8 -2 8 C-2.144375 6.865625 -2.28875 5.73125 -2.4375 4.5625 C-2.61171478 1.19222799 -2.61171478 1.19222799 -4 0 C-6.32817964 -0.36760731 -8.6618385 -0.70241581 -11 -1 C-11 -1.33 -11 -1.66 -11 -2 C-6.17200184 -3.2350693 -4.02892196 -2.96244261 0 0 Z " fill="#C7BBBD" transform="translate(107,1563)"/>
<path d="M0 0 C0.66 0 1.32 0 2 0 C1.34 1.32 0.68 2.64 0 4 C-5.75 4.125 -5.75 4.125 -8 3 C-8 2.34 -8 1.68 -8 1 C-6.865625 1.020625 -5.73125 1.04125 -4.5625 1.0625 C-1.18424326 1.41577477 -1.18424326 1.41577477 0 0 Z " fill="#DDD6D7" transform="translate(120,1573)"/>
<path d="M0 0 C0.33 0 0.66 0 1 0 C0.7589852 6.14587738 0.7589852 6.14587738 -1.40234375 8.578125 C-2.88046971 9.78844931 -4.43647953 10.90220903 -6 12 C-4.74209441 8.51656912 -3.24326489 5.92599768 -1 3 C-0.67 2.01 -0.34 1.02 0 0 Z " fill="#EBE7E7" transform="translate(286,1594)"/>
<path d="M0 0 C0.66 0 1.32 0 2 0 C2 0.99 2 1.98 2 3 C3.32 3 4.64 3 6 3 C6 3.66 6 4.32 6 5 C3.36 5 0.72 5 -2 5 C-2 4.34 -2 3.68 -2 3 C-1.34 3 -0.68 3 0 3 C0 2.01 0 1.02 0 0 Z " fill="#E5E0E1" transform="translate(248,1592)"/>
<path d="M0 0 C1.98 0.66 3.96 1.32 6 2 C6 2.33 6 2.66 6 3 C2.68885166 4.12880057 -0.58978257 5.21302675 -4 6 C-2.84826645 3.53199953 -1.95216435 1.95216435 0 0 Z " fill="#57363A" transform="translate(424,1563)"/>
<path d="M0 0 C1.36118461 2.24195113 2.06138028 3.47826762 1.75 6.125 C1 8 1 8 -1 10 C-3.125 9.625 -3.125 9.625 -5 9 C-3.68 8.67 -2.36 8.34 -1 8 C-0.67 5.36 -0.34 2.72 0 0 Z " fill="#C6BBBC" transform="translate(436,1567)"/>
<path d="M0 0 C4.04648443 1.34882814 4.95502599 3.34826069 7 7 C6.67 7.99 6.34 8.98 6 10 C4.99421411 8.71283353 3.99553202 7.42011342 3 6.125 C2.443125 5.40570313 1.88625 4.68640625 1.3125 3.9453125 C0 2 0 2 0 0 Z " fill="#5C4B3A" transform="translate(1012,128)"/>
<path d="M0 0 C0.33 0 0.66 0 1 0 C2 6.625 2 6.625 2 10 C1.01 9.34 0.02 8.68 -1 8 C-1.25 4.4375 -1.25 4.4375 -1 1 C-0.67 0.67 -0.34 0.34 0 0 Z " fill="#ECE8E8" transform="translate(171,1598)"/>
<path d="M0 0 C0.33 0 0.66 0 1 0 C1.33 2.97 1.66 5.94 2 9 C2.99 9.33 3.98 9.66 5 10 C5 10.66 5 11.32 5 12 C3.35 11.67 1.7 11.34 0 11 C0 7.37 0 3.74 0 0 Z " fill="#F0EDED" transform="translate(188,1597)"/>
<path d="M0 0 C3.3 0.33 6.6 0.66 10 1 C10 1.66 10 2.32 10 3 C8.72125 3.061875 7.4425 3.12375 6.125 3.1875 C5.40570313 3.22230469 4.68640625 3.25710938 3.9453125 3.29296875 C3.30335938 3.19628906 2.66140625 3.09960938 2 3 C1.34 2.01 0.68 1.02 0 0 Z " fill="#CCC2C4" transform="translate(420,1579)"/>
<path d="M0 0 C2.00720923 0.28674418 4.0085944 0.61866701 6 1 C5.67 1.99 5.34 2.98 5 4 C3.66923011 4.34342449 2.33568021 4.67619874 1 5 C0.34 5.99 -0.32 6.98 -1 8 C-1.04241723 5.66705225 -1.04092937 3.33297433 -1 1 C-0.67 0.67 -0.34 0.34 0 0 Z " fill="#BEB2B3" transform="translate(239,1565)"/>
<path d="M0 0 C0.66 0 1.32 0 2 0 C2.29296875 6.0546875 2.29296875 6.0546875 2 8 C1.01 8.66 0.02 9.32 -1 10 C-0.67 6.7 -0.34 3.4 0 0 Z " fill="#E5E0E1" transform="translate(276,1560)"/>
<path d="M0 0 C0.33 0.66 0.66 1.32 1 2 C-0.175625 2.928125 -0.175625 2.928125 -1.375 3.875 C-3.96837647 5.89858661 -3.96837647 5.89858661 -6 8 C-6 4 -6 4 -4.6875 2.3125 C-3 1 -3 1 0 0 Z " fill="#CDC3C4" transform="translate(425,1561)"/>
<path d="M0 0 C1.32 0 2.64 0 4 0 C4 0.66 4 1.32 4 2 C3.0409375 2.433125 3.0409375 2.433125 2.0625 2.875 C-0.15206079 3.82823451 -0.15206079 3.82823451 -1 6 C-1.66 6 -2.32 6 -3 6 C-2.42655063 3.13275314 -2.1385485 2.1385485 0 0 Z " fill="#DCD5D5" transform="translate(294,1590)"/>
<path d="M0 0 C-1.125 1.5 -1.125 1.5 -3 3 C-6.1875 3.1875 -6.1875 3.1875 -9 3 C-9 2.34 -9 1.68 -9 1 C-3.375 -1.125 -3.375 -1.125 0 0 Z " fill="#DED8D9" transform="translate(496,1574)"/>
<path d="M0 0 C-0.33 0.99 -0.66 1.98 -1 3 C-3.31 3.33 -5.62 3.66 -8 4 C-8.33 3.34 -8.66 2.68 -9 2 C-2.25 0 -2.25 0 0 0 Z " fill="#E1DADB" transform="translate(167,1573)"/>
<path d="M0 0 C2.97 0 5.94 0 9 0 C8.67 1.32 8.34 2.64 8 4 C5.36 3.01 2.72 2.02 0 1 C0 0.67 0 0.34 0 0 Z " fill="#D9D1D2" transform="translate(514,1563)"/>
<path d="M0 0 C2 1.1875 2 1.1875 4 3 C4.25 5.6875 4.25 5.6875 4 8 C3.01 8 2.02 8 1 8 C1 6.02 1 4.04 1 2 C0.34 1.67 -0.32 1.34 -1 1 C-0.67 0.67 -0.34 0.34 0 0 Z " fill="#594939" transform="translate(1082,128)"/>
<path d="M0 0 C2.64 0 5.28 0 8 0 C8.33 0.66 8.66 1.32 9 2 C2.25 3.125 2.25 3.125 0 2 C0 1.34 0 0.68 0 0 Z " fill="#D9D2D2" transform="translate(535,1563)"/>
<path d="M0 0 C1.98 0.99 1.98 0.99 4 2 C3.34 4.31 2.68 6.62 2 9 C1.67 9 1.34 9 1 9 C0.67 6.03 0.34 3.06 0 0 Z " fill="#D9D2D3" transform="translate(148,1595)"/>
<path d="M0 0 C0.33 1.32 0.66 2.64 1 4 C-1.375 5.5625 -1.375 5.5625 -4 7 C-4.66 6.67 -5.32 6.34 -6 6 C-4 4 -2 2 0 0 Z " fill="#D1C7C9" transform="translate(274,1568)"/>
<path d="M0 0 C0.33 0 0.66 0 1 0 C2 3 3 6 4 9 C2.68 8.67 1.36 8.34 0 8 C0 5.36 0 2.72 0 0 Z " fill="#E8E3E4" transform="translate(559,1567)"/>
</svg>
