<?xml version="1.0" encoding="UTF-8"?>
<svg version="1.1" xmlns="http://www.w3.org/2000/svg" width="1200" height="1700">
<path d="M0 0 C396 0 792 0 1200 0 C1200 561 1200 1122 1200 1700 C804 1700 408 1700 0 1700 C0 1139 0 578 0 0 Z " fill="#112B42" transform="translate(0,0)"/>
<path d="M0 0 C396 0 792 0 1200 0 C1200 49.17 1200 98.34 1200 149 C904.32 149 608.64 149 304 149 C304 659.84 304 1170.68 304 1697 C599.68 1697 895.36 1697 1200 1697 C1200 1697.99 1200 1698.98 1200 1700 C804 1700 408 1700 0 1700 C0 1139 0 578 0 0 Z " fill="#1A3F61" transform="translate(0,0)"/>
<path d="M0 0 C47.52 0 95.04 0 144 0 C144 510.84 144 1021.68 144 1548 C61.5 1548 -21 1548 -106 1548 C-106 1400.49 -106 1252.98 -106 1101 C-71.02 1101 -36.04 1101 0 1101 C0 737.67 0 374.34 0 0 Z " fill="#112B42" transform="translate(153,149)"/>
<path d="M0 0 C231.66 0 463.32 0 702 0 C702 92.07 702 184.14 702 279 C470.34 279 238.68 279 0 279 C0 186.93 0 94.86 0 0 Z " fill="#1A4062" transform="translate(411,1166)"/>
<path d="M0 0 C82.5 0 165 0 250 0 C250 47.52 250 95.04 250 144 C200.17 144 150.34 144 99 144 C99 507.33 99 870.66 99 1245 C66.33 1245 33.66 1245 0 1245 C0 834.15 0 423.3 0 0 Z " fill="#112B42" transform="translate(47,0)"/>
<path d="M0 0 C15.51 0 31.02 0 47 0 C47 410.85 47 821.7 47 1245 C79.67 1245 112.34 1245 146 1245 C146 881.67 146 518.34 146 144 C195.83 144 245.66 144 297 144 C297 96.48 297 48.96 297 0 C299.31 0 301.62 0 304 0 C303.67 47.52 303.34 95.04 303 144 C599.01 144 895.02 144 1200 144 C1200 145.65 1200 147.3 1200 149 C904.32 149 608.64 149 304 149 C304 659.84 304 1170.68 304 1697 C599.68 1697 895.36 1697 1200 1697 C1200 1697.99 1200 1698.98 1200 1700 C804 1700 408 1700 0 1700 C0 1139 0 578 0 0 Z M153 149 C153 512.33 153 875.66 153 1250 C118.02 1250 83.04 1250 47 1250 C47 1397.51 47 1545.02 47 1697 C129.5 1697 212 1697 297 1697 C297 1186.16 297 675.32 297 149 C249.48 149 201.96 149 153 149 Z " fill="#AF7654" transform="translate(0,0)"/>
<path d="M0 0 C13.53 0 27.06 0 41 0 C41 410.85 41 821.7 41 1245 C27.47 1245 13.94 1245 0 1245 C0 834.15 0 423.3 0 0 Z " fill="#1A3F61" transform="translate(0,0)"/>
<path d="M0 0 C13.53 0 27.06 0 41 0 C41 147.51 41 295.02 41 447 C27.47 447 13.94 447 0 447 C0 299.49 0 151.98 0 0 Z " fill="#112B42" transform="translate(0,1250)"/>
<path d="M0 0 C39.27 0 78.54 0 119 0 C119 39.27 119 78.54 119 119 C79.73 119 40.46 119 0 119 C0 79.73 0 40.46 0 0 Z " fill="#142E44" transform="translate(415,343)"/>
<path d="M0 0 C0.33 0 0.66 0 1 0 C1 510.84 1 1021.68 1 1548 C298.66 1548 596.32 1548 903 1548 C903 1548.99 903 1549.98 903 1551 C507 1551 111 1551 -297 1551 C-297 1550.01 -297 1549.02 -297 1548 C-198.99 1548 -100.98 1548 0 1548 C0 1037.16 0 526.32 0 0 Z " fill="#C5BBB5" transform="translate(297,149)"/>
<path d="M0 0 C1.23697061 0.84282567 2.46708827 1.69587055 3.6875 2.5625 C4.55375 3.119375 5.42 3.67625 6.3125 4.25 C13.91605525 11.65346169 16.0592458 20.17524897 17.0625 30.375 C16.72050688 40.31291782 12.76200329 49.64179026 5.6875 56.5625 C-4.47716857 65.15901339 -15.51743535 66.43663004 -28.36669922 65.7265625 C-38.09774156 64.90607813 -45.04320352 60.27454196 -51.5625 53.25 C-59.03343141 44.0894574 -59.99354689 34.00156529 -59.3125 22.5625 C-57.60256759 12.78110696 -51.50950235 5.78552397 -43.6328125 0.10546875 C-42.86710938 -0.40371094 -42.10140625 -0.91289063 -41.3125 -1.4375 C-40.67054688 -1.87449219 -40.02859375 -2.31148437 -39.3671875 -2.76171875 C-27.95596349 -9.13857923 -10.73101489 -6.42670763 0 0 Z " fill="#F9FAFA" transform="translate(555.3125,730.4375)"/>
<path d="M0 0 C9.590625 -0.1546875 9.590625 -0.1546875 19.375 -0.3125 C21.37224121 -0.35802002 23.36948242 -0.40354004 25.42724609 -0.45043945 C34.61505904 -0.57181695 42.26558243 -0.64374167 50 5 C50.94875 5.639375 51.8975 6.27875 52.875 6.9375 C58.31004538 12.2126911 59.94532346 16.9250682 60.25 24.25 C60.15281239 30.73997245 58.37669304 35.9152934 54.8125 41.3125 C46.66624532 49.09669892 36.8787759 50.31722363 26.0625 50.125 C25.09248047 50.11597656 24.12246094 50.10695313 23.12304688 50.09765625 C20.74859002 50.07426259 18.37426162 50.03839776 16 50 C16 56.27 16 62.54 16 69 C10.72 69 5.44 69 0 69 C0 46.23 0 23.46 0 0 Z " fill="#FAFBFB" transform="translate(428,726)"/>
<path d="M0 0 C4.24646695 2.64984904 6.17007531 4.00030688 8.47265625 8.60546875 C5.50265625 11.24546875 2.53265625 13.88546875 -0.52734375 16.60546875 C-4.52734375 14.60546875 -4.52734375 14.60546875 -7.33984375 12.48046875 C-13.00406404 9.19275828 -20.23366296 9.85185649 -26.52734375 10.60546875 C-31.76908724 12.82265172 -35.83253957 15.3598206 -38.5390625 20.54296875 C-41.37777236 27.7360797 -40.94193054 34.78608441 -38.27734375 41.98046875 C-35.4482523 46.22410593 -32.35869934 49.77868753 -27.52734375 51.60546875 C-15.88820694 52.91779996 -15.88820694 52.91779996 -5.46484375 48.60546875 C-3.73826794 47.02566387 -3.73826794 47.02566387 -2.52734375 45.60546875 C0.46485893 46.96917174 2.76292154 48.55454958 5.22265625 50.73046875 C5.83625 51.26929688 6.44984375 51.808125 7.08203125 52.36328125 C7.5409375 52.77320313 7.99984375 53.183125 8.47265625 53.60546875 C6.07896082 59.14687366 1.64260615 62.05788885 -3.6796875 64.65625 C-13.46393375 68.18526873 -26.6118995 68.19741284 -36.390625 64.64453125 C-45.42056481 60.25337222 -52.20283972 53.08030523 -55.52734375 43.60546875 C-58.75635865 33.71534135 -58.07635391 24.3852599 -54.52734375 14.60546875 C-52.8523157 11.57519072 -50.90852564 9.11049462 -48.52734375 6.60546875 C-48.01300781 6.06277344 -47.49867188 5.52007813 -46.96875 4.9609375 C-34.53564653 -6.81622286 -14.82713392 -8.18127791 0 0 Z " fill="#F9F9FA" transform="translate(729.52734375,729.39453125)"/>
<path d="M0 0 C2.71378221 -0.24478436 5.40546971 -0.42160328 8.125 -0.5625 C9.26582031 -0.67561523 9.26582031 -0.67561523 10.4296875 -0.79101562 C12.88275508 -0.88617773 14.6701501 -0.79177416 17 0 C19.63791417 2.64215767 21.24065328 5.73053228 23 9 C24.06395056 10.75517436 25.13435994 12.5064485 26.2109375 14.25390625 C27.26791968 16.02206779 28.322599 17.79160794 29.375 19.5625 C29.92027344 20.47580078 30.46554687 21.38910156 31.02734375 22.33007812 C32.35361891 24.55217072 33.67779892 26.77548169 35 29 C38.56781343 24.83068453 41.22975559 20.36873599 43.9375 15.625 C45.5925484 12.7293048 47.28236176 9.85894387 49 7 C49.3813208 6.31252686 49.7626416 5.62505371 50.15551758 4.91674805 C51.31558099 3.00891109 52.34104797 1.49620943 54 0 C57.01457411 -0.54668442 58.87209111 -0.69355475 61.8125 -0.4375 C62.85180664 -0.39012695 62.85180664 -0.39012695 63.91210938 -0.34179688 C65.60991824 -0.25983369 67.30552603 -0.13427907 69 0 C67.39410633 4.46558669 65.10250259 8.43695666 62.6875 12.5 C62.04566772 13.61097046 62.04566772 13.61097046 61.39086914 14.74438477 C58.93701379 18.94333945 56.35839002 22.94635513 53.484375 26.87109375 C43.60582449 40.75537487 42.187549 52.12499325 43 69 C37.72 69 32.44 69 27 69 C27.10183594 67.48535156 27.20367188 65.97070312 27.30859375 64.41015625 C27.88843508 46.863592 22.81592787 36.14487285 12.97705078 21.89892578 C10.00094825 17.53510243 7.2874392 13.02306888 4.5625 8.5 C3.66797368 7.05208029 2.77344298 5.60416328 1.87890625 4.15625 C0 1 0 1 0 0 Z " fill="#F9F9FA" transform="translate(739,726)"/>
<path d="M0 0 C5.64116333 3.35076619 9.30570584 7.8187335 11.390625 14.046875 C12.08409679 21.16171549 12.31034922 27.9223059 8.390625 34.046875 C2.88544034 40.08521943 -2.36130923 42.94697171 -10.609375 43.359375 C-16.14183465 43.18815768 -20.22635285 41.27273554 -24.359375 37.609375 C-29.66834857 31.56304399 -32.06957261 26.52070019 -31.86328125 18.3515625 C-31.0368897 10.85047 -27.57115163 5.48211356 -21.796875 0.734375 C-15.53361162 -2.5734957 -6.53263441 -2.38617185 0 0 Z " fill="#142E44" transform="translate(543.609375,739.953125)"/>
<path d="M0 0 C5.28 0 10.56 0 16 0 C16 18.81 16 37.62 16 57 C27.22 57 38.44 57 50 57 C50 60.96 50 64.92 50 69 C33.5 69 17 69 0 69 C0 46.23 0 23.46 0 0 Z " fill="#FEFEFE" transform="translate(584,726)"/>
<path d="M0 0 C16.5 0 33 0 50 0 C50 4.62 50 9.24 50 14 C44.72 14 39.44 14 34 14 C34 27.2 34 40.4 34 54 C28.06 54 22.12 54 16 54 C16 40.8 16 27.6 16 14 C10.72 14 5.44 14 0 14 C0 9.38 0 4.76 0 0 Z " fill="#FCFCFC" transform="translate(440,377)"/>
<path d="M0 0 C39.27 0 78.54 0 119 0 C119 39.27 119 78.54 119 119 C79.73 119 40.46 119 0 119 C0 79.73 0 40.46 0 0 Z M3 3 C3 40.62 3 78.24 3 117 C40.62 117 78.24 117 117 117 C117 79.38 117 41.76 117 3 C79.38 3 41.76 3 3 3 Z " fill="#CAD0D5" transform="translate(415,343)"/>
<path d="M0 0 C5.28 0 10.56 0 16 0 C16 22.77 16 45.54 16 69 C10.72 69 5.44 69 0 69 C0 46.23 0 23.46 0 0 Z " fill="#FBFCFC" transform="translate(644,726)"/>
<path d="M0 0 C3.01125 -0.0825 6.0225 -0.165 9.125 -0.25 C10.06230957 -0.28641602 10.99961914 -0.32283203 11.96533203 -0.36035156 C17.5015014 -0.43345966 20.61058179 0.30796599 25 4 C27.65167385 6.65167385 27.39053513 8.11349945 27.5 11.8125 C27.42035789 17.34762639 27.42035789 17.34762639 25.796875 19.8671875 C21.83193162 23.25140685 17.9392964 24.13590376 12.890625 24.09765625 C12.21032227 24.09515869 11.53001953 24.09266113 10.82910156 24.09008789 C9.97799805 24.08098389 9.12689453 24.07187988 8.25 24.0625 C5.5275 24.041875 2.805 24.02125 0 24 C0 16.08 0 8.16 0 0 Z " fill="#132D44" transform="translate(444,739)"/>
<path d="M0 0 C4.43757643 -0.50427005 7.86420399 0.42445866 12 2 C12.66 1.34 13.32 0.68 14 0 C18.05261287 -0.34490322 19.54754176 -0.30163882 23 2 C25.78855122 1.60428244 25.78855122 1.60428244 28 0 C31.94836905 -0.2632246 34.60379269 -0.08997373 38 2 C38.51161216 4.81386691 38.35700062 6.47661947 36.734375 8.85546875 C32.63306452 13.68346774 32.63306452 13.68346774 30 15 C32.64 15.33 35.28 15.66 38 16 C38 16.33 38 16.66 38 17 C37.14535156 16.98839844 36.29070313 16.97679687 35.41015625 16.96484375 C33.75306641 16.95130859 33.75306641 16.95130859 32.0625 16.9375 C30.96035156 16.92589844 29.85820313 16.91429687 28.72265625 16.90234375 C26.08552366 16.68737429 26.08552366 16.68737429 25 18 C23.00035018 18.08758003 20.9976389 18.10696576 18.99609375 18.09765625 C17.78115234 18.09443359 16.56621094 18.09121094 15.31445312 18.08789062 C14.03505859 18.07951172 12.75566406 18.07113281 11.4375 18.0625 C10.15423828 18.05798828 8.87097656 18.05347656 7.54882812 18.04882812 C4.36583978 18.03699545 1.18294238 18.02051068 -2 18 C-0.49871775 14.8178897 0.99117351 12.90909849 3.625 10.5625 C6.51072551 7.86087729 6.51072551 7.86087729 7.4375 4.0625 C7.293125 3.381875 7.14875 2.70125 7 2 C2.545 2.495 2.545 2.495 -2 3 C-1.34 2.01 -0.68 1.02 0 0 Z " fill="#56728B" transform="translate(797,1317)"/>
<path d="M0 0 C3.57261213 1.01744294 5.29689254 2.76460662 7.4140625 5.75390625 C8.93169949 8.68839964 9.10176272 10.45530897 8.4140625 13.6875 C6.79498472 16.69435874 5.35828882 18.9456079 2.6640625 21.0625 C-0.82410128 22.03143438 -4.05575268 22.51401153 -7.5859375 21.6875 C-11.04821164 18.92107507 -13.31295675 15.36438175 -14.0234375 11 C-13.49033259 6.96363427 -12.32665826 4.99696185 -9.5625 2.0625 C-6.42443973 -0.12049845 -3.75130645 -0.27199805 0 0 Z " fill="#F5F6F7" transform="translate(499.5859375,409.3125)"/>
<path d="M0 0 C11.53245501 -0.27458226 11.53245501 -0.27458226 15 2 C16.74322183 5.48644367 16.56084021 9.1957465 16 13 C14.1875 15.5625 14.1875 15.5625 11 17 C7.26415408 17.3095715 3.76286306 17.1813428 0 17 C0 11.39 0 5.78 0 0 Z " fill="#183148" transform="translate(422,493)"/>
<path d="M0 0 C3.18707269 1.22483578 3.80293364 2.10912321 6 5 C6.64672327 9.07883883 6.87703256 13.24593487 5 17 C2.66666667 17 0.33333333 17 -2 17 C-2.969375 17.061875 -3.93875 17.12375 -4.9375 17.1875 C-8 17 -8 17 -9.875 15.9375 C-11.61973477 12.93267901 -11.30835443 10.39189869 -11 7 C-9 5 -9 5 -6.6171875 4.8046875 C-5.71226562 4.82789063 -4.80734375 4.85109375 -3.875 4.875 C-1.461875 4.936875 -1.461875 4.936875 1 5 C1 8.3 1 11.6 1 15 C1.99 14.67 2.98 14.34 4 14 C4.4768708 8.92831264 4.4768708 8.92831264 2.125 4.625 C-1.74090823 1.66871724 -4.15685505 1.83533609 -8.8671875 2.43359375 C-11.23198824 2.86101346 -11.23198824 2.86101346 -13.0625 5.1875 C-14.11838009 8.35514028 -14.28260021 10.67944752 -14 14 C-13.938125 14.7425 -13.87625 15.485 -13.8125 16.25 C-13.10573849 18.19790552 -13.10573849 18.19790552 -10.9375 19.25 C-7.15794174 20.2149936 -3.89689873 20.13209826 0 20 C-0.33 20.66 -0.66 21.32 -1 22 C-8.91884984 22.62108626 -8.91884984 22.62108626 -12.9375 20.3125 C-16.1938779 16.66140963 -17.05062582 14.41752283 -16.875 9.5 C-15.92080906 5.68323625 -14.71834365 3.8007177 -12 1 C-8.25513702 -0.87243149 -4.07816956 -0.5238016 0 0 Z " fill="#BAC5CF" transform="translate(736,1268)"/>
<path d="M0 0 C2.375 1 2.375 1 4 2 C4.51161216 4.81386691 4.35700062 6.47661947 2.734375 8.85546875 C-1.36693548 13.68346774 -1.36693548 13.68346774 -4 15 C-1.36 15.33 1.28 15.66 4 16 C4 16.33 4 16.66 4 17 C-3.41017023 17.11459026 -10.64206267 16.91160286 -18 16 C-17.1875 14.0625 -17.1875 14.0625 -16 12 C-15.01 11.67 -14.02 11.34 -13 11 C-11.81608777 8.62374655 -11.81608777 8.62374655 -11 6 C-9.11295934 0.33887803 -5.68170517 -0.59184429 0 0 Z " fill="#254969" transform="translate(831,1317)"/>
<path d="M0 0 C0 5.94 0 11.88 0 18 C-0.66 18 -1.32 18 -2 18 C-2 16.02 -2 14.04 -2 12 C-2.99 12.495 -2.99 12.495 -4 13 C-9.21653972 13.44396083 -9.21653972 13.44396083 -11.875 11.9375 C-13.66235303 8.85928089 -13.43386742 6.47093932 -13 3 C-9.57987239 -1.60973721 -6.07187218 0 0 0 Z " fill="#D6DDE3" transform="translate(668,1272)"/>
<path d="M0 0 C0.66 0 1.32 0 2 0 C2 5.94 2 11.88 2 18 C0.411875 18.061875 -1.17625 18.12375 -2.8125 18.1875 C-4.15248047 18.23970703 -4.15248047 18.23970703 -5.51953125 18.29296875 C-8 18 -8 18 -9.796875 16.70703125 C-11.82466041 13.82994611 -11.42309743 11.38477945 -11 8 C-9.375 6 -9.375 6 -7 5 C-3.75 5.3125 -3.75 5.3125 -1 6 C-0.67 4.02 -0.34 2.04 0 0 Z " fill="#C3CDD6" transform="translate(756,1267)"/>
<path d="M0 0 C8.3984375 -0.1953125 8.3984375 -0.1953125 11 0 C13 2 13 2 13.265625 3.875 C13.26046875 4.57625 13.2553125 5.2775 13.25 6 C13.25515625 6.70125 13.2603125 7.4025 13.265625 8.125 C13 10 13 10 11 12 C8.31160615 12.26991906 5.70858064 12.08737357 3 12 C2.67 13.65 2.34 15.3 2 17 C1.34 17 0.68 17 0 17 C0 11.39 0 5.78 0 0 Z " fill="#C9D2DA" transform="translate(654,1322)"/>
<path d="M0 0 C2.1346875 -0.0309375 2.1346875 -0.0309375 4.3125 -0.0625 C5.51326172 -0.07990234 5.51326172 -0.07990234 6.73828125 -0.09765625 C9 0 9 0 12 1 C12.33 0.67 12.66 0.34 13 0 C18.34340485 -0.4646439 18.34340485 -0.4646439 20.68359375 1.19140625 C22.45605993 3.62657492 22.30353096 5.20937209 22.1875 8.1875 C22.16042969 9.08855469 22.13335938 9.98960937 22.10546875 10.91796875 C22.07066406 11.60503906 22.03585937 12.29210937 22 13 C21.34 13 20.68 13 20 13 C19.505 8.05 19.505 8.05 19 3 C17.35 3 15.7 3 14 3 C12.41727399 4.58272601 12.65264253 6.38034003 12.4375 8.5625 C12.35371094 9.38878906 12.26992188 10.21507812 12.18359375 11.06640625 C12.12300781 11.70449219 12.06242188 12.34257812 12 13 C11.34 13 10.68 13 10 13 C9.67 9.7 9.34 6.4 9 3 C7.35 3 5.7 3 4 3 C3.67 6.3 3.34 9.6 3 13 C2.01 13 1.02 13 0 13 C0 8.71 0 4.42 0 0 Z " fill="#CBD0D5" transform="translate(515,497)"/>
<path d="M0 0 C1.9375 1.8125 1.9375 1.8125 3 4 C3 4.99 3 5.98 3 7 C-0.63 7 -4.26 7 -8 7 C-7.01 8.485 -7.01 8.485 -6 10 C-2.41642759 10.25015873 -2.41642759 10.25015873 1 10 C0.67 10.99 0.34 11.98 0 13 C-6.34507042 13.35915493 -6.34507042 13.35915493 -8.9375 11.9375 C-10.6140629 8.88023824 -10.36528977 6.4093712 -10 3 C-7.7810369 -1.04634448 -4.19567567 -0.52445946 0 0 Z " fill="#ADB6BE" transform="translate(451,497)"/>
<path d="M0 0 C3.29215238 -0.08066072 6.58234578 -0.14033374 9.875 -0.1875 C10.81214844 -0.21263672 11.74929688 -0.23777344 12.71484375 -0.26367188 C14.05869141 -0.27817383 14.05869141 -0.27817383 15.4296875 -0.29296875 C16.25710449 -0.3086792 17.08452148 -0.32438965 17.93701172 -0.34057617 C18.61779785 -0.22818604 19.29858398 -0.1157959 20 0 C22.20914 3.31371 22.22481553 4.3446021 22.125 8.1875 C22.10695313 9.08855469 22.08890625 9.98960938 22.0703125 10.91796875 C22.04710937 11.60503906 22.02390625 12.29210938 22 13 C21.01 12.67 20.02 12.34 19 12 C18.505 7.05 18.505 7.05 18 2 C16.35 2.33 14.7 2.66 13 3 C12.67 5.97 12.34 8.94 12 12 C11.34 12 10.68 12 10 12 C9.67 9.03 9.34 6.06 9 3 C7.34385343 2.61781233 5.67542976 2.28604898 4 2 C2.41727399 3.58272601 2.65264253 5.38034003 2.4375 7.5625 C2.35371094 8.38878906 2.26992188 9.21507812 2.18359375 10.06640625 C2.12300781 10.70449219 2.06242188 11.34257813 2 12 C1.34 12 0.68 12 0 12 C0 8.04 0 4.08 0 0 Z " fill="#D9E0E5" transform="translate(628,1322)"/>
<path d="M0 0 C5.57894737 3.15789474 5.57894737 3.15789474 7 6 C7.04022391 8.3329866 7.04320247 10.66706666 7 13 C5.68 13.33 4.36 13.66 3 14 C3 10.7 3 7.4 3 4 C2.01 4.33 1.02 4.66 0 5 C-2.33299825 5.03954234 -4.66708189 5.04401732 -7 5 C-7.66 7.31 -8.32 9.62 -9 12 C-9.33 12 -9.66 12 -10 12 C-10.144375 11.236875 -10.28875 10.47375 -10.4375 9.6875 C-10.9632594 6.91827092 -10.9632594 6.91827092 -12 4 C-8.45270737 0.11486998 -5.18760024 -0.50858826 0 0 Z " fill="#355775" transform="translate(734,1269)"/>
<path d="M0 0 C0.99 0.33 1.98 0.66 3 1 C4.4540625 0.7525 4.4540625 0.7525 5.9375 0.5 C8.84701423 0.02497727 10.25617718 0.18701546 13 1 C13.33 0.67 13.66 0.34 14 0 C16.375 -0.3125 16.375 -0.3125 19 0 C20.8125 1.4375 20.8125 1.4375 22 4 C22.2389237 7.01771016 22.17422682 9.98006841 22 13 C21.34 13 20.68 13 20 13 C19.505 8.05 19.505 8.05 19 3 C17.35 3 15.7 3 14 3 C12.41727399 4.58272601 12.65264253 6.38034003 12.4375 8.5625 C12.35371094 9.38878906 12.26992188 10.21507812 12.18359375 11.06640625 C12.12300781 11.70449219 12.06242188 12.34257813 12 13 C11.34 13 10.68 13 10 13 C9.67 9.7 9.34 6.4 9 3 C7.35 3 5.7 3 4 3 C2.41727399 4.58272601 2.65264253 6.38034003 2.4375 8.5625 C2.35371094 9.38878906 2.26992188 10.21507812 2.18359375 11.06640625 C2.12300781 11.70449219 2.06242188 12.34257813 2 13 C1.34 13 0.68 13 0 13 C0 8.71 0 4.42 0 0 Z " fill="#D6DDE3" transform="translate(833,1272)"/>
<path d="M0 0 C3.5625 0.3125 3.5625 0.3125 5.5 1.5625 C6.5625 3.3125 6.5625 3.3125 6.5625 7.3125 C3.2625 7.3125 -0.0375 7.3125 -3.4375 7.3125 C-2.4475 8.7975 -2.4475 8.7975 -1.4375 10.3125 C2.14607241 10.56265873 2.14607241 10.56265873 5.5625 10.3125 C5.2325 10.9725 4.9025 11.6325 4.5625 12.3125 C-2.82283178 12.79678405 -2.82283178 12.79678405 -5.5 10.6875 C-6.75606608 7.50546594 -6.35820253 5.57037048 -5.4375 2.3125 C-3.4375 0.3125 -3.4375 0.3125 0 0 Z " fill="#DFE4E9" transform="translate(706.4375,1321.6875)"/>
<path d="M0 0 C1.9375 1.25 1.9375 1.25 3 3 C3 4.32 3 5.64 3 7 C-0.63 7 -4.26 7 -8 7 C-5.27105698 10.39922928 -5.27105698 10.39922928 -1.3125 10.1875 C-0.219375 10.125625 0.87375 10.06375 2 10 C1.67 10.66 1.34 11.32 1 12 C-6.42309859 12.48676056 -6.42309859 12.48676056 -9 10.3125 C-10.17817092 7.58797975 -10.45181189 5.93677726 -10 3 C-7.66004009 -0.99169632 -4.2277022 -0.45296809 0 0 Z " fill="#CAD3DB" transform="translate(747,1322)"/>
<path d="M0 0 C5.1134477 -0.64932669 5.1134477 -0.64932669 8 0 C10.02829372 2.40859879 11 3.83044309 11 7 C7.37 7 3.74 7 0 7 C0.99 8.485 0.99 8.485 2 10 C5.58357241 10.25015873 5.58357241 10.25015873 9 10 C8.67 10.66 8.34 11.32 8 12 C6.72125 12.061875 5.4425 12.12375 4.125 12.1875 C3.40570312 12.22230469 2.68640625 12.25710938 1.9453125 12.29296875 C1.30335938 12.19628906 0.66140625 12.09960938 0 12 C-2.31332486 8.53001271 -2.33957563 7.07490752 -2 3 C-1.34 2.01 -0.68 1.02 0 0 Z " fill="#C6D0D8" transform="translate(614,1322)"/>
<path d="M0 0 C11.53245501 -0.27458226 11.53245501 -0.27458226 15 2 C16.74322183 5.48644367 16.56084021 9.1957465 16 13 C14.1875 15.5625 14.1875 15.5625 11 17 C7.26415408 17.3095715 3.76286306 17.1813428 0 17 C0 11.39 0 5.78 0 0 Z M2 1 C2 5.62 2 10.24 2 15 C3.423125 15.061875 4.84625 15.12375 6.3125 15.1875 C7.11300781 15.22230469 7.91351563 15.25710938 8.73828125 15.29296875 C11.05575318 15.17810997 11.05575318 15.17810997 12.765625 13.703125 C14.84645235 10.83211005 14.41903757 8.41216306 14 5 C12.6469872 2.39685006 12.6469872 2.39685006 10 1 C7.24154167 0.67888176 4.79456032 0.81369598 2 1 Z " fill="#B6BEC5" transform="translate(422,493)"/>
<path d="M0 0 C1 1 1 1 1.09765625 3.50390625 C1.08605469 4.51324219 1.07445312 5.52257813 1.0625 6.5625 C1.05347656 7.57441406 1.04445313 8.58632812 1.03515625 9.62890625 C1.02355469 10.41136719 1.01195312 11.19382812 1 12 C-0.45792884 12.05399736 -1.91642712 12.09279177 -3.375 12.125 C-4.18710937 12.14820313 -4.99921875 12.17140625 -5.8359375 12.1953125 C-8 12 -8 12 -10 10 C-9.625 7.375 -9.625 7.375 -9 5 C-6.36 5 -3.72 5 -1 5 C-1.33 4.01 -1.66 3.02 -2 2 C-4.31 2 -6.62 2 -9 2 C-9 1.34 -9 0.68 -9 0 C-5.90842747 -1.54578627 -3.31526981 -0.60277633 0 0 Z " fill="#CBD3DB" transform="translate(900,1273)"/>
<path d="M0 0 C2 2 2 2 2 6 C-1.63 6 -5.26 6 -9 6 C-8.01 7.485 -8.01 7.485 -7 9 C-5.02252878 9.36297936 -5.02252878 9.36297936 -2.875 9.1875 C-1.59625 9.125625 -0.3175 9.06375 1 9 C0.67 9.99 0.34 10.98 0 12 C-6.34507042 12.35915493 -6.34507042 12.35915493 -8.9375 10.9375 C-10.63335287 7.84506242 -10.43060657 5.44485259 -10 2 C-7.00303875 -1.6885677 -4.34072074 -1.22672543 0 0 Z " fill="#CED6DD" transform="translate(772,1273)"/>
<path d="M0 0 C2 3 2 3 2 6 C-1.63 6 -5.26 6 -9 6 C-8.01 7.485 -8.01 7.485 -7 9 C-5.02252878 9.36297936 -5.02252878 9.36297936 -2.875 9.1875 C-1.59625 9.125625 -0.3175 9.06375 1 9 C1 9.66 1 10.32 1 11 C-1.79870027 12.39935013 -3.90498792 12.25265405 -7 12 C-8.875 10.9375 -8.875 10.9375 -10 9 C-10.4375 5.5 -10.4375 5.5 -10 2 C-7.01983499 -1.66789539 -4.31348256 -1.31279904 0 0 Z " fill="#CFD7DE" transform="translate(715,1273)"/>
<path d="M0 0 C7.5261324 -0.12543554 7.5261324 -0.12543554 10.125 0.5625 C12.18976513 1.17589196 12.18976513 1.17589196 15.0625 0.4375 C18 0 18 0 21 2 C21.29296875 4.6015625 21.29296875 4.6015625 21.1875 7.625 C21.16042969 8.62789062 21.13335938 9.63078125 21.10546875 10.6640625 C21.07066406 11.43492188 21.03585937 12.20578125 21 13 C20.67 13 20.34 13 20 13 C19.93941406 12.36191406 19.87882813 11.72382812 19.81640625 11.06640625 C19.69072266 9.82697266 19.69072266 9.82697266 19.5625 8.5625 C19.48128906 7.73878906 19.40007813 6.91507813 19.31640625 6.06640625 C19.21069185 4.01337975 19.21069185 4.01337975 18 3 C16.35 3 14.7 3 13 3 C12.67 6.3 12.34 9.6 12 13 C11.34 13 10.68 13 10 13 C9.93941406 12.36191406 9.87882813 11.72382812 9.81640625 11.06640625 C9.73261719 10.24011719 9.64882813 9.41382813 9.5625 8.5625 C9.48128906 7.73878906 9.40007813 6.91507813 9.31640625 6.06640625 C9.21069185 4.01337975 9.21069185 4.01337975 8 3 C6.35 3 4.7 3 3 3 C2.67 6.3 2.34 9.6 2 13 C1.34 13 0.68 13 0 13 C0 8.71 0 4.42 0 0 Z " fill="#C7D0D8" transform="translate(865,1272)"/>
<path d="M0 0 C6.15234375 -0.09765625 6.15234375 -0.09765625 8 0 C9 1 9 1 9.09765625 3.50390625 C9.08605469 4.51324219 9.07445312 5.52257813 9.0625 6.5625 C9.05347656 7.57441406 9.04445313 8.58632812 9.03515625 9.62890625 C9.02355469 10.41136719 9.01195312 11.19382812 9 12 C7.52093108 12.02689216 6.04172517 12.04634621 4.5625 12.0625 C3.32693359 12.07990234 3.32693359 12.07990234 2.06640625 12.09765625 C0 12 0 12 -1 11 C-1.125 8.5 -1.125 8.5 -1 6 C0 5 0 5 3.5625 4.9375 C4.696875 4.958125 5.83125 4.97875 7 5 C6.67 4.01 6.34 3.02 6 2 C3.69 2 1.38 2 -1 2 C-0.67 1.34 -0.34 0.68 0 0 Z " fill="#DEE4E8" transform="translate(678,1322)"/>
<path d="M0 0 C3.3 0 6.6 0 10 0 C10 0.66 10 1.32 10 2 C7.36 2 4.72 2 2 2 C2 3.65 2 5.3 2 7 C3.134375 7.144375 4.26875 7.28875 5.4375 7.4375 C9 8 9 8 10 9 C10.1875 11.9375 10.1875 11.9375 10 15 C8 17 8 17 5.8359375 17.1953125 C5.02382813 17.17210937 4.21171875 17.14890625 3.375 17.125 C2.55773437 17.10695313 1.74046875 17.08890625 0.8984375 17.0703125 C0.27195312 17.04710937 -0.35453125 17.02390625 -1 17 C-1.33 16.01 -1.66 15.02 -2 14 C0.97 14.33 3.94 14.66 7 15 C7.33 13.35 7.66 11.7 8 10 C5.03 9.67 2.06 9.34 -1 9 C-0.67 6.03 -0.34 3.06 0 0 Z " fill="#B0BDC9" transform="translate(873,1317)"/>
<path d="M0 0 C3.3 0 6.6 0 10 0 C10 0.66 10 1.32 10 2 C7.36 2 4.72 2 2 2 C1.67 3.65 1.34 5.3 1 7 C2.918125 7.185625 2.918125 7.185625 4.875 7.375 C8.75 7.75 8.75 7.75 11 10 C10.43181818 15.56818182 10.43181818 15.56818182 9 17 C7.31391034 17.07205511 5.62499341 17.08386068 3.9375 17.0625 C3.01839844 17.05347656 2.09929688 17.04445313 1.15234375 17.03515625 C0.44207031 17.02355469 -0.26820313 17.01195312 -1 17 C-1.33 16.01 -1.66 15.02 -2 14 C0.97 14.33 3.94 14.66 7 15 C7 13.35 7 11.7 7 10 C4.36 9.67 1.72 9.34 -1 9 C-0.67 6.03 -0.34 3.06 0 0 Z " fill="#C0CAD4" transform="translate(859,1317)"/>
<path d="M0 0 C3.3 0 6.6 0 10 0 C10 0.66 10 1.32 10 2 C7.36 2 4.72 2 2 2 C2 3.65 2 5.3 2 7 C3.11375 7.12375 4.2275 7.2475 5.375 7.375 C9 8 9 8 11 10 C10.43181818 15.56818182 10.43181818 15.56818182 9 17 C7.00390625 17.16796875 7.00390625 17.16796875 4.5625 17.1875 C3.35787109 17.20876953 3.35787109 17.20876953 2.12890625 17.23046875 C0 17 0 17 -2 15 C1.06890187 13.46554906 3.70094266 14.45015711 7 15 C7.59070014 13.05396726 7.59070014 13.05396726 8 11 C6.03177114 9.03177114 2.65191291 9.33751619 0 9 C0 6.03 0 3.06 0 0 Z " fill="#C6D0D8" transform="translate(845,1317)"/>
<path d="M0 0 C2.5 0.25 2.5 0.25 4.5 2.25 C4.75 5.25 4.75 5.25 4.5 8.25 C3.84 8.91 3.18 9.57 2.5 10.25 C-0.79714793 9.92028521 -2.1226839 9.6273161 -4.5 7.25 C-4.75 4.75 -4.75 4.75 -4.5 2.25 C-2.5 0.25 -2.5 0.25 0 0 Z " fill="#2C4F6E" transform="translate(730.5,1273.75)"/>
<path d="M0 0 C2.375 0.75 2.375 0.75 3.375 1.75 C3.5625 4.6875 3.5625 4.6875 3.375 7.75 C2.715 8.41 2.055 9.07 1.375 9.75 C-1.75 9.375 -1.75 9.375 -4.625 8.75 C-5.95341008 3.31559513 -5.95341008 3.31559513 -4.5 0.8125 C-2.625 -0.25 -2.625 -0.25 0 0 Z " fill="#224767" transform="translate(661.625,1323.25)"/>
<path d="M0 0 C2.5 0.25 2.5 0.25 4.5 2.25 C4.75 4.75 4.75 4.75 4.5 7.25 C2.5 9.25 2.5 9.25 -0.5625 9.4375 C-3.5 9.25 -3.5 9.25 -4.5 8.25 C-4.6875 5.3125 -4.6875 5.3125 -4.5 2.25 C-2.5 0.25 -2.5 0.25 0 0 Z " fill="#214667" transform="translate(751.5,1273.75)"/>
<path d="M0 0 C2.5 0.25 2.5 0.25 4.5 2.25 C4.75 4.75 4.75 4.75 4.5 7.25 C2.5 9.25 2.5 9.25 0 9.5 C-2.5 9.25 -2.5 9.25 -4.5 7.25 C-4.75 4.75 -4.75 4.75 -4.5 2.25 C-2.5 0.25 -2.5 0.25 0 0 Z " fill="#214566" transform="translate(661.5,1273.75)"/>
<path d="M0 0 C4.29 0 8.58 0 13 0 C11.02989474 6.20583158 8.74844552 12.09851546 6 18 C5.34 18 4.68 18 4 18 C4.62816498 14.05050296 5.8645529 10.80107972 7.5625 7.1875 C8.01753906 6.21167969 8.47257813 5.23585938 8.94140625 4.23046875 C9.29074219 3.49441406 9.64007812 2.75835938 10 2 C7.36 2 4.72 2 2 2 C2 2.99 2 3.98 2 5 C1.34 5 0.68 5 0 5 C0 3.35 0 1.7 0 0 Z " fill="#C0CBD4" transform="translate(906,1317)"/>
<path d="M0 0 C0.66 0 1.32 0 2 0 C2.33 3.3 2.66 6.6 3 10 C4.65 10 6.3 10 8 10 C9.58272601 8.41727399 9.34735747 6.61965997 9.5625 4.4375 C9.64628906 3.61121094 9.73007812 2.78492188 9.81640625 1.93359375 C9.87699219 1.29550781 9.93757812 0.65742187 10 0 C10.66 0 11.32 0 12 0 C12 4.29 12 8.58 12 13 C10.39125 13.04125 8.7825 13.0825 7.125 13.125 C6.22007812 13.14820313 5.31515625 13.17140625 4.3828125 13.1953125 C2 13 2 13 0 11 C-0.1953125 8.3984375 -0.1953125 8.3984375 -0.125 5.375 C-0.10695313 4.37210938 -0.08890625 3.36921875 -0.0703125 2.3359375 C-0.04710937 1.56507812 -0.02390625 0.79421875 0 0 Z " fill="#C7D0D8" transform="translate(817,1272)"/>
<path d="M0 0 C0.33 0 0.66 0 1 0 C1.06058594 0.63808594 1.12117187 1.27617188 1.18359375 1.93359375 C1.26738281 2.75988281 1.35117187 3.58617187 1.4375 4.4375 C1.51871094 5.26121094 1.59992187 6.08492187 1.68359375 6.93359375 C1.78930815 8.98662025 1.78930815 8.98662025 3 10 C4.65 10 6.3 10 8 10 C8.33 6.7 8.66 3.4 9 0 C9.99 0 10.98 0 12 0 C12 4.29 12 8.58 12 13 C10.39125 13.04125 8.7825 13.0825 7.125 13.125 C6.22007812 13.14820313 5.31515625 13.17140625 4.3828125 13.1953125 C2 13 2 13 0 11 C-0.1953125 8.3984375 -0.1953125 8.3984375 -0.125 5.375 C-0.10695313 4.37210938 -0.08890625 3.36921875 -0.0703125 2.3359375 C-0.04710937 1.56507812 -0.02390625 0.79421875 0 0 Z " fill="#B7C2CD" transform="translate(673,1272)"/>
<path d="M0 0 C0.66 0 1.32 0 2 0 C2.33 3.3 2.66 6.6 3 10 C4.65 10 6.3 10 8 10 C9.58272601 8.41727399 9.34735747 6.61965997 9.5625 4.4375 C9.64628906 3.61121094 9.73007812 2.78492188 9.81640625 1.93359375 C9.87699219 1.29550781 9.93757813 0.65742188 10 0 C10.66 0 11.32 0 12 0 C12 4.29 12 8.58 12 13 C10.68 13 9.36 13 8 13 C6.453125 13.061875 6.453125 13.061875 4.875 13.125 C2 13 2 13 0 11 C-0.1953125 8.3984375 -0.1953125 8.3984375 -0.125 5.375 C-0.10695313 4.37210937 -0.08890625 3.36921875 -0.0703125 2.3359375 C-0.04710937 1.56507813 -0.02390625 0.79421875 0 0 Z " fill="#C0C7CD" transform="translate(499,497)"/>
<path d="M0 0 C3.94726562 -0.42905061 6.61242079 -0.08466413 10 2 C10.51161216 4.81386691 10.35700062 6.47661947 8.734375 8.85546875 C4.63306452 13.68346774 4.63306452 13.68346774 2 15 C4.64 15.33 7.28 15.66 10 16 C10 16.33 10 16.66 10 17 C6.04 17 2.08 17 -2 17 C3.73529412 10.24509804 3.73529412 10.24509804 5.6875 8.4375 C7.28017119 6.99205452 7.28017119 6.99205452 7.1875 4.3125 C7.125625 3.549375 7.06375 2.78625 7 2 C2.545 2.495 2.545 2.495 -2 3 C-1.34 2.01 -0.68 1.02 0 0 Z " fill="#CCD4DC" transform="translate(825,1317)"/>
<path d="M0 0 C4.29 0 8.58 0 13 0 C11.48621637 3.78445907 9.94548039 7.55161276 8.375 11.3125 C7.92898438 12.38113281 7.48296875 13.44976563 7.0234375 14.55078125 C6.51683594 15.76314453 6.51683594 15.76314453 6 17 C5.34 17 4.68 17 4 17 C4.65419099 11.93001981 6.8546409 7.58009223 9 3 C6.69 2.67 4.38 2.34 2 2 C2 2.99 2 3.98 2 5 C1.34 5 0.68 5 0 5 C0 3.35 0 1.7 0 0 Z " fill="#C5CFD7" transform="translate(921,1317)"/>
<path d="M0 0 C3.51843231 -0.45892595 5.34860502 -0.41140736 8.375 1.5 C8.91125 1.995 9.4475 2.49 10 3 C9.58243961 7.87153789 7.50267008 9.75362285 4 13 C3.01 14.485 3.01 14.485 2 16 C4.64 16 7.28 16 10 16 C10 16.33 10 16.66 10 17 C6.37 17 2.74 17 -1 17 C1 13 1 13 3.5625 10.625 C6.32281376 7.65235442 6.72254985 5.97678555 7 2 C2.545 2.495 2.545 2.495 -2 3 C-1.34 2.01 -0.68 1.02 0 0 Z " fill="#CFD7DE" transform="translate(811,1317)"/>
<path d="M0 0 C0.90492188 0.02320313 1.80984375 0.04640625 2.7421875 0.0703125 C4.10730469 0.09738281 4.10730469 0.09738281 5.5 0.125 C6.19867187 0.14820313 6.89734375 0.17140625 7.6171875 0.1953125 C7.66617188 0.89398437 7.71515625 1.59265625 7.765625 2.3125 C7.84039063 3.22257812 7.91515625 4.13265625 7.9921875 5.0703125 C8.06179688 5.97523437 8.13140625 6.88015625 8.203125 7.8125 C8.41286882 10.37473153 8.41286882 10.37473153 10.6171875 12.1953125 C9.8128125 12.0096875 9.0084375 11.8240625 8.1796875 11.6328125 C7.3340625 11.4884375 6.4884375 11.3440625 5.6171875 11.1953125 C5.2871875 11.5253125 4.9571875 11.8553125 4.6171875 12.1953125 C-0.58458634 12.64764066 -0.58458634 12.64764066 -3.2578125 11.1328125 C-5.00254727 8.12799151 -4.69116693 5.58721119 -4.3828125 2.1953125 C-2.3828125 0.1953125 -2.3828125 0.1953125 0 0 Z M-3.3828125 3.1953125 C-3.75077698 6.06543546 -3.75790659 7.60305868 -2.1953125 10.0703125 C-0.36335406 11.46078642 -0.36335406 11.46078642 2.2421875 10.9453125 C4.5484282 10.41785605 4.5484282 10.41785605 5.6171875 9.1953125 C5.86724136 6.23714143 5.86724136 6.23714143 5.6171875 3.1953125 C3.79015523 0.9461217 3.79015523 0.9461217 1.1171875 0.9453125 C-1.55578023 0.9461217 -1.55578023 0.9461217 -3.3828125 3.1953125 Z " fill="#D3DBE1" transform="translate(729.3828125,1272.8046875)"/>
<path d="M0 0 C4.29 0 8.58 0 13 0 C11.11994266 6.01618347 8.93937169 11.42532955 6 17 C5.34 16.67 4.68 16.34 4 16 C5.98 11.38 7.96 6.76 10 2 C7.36 2 4.72 2 2 2 C2 2.99 2 3.98 2 5 C1.34 5 0.68 5 0 5 C0 3.35 0 1.7 0 0 Z " fill="#CDD6DD" transform="translate(935,1317)"/>
<path d="M0 0 C4.62 0 9.24 0 14 0 C14 0.66 14 1.32 14 2 C12.02 2 10.04 2 8 2 C8 6.95 8 11.9 8 17 C7.34 17 6.68 17 6 17 C6 12.05 6 7.1 6 2 C4.02 2 2.04 2 0 2 C0 1.34 0 0.68 0 0 Z " fill="#C3CDD6" transform="translate(598,1317)"/>
<path d="M0 0 C3.96 0 7.92 0 12 0 C11.15813297 4.20933513 10.10885537 7.41267079 8.4375 11.3125 C7.98246094 12.38113281 7.52742187 13.44976563 7.05859375 14.55078125 C6.53458984 15.76314453 6.53458984 15.76314453 6 17 C5.34 17 4.68 17 4 17 C5.63958758 11.76727367 7.38952035 6.84803364 10 2 C7.36 2 4.72 2 2 2 C2 2.99 2 3.98 2 5 C1.34 5 0.68 5 0 5 C0 3.35 0 1.7 0 0 Z " fill="#DAE0E5" transform="translate(892,1317)"/>
<path d="M0 0 C0.99 0 1.98 0 3 0 C4.7634375 -0.061875 4.7634375 -0.061875 6.5625 -0.125 C10 0 10 0 12 2 C12.1953125 4.3828125 12.1953125 4.3828125 12.125 7.125 C12.10695313 8.03507812 12.08890625 8.94515625 12.0703125 9.8828125 C12.04710937 10.58148437 12.02390625 11.28015625 12 12 C11.34 12 10.68 12 10 12 C9.67 9.03 9.34 6.06 9 3 C7.34385343 2.61781233 5.67542976 2.28604898 4 2 C2.41727399 3.58272601 2.65264253 5.38034003 2.4375 7.5625 C2.35371094 8.38878906 2.26992188 9.21507812 2.18359375 10.06640625 C2.12300781 10.70449219 2.06242188 11.34257813 2 12 C1.34 12 0.68 12 0 12 C0 8.04 0 4.08 0 0 Z " fill="#D2DAE0" transform="translate(722,1322)"/>
<path d="M0 0 C3 0 3 0 5.1875 2 C5.785625 2.66 6.38375 3.32 7 4 C7.66 2.68 8.32 1.36 9 0 C9.66 0 10.32 0 11 0 C10.649375 0.53625 10.29875 1.0725 9.9375 1.625 C8.36045025 5.62019269 9.68470008 9.05410025 11 13 C10.34 13 9.68 13 9 13 C8.34 11.35 7.68 9.7 7 8 C5.35 9.65 3.7 11.3 2 13 C1.34 12.67 0.68 12.34 0 12 C0.515625 11.443125 1.03125 10.88625 1.5625 10.3125 C3.25919193 8.08891765 3.25919193 8.08891765 2.8125 5.4375 C2.04750731 2.78621711 2.04750731 2.78621711 0 0 Z " fill="#BFC6CC" transform="translate(455,497)"/>
<path d="M0 0 C0.99 0.33 1.98 0.66 3 1 C3.99 0.814375 4.98 0.62875 6 0.4375 C9 0 9 0 12 2 C12.29296875 4.6015625 12.29296875 4.6015625 12.1875 7.625 C12.16042969 8.62789062 12.13335938 9.63078125 12.10546875 10.6640625 C12.07066406 11.43492188 12.03585937 12.20578125 12 13 C11.67 13 11.34 13 11 13 C10.93941406 12.36191406 10.87882813 11.72382812 10.81640625 11.06640625 C10.73261719 10.24011719 10.64882813 9.41382813 10.5625 8.5625 C10.48128906 7.73878906 10.40007813 6.91507813 10.31640625 6.06640625 C10.21069185 4.01337975 10.21069185 4.01337975 9 3 C6.5 2.83333333 6.5 2.83333333 4 3 C2.41727399 4.58272601 2.65264253 6.38034003 2.4375 8.5625 C2.35371094 9.38878906 2.26992188 10.21507812 2.18359375 11.06640625 C2.12300781 11.70449219 2.06242188 12.34257813 2 13 C1.34 13 0.68 13 0 13 C0 8.71 0 4.42 0 0 Z " fill="#CFD7DE" transform="translate(639,1272)"/>
<path d="M0 0 C2.46800047 1.15173355 4.04783565 2.04783565 6 4 C6.99 2.68 7.98 1.36 9 0 C9.66 0.33 10.32 0.66 11 1 C10.484375 1.5775 9.96875 2.155 9.4375 2.75 C7.77821334 4.83907305 7.77821334 4.83907305 8.1875 7 C9.02579209 9.06348821 9.94827807 11.03678574 11 13 C8.53199953 11.84826645 6.95216435 10.95216435 5 9 C4.01 10.32 3.02 11.64 2 13 C1.34 12.67 0.68 12.34 0 12 C0.515625 11.4225 1.03125 10.845 1.5625 10.25 C3.22178666 8.16092695 3.22178666 8.16092695 2.8125 6 C1.97420791 3.93651179 1.05172193 1.96321426 0 0 Z " fill="#CBD3DB" transform="translate(776,1272)"/>
<path d="M0 0 C6.8359375 -0.1953125 6.8359375 -0.1953125 9 0 C9.66 0.66 10.32 1.32 11 2 C9 3 9 3 4 3 C3.67 6.3 3.34 9.6 3 13 C2.01 13 1.02 13 0 13 C0 8.71 0 4.42 0 0 Z " fill="#B7BFC6" transform="translate(515,497)"/>
<path d="M0 0 C0.66 0 1.32 0 2 0 C2 0.99 2 1.98 2 3 C3.32 3 4.64 3 6 3 C6 3.66 6 4.32 6 5 C4.68 5 3.36 5 2 5 C2 7.97 2 10.94 2 14 C3.32 14 4.64 14 6 14 C6 14.66 6 15.32 6 16 C4.33388095 16.042721 2.66617115 16.04063832 1 16 C0 15 0 15 -0.09765625 12.71484375 C-0.08025391 11.34005859 -0.08025391 11.34005859 -0.0625 9.9375 C-0.05347656 9.01839844 -0.04445313 8.09929687 -0.03515625 7.15234375 C-0.02355469 6.44207031 -0.01195312 5.73179688 0 5 C-0.66 5 -1.32 5 -2 5 C-2 4.34 -2 3.68 -2 3 C-1.34 3 -0.68 3 0 3 C0 2.01 0 1.02 0 0 Z " fill="#D0D8DE" transform="translate(791,1269)"/>
<path d="M0 0 C0.99 0 1.98 0 3 0 C3 0.99 3 1.98 3 3 C3.99 3 4.98 3 6 3 C6 3.66 6 4.32 6 5 C4.68 5 3.36 5 2 5 C2.08708669 6.45945288 2.19526907 7.91765868 2.3125 9.375 C2.37050781 10.18710938 2.42851563 10.99921875 2.48828125 11.8359375 C2.82990528 14.37921338 2.82990528 14.37921338 6 16 C4.35 16 2.7 16 1 16 C-0.20272819 13.59454362 -0.10071472 12.05003047 -0.0625 9.375 C-0.05347656 8.55773438 -0.04445313 7.74046875 -0.03515625 6.8984375 C-0.02355469 6.27195312 -0.01195312 5.64546875 0 5 C-0.66 5 -1.32 5 -2 5 C-2 4.34 -2 3.68 -2 3 C-1.34 3 -0.68 3 0 3 C0 2.01 0 1.02 0 0 Z " fill="#B3C0CB" transform="translate(692,1318)"/>
<path d="M0 0 C2.20914 3.31371 2.22481553 4.3446021 2.125 8.1875 C2.10695313 9.08855469 2.08890625 9.98960938 2.0703125 10.91796875 C2.03550781 11.94857422 2.03550781 11.94857422 2 13 C1.01 12.67 0.02 12.34 -1 12 C-1.33 8.7 -1.66 5.4 -2 2 C-3.423125 2.309375 -3.423125 2.309375 -4.875 2.625 C-5.90625 2.74875 -6.9375 2.8725 -8 3 C-8.66 2.34 -9.32 1.68 -10 1 C-6.457201 -0.180933 -3.71640139 -0.27028374 0 0 Z " fill="#B4C1CC" transform="translate(648,1322)"/>
<path d="M0 0 C1.5675 -0.04125 3.135 -0.0825 4.75 -0.125 C5.63171875 -0.14820313 6.5134375 -0.17140625 7.421875 -0.1953125 C10.14906426 0.01129275 11.71315408 0.52694159 14 2 C15.4783226 4.95664519 15.06032783 7.74229737 15 11 C14.67 11 14.34 11 14 11 C13.731875 10.071875 13.46375 9.14375 13.1875 8.1875 C11.88318791 4.4163384 11.88318791 4.4163384 9 2 C6.31945841 1.45858368 3.73632553 1.22428898 1 1 C1 5.95 1 10.9 1 16 C0.67 16 0.34 16 0 16 C0 10.72 0 5.44 0 0 Z " fill="#E8EAED" transform="translate(423,493)"/>
<path d="M0 0 C0.99 0.33 1.98 0.66 3 1 C4.010625 0.814375 5.02125 0.62875 6.0625 0.4375 C7.031875 0.293125 8.00125 0.14875 9 0 C9.66 0.66 10.32 1.32 11 2 C8.53925394 3.23037303 6.7202437 3 4 3 C2.41727399 4.58272601 2.65264253 6.38034003 2.4375 8.5625 C2.35371094 9.38878906 2.26992188 10.21507812 2.18359375 11.06640625 C2.12300781 11.70449219 2.06242188 12.34257813 2 13 C1.34 13 0.68 13 0 13 C0 8.71 0 4.42 0 0 Z " fill="#C8D1D9" transform="translate(833,1272)"/>
<path d="M0 0 C0.66 0 1.32 0 2 0 C2 5.61 2 11.22 2 17 C1.34 16.67 0.68 16.34 0 16 C-0.103125 14.906875 -0.20625 13.81375 -0.3125 12.6875 C-0.65505939 8.85142341 -0.65505939 8.85142341 -3.5625 6.5625 C-4.366875 6.046875 -5.17125 5.53125 -6 5 C-3.525 5.495 -3.525 5.495 -1 6 C-0.67 4.02 -0.34 2.04 0 0 Z " fill="#D6DDE3" transform="translate(756,1267)"/>
<path d="M0 0 C0.66 0.33 1.32 0.66 2 1 C1.67 1.33 1.34 1.66 1 2 C0.83333333 5 0.83333333 5 1 8 C2.18424326 9.41577477 2.18424326 9.41577477 5.5625 9.0625 C7.2640625 9.0315625 7.2640625 9.0315625 9 9 C8.67 9.99 8.34 10.98 8 12 C1.65492958 12.35915493 1.65492958 12.35915493 -0.9375 10.9375 C-2.59162584 7.92115289 -2.30575763 5.36333392 -2 2 C-1.34 1.34 -0.68 0.68 0 0 Z " fill="#C3C9CF" transform="translate(443,498)"/>
<path d="M0 0 C3.63 0 7.26 0 11 0 C10 3 10 3 8 4 C6.00039988 4.039992 3.99952758 4.04346799 2 4 C1.34 2.68 0.68 1.36 0 0 Z " fill="#2A4D6D" transform="translate(763,1279)"/>
<path d="M0 0 C3.63 0 7.26 0 11 0 C10 3 10 3 8 4 C6.00039988 4.039992 3.99952758 4.04346799 2 4 C1.34 2.68 0.68 1.36 0 0 Z " fill="#294C6C" transform="translate(706,1279)"/>
<path d="M0 0 C0.66 0.66 1.32 1.32 2 2 C4.66949409 2.24315656 4.66949409 2.24315656 7.625 2.125 C8.62789062 2.10695313 9.63078125 2.08890625 10.6640625 2.0703125 C11.82035156 2.03550781 11.82035156 2.03550781 13 2 C13 2.33 13 2.66 13 3 C9.7 3 6.4 3 3 3 C3.99 4.485 3.99 4.485 5 6 C8.58357241 6.25015873 8.58357241 6.25015873 12 6 C11.67 6.66 11.34 7.32 11 8 C3.5577342 8.48801743 3.5577342 8.48801743 1 6.25 C0 4 0 4 0 0 Z " fill="#B3C0CB" transform="translate(700,1326)"/>
<path d="M0 0 C0.99 0.33 1.98 0.66 3 1 C5.14255793 0.61067144 5.14255793 0.61067144 7 0 C7 0.66 7 1.32 7 2 C6.35546875 2.23460937 5.7109375 2.46921875 5.046875 2.7109375 C2.7922092 3.81161073 2.7922092 3.81161073 2.390625 6.1640625 C2.34421875 6.97617187 2.2978125 7.78828125 2.25 8.625 C2.19328125 9.44226563 2.1365625 10.25953125 2.078125 11.1015625 C2.05234375 11.72804688 2.0265625 12.35453125 2 13 C1.34 13 0.68 13 0 13 C0 8.71 0 4.42 0 0 Z " fill="#C0C7CD" transform="translate(482,497)"/>
<path d="M0 0 C1.98 0 3.96 0 6 0 C6 0.66 6 1.32 6 2 C4.68 2.33 3.36 2.66 2 3 C2 6.3 2 9.6 2 13 C1.34 13 0.68 13 0 13 C0 8.71 0 4.42 0 0 Z " fill="#CCD4DB" transform="translate(696,1272)"/>
<path d="M0 0 C0.99 0.495 0.99 0.495 2 1 C3.99960012 1.039992 6.00047242 1.04346799 8 1 C8.33 2.32 8.66 3.64 9 5 C6.36 5 3.72 5 1 5 C0.67 3.35 0.34 1.7 0 0 Z " fill="#375876" transform="translate(890,1273)"/>
<path d="M0 0 C1.98 0 3.96 0 6 0 C5.125 3.875 5.125 3.875 4 5 C2.33382885 5.04063832 0.66611905 5.042721 -1 5 C-0.67 3.35 -0.34 1.7 0 0 Z " fill="#305371" transform="translate(680,1328)"/>
<path d="M0 0 C2.31 0.33 4.62 0.66 7 1 C7 1.99 7 2.98 7 4 C4.03 4 1.06 4 -2 4 C-1.34 2.68 -0.68 1.36 0 0 Z " fill="#3A5B78" transform="translate(765,1274)"/>
<path d="M0 0 C3.3 0 6.6 0 10 0 C9.01 0.495 9.01 0.495 8 1 C8 1.99 8 2.98 8 4 C6.02 4 4.04 4 2 4 C1.34 2.68 0.68 1.36 0 0 Z " fill="#183147" transform="translate(443,504)"/>
<path d="M0 0 C1.65 0 3.3 0 5 0 C5.66 1.32 6.32 2.64 7 4 C4.03 4 1.06 4 -2 4 C-1.34 2.68 -0.68 1.36 0 0 Z " fill="#2B4E6E" transform="translate(741,1323)"/>
<path d="M0 0 C1.65 0 3.3 0 5 0 C5.66 1.32 6.32 2.64 7 4 C4.03 4 1.06 4 -2 4 C-1.34 2.68 -0.68 1.36 0 0 Z " fill="#2D506F" transform="translate(704,1323)"/>
<path d="M0 0 C1.4540625 0.0309375 1.4540625 0.0309375 2.9375 0.0625 C2.6075 1.3825 2.2775 2.7025 1.9375 4.0625 C0.2875 4.3925 -1.3625 4.7225 -3.0625 5.0625 C-3.625 3.125 -3.625 3.125 -4.0625 1.0625 C-3.0625 0.0625 -3.0625 0.0625 0 0 Z " fill="#2D506F" transform="translate(896.0625,1278.9375)"/>
<path d="M0 0 C1.65 0 3.3 0 5 0 C5.66 1.32 6.32 2.64 7 4 C4.03 4 1.06 4 -2 4 C-1.34 2.68 -0.68 1.36 0 0 Z " fill="#385976" transform="translate(708,1274)"/>
<path d="M0 0 C1.11375 0.185625 2.2275 0.37125 3.375 0.5625 C6.82568861 1.31680657 6.82568861 1.31680657 9 0 C9.66 2.97 10.32 5.94 11 9 C10.34 9 9.68 9 9 9 C9 7.02 9 5.04 9 3 C8.01 3.495 8.01 3.495 7 4 C5.00039988 4.039992 2.99952758 4.04346799 1 4 C0.67 2.68 0.34 1.36 0 0 Z " fill="#BBC6D0" transform="translate(657,1281)"/>
<path d="M0 0 C3.96 0 7.92 0 12 0 C10 2 10 2 8.0546875 2.1953125 C6.03645833 2.13020833 4.01822917 2.06510417 2 2 C2 2.99 2 3.98 2 5 C1.34 5 0.68 5 0 5 C0 3.35 0 1.7 0 0 Z " fill="#BDC8D1" transform="translate(892,1317)"/>
<path d="M0 0 C0.33 0.99 0.66 1.98 1 3 C3.01508358 3.73323796 3.01508358 3.73323796 5 4 C3.68 4 2.36 4 1 4 C1.06006078 5.45947705 1.1488689 6.91779272 1.25 8.375 C1.29640625 9.18710938 1.3428125 9.99921875 1.390625 10.8359375 C1.7922092 13.18838927 1.7922092 13.18838927 4.046875 14.2890625 C4.69140625 14.52367187 5.3359375 14.75828125 6 15 C4.33388095 15.042721 2.66617115 15.04063832 1 15 C0 14 0 14 -0.09765625 11.71484375 C-0.08605469 10.79832031 -0.07445312 9.88179687 -0.0625 8.9375 C-0.05347656 8.01839844 -0.04445313 7.09929687 -0.03515625 6.15234375 C-0.02355469 5.44207031 -0.01195312 4.73179688 0 4 C-0.99 3.67 -1.98 3.34 -3 3 C-2.01 3 -1.02 3 0 3 C0 2.01 0 1.02 0 0 Z " fill="#E5E9ED" transform="translate(754,1319)"/>
<path d="M0 0 C3.3 0 6.6 0 10 0 C10 0.66 10 1.32 10 2 C7.36 2 4.72 2 2 2 C2 3.65 2 5.3 2 7 C0 4 0 4 0 0 Z " fill="#B0BDC8" transform="translate(845,1317)"/>
<path d="M0 0 C0.66 0 1.32 0 2 0 C3.4783226 2.95664519 3.06032783 5.74229737 3 9 C2.01 9.33 1.02 9.66 0 10 C0 6.7 0 3.4 0 0 Z " fill="#234868" transform="translate(738,1273)"/>
<path d="M0 0 C1.65 0.33 3.3 0.66 5 1 C5.33 1.99 5.66 2.98 6 4 C3.36 4 0.72 4 -2 4 C-1.34 2.68 -0.68 1.36 0 0 Z " fill="#214667" transform="translate(616,1323)"/>
<path d="M0 0 C1.98 0 3.96 0 6 0 C6 0.66 6 1.32 6 2 C5.35546875 2.23460937 4.7109375 2.46921875 4.046875 2.7109375 C1.7922092 3.81161073 1.7922092 3.81161073 1.390625 6.1640625 C1.34421875 6.97617188 1.2978125 7.78828125 1.25 8.625 C1.19328125 9.44226562 1.1365625 10.25953125 1.078125 11.1015625 C1.05234375 11.72804688 1.0265625 12.35453125 1 13 C0.67 13 0.34 13 0 13 C0 8.71 0 4.42 0 0 Z " fill="#E4E8EC" transform="translate(801,1272)"/>
<path d="M0 0 C0.33 0 0.66 0 1 0 C1.125 2.375 1.125 2.375 1 5 C-1 7 -1 7 -3.1640625 7.1953125 C-4.38222656 7.16050781 -4.38222656 7.16050781 -5.625 7.125 C-6.44226563 7.10695313 -7.25953125 7.08890625 -8.1015625 7.0703125 C-8.72804688 7.04710937 -9.35453125 7.02390625 -10 7 C-10.33 6.01 -10.66 5.02 -11 4 C-8.03 4.33 -5.06 4.66 -2 5 C-1.34 3.35 -0.68 1.7 0 0 Z " fill="#DBE1E6" transform="translate(882,1327)"/>
<path d="M0 0 C1.65 0 3.3 0 5 0 C5.33 1.32 5.66 2.64 6 4 C4.02 4 2.04 4 0 4 C0 2.68 0 1.36 0 0 Z " fill="#305271" transform="translate(679,1323)"/>
<path d="M0 0 C0.33 0 0.66 0 1 0 C1.01417969 0.60328125 1.02835938 1.2065625 1.04296875 1.828125 C1.31278946 7.28876584 1.31278946 7.28876584 4.5625 11.5625 C5.366875 12.036875 6.17125 12.51125 7 13 C4.625 13.125 4.625 13.125 2 13 C0 11 0 11 -0.1953125 8.3984375 C-0.17210937 7.40070313 -0.14890625 6.40296875 -0.125 5.375 C-0.10695313 4.37210938 -0.08890625 3.36921875 -0.0703125 2.3359375 C-0.04710937 1.56507812 -0.02390625 0.79421875 0 0 Z " fill="#E1E6EB" transform="translate(673,1272)"/>
<path d="M0 0 C1.98 0 3.96 0 6 0 C6.33 0.99 6.66 1.98 7 3 C4.36 3 1.72 3 -1 3 C-0.67 2.01 -0.34 1.02 0 0 Z " fill="#1B344A" transform="translate(444,499)"/>
<path d="M0 0 C0.66 0 1.32 0 2 0 C1.67 1.98 1.34 3.96 1 6 C3.31 6 5.62 6 8 6 C8 6.33 8 6.66 8 7 C1.84765625 7.09765625 1.84765625 7.09765625 0 7 C-1 6 -1 6 -1.125 3.5 C-1 1 -1 1 0 0 Z " fill="#C3CDD6" transform="translate(678,1327)"/>
<path d="M0 0 C0.33 0 0.66 0 1 0 C1.33 2.64 1.66 5.28 2 8 C3.32 8.33 4.64 8.66 6 9 C6 9.66 6 10.32 6 11 C4.33388095 11.042721 2.66617115 11.04063832 1 11 C0 10 0 10 -0.09765625 7.71484375 C-0.08605469 6.79832031 -0.07445312 5.88179687 -0.0625 4.9375 C-0.05347656 4.01839844 -0.04445313 3.09929687 -0.03515625 2.15234375 C-0.02355469 1.44207031 -0.01195312 0.73179688 0 0 Z " fill="#D7DEE4" transform="translate(791,1274)"/>
<path d="M0 0 C4.875 0.875 4.875 0.875 6 2 C6.07226502 3.85287502 6.0838122 5.70833878 6.0625 7.5625 C6.05347656 8.57441406 6.04445313 9.58632812 6.03515625 10.62890625 C6.02355469 11.41136719 6.01195312 12.19382812 6 13 C5.67 13 5.34 13 5 13 C4.97421875 12.39671875 4.9484375 11.7934375 4.921875 11.171875 C4.59668017 5.89464661 4.59668017 5.89464661 1.9375 1.4375 C1.298125 0.963125 0.65875 0.48875 0 0 Z " fill="#E1E6EA" transform="translate(880,1272)"/>
<path d="M0 0 C2.00051495 0.25813096 4.00116001 0.52048354 5.9921875 0.84375 C8.20703469 1.1470326 8.20703469 1.1470326 11 0 C10.67 0.99 10.34 1.98 10 3 C8.54207116 3.05399736 7.08357288 3.09279177 5.625 3.125 C4.81289063 3.14820313 4.00078125 3.17140625 3.1640625 3.1953125 C1 3 1 3 -1 1 C-0.67 0.67 -0.34 0.34 0 0 Z " fill="#D2D9E0" transform="translate(844,1331)"/>
<path d="M0 0 C0.66 0.33 1.32 0.66 2 1 C-0.64 3.64 -3.28 6.28 -6 9 C-6 6 -6 6 -3.5625 3.375 C-2.716875 2.59125 -1.87125 1.8075 -1 1 C-0.67 0.67 -0.34 0.34 0 0 Z " fill="#344A5E" transform="translate(698,741)"/>
<path d="M0 0 C0.66 1.32 1.32 2.64 2 4 C-0.97 4 -3.94 4 -7 4 C-7 3.01 -7 2.02 -7 1 C-5.824375 1.309375 -5.824375 1.309375 -4.625 1.625 C-3.75875 1.74875 -2.8925 1.8725 -2 2 C-1.34 1.34 -0.68 0.68 0 0 Z " fill="#DAE0E5" transform="translate(899,1281)"/>
</svg>
