<?xml version="1.0" standalone="no"?>
<!DOCTYPE svg PUBLIC "-//W3C//DTD SVG 20010904//EN"
 "http://www.w3.org/TR/2001/REC-SVG-20010904/DTD/svg10.dtd">
<svg version="1.0" xmlns="http://www.w3.org/2000/svg"
 width="1200.000000pt" height="1700.000000pt" viewBox="0 0 1200.000000 1700.000000"
 preserveAspectRatio="xMidYMid meet">

<g transform="translate(0.000000,1700.000000) scale(0.100000,-0.100000)"
fill="#000000" stroke="none">
<path d="M0 15965 l0 -1034 87 -3 c74 -3 88 -6 91 -20 3 -16 -6 -18 -87 -18
l-91 0 0 -100 c0 -55 4 -100 9 -100 5 0 17 7 25 16 21 20 70 34 123 34 l43 0
0 74 c0 58 3 75 16 80 9 3 92 6 185 6 144 0 169 2 169 15 0 9 9 15 25 15 14 0
25 5 25 10 0 6 9 10 19 10 10 0 21 7 25 15 3 9 18 15 35 15 16 0 36 6 43 14 8
7 29 17 46 21 18 3 32 12 32 20 0 7 17 15 39 19 27 4 40 12 44 26 4 15 14 20
36 20 17 0 31 4 31 9 0 4 34 14 75 20 69 12 75 14 75 37 0 20 5 24 29 24 16 0
32 6 34 13 3 6 6 -99 6 -235 l1 -248 660 0 660 0 0 449 0 449 55 7 c30 3 55
11 55 16 0 5 9 9 20 9 11 0 20 4 20 9 0 5 8 12 18 15 35 13 73 38 79 52 3 8
11 14 19 14 7 0 16 15 19 33 l7 34 126 6 c70 4 238 7 375 7 236 0 247 1 247
19 0 10 7 21 15 25 8 3 15 11 15 18 0 13 44 38 67 38 7 0 13 5 13 11 0 17 27
39 48 39 10 0 30 9 43 21 22 19 32 21 115 15 95 -7 217 13 239 40 6 6 22 14
38 18 15 4 27 13 27 20 0 21 26 28 128 33 50 3 92 9 92 13 0 4 21 11 48 15 30
4 54 15 67 29 11 12 28 25 37 29 10 3 18 16 18 27 0 11 7 20 15 20 8 0 15 5
15 10 0 6 63 10 170 10 162 0 170 1 170 20 0 10 9 24 20 30 11 6 20 17 20 25
0 7 8 16 19 20 10 3 31 17 47 30 16 14 37 25 47 25 9 0 17 5 17 10 0 6 9 10
20 10 11 0 20 5 20 10 0 6 50 10 130 10 103 0 132 3 136 14 3 8 21 17 40 21
19 3 38 13 41 21 3 7 16 14 29 14 13 0 24 5 24 10 0 6 9 10 20 10 11 0 20 7
20 15 0 12 14 15 70 15 l70 0 0 73 0 74 347 6 c190 4 500 7 688 7 334 0 343 0
348 20 5 19 14 20 231 20 l226 0 -2 110 -3 110 -3777 0 -3778 0 0 -1035z
m5710 896 c0 -52 -4 -70 -15 -75 -8 -3 -15 -15 -15 -26 0 -19 -6 -20 -145 -20
-126 0 -145 2 -145 16 0 9 9 18 20 21 11 3 20 12 20 20 0 8 9 17 20 20 11 3
20 9 20 14 0 5 6 9 13 9 7 0 18 9 25 20 7 11 19 20 26 20 18 0 76 32 76 43 0
4 23 7 50 7 l50 0 0 -69z m-460 -51 l0 -70 -115 0 c-132 0 -138 5 -73 60 22
19 46 40 52 45 28 24 54 34 94 34 l42 1 0 -70z m-920 -445 l0 -95 -155 0
c-143 0 -155 1 -155 18 0 34 25 70 57 83 18 7 34 18 37 25 3 7 21 16 40 20 20
3 36 10 36 14 0 14 46 29 93 29 l47 1 0 -95z m-450 -75 c0 -19 -8 -20 -225
-20 -141 0 -225 4 -225 10 0 6 9 10 20 10 11 0 20 5 20 10 0 6 75 10 205 10
198 0 205 -1 205 -20z m-1400 -380 c0 -73 -3 -90 -15 -90 -12 0 -15 15 -15 75
l0 75 -200 0 c-171 0 -200 2 -200 15 0 13 31 15 215 15 l215 0 0 -90z m-410
-350 l0 -90 -95 0 -95 0 0 -240 0 -240 -110 0 -110 0 0 240 0 240 -100 0 -100
0 0 90 0 90 305 0 305 0 0 -90z m410 -360 l0 -450 -630 0 -630 0 0 255 c0 163
4 255 10 255 6 0 10 -58 10 -153 0 -85 3 -195 6 -245 l7 -92 592 0 c531 0 593
2 599 16 3 9 6 207 6 440 0 370 2 424 15 424 13 0 15 -57 15 -450z m-1360 285
l0 -125 -230 0 c-220 0 -230 1 -230 19 0 37 12 51 41 51 16 0 29 4 29 10 0 5
18 14 41 20 22 6 43 18 46 26 3 7 13 14 23 14 11 0 22 5 25 10 3 6 15 10 26
10 10 0 19 5 19 10 0 6 6 10 13 10 7 0 22 8 33 19 12 10 44 22 72 26 29 4 52
11 52 16 0 5 9 9 20 9 19 0 20 -7 20 -125z m1111 -278 c70 -47 70 -147 0 -194
-116 -78 -247 76 -154 180 39 42 103 48 154 14z m-1571 -77 c0 -5 -21 -9 -47
-9 -43 1 -45 2 -18 9 44 11 65 11 65 0z"/>
<path d="M8020 16985 c0 -13 32 -15 225 -15 193 0 225 2 225 15 0 13 -32 15
-225 15 -193 0 -225 -2 -225 -15z"/>
<path d="M11768 16993 c46 -2 118 -2 160 0 42 1 5 3 -83 3 -88 0 -123 -2 -77
-3z"/>
<path d="M9986 16894 c-12 -31 -7 -74 9 -74 8 0 15 -4 15 -10 0 -15 39 -12 56
4 16 17 19 56 4 56 -5 0 -10 9 -10 20 0 16 -7 20 -34 20 -22 0 -36 -6 -40 -16z"/>
<path d="M6769 16342 c-77 -64 -146 -124 -249 -212 -110 -95 -223 -191 -425
-360 -88 -74 -165 -139 -171 -145 -7 -5 -46 -39 -88 -74 l-76 -64 -1 -86 c0
-47 -6 -167 -13 -266 -7 -99 -11 -185 -9 -191 2 -5 -76 -77 -173 -160 -98 -82
-200 -169 -229 -194 -61 -54 -138 -119 -475 -405 -291 -247 -617 -525 -634
-540 -6 -6 -56 -49 -111 -95 -55 -46 -177 -151 -271 -231 l-172 -148 -88 92
c-94 97 -346 365 -406 431 l-35 39 -113 -99 c-268 -233 -271 -236 -334 -335
-34 -53 -73 -111 -88 -130 l-26 -34 -28 27 -27 27 -46 -37 c-25 -20 -48 -39
-51 -42 -3 -3 -104 -93 -225 -200 -274 -242 -478 -423 -485 -430 -3 -3 -61
-55 -130 -115 -68 -61 -131 -117 -140 -125 -29 -27 -183 -165 -295 -265 -190
-169 -278 -248 -335 -300 -30 -27 -84 -76 -120 -107 -36 -31 -81 -71 -100 -88
-19 -18 -124 -111 -232 -208 -109 -97 -198 -181 -198 -187 0 -6 -19 -33 -41
-60 -23 -28 -55 -69 -71 -93 -19 -27 -35 -41 -44 -38 -12 5 -14 -768 -14
-5429 l0 -5435 6000 0 6000 0 0 6015 0 6016 -342 341 c-942 937 -1990 1974
-2408 2383 -129 126 -383 376 -565 555 -181 179 -429 422 -551 541 -121 118
-223 222 -227 232 -3 9 -11 17 -16 17 -6 0 -48 -33 -94 -72 -46 -40 -134 -115
-195 -167 -63 -54 -113 -105 -117 -118 -4 -16 2 -34 20 -57 14 -18 25 -35 25
-38 0 -2 -14 -15 -31 -27 l-31 -23 -25 24 c-14 12 -48 52 -76 88 -164 208
-242 306 -247 310 -3 3 -28 34 -55 70 -27 36 -54 70 -60 77 -5 6 -41 52 -80
102 -38 49 -77 90 -85 90 -8 0 -40 -22 -71 -47z m4959 -4849 c-4 -22 -48 -31
-48 -10 0 19 10 27 32 27 13 0 18 -6 16 -17z m-725 -507 c3 -12 -30 -32 -39
-24 -11 12 5 40 21 36 9 -2 17 -7 18 -12z m-733 -506 c0 -5 -4 -10 -10 -10 -5
0 -10 5 -10 10 0 6 5 10 10 10 6 0 10 -4 10 -10z m-892 -140 c10 -17 10 -20
-3 -20 -8 0 -19 9 -25 20 -8 15 -8 20 2 20 7 0 19 -9 26 -20z m-7717 -4130
c47 -13 115 -72 141 -124 16 -30 22 -59 22 -107 0 -57 -4 -74 -30 -115 -16
-27 -49 -62 -73 -79 -41 -29 -48 -30 -162 -33 l-119 -4 0 -114 0 -114 -65 0
-65 0 0 350 0 350 158 0 c86 0 173 -5 193 -10z m634 -1 c60 -16 139 -101 155
-167 21 -92 -11 -193 -75 -235 -19 -12 -35 -26 -35 -32 0 -5 34 -65 75 -132
l74 -123 -74 0 -73 0 -70 113 -69 112 -71 3 -72 3 0 -116 0 -115 -65 0 -65 0
0 350 0 350 163 0 c89 0 180 -5 202 -11z m728 -23 c64 -31 124 -93 164 -168
25 -48 28 -63 28 -153 0 -89 -3 -106 -28 -156 -15 -31 -51 -79 -80 -106 -166
-157 -416 -110 -527 99 -45 85 -53 193 -20 281 40 105 119 183 228 224 58 21
169 12 235 -21z m694 9 c146 -73 177 -257 64 -378 -47 -51 -77 -61 -201 -67
l-115 -5 -3 -112 -3 -113 -64 0 -65 0 0 350 0 350 168 0 c160 0 171 -1 219
-25z m676 -10 c68 -33 129 -97 166 -175 21 -46 26 -69 26 -145 0 -79 -4 -98
-29 -153 -37 -80 -114 -152 -194 -182 -119 -45 -261 -12 -352 82 -64 67 -94
138 -98 237 -4 70 0 93 19 143 41 103 127 182 239 219 49 17 161 4 223 -26z
m690 0 c89 -36 92 -41 60 -101 l-26 -49 -61 29 c-41 20 -81 31 -123 34 -59 4
-64 2 -93 -26 -33 -34 -37 -57 -15 -88 17 -25 34 -32 173 -74 86 -26 110 -38
146 -73 55 -53 68 -111 42 -192 -19 -60 -43 -86 -109 -115 -68 -30 -208 -30
-298 0 -64 22 -129 56 -129 68 0 4 12 29 26 57 l25 51 67 -33 c146 -72 282
-62 282 20 0 49 -30 70 -150 107 -138 42 -187 70 -211 123 -10 23 -19 56 -19
73 0 43 26 113 53 142 25 27 87 61 132 73 53 14 157 2 228 -26z m543 0 c8 -19
48 -126 89 -238 41 -111 92 -251 115 -310 22 -60 40 -113 40 -118 0 -6 -28 -9
-67 -7 l-67 3 -32 85 -31 85 -124 3 -125 3 -33 -91 -34 -90 -69 0 c-37 0 -68
2 -68 4 0 2 16 46 36 98 19 51 67 179 105 283 39 105 82 220 96 258 l27 67 63
0 c64 0 64 0 79 -35z m462 -262 l2 -293 180 0 180 0 0 -60 0 -60 -247 2 -248
3 -3 340 c-1 187 0 346 3 353 3 9 23 12 67 10 l63 -3 3 -292z m-3766 -2810 c2
-49 0 -61 -12 -62 -8 0 -27 -3 -42 -6 -56 -14 -92 71 -48 115 23 23 33 24 61
10 17 -9 19 -7 19 18 0 16 3 32 8 36 7 8 10 -9 14 -111z m-951 88 c19 -15 24
-29 24 -64 0 -65 -23 -87 -92 -87 l-53 0 0 85 0 85 49 0 c33 0 56 -6 72 -19z
m791 2 c23 -20 23 -56 1 -79 -16 -15 -16 -18 0 -45 22 -39 4 -37 -23 2 -28 39
-64 37 -68 -3 -2 -16 -8 -28 -13 -28 -5 0 -9 38 -9 85 l0 85 47 0 c29 0 53 -6
65 -17z m340 -20 c3 -38 3 -38 51 -41 l47 -3 0 40 c0 23 5 41 10 41 6 0 10
-35 10 -85 0 -50 -4 -85 -10 -85 -5 0 -10 18 -10 41 l0 40 -47 -3 c-48 -3 -48
-3 -51 -40 -6 -72 -22 -38 -22 47 0 85 16 119 22 48z m828 12 c0 -7 6 -16 13
-19 10 -5 10 -7 0 -12 -8 -3 -13 -25 -13 -56 0 -40 3 -49 15 -44 8 3 15 1 15
-4 0 -6 -11 -10 -25 -10 -26 0 -30 9 -38 85 -5 45 8 89 23 80 5 -3 10 -12 10
-20z m450 -59 c0 -74 -2 -85 -17 -85 -10 1 -28 -2 -40 -6 -16 -5 -29 0 -47 19
-32 31 -33 57 -2 93 22 26 27 27 55 16 30 -11 31 -11 31 18 0 16 5 29 10 29 6
0 10 -35 10 -84z m225 18 l50 -66 5 61 c7 90 25 80 28 -16 4 -104 -8 -107 -75
-22 l-48 62 -3 -62 c-4 -92 -22 -73 -22 24 0 47 3 85 8 85 4 0 30 -30 57 -66z
m154 20 l28 -46 27 46 c15 25 31 46 36 46 15 0 13 -5 -20 -57 -18 -28 -30 -60
-30 -80 0 -18 -4 -33 -10 -33 -5 0 -10 12 -10 28 0 15 -6 36 -13 47 -39 58
-57 95 -48 95 6 0 24 -21 40 -46z m-2634 -19 c41 -40 33 -55 -30 -55 -30 0
-55 -4 -55 -8 0 -15 24 -32 45 -32 12 0 26 5 33 12 9 9 12 9 12 0 0 -13 -32
-32 -54 -32 -26 0 -56 38 -56 70 0 33 33 70 62 70 11 0 30 -11 43 -25z m69
-27 l23 -53 26 55 c14 30 26 47 26 37 1 -28 -40 -117 -54 -117 -11 0 -55 97
-55 121 0 21 12 6 34 -43z m201 27 c14 -13 25 -33 25 -45 0 -26 -43 -70 -67
-70 -10 0 -29 7 -41 16 -45 31 -16 124 38 124 12 0 32 -11 45 -25z m65 16 c0
-5 13 -4 29 2 44 16 61 -3 61 -69 0 -30 -4 -54 -10 -54 -5 0 -10 23 -10 50 0
36 -4 52 -15 57 -26 10 -55 -26 -55 -69 0 -21 -4 -38 -10 -38 -6 0 -10 28 -10
65 0 37 4 65 10 65 6 0 10 -4 10 -9z m894 -12 c14 -11 26 -29 26 -40 0 -16 -7
-19 -55 -19 -30 0 -55 -4 -55 -8 0 -26 61 -44 75 -22 8 12 25 13 25 1 0 -5
-13 -14 -28 -20 -22 -9 -35 -9 -56 0 -45 21 -48 95 -4 117 33 15 42 14 72 -9z
m88 12 c15 8 27 8 44 0 18 -8 31 -7 50 1 23 11 29 10 45 -11 20 -25 27 -111 9
-111 -5 0 -10 20 -10 44 0 52 -18 73 -49 56 -16 -8 -21 -20 -21 -55 0 -63 -18
-56 -22 7 -2 39 -7 54 -19 56 -27 5 -49 -26 -49 -69 0 -21 -4 -39 -10 -39 -11
0 -14 113 -3 124 4 4 9 3 11 -3 3 -8 10 -7 24 0z m208 -1 c0 -6 10 -5 25 2 39
18 75 -11 75 -62 0 -51 -36 -80 -75 -62 -24 11 -25 10 -25 -23 0 -19 -4 -35
-10 -35 -6 0 -10 38 -10 95 0 57 4 95 10 95 6 0 10 -4 10 -10z m204 4 c27 -10
18 -22 -16 -20 -44 1 -43 -19 1 -42 19 -9 36 -21 38 -27 9 -33 -59 -56 -92
-31 -19 14 -17 15 22 13 53 -3 57 13 9 36 -40 19 -48 49 -18 66 20 12 34 13
56 5z m224 -14 c12 -12 22 -30 22 -40 0 -18 -7 -20 -55 -20 -53 0 -55 -1 -45
-20 12 -22 49 -27 68 -8 6 6 15 8 19 4 10 -10 -26 -36 -49 -36 -25 0 -68 44
-68 70 0 26 43 70 68 70 10 0 28 -9 40 -20z m132 0 c23 -23 29 -112 8 -109 -7
1 -25 -1 -41 -5 -33 -10 -57 7 -57 39 0 25 17 35 61 35 16 0 29 4 29 9 0 18
-30 33 -55 27 -14 -4 -25 -2 -25 3 0 9 20 17 48 20 6 0 21 -8 32 -19z m-1230
-111 c0 -11 -4 -17 -10 -14 -5 3 -10 13 -10 21 0 8 5 14 10 14 6 0 10 -9 10
-21z m1449 -6 c0 -25 -1 -25 -8 -8 -5 11 -7 23 -4 28 8 14 13 7 12 -20z
m-2049 -128 c0 -8 -4 -15 -10 -15 -5 0 -10 7 -10 15 0 8 5 15 10 15 6 0 10 -7
10 -15z m250 6 c0 -5 -10 -11 -22 -13 -30 -4 -34 -25 -6 -31 l23 -4 -22 -8
c-20 -6 -23 -14 -23 -61 0 -30 -4 -54 -10 -54 -5 0 -10 24 -10 53 0 29 -5 58
-12 65 -9 9 -9 12 0 12 7 0 12 6 12 13 0 7 5 18 12 25 14 14 58 16 58 3z m880
-7 c0 -8 -4 -12 -10 -9 -5 3 -10 10 -10 16 0 5 5 9 10 9 6 0 10 -7 10 -16z
m60 -64 c0 -47 4 -80 10 -80 6 0 10 -4 10 -10 0 -16 -37 -11 -44 6 -8 21 -8
149 1 157 17 18 23 0 23 -73z m300 -16 c0 -49 -4 -84 -10 -84 -5 0 -10 5 -10
12 0 9 -3 9 -12 0 -17 -17 -58 -15 -80 5 -22 20 -23 70 -1 95 18 20 63 24 81
6 9 -9 12 -4 12 26 0 22 4 35 10 31 6 -3 10 -44 10 -91z m150 8 l0 -88 -52 1
c-47 0 -54 3 -66 28 -27 57 29 120 78 89 18 -11 20 -9 20 23 0 19 5 35 10 35
6 0 10 -36 10 -88z m-1098 38 c29 -22 42 -69 28 -104 -8 -22 -14 -24 -67 -23
-47 2 -58 5 -61 20 -5 25 16 47 44 47 15 0 24 6 24 16 0 12 -7 15 -30 12 -16
-3 -30 -1 -30 4 0 4 15 8 34 8 38 0 46 -12 46 -67 0 -48 24 -38 28 11 3 29 -2
44 -19 62 -48 52 -129 15 -129 -58 0 -50 27 -78 78 -79 32 0 34 -1 14 -9 -30
-12 -64 1 -92 37 -63 81 51 187 132 123z m-1043 -52 l22 -53 20 50 c22 54 26
61 34 54 7 -8 -54 -162 -70 -178 -21 -21 -31 -5 -12 17 22 24 21 34 -2 80 -25
50 -34 82 -24 82 5 0 19 -24 32 -52z m201 32 c42 -42 14 -110 -46 -110 -57 0
-85 69 -44 110 11 11 31 20 45 20 14 0 34 -9 45 -20z m60 -12 c0 -55 10 -78
34 -78 33 0 46 19 46 67 0 24 5 43 10 43 6 0 10 -28 10 -65 0 -37 -4 -65 -10
-65 -5 0 -10 5 -10 12 0 9 -3 9 -12 0 -7 -7 -25 -12 -40 -12 -21 0 -31 6 -38
26 -13 33 -13 104 0 104 6 0 10 -15 10 -32z m150 20 c0 -9 3 -9 12 0 13 13 38
16 38 4 0 -4 -10 -12 -22 -17 -19 -8 -24 -19 -26 -57 -5 -72 -22 -58 -22 17 0
37 4 65 10 65 6 0 10 -5 10 -12z m90 -53 c0 -37 -4 -65 -10 -65 -6 0 -10 28
-10 65 0 37 4 65 10 65 6 0 10 -28 10 -65z m50 53 c0 -9 3 -9 12 0 17 17 65
15 72 -4 10 -26 7 -114 -4 -114 -5 0 -10 25 -10 55 0 51 -2 55 -23 55 -34 0
-47 -19 -47 -67 0 -24 -4 -43 -10 -43 -6 0 -10 28 -10 65 0 37 4 65 10 65 6 0
10 -5 10 -12z m302 -5 c22 -20 23 -70 1 -95 -22 -25 -68 -23 -93 4 -25 28 -25
48 1 82 24 30 63 34 91 9z m350 5 c9 -7 19 -23 23 -35 6 -22 4 -23 -49 -23
-58 0 -67 -8 -40 -34 18 -18 40 -21 49 -6 3 6 13 10 22 10 13 0 13 -3 3 -15
-17 -20 -69 -19 -92 2 -22 20 -23 70 -1 95 19 21 62 24 85 6z m68 0 c0 -9 3
-9 12 0 15 15 51 15 66 0 8 -8 15 -8 26 1 23 20 59 9 67 -19 13 -48 10 -100
-6 -100 -12 0 -15 13 -15 55 0 46 -3 55 -18 55 -29 0 -42 -21 -42 -67 0 -24
-4 -43 -10 -43 -5 0 -10 18 -10 39 0 51 -8 71 -29 71 -28 0 -41 -21 -41 -67 0
-24 -4 -43 -10 -43 -6 0 -10 28 -10 65 0 37 4 65 10 65 6 0 10 -5 10 -12z
m294 -4 c10 -10 16 -33 16 -62 l0 -47 -50 -3 c-46 -3 -50 -1 -56 24 -8 33 15
54 59 54 18 0 27 4 24 13 -2 6 -20 12 -40 12 -37 0 -48 9 -24 18 25 11 56 7
71 -9z m66 -49 c0 -37 -4 -65 -10 -65 -6 0 -10 28 -10 65 0 37 4 65 10 65 6 0
10 -28 10 -65z m188 53 c5 -7 12 -36 14 -63 l5 -51 -48 -2 c-40 -2 -50 2 -59
19 -15 28 12 59 52 59 19 0 28 5 28 16 0 13 -8 15 -35 12 -34 -4 -43 1 -28 15
11 12 60 8 71 -5z m386 1 c9 14 36 15 36 1 0 -5 -6 -10 -14 -10 -20 0 -29 -17
-37 -70 -6 -41 -6 -38 -8 25 0 42 3 65 8 56 6 -9 11 -10 15 -2z m156 -9 c36
-36 26 -50 -35 -50 -59 0 -66 -7 -35 -35 17 -15 24 -16 46 -7 33 16 39 15 24
-3 -17 -20 -69 -19 -92 2 -22 20 -23 70 -1 95 21 24 68 23 93 -2z m127 4 c2
-6 -10 -8 -32 -6 -46 5 -49 -21 -4 -34 68 -19 60 -78 -9 -72 -20 2 -37 9 -40
16 -3 10 2 10 22 0 22 -10 29 -9 43 5 16 15 14 18 -21 32 -42 18 -54 38 -35
61 14 17 70 16 76 -2z m120 0 c2 -6 -10 -8 -32 -6 -45 5 -50 -23 -5 -33 60
-13 58 -75 -3 -75 -34 0 -66 15 -55 25 3 4 16 1 28 -5 12 -6 28 -9 36 -6 26
10 15 34 -21 46 -37 12 -46 35 -23 58 15 15 70 12 75 -4z m173 2 c10 -13 5
-15 -30 -13 -34 2 -44 -2 -50 -18 -4 -11 -3 -31 1 -44 8 -21 14 -23 50 -18 34
4 38 3 28 -9 -12 -15 -57 -19 -75 -6 -20 13 -35 52 -29 72 15 47 78 68 105 36z
m140 -8 c25 -28 26 -62 0 -88 -41 -41 -110 -14 -110 43 0 62 68 90 110 45z
m60 10 c0 -9 3 -9 12 0 7 7 21 12 33 12 12 0 26 -5 33 -12 9 -9 15 -9 24 0 18
18 56 14 68 -7 13 -25 13 -111 0 -111 -5 0 -10 18 -10 39 0 51 -8 71 -29 71
-28 0 -41 -21 -41 -67 0 -61 -18 -53 -22 9 -2 43 -7 54 -22 56 -27 6 -46 -24
-46 -70 0 -21 -4 -38 -10 -38 -6 0 -10 28 -10 65 0 37 4 65 10 65 6 0 10 -5
10 -12z m-320 -109 c0 -5 -4 -9 -10 -9 -5 0 -10 7 -10 16 0 8 5 12 10 9 6 -3
10 -10 10 -16z m-2655 -199 c15 -38 31 -70 35 -70 17 0 26 67 14 103 -15 43
-3 50 16 10 l13 -28 11 28 c5 15 14 27 19 27 5 0 6 -8 2 -17 -15 -40 -16 -71
-3 -103 l14 -34 29 77 c17 42 35 77 42 77 13 0 -41 -145 -63 -169 -11 -12 -16
-8 -32 30 l-19 44 -19 -39 c-10 -21 -23 -38 -29 -38 -9 2 -75 144 -75 163 0
28 20 0 45 -61z m255 3 c31 -77 36 -82 53 -42 11 29 12 39 0 66 -15 38 -16 43
-4 43 5 0 14 -12 19 -27 l9 -28 13 28 c7 15 17 27 22 27 11 0 10 -2 -6 -41
-12 -30 -12 -39 1 -69 l15 -35 28 60 c16 33 29 66 29 73 1 13 21 17 21 3 0
-13 -60 -155 -70 -165 -5 -5 -18 10 -30 34 l-22 43 -19 -43 c-12 -26 -23 -40
-29 -34 -11 11 -70 149 -70 164 0 24 19 -2 40 -57z m264 -12 l31 -73 13 33
c13 31 12 62 -3 102 -4 9 -3 17 3 17 6 0 15 -12 20 -27 l10 -28 11 28 c6 15
15 27 21 27 13 0 13 -1 -4 -42 -13 -30 -13 -38 2 -71 l17 -37 29 75 c16 41 33
75 38 75 12 0 4 -27 -32 -108 -15 -35 -31 -64 -36 -64 -5 0 -17 16 -27 37
l-19 38 -19 -43 c-13 -29 -23 -40 -29 -34 -18 18 -80 176 -68 172 7 -3 26 -37
42 -77z m361 69 c-3 -5 -19 -10 -36 -10 l-29 0 -2 -82 -2 -83 -3 83 -4 82 -29
0 c-16 0 -32 5 -35 10 -4 6 22 10 70 10 48 0 74 -4 70 -10z m140 0 c-3 -5 -26
-10 -51 -10 -42 0 -44 -1 -44 -30 0 -29 2 -30 46 -30 27 0 43 -4 39 -10 -3 -5
-24 -10 -46 -10 -37 0 -39 -2 -39 -30 0 -29 1 -30 52 -30 37 0 49 -3 41 -11
-5 -5 -32 -9 -59 -7 l-49 3 -3 88 -3 87 61 0 c38 0 59 -4 55 -10z m90 -48 c16
-29 32 -52 35 -52 3 0 18 25 35 55 43 79 55 73 55 -29 0 -47 -4 -88 -10 -91
-6 -4 -10 17 -10 54 0 34 -4 61 -10 61 -5 0 -19 -18 -30 -40 -11 -22 -25 -40
-30 -40 -5 0 -23 24 -40 53 l-30 52 0 -67 c0 -39 -4 -68 -10 -68 -6 0 -10 35
-10 86 0 100 9 105 55 26z m269 42 c19 -18 21 -65 4 -82 -7 -7 -29 -12 -50
-12 -35 0 -38 -2 -38 -29 0 -17 -4 -33 -10 -36 -6 -4 -10 27 -10 84 l0 91 44
0 c27 0 51 -6 60 -16z m66 -64 l0 -80 52 0 c37 0 49 -3 41 -11 -5 -5 -32 -9
-59 -7 l-49 3 -3 88 c-2 55 1 87 8 87 6 0 10 -31 10 -80z m229 1 c32 -77 40
-138 10 -76 -11 24 -21 31 -51 33 -33 3 -39 -1 -53 -28 -9 -18 -19 -29 -22
-26 -9 9 62 176 75 176 5 0 23 -36 41 -79z m171 69 c0 -5 -13 -10 -30 -10
l-30 0 0 -75 c0 -43 -4 -75 -10 -75 -6 0 -10 32 -10 75 l0 75 -30 0 c-16 0
-30 5 -30 10 0 6 30 10 70 10 40 0 70 -4 70 -10z m140 0 c0 -5 -20 -10 -45
-10 -43 0 -45 -1 -45 -30 0 -28 2 -30 41 -30 24 0 38 -4 34 -10 -3 -5 -22 -10
-41 -10 -31 0 -34 -2 -34 -30 0 -29 2 -30 45 -30 25 0 45 -5 45 -10 0 -7 -22
-10 -57 -8 l-58 3 -3 88 -3 87 61 0 c33 0 60 -4 60 -10z m152 -57 l53 -67 3
67 c4 97 22 83 22 -18 0 -62 -3 -85 -12 -85 -7 1 -33 27 -58 60 -25 33 -48 59
-52 60 -5 0 -8 -30 -8 -66 0 -41 -4 -63 -10 -59 -13 8 -13 175 -1 175 5 0 33
-30 63 -67z m233 57 c-3 -5 -26 -10 -51 -10 -42 0 -44 -1 -44 -30 0 -29 2 -30
46 -30 27 0 43 -4 39 -10 -3 -5 -24 -10 -46 -10 -37 0 -39 -2 -39 -30 0 -29 1
-30 52 -30 37 0 49 -3 41 -11 -5 -5 -32 -9 -59 -7 l-49 3 -3 88 -3 87 61 0
c38 0 59 -4 55 -10z m160 0 c-3 -5 -17 -10 -31 -10 -23 0 -24 -2 -24 -75 0
-43 -4 -75 -10 -75 -6 0 -10 32 -10 75 l0 75 -29 0 c-17 0 -33 5 -36 10 -4 6
22 10 70 10 48 0 74 -4 70 -10z m-1795 -150 c0 -5 -4 -10 -10 -10 -5 0 -10 5
-10 10 0 6 5 10 10 10 6 0 10 -4 10 -10z m1300 0 c0 -5 -4 -10 -10 -10 -5 0
-10 5 -10 10 0 6 5 10 10 10 6 0 10 -4 10 -10z m-1980 -189 c14 -27 4 -47 -36
-70 -45 -27 -43 -41 6 -41 22 0 40 -4 40 -10 0 -5 -25 -10 -55 -10 -43 0 -55
3 -55 15 0 16 29 47 71 76 32 22 16 43 -27 36 -33 -6 -47 6 -21 16 29 12 67 6
77 -12z m130 -1 c13 -24 -1 -56 -29 -65 -10 -3 -26 -14 -36 -25 -18 -20 -17
-20 28 -20 26 0 47 -4 47 -10 0 -5 -25 -10 -55 -10 -32 0 -55 4 -55 11 0 22
22 49 50 64 19 10 30 23 30 37 0 18 -4 20 -35 15 -33 -5 -49 6 -22 16 30 13
67 6 77 -13z m130 1 c14 -27 6 -41 -43 -76 l-42 -30 48 -3 c66 -4 59 -22 -9
-22 -52 0 -55 1 -52 22 2 13 19 33 41 47 43 28 50 61 13 61 -14 0 -28 -5 -31
-10 -4 -6 -11 -7 -17 -4 -17 10 21 34 54 34 17 0 31 -7 38 -19z m200 10 c0 -6
-17 -11 -37 -13 -32 -3 -38 -7 -41 -29 -3 -23 0 -25 26 -21 22 3 33 -2 46 -19
23 -33 20 -54 -11 -78 -26 -21 -53 -21 -81 2 -19 15 -8 19 22 8 45 -18 77 10
56 50 -11 20 -54 26 -65 9 -10 -17 -27 -11 -22 8 3 9 8 34 12 55 6 36 7 37 50
37 25 0 45 -4 45 -9z m130 -1 c0 -5 -15 -10 -34 -10 -29 0 -34 -4 -38 -28 -4
-25 -1 -28 22 -24 61 9 83 -79 28 -106 -23 -11 -32 -10 -58 3 -17 9 -28 20
-25 25 4 6 16 3 30 -6 30 -20 68 -3 63 28 -4 31 -33 46 -58 30 -11 -6 -23 -12
-26 -12 -7 0 4 89 13 103 7 11 83 9 83 -3z m135 0 c4 -6 -10 -10 -34 -10 -37
0 -41 -2 -41 -25 0 -20 5 -25 25 -25 28 0 65 -32 65 -55 0 -20 -44 -65 -63
-65 -8 0 -25 9 -38 21 -21 18 -21 20 -4 14 45 -16 52 -15 69 4 14 15 15 23 6
40 -12 23 -49 28 -68 9 -19 -19 -23 -4 -11 51 11 51 11 51 49 51 21 0 42 -4
45 -10z m205 0 c0 -19 -80 -170 -90 -170 -15 0 -13 4 29 85 l39 75 -50 0 c-30
0 -47 4 -43 10 8 13 115 13 115 0z m140 3 c-1 -19 -86 -167 -98 -171 -7 -2 5
32 27 77 l41 81 -45 0 c-25 0 -45 5 -45 10 0 6 27 10 60 10 33 0 60 -3 60 -7z
m130 2 c0 -18 -87 -175 -97 -175 -9 0 1 28 26 78 l40 77 -44 3 c-67 5 -54 22
15 22 33 0 60 -2 60 -5z"/>
<path d="M1440 5985 l0 -115 91 0 c50 0 99 5 110 10 42 23 63 113 38 163 -24
47 -48 57 -146 57 l-93 0 0 -115z"/>
<path d="M2060 5985 l0 -115 99 0 c90 0 103 2 127 23 22 19 28 34 32 79 4 51
2 58 -28 91 l-32 37 -99 0 -99 0 0 -115z"/>
<path d="M2803 6084 c-48 -24 -100 -86 -114 -136 -35 -123 12 -257 105 -299
89 -40 190 -15 246 62 85 118 47 310 -74 368 -51 25 -119 27 -163 5z"/>
<path d="M3464 6087 c-2 -7 -3 -58 -2 -113 l3 -99 96 -3 97 -3 26 31 c21 26
26 42 26 87 0 47 -4 59 -29 84 -28 28 -33 29 -121 29 -66 0 -92 -4 -96 -13z"/>
<path d="M4159 6077 c-150 -79 -149 -351 1 -427 88 -45 198 -16 250 67 130
205 -51 465 -251 360z"/>
<path d="M5497 5932 c-26 -75 -47 -140 -47 -144 0 -5 43 -8 95 -8 69 0 95 3
95 13 0 14 -75 241 -87 262 -6 10 -24 -31 -56 -123z"/>
<path d="M2232 3148 c-17 -17 -15 -63 3 -78 8 -7 25 -10 40 -6 20 5 25 12 25
39 0 36 -15 57 -40 57 -9 0 -21 -5 -28 -12z"/>
<path d="M1270 3130 l0 -70 35 0 c63 0 96 66 59 118 -11 16 -25 22 -55 22
l-39 0 0 -70z"/>
<path d="M2072 3163 c3 -32 7 -38 28 -41 38 -4 64 19 56 51 -6 24 -11 27 -47
27 l-40 0 3 -37z"/>
<path d="M3685 3140 c-37 -40 18 -105 60 -70 22 18 19 67 -4 80 -27 14 -35 13
-56 -10z"/>
<path d="M1452 3148 c-21 -21 -13 -28 33 -28 43 0 45 1 35 20 -12 22 -49 27
-68 8z"/>
<path d="M1722 3148 c-7 -7 -12 -24 -12 -38 0 -52 48 -68 76 -25 15 23 15 27
0 50 -18 27 -45 32 -64 13z"/>
<path d="M2682 3148 c-21 -21 -13 -28 33 -28 25 0 45 4 45 8 0 15 -24 32 -45
32 -12 0 -26 -5 -33 -12z"/>
<path d="M3062 3148 c-17 -17 -15 -63 3 -78 21 -17 62 -4 68 22 12 46 -40 87
-71 56z"/>
<path d="M3405 3140 c-18 -20 -17 -20 28 -20 48 0 56 7 35 28 -18 18 -43 15
-63 -8z"/>
<path d="M3547 3103 c-4 -3 -7 -15 -7 -25 0 -12 7 -18 24 -18 26 0 51 24 41
40 -7 11 -48 14 -58 3z"/>
<path d="M3172 2848 c-19 -19 -14 -55 10 -72 19 -13 25 -14 43 -2 24 16 31 51
15 72 -15 17 -52 18 -68 2z"/>
<path d="M3319 2839 c-8 -16 -8 -28 0 -46 9 -20 17 -24 44 -21 27 2 33 8 35
31 2 16 -2 35 -9 43 -17 21 -57 17 -70 -7z"/>
<path d="M2241 2797 c-9 -11 -8 -17 3 -26 18 -15 48 -3 44 18 -4 21 -32 26
-47 8z"/>
<path d="M1402 2848 c-19 -19 -14 -55 10 -72 19 -13 25 -14 43 -2 24 16 31 51
15 72 -15 17 -52 18 -68 2z"/>
<path d="M2050 2840 c-22 -42 14 -86 58 -69 25 9 31 56 10 77 -19 19 -56 14
-68 -8z"/>
<path d="M2406 2844 c-9 -24 -9 -24 39 -24 25 0 45 4 45 8 0 31 -73 45 -84 16z"/>
<path d="M2770 2790 c0 -26 22 -35 49 -20 34 18 26 40 -14 40 -29 0 -35 -4
-35 -20z"/>
<path d="M3024 2799 c-3 -6 0 -18 9 -26 19 -20 57 -8 57 18 0 14 -7 19 -29 19
-17 0 -33 -5 -37 -11z"/>
<path d="M3562 2848 c-21 -21 -13 -28 33 -28 25 0 45 4 45 8 0 15 -24 32 -45
32 -12 0 -26 -5 -33 -12z"/>
<path d="M4122 2848 c-32 -32 9 -99 49 -78 24 13 33 45 19 70 -12 22 -49 27
-68 8z"/>
<path d="M2580 2575 c0 -36 0 -36 38 -33 34 3 37 6 37 33 0 27 -3 30 -37 33
-38 3 -38 3 -38 -33z"/>
<path d="M2901 2567 c-15 -44 -12 -50 23 -45 l25 3 -18 40 -18 40 -12 -38z"/>
<path d="M6635 16270 c-3 -5 -1 -10 4 -10 6 0 11 5 11 10 0 6 -2 10 -4 10 -3
0 -8 -4 -11 -10z"/>
<path d="M6465 16130 c3 -5 8 -10 11 -10 2 0 4 5 4 10 0 6 -5 10 -11 10 -5 0
-7 -4 -4 -10z"/>
<path d="M6413 16084 c0 -23 1 -24 9 -10 7 12 7 21 0 28 -6 6 -9 0 -9 -18z"/>
</g>
</svg>
