<?xml version="1.0" encoding="UTF-8"?>
<svg version="1.1" xmlns="http://www.w3.org/2000/svg" width="1200" height="1696">
<path d="M0 0 C396 0 792 0 1200 0 C1200 559.68 1200 1119.36 1200 1696 C804 1696 408 1696 0 1696 C0 1136.32 0 576.64 0 0 Z " fill="#FEFEFE" transform="translate(0,0)"/>
<path d="M0 0 C396 0 792 0 1200 0 C1200 559.68 1200 1119.36 1200 1696 C804 1696 408 1696 0 1696 C0 1136.32 0 576.64 0 0 Z M50 53 C50 579.35 50 1105.7 50 1648 C409.7 1648 769.4 1648 1140 1648 C1140 1626.88 1140 1605.76 1140 1584 C948.93 1584 757.86 1584 561 1584 C561 1309.77 561 1035.54 561 753 C752.07 753 943.14 753 1140 753 C1140 522 1140 291 1140 53 C780.3 53 420.6 53 50 53 Z " fill="#2A514E" transform="translate(0,0)"/>
<path d="M0 0 C396 0 792 0 1200 0 C1200 248.49 1200 496.98 1200 753 C1181.85 753 1163.7 753 1145 753 C1145 520.35 1145 287.7 1145 48 C782 48 419 48 45 48 C45 577.65 45 1107.3 45 1653 C407.67 1653 770.34 1653 1144 1653 C1144 1630.23 1144 1607.46 1144 1584 C1162.48 1584 1180.96 1584 1200 1584 C1200 1620.96 1200 1657.92 1200 1696 C804 1696 408 1696 0 1696 C0 1136.32 0 576.64 0 0 Z " fill="#FEFEFE" transform="translate(0,0)"/>
<path d="M0 0 C363 0 726 0 1100 0 C1100 232.65 1100 465.3 1100 705 C1118.15 705 1136.3 705 1155 705 C1155 979.23 1155 1253.46 1155 1536 C1136.52 1536 1118.04 1536 1099 1536 C1099 1029.45 1099 522.9 1099 1 C736.66 1 374.32 1 1 1 C1 529.99 1 1058.98 1 1604 C363.34 1604 725.68 1604 1099 1604 C1099 1604.33 1099 1604.66 1099 1605 C736.33 1605 373.66 1605 0 1605 C0 1075.35 0 545.7 0 0 Z " fill="#2F5350" transform="translate(45,48)"/>
<path d="M0 0 C362.34 0 724.68 0 1098 0 C1098 528.99 1098 1057.98 1098 1603 C735.66 1603 373.32 1603 0 1603 C0 1074.01 0 545.02 0 0 Z M4 4 C4 530.35 4 1056.7 4 1599 C363.7 1599 723.4 1599 1094 1599 C1094 1072.65 1094 546.3 1094 4 C734.3 4 374.6 4 4 4 Z " fill="#000000" transform="translate(46,49)"/>
<path d="M0 0 C38.61 0 77.22 0 117 0 C117 38.61 117 77.22 117 117 C78.39 117 39.78 117 0 117 C0 78.39 0 39.78 0 0 Z " fill="#FDFDFD" transform="translate(99,155)"/>
<path d="M0 0 C165.33 0 330.66 0 501 0 C501 2.31 501 4.62 501 7 C335.67 7 170.34 7 0 7 C0 4.69 0 2.38 0 0 Z " fill="#365B58" transform="translate(99,680)"/>
<path d="M0 0 C6.06375 -0.0825 12.1275 -0.165 18.375 -0.25 C20.26782715 -0.28641602 22.1606543 -0.32283203 24.11083984 -0.36035156 C34.88245769 -0.48254501 43.72844844 -0.18867897 52 7.5 C57.60338865 13.42666107 57.50804783 19.27705943 57.30859375 27.06640625 C56.84965142 32.91646858 55.63903168 36.71133227 51.17578125 40.58203125 C49.51089934 41.80789765 47.76080851 42.91642554 46 44 C46.61900166 47.27553138 47.77096992 49.3873709 49.72265625 52.07421875 C50.52993164 53.19860352 50.52993164 53.19860352 51.35351562 54.34570312 C51.91748047 55.11849609 52.48144531 55.89128906 53.0625 56.6875 C54.18033652 58.23166237 55.29632889 59.77716202 56.41015625 61.32421875 C56.90652588 62.00572998 57.40289551 62.68724121 57.91430664 63.3894043 C59 65 59 65 59 66 C53.36216102 67.08214445 47.49037185 68.14069044 42 66 C38.67802173 62.69094412 36.65108062 58.59364265 34.41601562 54.51269531 C31.99759446 50.07729743 31.99759446 50.07729743 28.13232422 47.04931641 C23.90980118 46.05278014 20.35156281 46.56484372 16 47 C16 53.27 16 59.54 16 66 C10.72 66 5.44 66 0 66 C0 44.22 0 22.44 0 0 Z " fill="#2F5552" transform="translate(438,544)"/>
<path d="M0 0 C5.713125 -0.0825 11.42625 -0.165 17.3125 -0.25 C19.09180908 -0.28641602 20.87111816 -0.32283203 22.7043457 -0.36035156 C33.21120248 -0.48636357 42.6762768 -0.01796077 51 7.1875 C55.65111633 12.40745789 57.65716919 18.99753338 57.3515625 25.95703125 C56.2164472 32.55331239 53.08824251 37.69456403 48 42 C47.01 42.66 46.02 43.32 45 44 C46.64167983 49.02393587 49.60127293 52.9830146 52.625 57.25 C53.64000782 58.6913111 54.65313792 60.13394702 55.6640625 61.578125 C56.33622803 62.52800293 56.33622803 62.52800293 57.02197266 63.49707031 C58 65 58 65 58 66 C52.36216102 67.08214445 46.49037185 68.14069044 41 66 C37.67802173 62.69094412 35.65108062 58.59364265 33.41601562 54.51269531 C30.99759446 50.07729743 30.99759446 50.07729743 27.13232422 47.04931641 C22.90980118 46.05278014 19.35156281 46.56484372 15 47 C15 53.27 15 59.54 15 66 C10.05 66 5.1 66 0 66 C0 44.22 0 22.44 0 0 Z " fill="#2D5350" transform="translate(111,544)"/>
<path d="M0 0 C1.48831242 0.00667405 2.97660807 0.01863442 4.46484375 0.03515625 C5.22345703 0.03966797 5.98207031 0.04417969 6.76367188 0.04882812 C8.64326246 0.06064945 10.52281274 0.07858547 12.40234375 0.09765625 C13.13671875 1.75 13.87109375 3.40234375 14.60546875 5.0546875 C15.08556396 6.13484131 15.56565918 7.21499512 16.06030273 8.32788086 C17.13291195 10.74137497 18.20536726 13.15493681 19.27758789 15.56860352 C22.07913448 21.87451243 24.88370949 28.17903625 27.6953125 34.48046875 C28.48663574 36.25587036 28.48663574 36.25587036 29.29394531 38.06713867 C30.29604375 40.31521326 31.29923152 42.56280271 32.30371094 44.80981445 C35.44568683 51.8629071 38.45652194 58.96032028 41.40234375 66.09765625 C36.12234375 66.09765625 30.84234375 66.09765625 25.40234375 66.09765625 C20.52734375 56.47265625 20.52734375 56.47265625 19.40234375 53.09765625 C9.17234375 53.09765625 -1.05765625 53.09765625 -11.59765625 53.09765625 C-13.24765625 57.05765625 -14.89765625 61.01765625 -16.59765625 65.09765625 C-17.59765625 66.09765625 -17.59765625 66.09765625 -20.9765625 66.1953125 C-22.37112702 66.18863994 -23.76567368 66.17668157 -25.16015625 66.16015625 C-25.87107422 66.15564453 -26.58199219 66.15113281 -27.31445312 66.14648438 C-29.07555638 66.13466489 -30.83661661 66.11672888 -32.59765625 66.09765625 C-30.20993061 58.34787544 -27.02122169 51.095635 -23.66015625 43.72265625 C-22.79427187 41.81121308 -21.92988103 39.89909907 -21.06558228 37.98693848 C-20.47296915 36.67608127 -19.87984633 35.36545437 -19.28622437 34.05505371 C-17.20478259 29.45669246 -15.14925116 24.84740774 -13.109375 20.23046875 C-12.83251358 19.60431671 -12.55565216 18.97816467 -12.270401 18.33303833 C-10.94219532 15.32809021 -9.61640471 12.32210107 -8.29321289 9.31494141 C-7.82133545 8.24808105 -7.34945801 7.1812207 -6.86328125 6.08203125 C-6.44852539 5.14069336 -6.03376953 4.19935547 -5.60644531 3.22949219 C-4.13130889 0.11214194 -4.13130889 0.11214194 0 0 Z " fill="#2E5451" transform="translate(390.59765625,543.90234375)"/>
<path d="M0 0 C4.95 0 9.9 0 15 0 C15 8.58 15 17.16 15 26 C24.9 26 34.8 26 45 26 C45 17.42 45 8.84 45 0 C49.95 0 54.9 0 60 0 C60 21.45 60 42.9 60 65 C55.05 65 50.1 65 45 65 C45 56.42 45 47.84 45 39 C35.1 39 25.2 39 15 39 C15 47.58 15 56.16 15 65 C10.05 65 5.1 65 0 65 C0 43.55 0 22.1 0 0 Z " fill="#2C5350" transform="translate(576,544)"/>
<path d="M0 0 C16.5 0 33 0 50 0 C50 3.96 50 7.92 50 12 C38.45 12 26.9 12 15 12 C15 16.95 15 21.9 15 27 C25.23 27 35.46 27 46 27 C46 30.63 46 34.26 46 38 C35.77 38 25.54 38 15 38 C15 43.28 15 48.56 15 54 C26.88 54 38.76 54 51 54 C51 57.96 51 61.92 51 66 C34.17 66 17.34 66 0 66 C0 44.22 0 22.44 0 0 Z " fill="#2C524F" transform="translate(303,544)"/>
<path d="M0 0 C16.17 0 32.34 0 49 0 C49 3.96 49 7.92 49 12 C37.78 12 26.56 12 15 12 C15 16.95 15 21.9 15 27 C24.9 27 34.8 27 45 27 C45 30.63 45 34.26 45 38 C35.1 38 25.2 38 15 38 C15 43.28 15 48.56 15 54 C26.88 54 38.76 54 51 54 C51 57.96 51 61.92 51 66 C34.17 66 17.34 66 0 66 C0 44.22 0 22.44 0 0 Z " fill="#2B524F" transform="translate(180,544)"/>
<path d="M0 0 C1.17731689 -0.00193359 1.17731689 -0.00193359 2.37841797 -0.00390625 C9.58246805 0.12513027 15.72058886 1.71671714 22.4375 4.375 C23.51914681 8.25940457 23.46869577 10.16771059 21.5 13.6875 C20.92958984 14.73357422 20.92958984 14.73357422 20.34765625 15.80078125 C20.04730469 16.32027344 19.74695313 16.83976563 19.4375 17.375 C18.71046875 17.08625 17.9834375 16.7975 17.234375 16.5 C9.99643506 13.82752987 3.17199917 12.12894861 -4.5625 13.375 C-8.48991036 15.24138286 -8.48991036 15.24138286 -10.5625 18.875 C-10.81938334 21.37852422 -10.81938334 21.37852422 -9.3359375 22.94140625 C-7.29181223 24.59381588 -5.72099975 25.13493611 -3.1875 25.8125 C-2.30578125 26.06128906 -1.4240625 26.31007813 -0.515625 26.56640625 C0.45890625 26.83324219 1.4334375 27.10007812 2.4375 27.375 C21.59660603 32.66896351 21.59660603 32.66896351 26 40.0625 C28.04017939 44.92050563 27.93341761 49.36208462 26.4375 54.375 C23.06109193 60.92523165 18.30883264 64.73868363 11.4140625 67.0546875 C-2.06206715 70.60615849 -15.54786134 68.07547156 -27.5625 61.375 C-26.89751617 56.98610675 -25.37492323 53.3938515 -23.5625 49.375 C-20.31353118 50.43091487 -17.27200835 51.51486635 -14.1875 53 C-9.97449584 54.61471171 -5.77152012 54.67046937 -1.3125 54.6875 C-0.61463379 54.69281738 0.08323242 54.69813477 0.80224609 54.70361328 C4.49645116 54.65286137 7.29960306 54.40492817 10.4375 52.375 C10.4375 50.065 10.4375 47.755 10.4375 45.375 C5.71104993 43.53014266 1.04617641 41.94108724 -3.85498047 40.63891602 C-12.40260462 38.34197308 -20.10717424 35.98210101 -25.625 28.625 C-27.14512788 23.35522336 -27.72236639 18.33910301 -25.68359375 13.12890625 C-22.37926862 7.35996898 -17.97434875 3.78337943 -11.875 1.265625 C-7.83743866 0.18005426 -4.1631809 -0.00709381 0 0 Z " fill="#2F5552" transform="translate(265.5625,542.625)"/>
<path d="M0 0 C0.83563477 0.00757324 1.67126953 0.01514648 2.53222656 0.02294922 C12.76134974 0.2959118 19.26791136 3.40028478 26.625 10.4375 C24.70212966 14.73128813 22.00021131 17.20903701 18.625 20.4375 C16.095376 19.22328048 14.02753141 17.99589278 11.75 16.3125 C6.23513389 13.13727406 -0.24899126 13.72400016 -6.375 14.4375 C-12.23254127 16.28154077 -15.71434587 20.44832257 -18.625 25.6875 C-20.53296479 32.68337091 -19.80146867 40.01890375 -16.375 46.4375 C-12.26004071 51.3006337 -7.63938337 53.9283199 -1.28125 54.6875 C6.45868838 55.11160621 11.6404028 52.04814994 17.625 47.4375 C18.97000955 48.50630223 20.30071438 49.59312508 21.625 50.6875 C22.3675 51.29078125 23.11 51.8940625 23.875 52.515625 C25.625 54.4375 25.625 54.4375 25.625 58.4375 C19.09365923 65.31259555 9.4855027 68.4454631 0.125 68.75 C-10.46034685 68.5922452 -19.87004981 64.89534799 -27.375 57.4375 C-33.26470395 50.76348874 -35.92277881 43.89507203 -35.75 35.0625 C-35.73984863 34.31299072 -35.72969727 33.56348145 -35.71923828 32.79125977 C-35.45757667 23.4515631 -32.98167333 16.24524599 -26.375 9.4375 C-18.33854747 2.85951478 -10.33787677 -0.13125478 0 0 Z " fill="#2E5451" transform="translate(539.375,542.5625)"/>
<path d="M0 0 C38.61 0 77.22 0 117 0 C117 38.61 117 77.22 117 117 C78.39 117 39.78 117 0 117 C0 78.39 0 39.78 0 0 Z M4 3 C4 39.3 4 75.6 4 113 C39.97 113 75.94 113 113 113 C113 76.7 113 40.4 113 3 C77.03 3 41.06 3 4 3 Z " fill="#1D1D1D" transform="translate(99,155)"/>
<path d="M0 0 C16.5 0 33 0 50 0 C50 4.62 50 9.24 50 14 C44.72 14 39.44 14 34 14 C34 27.2 34 40.4 34 54 C28.06 54 22.12 54 16 54 C16 41.13 16 28.26 16 15 C11.05 15 6.1 15 1 15 C0.67 14.67 0.34 14.34 0 14 C0 9.38 0 4.76 0 0 Z " fill="#090909" transform="translate(122,187)"/>
<path d="M0 0 C2.495625 -0.061875 4.99125 -0.12375 7.5625 -0.1875 C8.33408447 -0.21481201 9.10566895 -0.24212402 9.90063477 -0.27026367 C15.7007187 -0.33900431 20.37438789 0.79787371 24.9375 4.625 C26.63008052 8.40841527 26.76571447 11.93960582 26 16 C24.06658451 19.57052209 21.91644101 21.69451966 18 23 C16.59175107 23.08021999 15.18002769 23.10765977 13.76953125 23.09765625 C13.04612549 23.09515869 12.32271973 23.09266113 11.57739258 23.09008789 C10.66497803 23.08098389 9.75256348 23.07187988 8.8125 23.0625 C5.904375 23.041875 2.99625 23.02125 0 23 C0 15.41 0 7.82 0 0 Z " fill="#FBFCFC" transform="translate(454,556)"/>
<path d="M0 0 C2.495625 -0.061875 4.99125 -0.12375 7.5625 -0.1875 C8.33408447 -0.21481201 9.10566895 -0.24212402 9.90063477 -0.27026367 C15.7007187 -0.33900431 20.37438789 0.79787371 24.9375 4.625 C26.63008052 8.40841527 26.76571447 11.93960582 26 16 C24.06658451 19.57052209 21.91644101 21.69451966 18 23 C16.59175107 23.08021999 15.18002769 23.10765977 13.76953125 23.09765625 C13.04612549 23.09515869 12.32271973 23.09266113 11.57739258 23.09008789 C10.66497803 23.08098389 9.75256348 23.07187988 8.8125 23.0625 C5.904375 23.041875 2.99625 23.02125 0 23 C0 15.41 0 7.82 0 0 Z " fill="#FBFCFC" transform="translate(126,556)"/>
<path d="M0 0 C2.98382952 2.00951784 4.65226733 3.32885758 5.40234375 6.93359375 C5.61300633 11.39121403 4.83117697 14.43481418 2 18 C-2.00254616 20.66836411 -5.29313299 20.8340238 -10 20 C-12.75569447 17.81840855 -14.43588747 16.12822506 -16 13 C-16.67660495 7.13609041 -16.67660495 7.13609041 -14.953125 4.2421875 C-10.29749747 -1.42672367 -6.86435314 -1.6924181 0 0 Z " fill="#080808" transform="translate(185,221)"/>
<path d="M0 0 C2.16372228 2.71225533 3.70337668 5.27978567 5.04296875 8.4765625 C5.39423828 9.311875 5.74550781 10.1471875 6.10742188 11.0078125 C6.64206055 12.30332031 6.64206055 12.30332031 7.1875 13.625 C7.55552734 14.49640625 7.92355469 15.3678125 8.30273438 16.265625 C11 22.73105577 11 22.73105577 11 25 C4.07 25 -2.86 25 -10 25 C-3.71428571 8 -3.71428571 8 0 0 Z " fill="#F6F7F7" transform="translate(394,559)"/>
<path d="M0 0 C3.07469523 1.70251719 5.40613254 3.81226508 7 7 C7.35294118 13.47058824 7.35294118 13.47058824 5 17 C2.06640625 17.3984375 2.06640625 17.3984375 -1.4375 17.375 C-3.16806641 17.38660156 -3.16806641 17.38660156 -4.93359375 17.3984375 C-8 17 -8 17 -9.88671875 15.6640625 C-11.63001513 13.05829317 -11.38061693 11.04493545 -11 8 C-9.875 6.125 -9.875 6.125 -8 5 C-5.0625 4.8125 -5.0625 4.8125 -2 5 C-0.68 5 0.64 5 2 5 C2 8.63 2 12.26 2 16 C2.66 15.67 3.32 15.34 4 15 C4.10836453 13.56416999 4.18576167 12.1259798 4.25 10.6875 C4.29640625 9.88699219 4.3428125 9.08648438 4.390625 8.26171875 C4.19536689 5.8730037 4.19536689 5.8730037 2.30078125 4.23046875 C-0.36338306 2.80566101 -2.0555991 2.59778823 -5.0625 2.625 C-5.91972656 2.61726563 -6.77695313 2.60953125 -7.66015625 2.6015625 C-10.02704298 2.83828121 -10.02704298 2.83828121 -11.78515625 4.2109375 C-13.39155459 6.57663022 -13.40037851 8.15760637 -13.375 11 C-13.38273438 11.86625 -13.39046875 12.7325 -13.3984375 13.625 C-12.92745081 16.4324501 -12.21268047 17.27302988 -10 19 C-7.71294169 20.14352916 -6.40735238 20.10334439 -3.875 20.0625 C-2.59625 20.041875 -1.3175 20.02125 0 20 C0 20.66 0 21.32 0 22 C-8.98737084 22.78530425 -8.98737084 22.78530425 -13.0625 19.625 C-15.74781439 15.98683212 -16.39279906 13.69292064 -16.359375 9.10546875 C-15.72418186 5.38406547 -13.66020984 3.59687151 -11 1 C-7.51556578 -0.74221711 -3.80112955 -0.58675154 0 0 Z " fill="#3D3D3D" transform="translate(208,1378)"/>
<path d="M0 0 C0 6.27 0 12.54 0 19 C-0.66 19 -1.32 19 -2 19 C-2 16.69 -2 14.38 -2 12 C-2.99 12.495 -2.99 12.495 -4 13 C-7.4375 13.3125 -7.4375 13.3125 -11 13 C-13.37466282 10.93174529 -13.88685647 9.56571765 -14.5 6.5 C-14 4 -14 4 -12.0625 1.6875 C-9 0 -9 0 0 0 Z " fill="#5E5E5E" transform="translate(141,1382)"/>
<path d="M0 0 C0.99 0.33 1.98 0.66 3 1 C3.969375 0.79375 4.93875 0.5875 5.9375 0.375 C9 0 9 0 11.375 1 C13 3 13 3 13.4375 6.5 C13 10 13 10 11.875 11.9375 C9.18550771 13.46154563 7.03109027 13.26357307 4 13 C3.67 12.67 3.34 12.34 3 12 C2.67 13.98 2.34 15.96 2 18 C1.34 18 0.68 18 0 18 C0 12.06 0 6.12 0 0 Z " fill="#2C2C2C" transform="translate(159,1422)"/>
<path d="M0 0 C0.33 0 0.66 0 1 0 C1.33 2.31 1.66 4.62 2 7 C2.66 6.34 3.32 5.68 4 5 C7.39996774 5.14467948 9.34345213 5.42816798 11.9375 7.6875 C13.38550221 10.83903422 12.929926 12.70949263 12 16 C10 18 10 18 6.5625 18.125 C5.386875 18.08375 4.21125 18.0425 3 18 C2.01 18 1.02 18 0 18 C0 12.06 0 6.12 0 0 Z " fill="#F3F3F3" transform="translate(219,1377)"/>
<path d="M0 0 C1.588125 0.165 3.17625 0.33 4.8125 0.5 C8.78310215 0.91253009 12.5671509 1.01518769 16.5625 0.875 C20 1 20 1 22 3 C22.1953125 5.6015625 22.1953125 5.6015625 22.125 8.625 C22.10695313 9.62789062 22.08890625 10.63078125 22.0703125 11.6640625 C22.04710937 12.43492188 22.02390625 13.20578125 22 14 C21.34 14 20.68 14 20 14 C19.67 10.37 19.34 6.74 19 3 C17.35 3 15.7 3 14 3 C12.33657163 4.66342837 12.63951903 6.7825709 12.4375 9.0625 C12.35371094 9.98160156 12.26992188 10.90070313 12.18359375 11.84765625 C12.12300781 12.55792969 12.06242187 13.26820312 12 14 C11.34 14 10.68 14 10 14 C9.67 10.37 9.34 6.74 9 3 C7.35 3 5.7 3 4 3 C3.67 6.63 3.34 10.26 3 14 C2.01 14 1.02 14 0 14 C0 9.38 0 4.76 0 0 Z " fill="#262626" transform="translate(322,1382)"/>
<path d="M0 0 C3.31656568 1.12904363 4.31603598 1.93723463 5.9375 5 C5.9375 5.99 5.9375 6.98 5.9375 8 C2.3075 8 -1.3225 8 -5.0625 8 C-4.0725 9.485 -4.0725 9.485 -3.0625 11 C0.52107241 11.25015873 0.52107241 11.25015873 3.9375 11 C3.6075 11.66 3.2775 12.32 2.9375 13 C-3.4407235 13.36103152 -3.4407235 13.36103152 -6 11.875 C-7.59240283 9.06487736 -7.51569325 7.17235276 -7.0625 4 C-4.88642935 0.73589403 -3.96077619 0 0 0 Z " fill="#444444" transform="translate(184.0625,1382)"/>
<path d="M0 0 C2.54404155 1.00422693 3.80304402 1.70366782 5.375 3.9375 C5.375 5.2575 5.375 6.5775 5.375 7.9375 C2.075 8.2675 -1.225 8.5975 -4.625 8.9375 C-4.625 9.5975 -4.625 10.2575 -4.625 10.9375 C-1.655 10.9375 1.315 10.9375 4.375 10.9375 C4.045 11.5975 3.715 12.2575 3.375 12.9375 C-4.04809859 13.42426056 -4.04809859 13.42426056 -6.625 11.25 C-7.83657109 8.44824186 -8.22762465 6.95062323 -7.625 3.9375 C-5.11211175 1.20922133 -3.77767948 -0.08994475 0 0 Z " fill="#3B3B3B" transform="translate(264.625,1382.0625)"/>
<path d="M0 0 C3.375 0.9375 3.375 0.9375 5.375 3.9375 C5.375 4.9275 5.375 5.9175 5.375 6.9375 C1.745 6.9375 -1.885 6.9375 -5.625 6.9375 C-4.635 8.4225 -4.635 8.4225 -3.625 9.9375 C-1.64752878 10.30047936 -1.64752878 10.30047936 0.5 10.125 C1.77875 10.063125 3.0575 10.00125 4.375 9.9375 C4.375 10.5975 4.375 11.2575 4.375 11.9375 C1.53416359 13.35791821 -0.47977278 13.25202272 -3.625 12.9375 C-6.4162125 10.95427007 -7.45097224 9.80763879 -8.125 6.4375 C-7.12997193 1.46235967 -5.00784378 -0.08634213 0 0 Z " fill="#0E0E0E" transform="translate(249.625,1422.0625)"/>
<path d="M0 0 C2.875 0.875 2.875 0.875 4.875 2.875 C4.875 4.525 4.875 6.175 4.875 7.875 C1.575 7.875 -1.725 7.875 -5.125 7.875 C-4.135 9.36 -4.135 9.36 -3.125 10.875 C-0.31938238 11.15556176 1.34078263 11.14210868 3.875 9.875 C3.545 10.865 3.215 11.855 2.875 12.875 C-3.5032235 13.23603152 -3.5032235 13.23603152 -6.0625 11.75 C-7.65490283 8.93987736 -7.57819325 7.04735276 -7.125 3.875 C-4.91145252 0.55467877 -4.03541124 -0.16141645 0 0 Z " fill="#3A3A3A" transform="translate(286.125,1382.125)"/>
<path d="M0 0 C3.375 1 3.375 1 5.375 4 C5.375 4.99 5.375 5.98 5.375 7 C1.745 7 -1.885 7 -5.625 7 C-4.635 8.485 -4.635 8.485 -3.625 10 C-1.64752878 10.36297936 -1.64752878 10.36297936 0.5 10.1875 C1.77875 10.125625 3.0575 10.06375 4.375 10 C4.375 10.66 4.375 11.32 4.375 12 C1.57629973 13.39935013 -0.52998792 13.25265405 -3.625 13 C-5.97555139 11.45998357 -6.53237836 10.23464149 -7.5625 7.625 C-7.625 5 -7.625 5 -6.125 2.125 C-3.625 0 -3.625 0 0 0 Z " fill="#2A2A2A" transform="translate(212.625,1422)"/>
<path d="M0 0 C1 1 1 1 1.09765625 3.50390625 C1.08605469 4.51324219 1.07445312 5.52257813 1.0625 6.5625 C1.05347656 7.57441406 1.04445312 8.58632812 1.03515625 9.62890625 C1.02355469 10.41136719 1.01195312 11.19382812 1 12 C-0.47906892 12.02689216 -1.95827483 12.04634621 -3.4375 12.0625 C-4.67306641 12.07990234 -4.67306641 12.07990234 -5.93359375 12.09765625 C-8 12 -8 12 -9 11 C-9.25 8.5625 -9.25 8.5625 -9 6 C-5.77208445 3.8480563 -4.71599191 3.79913557 -1 4 C-1 3.01 -1 2.02 -1 1 C-3.64 1.33 -6.28 1.66 -9 2 C-9 1.34 -9 0.68 -9 0 C-5.90842747 -1.54578627 -3.31526981 -0.60277633 0 0 Z " fill="#2A2A2A" transform="translate(191,1423)"/>
<path d="M0 0 C2 2 2 2 2 6 C-1.3 6 -4.6 6 -8 6 C-7.67 6.99 -7.34 7.98 -7 9 C-4.36 9 -1.72 9 1 9 C0.67 9.99 0.34 10.98 0 12 C-6.34507042 12.35915493 -6.34507042 12.35915493 -8.9375 10.9375 C-10.63335287 7.84506242 -10.43060657 5.44485259 -10 2 C-7.00303875 -1.6885677 -4.34072074 -1.22672543 0 0 Z " fill="#292929" transform="translate(127,1423)"/>
<path d="M0 0 C7.5261324 -0.12543554 7.5261324 -0.12543554 10.125 0.5625 C12.18976513 1.17589196 12.18976513 1.17589196 15.0625 0.4375 C18 0 18 0 21 2 C21.29296875 4.6015625 21.29296875 4.6015625 21.1875 7.625 C21.16042969 8.62789062 21.13335937 9.63078125 21.10546875 10.6640625 C21.07066406 11.43492188 21.03585938 12.20578125 21 13 C20.67 13 20.34 13 20 13 C19.93941406 12.36191406 19.87882812 11.72382812 19.81640625 11.06640625 C19.69072266 9.82697266 19.69072266 9.82697266 19.5625 8.5625 C19.48128906 7.73878906 19.40007812 6.91507813 19.31640625 6.06640625 C19.21069185 4.01337975 19.21069185 4.01337975 18 3 C16.35 3 14.7 3 13 3 C12.67 6.3 12.34 9.6 12 13 C11.34 13 10.68 13 10 13 C9.67 10.03 9.34 7.06 9 4 C7.02 3.34 5.04 2.68 3 2 C2.67 5.63 2.34 9.26 2 13 C1.34 13 0.68 13 0 13 C0 8.71 0 4.42 0 0 Z " fill="#232323" transform="translate(133,1422)"/>
<path d="M0 0 C2.875 0.75 2.875 0.75 3.875 1.75 C3.94726502 3.60287502 3.9588122 5.45833878 3.9375 7.3125 C3.92847656 8.32441406 3.91945313 9.33632812 3.91015625 10.37890625 C3.89855469 11.16136719 3.88695312 11.94382812 3.875 12.75 C2.39593108 12.77689216 0.91672517 12.79634621 -0.5625 12.8125 C-1.79806641 12.82990234 -1.79806641 12.82990234 -3.05859375 12.84765625 C-5.125 12.75 -5.125 12.75 -6.125 11.75 C-6.25 9.25 -6.25 9.25 -6.125 6.75 C-5.125 5.75 -5.125 5.75 -1.5625 5.6875 C-0.428125 5.708125 0.70625 5.72875 1.875 5.75 C1.545 4.76 1.215 3.77 0.875 2.75 C-1.435 2.75 -3.745 2.75 -6.125 2.75 C-4.11963659 -0.03522695 -3.53013194 -0.28241055 0 0 Z " fill="#222222" transform="translate(300.125,1382.25)"/>
<path d="M0 0 C2.875 0.75 2.875 0.75 3.875 1.75 C3.94726502 3.60287502 3.9588122 5.45833878 3.9375 7.3125 C3.92847656 8.32441406 3.91945313 9.33632812 3.91015625 10.37890625 C3.89855469 11.16136719 3.88695312 11.94382812 3.875 12.75 C2.39593108 12.77689216 0.91672517 12.79634621 -0.5625 12.8125 C-1.79806641 12.82990234 -1.79806641 12.82990234 -3.05859375 12.84765625 C-5.125 12.75 -5.125 12.75 -6.125 11.75 C-6.25 9.25 -6.25 9.25 -6.125 6.75 C-5.125 5.75 -5.125 5.75 -3.27734375 5.65234375 C-1.2265625 5.68489583 0.82421875 5.71744792 2.875 5.75 C2.215 4.76 1.555 3.77 0.875 2.75 C-2.70857241 2.49984127 -2.70857241 2.49984127 -6.125 2.75 C-4.11963659 -0.03522695 -3.53013194 -0.28241055 0 0 Z " fill="#181818" transform="translate(354.125,1382.25)"/>
<path d="M0 0 C3.3 0 6.6 0 10 0 C10 0.66 10 1.32 10 2 C7.36 2 4.72 2 2 2 C2 3.65 2 5.3 2 7 C3.11375 7.12375 4.2275 7.2475 5.375 7.375 C9 8 9 8 11 10 C11.25 12.5 11.25 12.5 11 15 C9 17 9 17 6.8359375 17.1953125 C6.02382812 17.17210937 5.21171875 17.14890625 4.375 17.125 C3.55773437 17.10695313 2.74046875 17.08890625 1.8984375 17.0703125 C1.27195313 17.04710937 0.64546875 17.02390625 0 17 C0 16.01 0 15.02 0 14 C2.64 14 5.28 14 8 14 C8 12.68 8 11.36 8 10 C5.36 9.67 2.72 9.34 0 9 C0 6.03 0 3.06 0 0 Z " fill="#333333" transform="translate(181,1457)"/>
<path d="M0 0 C3.3 0 6.6 0 10 0 C10 0.66 10 1.32 10 2 C7.03 2 4.06 2 1 2 C1 3.65 1 5.3 1 7 C1.928125 6.95875 2.85625 6.9175 3.8125 6.875 C7 7 7 7 10 9 C10.3125 12 10.3125 12 10 15 C8 17 8 17 6.125 17.23046875 C5.42375 17.21628906 4.7225 17.20210937 4 17.1875 C3.29875 17.18105469 2.5975 17.17460938 1.875 17.16796875 C0 17 0 17 -2 16 C-2 15.34 -2 14.68 -2 14 C0.01822917 14.26041667 2.03645833 14.52083333 4.0546875 14.78125 C6.00498344 15.0372485 6.00498344 15.0372485 8 15 C7.67 13.35 7.34 11.7 7 10 C4.36 9.67 1.72 9.34 -1 9 C-1.125 2.25 -1.125 2.25 0 0 Z " fill="#323232" transform="translate(154,1457)"/>
<path d="M0 0 C2.4375 0.8125 2.4375 0.8125 4.4375 2.8125 C4.10778521 6.10964793 3.8148161 7.4351839 1.4375 9.8125 C-1.6875 9.4375 -1.6875 9.4375 -4.5625 8.8125 C-5.89091008 3.37809513 -5.89091008 3.37809513 -4.4375 0.875 C-2.5625 -0.1875 -2.5625 -0.1875 0 0 Z " fill="#EFEFEF" transform="translate(134.5625,1384.1875)"/>
<path d="M0 0 C1.23556641 0.01740234 1.23556641 0.01740234 2.49609375 0.03515625 C3.32238281 0.04417969 4.14867187 0.05320312 5 0.0625 C5.63808594 0.07410156 6.27617187 0.08570313 6.93359375 0.09765625 C6.93359375 0.75765625 6.93359375 1.41765625 6.93359375 2.09765625 C4.29359375 2.09765625 1.65359375 2.09765625 -1.06640625 2.09765625 C-1.06640625 3.74765625 -1.06640625 5.39765625 -1.06640625 7.09765625 C0.23296875 7.24203125 1.53234375 7.38640625 2.87109375 7.53515625 C6.80859375 7.97265625 6.80859375 7.97265625 7.93359375 9.09765625 C8.12109375 12.03515625 8.12109375 12.03515625 7.93359375 15.09765625 C5.93359375 17.09765625 5.93359375 17.09765625 4.05859375 17.328125 C3.35734375 17.31394531 2.65609375 17.29976562 1.93359375 17.28515625 C1.23234375 17.27871094 0.53109375 17.27226563 -0.19140625 17.265625 C-2.06640625 17.09765625 -2.06640625 17.09765625 -4.06640625 16.09765625 C-4.06640625 15.43765625 -4.06640625 14.77765625 -4.06640625 14.09765625 C-2.04817708 14.35807292 -0.02994792 14.61848958 1.98828125 14.87890625 C3.93857719 15.13490475 3.93857719 15.13490475 5.93359375 15.09765625 C5.60359375 13.44765625 5.27359375 11.79765625 4.93359375 10.09765625 C2.29359375 9.76765625 -0.34640625 9.43765625 -3.06640625 9.09765625 C-3.1640625 2.9453125 -3.1640625 2.9453125 -3.06640625 1.09765625 C-2.06640625 0.09765625 -2.06640625 0.09765625 0 0 Z " fill="#2E2E2E" transform="translate(170.06640625,1456.90234375)"/>
<path d="M0 0 C1.9375 0.75 1.9375 0.75 3.9375 2.75 C4.1875 5.25 4.1875 5.25 3.9375 7.75 C1.9375 9.75 1.9375 9.75 -0.5625 10 C-3.0625 9.75 -3.0625 9.75 -5.0625 7.75 C-5.375 4.75 -5.375 4.75 -5.0625 1.75 C-2.0625 -0.25 -2.0625 -0.25 0 0 Z " fill="#F1F1F1" transform="translate(204.0625,1384.25)"/>
<path d="M0 0 C3.625 0.375 3.625 0.375 7 1 C7.04241723 3.33294775 7.04092937 5.66702567 7 8 C6 9 6 9 3.0625 9.1875 C0 9 0 9 -2 7 C-2.25 4.5 -2.25 4.5 -2 2 C-1.34 1.34 -0.68 0.68 0 0 Z " fill="#F8F8F8" transform="translate(163,1424)"/>
<path d="M0 0 C0.33 0 0.66 0 1 0 C1.33 2.31 1.66 4.62 2 7 C2.66 6.34 3.32 5.68 4 5 C7.39996774 5.14467948 9.34345213 5.42816798 11.9375 7.6875 C13.38550221 10.83903422 12.929926 12.70949263 12 16 C10 18 10 18 6.5625 18.125 C5.386875 18.08375 4.21125 18.0425 3 18 C2.01 18 1.02 18 0 18 C0 12.06 0 6.12 0 0 Z M2.0625 8.125 C0.7626678 10.01433678 0.7626678 10.01433678 1.1875 12.5625 C1.84627033 15.14441272 1.84627033 15.14441272 4 17 C7.29714793 16.67028521 8.6226839 16.3773161 11 14 C10.67801034 10.90073181 10.67801034 10.90073181 10 8 C5.90457219 6.85796048 5.90457219 6.85796048 2.0625 8.125 Z " fill="#232323" transform="translate(219,1377)"/>
<path d="M0 0 C0.99 0.33 1.98 0.66 3 1 C3.804375 0.79375 4.60875 0.5875 5.4375 0.375 C8 0 8 0 10.14453125 1.12109375 C12 3 12 3 12.390625 5.69921875 C12.32101563 7.17841797 12.32101563 7.17841797 12.25 8.6875 C12.21390625 9.68136719 12.1778125 10.67523437 12.140625 11.69921875 C12.07101563 12.83810547 12.07101563 12.83810547 12 14 C11.34 14 10.68 14 10 14 C9.67 10.7 9.34 7.4 9 4 C7.34385343 3.61781233 5.67542976 3.28604898 4 3 C2.33657163 4.66342837 2.63951903 6.7825709 2.4375 9.0625 C2.31181641 10.44115234 2.31181641 10.44115234 2.18359375 11.84765625 C2.12300781 12.55792969 2.06242187 13.26820312 2 14 C1.34 14 0.68 14 0 14 C0 9.38 0 4.76 0 0 Z " fill="#333333" transform="translate(112,1382)"/>
<path d="M0 0 C3 0.3125 3 0.3125 6 2.3125 C5.81523971 6.93150713 5.20125576 9.53232079 1.9375 12.75 C0.968125 13.595625 -0.00125 14.44125 -1 15.3125 C1.64 15.6425 4.28 15.9725 7 16.3125 C7 16.6425 7 16.9725 7 17.3125 C3.04 17.3125 -0.92 17.3125 -5 17.3125 C-3 13.3125 -3 13.3125 -0.4375 11.4375 C2.29014345 9.46846065 2.29014345 9.46846065 2.8125 6.0625 C2.874375 5.155 2.93625 4.2475 3 3.3125 C0.03 3.3125 -2.94 3.3125 -6 3.3125 C-3 0.3125 -3 0.3125 0 0 Z " fill="#232323" transform="translate(109,1456.6875)"/>
<path d="M0 0 C3 0.3125 3 0.3125 6 2.3125 C5.81523971 6.93150713 5.20125576 9.53232079 1.9375 12.75 C0.968125 13.595625 -0.00125 14.44125 -1 15.3125 C1.64 15.6425 4.28 15.9725 7 16.3125 C7 16.6425 7 16.9725 7 17.3125 C3.04 17.3125 -0.92 17.3125 -5 17.3125 C-3 13.3125 -3 13.3125 -0.4375 11.4375 C2.29014345 9.46846065 2.29014345 9.46846065 2.8125 6.0625 C2.874375 5.155 2.93625 4.2475 3 3.3125 C0.03 3.3125 -2.94 3.3125 -6 3.3125 C-3 0.3125 -3 0.3125 0 0 Z " fill="#222222" transform="translate(123,1456.6875)"/>
<path d="M0 0 C0.66 0 1.32 0 2 0 C2.33 3.3 2.66 6.6 3 10 C4.65614657 10.38218767 6.32457024 10.71395102 8 11 C9.66342837 9.33657163 9.36048097 7.2174291 9.5625 4.9375 C9.64628906 4.01839844 9.73007813 3.09929687 9.81640625 2.15234375 C9.87699219 1.44207031 9.93757812 0.73179688 10 0 C10.66 0 11.32 0 12 0 C12 4.62 12 9.24 12 14 C11.01 13.67 10.02 13.34 9 13 C7.2365625 13.061875 7.2365625 13.061875 5.4375 13.125 C4.303125 13.08375 3.16875 13.0425 2 13 C-0.20914 9.68629 -0.22481553 8.6553979 -0.125 4.8125 C-0.10695312 3.91144531 -0.08890625 3.01039062 -0.0703125 2.08203125 C-0.04710937 1.39496094 -0.02390625 0.70789062 0 0 Z " fill="#1E1E1E" transform="translate(145,1382)"/>
<path d="M0 0 C1.423125 -0.061875 2.84625 -0.12375 4.3125 -0.1875 C5.51326172 -0.23970703 5.51326172 -0.23970703 6.73828125 -0.29296875 C9 0 9 0 10.78125 1.1875 C12.42341401 3.62969263 12.30107677 5.27236294 12.1875 8.1875 C12.16042969 9.08855469 12.13335937 9.98960938 12.10546875 10.91796875 C12.07066406 11.60503906 12.03585938 12.29210938 12 13 C11.34 13 10.68 13 10 13 C9.67 9.7 9.34 6.4 9 3 C7.02 3 5.04 3 3 3 C2.67 6.3 2.34 9.6 2 13 C1.34 13 0.68 13 0 13 C0 8.71 0 4.42 0 0 Z " fill="#2E2E2E" transform="translate(227,1422)"/>
<path d="M0 0 C4.29 0 8.58 0 13 0 C11.11994266 6.01618347 8.93937169 11.42532955 6 17 C5.34 16.67 4.68 16.34 4 16 C5.98 11.38 7.96 6.76 10 2 C7.36 2 4.72 2 2 2 C2 2.99 2 3.98 2 5 C1.34 5 0.68 5 0 5 C0 3.35 0 1.7 0 0 Z " fill="#2C2C2C" transform="translate(200,1457)"/>
<path d="M0 0 C3.96 0 7.92 0 12 0 C11.49487476 6.22987798 8.67395877 11.45474233 6 17 C5.34 17 4.68 17 4 17 C5.54269924 12.27934033 7.07794619 7.58335908 9 3 C6.69 2.67 4.38 2.34 2 2 C2 2.99 2 3.98 2 5 C1.34 5 0.68 5 0 5 C0 3.35 0 1.7 0 0 Z " fill="#1E1E1E" transform="translate(244,1457)"/>
<path d="M0 0 C0.99 0.66 1.98 1.32 3 2 C2.81523971 6.61900713 2.20125576 9.21982079 -1.0625 12.4375 C-2.031875 13.283125 -3.00125 14.12875 -4 15 C-1.36 15.33 1.28 15.66 4 16 C4 16.33 4 16.66 4 17 C0.04 17 -3.92 17 -8 17 C-8 16.34 -8 15.68 -8 15 C-6.89121049 14.03885609 -5.73725649 13.1292946 -4.5625 12.25 C-1.73464388 9.93526293 -1.08081346 9.29092844 -0.0625 5.625 C-0.041875 4.75875 -0.02125 3.8925 0 3 C-2.64 3 -5.28 3 -8 3 C-8 2.34 -8 1.68 -8 1 C-5.22899606 -0.38550197 -3.0665294 -0.1877467 0 0 Z " fill="#232323" transform="translate(140,1457)"/>
<path d="M0 0 C4.29 0 8.58 0 13 0 C11.11994266 6.01618347 8.93937169 11.42532955 6 17 C5.34 16.67 4.68 16.34 4 16 C5.98 11.38 7.96 6.76 10 2 C7.36 2 4.72 2 2 2 C2 2.99 2 3.98 2 5 C1.34 5 0.68 5 0 5 C0 3.35 0 1.7 0 0 Z " fill="#292929" transform="translate(229,1457)"/>
<path d="M0 0 C3.96 0 7.92 0 12 0 C11.15813297 4.20933513 10.10885537 7.41267079 8.4375 11.3125 C7.98246094 12.38113281 7.52742187 13.44976563 7.05859375 14.55078125 C6.53458984 15.76314453 6.53458984 15.76314453 6 17 C5.34 17 4.68 17 4 17 C5.54269924 12.27934033 7.07794619 7.58335908 9 3 C6.69 2.67 4.38 2.34 2 2 C2 2.99 2 3.98 2 5 C1.34 5 0.68 5 0 5 C0 3.35 0 1.7 0 0 Z " fill="#2A2A2A" transform="translate(215,1457)"/>
<path d="M0 0 C1.2065625 0.0309375 1.2065625 0.0309375 2.4375 0.0625 C2.4375 0.7225 2.4375 1.3825 2.4375 2.0625 C0.7875 2.0625 -0.8625 2.0625 -2.5625 2.0625 C-2.5625 3.0525 -2.5625 4.0425 -2.5625 5.0625 C-1.2425 5.0625 0.0775 5.0625 1.4375 5.0625 C1.4375 5.7225 1.4375 6.3825 1.4375 7.0625 C0.1175 7.0625 -1.2025 7.0625 -2.5625 7.0625 C-2.5625 11.0225 -2.5625 14.9825 -2.5625 19.0625 C-3.2225 19.0625 -3.8825 19.0625 -4.5625 19.0625 C-4.5625 15.1025 -4.5625 11.1425 -4.5625 7.0625 C-5.2225 7.0625 -5.8825 7.0625 -6.5625 7.0625 C-6.5625 6.4025 -6.5625 5.7425 -6.5625 5.0625 C-5.9025 5.0625 -5.2425 5.0625 -4.5625 5.0625 C-4.3459375 4.1034375 -4.3459375 4.1034375 -4.125 3.125 C-3.30589691 0.12162199 -3.19313651 0.07788138 0 0 Z " fill="#3B3B3B" transform="translate(313.5625,1376.9375)"/>
<path d="M0 0 C0.66 0 1.32 0 2 0 C2 0.99 2 1.98 2 3 C3.32 3 4.64 3 6 3 C6 3.66 6 4.32 6 5 C4.68 5 3.36 5 2 5 C2 7.97 2 10.94 2 14 C3.65 14 5.3 14 7 14 C7 14.66 7 15.32 7 16 C4.625 16.125 4.625 16.125 2 16 C0 14 0 14 -0.1953125 11.8359375 C-0.17210937 11.02382812 -0.14890625 10.21171875 -0.125 9.375 C-0.10695312 8.55773438 -0.08890625 7.74046875 -0.0703125 6.8984375 C-0.04710937 6.27195312 -0.02390625 5.64546875 0 5 C-0.66 5 -1.32 5 -2 5 C-2 4.34 -2 3.68 -2 3 C-1.34 3 -0.68 3 0 3 C0 2.01 0 1.02 0 0 Z " fill="#393939" transform="translate(197,1419)"/>
<path d="M0 0 C0.33 0.99 0.66 1.98 1 3 C2.32 3 3.64 3 5 3 C5 3.66 5 4.32 5 5 C4.01 5 3.02 5 2 5 C2 7.97 2 10.94 2 14 C3.32 14 4.64 14 6 14 C6 14.66 6 15.32 6 16 C4.33388095 16.042721 2.66617115 16.04063832 1 16 C0 15 0 15 -0.09765625 12.49609375 C-0.08605469 11.48675781 -0.07445312 10.47742187 -0.0625 9.4375 C-0.05347656 8.42558594 -0.04445313 7.41367188 -0.03515625 6.37109375 C-0.02355469 5.58863281 -0.01195312 4.80617188 0 4 C-0.66 3.67 -1.32 3.34 -2 3 C-1.34 3 -0.68 3 0 3 C0 2.01 0 1.02 0 0 Z " fill="#5D5D5D" transform="translate(259,1419)"/>
<path d="M0 0 C1.32 0.33 2.64 0.66 4 1 C3.67 5.29 3.34 9.58 3 14 C2.01 14 1.02 14 0 14 C0 9.38 0 4.76 0 0 Z " fill="#696969" transform="translate(322,1382)"/>
<path d="M0 0 C0.99 0 1.98 0 3 0 C3 4.62 3 9.24 3 14 C2.34 14 1.68 14 1 14 C1 13.34 1 12.68 1 12 C0.34 11.67 -0.32 11.34 -1 11 C-0.67 7.37 -0.34 3.74 0 0 Z " fill="#616161" transform="translate(251,1382)"/>
<path d="M0 0 C0.66 0 1.32 0 2 0 C2.2475 1.093125 2.495 2.18625 2.75 3.3125 C4.02002851 7.05908409 4.65756352 8.10595266 8 10 C6.35 9.67 4.7 9.34 3 9 C2.67 10.98 2.34 12.96 2 15 C1.34 15 0.68 15 0 15 C0 10.05 0 5.1 0 0 Z " fill="#111111" transform="translate(159,1425)"/>
<path d="M0 0 C2.31 0.33 4.62 0.66 7 1 C6.03320312 1.32097656 6.03320312 1.32097656 5.046875 1.6484375 C2.72160885 2.8473523 2.72160885 2.8473523 2.390625 5.6015625 C2.34421875 6.59929687 2.2978125 7.59703125 2.25 8.625 C2.19328125 9.62789062 2.1365625 10.63078125 2.078125 11.6640625 C2.05234375 12.43492188 2.0265625 13.20578125 2 14 C1.34 14 0.68 14 0 14 C0 9.38 0 4.76 0 0 Z " fill="#494949" transform="translate(168,1382)"/>
<path d="M0 0 C2.31 0 4.62 0 7 0 C6.67 1.32 6.34 2.64 6 4 C1.25 5.125 1.25 5.125 -1 4 C-0.67 2.68 -0.34 1.36 0 0 Z " fill="#E0E0E0" transform="translate(184,1429)"/>
<path d="M0 0 C1.4540625 0.0309375 1.4540625 0.0309375 2.9375 0.0625 C2.0625 3.9375 2.0625 3.9375 0.9375 5.0625 C-0.72867115 5.10313832 -2.39638095 5.105221 -4.0625 5.0625 C-4.0625 0.08290816 -4.0625 0.08290816 0 0 Z " fill="#E2E2E2" transform="translate(354.0625,1388.9375)"/>
<path d="M0 0 C1.98 0 3.96 0 6 0 C6.66 1.32 7.32 2.64 8 4 C5.03 4 2.06 4 -1 4 C-0.67 2.68 -0.34 1.36 0 0 Z " fill="#F1F1F1" transform="translate(120,1424)"/>
<path d="M0 0 C0.33 0 0.66 0 1 0 C1 5.61 1 11.22 1 17 C0.67 17 0.34 17 0 17 C0 15.02 0 13.04 0 11 C-0.99 11.495 -0.99 11.495 -2 12 C-3.99960012 12.039992 -6.00047242 12.04346799 -8 12 C-8 11.67 -8 11.34 -8 11 C-6.02 10.34 -4.04 9.68 -2 9 C-1.7834375 7.88625 -1.7834375 7.88625 -1.5625 6.75 C-1.09812508 4.47972261 -0.58136431 2.24240521 0 0 Z " fill="#0E0E0E" transform="translate(139,1383)"/>
<path d="M0 0 C-0.33 1.65 -0.66 3.3 -1 5 C-2.65 5 -4.3 5 -6 5 C-6.33 3.68 -6.66 2.36 -7 1 C-4.53721199 -0.231394 -2.7204945 -0.07159196 0 0 Z " fill="#E4E4E4" transform="translate(302,1389)"/>
<path d="M0 0 C2 3 2 3 4 6 C5.97747122 6.36297936 5.97747122 6.36297936 8.125 6.1875 C9.40375 6.125625 10.6825 6.06375 12 6 C12 6.66 12 7.32 12 8 C9.15916359 9.42041821 7.14522722 9.31452272 4 9 C1.625 7.3125 1.625 7.3125 0 5 C-0.25 2.25 -0.25 2.25 0 0 Z " fill="#3F3F3F" transform="translate(242,1426)"/>
<path d="M0 0 C1.65 0 3.3 0 5 0 C5.66 1.32 6.32 2.64 7 4 C4.03 4 1.06 4 -2 4 C-1.34 2.68 -0.68 1.36 0 0 Z " fill="#F7F7F7" transform="translate(246,1424)"/>
<path d="M0 0 C1.65 0 3.3 0 5 0 C5.66 1.32 6.32 2.64 7 4 C4.03 4 1.06 4 -2 4 C-1.34 2.68 -0.68 1.36 0 0 Z " fill="#F8F8F8" transform="translate(209,1424)"/>
<path d="M0 0 C1.65 0 3.3 0 5 0 C5.66 1.32 6.32 2.64 7 4 C4.03 4 1.06 4 -2 4 C-1.34 2.68 -0.68 1.36 0 0 Z " fill="#EBEBEB" transform="translate(261,1384)"/>
<path d="M0 0 C0.99 0 1.98 0 3 0 C3 2.97 3 5.94 3 9 C2.01 9.33 1.02 9.66 0 10 C0 6.7 0 3.4 0 0 Z " fill="#F8F8F8" transform="translate(210,1384)"/>
<path d="M0 0 C3 0.3125 3 0.3125 6 2.3125 C6.1875 4.9375 6.1875 4.9375 6 7.3125 C5.690625 6.6525 5.38125 5.9925 5.0625 5.3125 C2.54442986 2.87073502 1.71892628 3.04107594 -1.6875 3.0625 C-3.1259798 3.12673833 -4.56416999 3.20413547 -6 3.3125 C-3.85157775 0.88913085 -3.37292383 0.35134623 0 0 Z " fill="#333333" transform="translate(123,1456.6875)"/>
<path d="M0 0 C3 0.3125 3 0.3125 6 2.3125 C6.1875 4.9375 6.1875 4.9375 6 7.3125 C5.690625 6.6525 5.38125 5.9925 5.0625 5.3125 C2.54442986 2.87073502 1.71892628 3.04107594 -1.6875 3.0625 C-3.1259798 3.12673833 -4.56416999 3.20413547 -6 3.3125 C-3.85157775 0.88913085 -3.37292383 0.35134623 0 0 Z " fill="#333333" transform="translate(109,1456.6875)"/>
<path d="M0 0 C1.65 0.33 3.3 0.66 5 1 C5.33 1.99 5.66 2.98 6 4 C3.36 4 0.72 4 -2 4 C-1.34 2.68 -0.68 1.36 0 0 Z " fill="#F9F9F9" transform="translate(283,1384)"/>
<path d="M0 0 C1.65 0.33 3.3 0.66 5 1 C5.33 1.99 5.66 2.98 6 4 C3.36 4 0.72 4 -2 4 C-1.34 2.68 -0.68 1.36 0 0 Z " fill="#F7F7F7" transform="translate(181,1384)"/>
<path d="M0 0 C2.31 0.33 4.62 0.66 7 1 C7.66 2.65 8.32 4.3 9 6 C8.34 6 7.68 6 7 6 C6.34 5.01 5.68 4.02 5 3 C2.44816596 1.79549696 2.44816596 1.79549696 0 1 C0 0.67 0 0.34 0 0 Z " fill="#3B3B3B" transform="translate(246,1422)"/>
<path d="M0 0 C0.33 0.99 0.66 1.98 1 3 C3.01508358 3.73323796 3.01508358 3.73323796 5 4 C3.68 4 2.36 4 1 4 C1 7.3 1 10.6 1 14 C0.67 14 0.34 14 0 14 C0 10.7 0 7.4 0 4 C-0.66 3.67 -1.32 3.34 -2 3 C-1.34 3 -0.68 3 0 3 C0 2.01 0 1.02 0 0 Z " fill="#010101" transform="translate(259,1419)"/>
<path d="M0 0 C1.423125 0.4021875 1.423125 0.4021875 2.875 0.8125 C3.205 1.4725 3.535 2.1325 3.875 2.8125 C2.885 4.2975 2.885 4.2975 1.875 5.8125 C1.545 4.8225 1.215 3.8325 0.875 2.8125 C-1.435 2.8125 -3.745 2.8125 -6.125 2.8125 C-4.13014789 0.04187207 -3.51239603 -0.21074376 0 0 Z " fill="#3E3E3E" transform="translate(300.125,1382.1875)"/>
<path d="M0 0 C0.928125 0.20625 1.85625 0.4125 2.8125 0.625 C2.8125 1.615 2.8125 2.605 2.8125 3.625 C-3.9375 2.75 -3.9375 2.75 -6.1875 1.625 C-3.1875 -0.375 -3.1875 -0.375 0 0 Z " fill="#383838" transform="translate(354.1875,1382.375)"/>
<path d="M0 0 C2.97 0 5.94 0 9 0 C9.33 0.99 9.66 1.98 10 3 C9.34 3.66 8.68 4.32 8 5 C7.67 4.01 7.34 3.02 7 2 C4.69 1.67 2.38 1.34 0 1 C0 0.67 0 0.34 0 0 Z " fill="#555555" transform="translate(246,1458)"/>
</svg>
