<?xml version="1.0" encoding="UTF-8"?>
<svg version="1.1" xmlns="http://www.w3.org/2000/svg" width="1200" height="1700">
<path d="M0 0 C396 0 792 0 1200 0 C1200 561 1200 1122 1200 1700 C804 1700 408 1700 0 1700 C0 1139 0 578 0 0 Z " fill="#FEFEFE" transform="translate(0,0)"/>
<path d="M0 0 C17.82 0 35.64 0 54 0 C54 316.47 54 632.94 54 959 C79.08 959 104.16 959 130 959 C130 974.18 130 989.36 130 1005 C70.27 1005 10.54 1005 -51 1005 C-51 989.82 -51 974.64 -51 959 C-35.89627193 946.05394737 -35.89627193 946.05394737 -29.828125 941.26171875 C-25.28179611 937.62591153 -20.80659824 933.90348158 -16.3269043 930.18603516 C-15.64023682 929.61804199 -14.95356934 929.05004883 -14.24609375 928.46484375 C-13.59940987 927.91470758 -12.95272598 927.36457141 -12.28644561 926.79776445 C-10 925 -10 925 -7.65607456 923.66469389 C-3.7172511 921.26687809 -1.38492598 919.44239087 -0.16877823 914.88525391 C0.15739232 910.83186069 0.18670831 906.86394137 0.12304783 902.80191898 C0.131416 901.22815262 0.14373157 899.65440317 0.15963259 898.08069488 C0.19197453 893.74314417 0.16811859 889.40742518 0.13533494 885.0699445 C0.10960431 880.356397 0.13603788 875.64309963 0.15593141 870.92956394 C0.18359413 862.66450293 0.17778557 854.39998712 0.15022469 846.13493347 C0.10939377 833.84518557 0.12002049 821.55586128 0.14130635 809.26608325 C0.17564717 788.59399423 0.16808451 767.9221178 0.13676643 747.25003242 C0.10588727 726.77757848 0.0935552 706.30525226 0.10607719 685.83277702 C0.10684488 684.56059186 0.10761257 683.28840669 0.10840353 681.97767046 C0.11239886 675.51707175 0.11672637 669.05647331 0.12118178 662.5958749 C0.15215422 616.81720655 0.14142268 571.03866512 0.10620117 525.26000977 C0.09768182 514.16314719 0.089309 503.06628452 0.08154297 491.96942139 C0.08106117 491.28119439 0.08057938 490.5929674 0.08008298 489.88388505 C0.05788705 457.89088648 0.05923478 425.89790151 0.06665712 393.90489769 C0.06713855 391.82792867 0.06760983 389.75095965 0.06807904 387.67399063 C0.07120473 373.90982674 0.07473624 360.14566297 0.0785395 346.38149925 C0.08628375 318.34148631 0.09145158 290.30147314 0.09507751 262.26145935 C0.09524739 260.97218155 0.09541727 259.68290375 0.0955923 258.35455692 C0.10664576 172.23635861 0.05727764 86.11817627 0 0 Z " fill="#202020" transform="translate(115,0)"/>
<path d="M0 0 C9.9 0 19.8 0 30 0 C30 316.8 30 633.6 30 960 C3.6 960 -22.8 960 -50 960 C-50 974.52 -50 989.04 -50 1004 C9.07 1004 68.14 1004 129 1004 C129 989.48 129 974.96 129 960 C104.25 960 79.5 960 54 960 C54 959.67 54 959.34 54 959 C79.08 959 104.16 959 130 959 C130 974.18 130 989.36 130 1005 C70.27 1005 10.54 1005 -51 1005 C-51 989.82 -51 974.64 -51 959 C-35.89627193 946.05394737 -35.89627193 946.05394737 -29.828125 941.26171875 C-25.28179611 937.62591153 -20.80659824 933.90348158 -16.3269043 930.18603516 C-15.64023682 929.61804199 -14.95356934 929.05004883 -14.24609375 928.46484375 C-13.59940987 927.91470758 -12.95272598 927.36457141 -12.28644561 926.79776445 C-10 925 -10 925 -7.65607456 923.66469389 C-3.7172511 921.26687809 -1.38492598 919.44239087 -0.16877823 914.88525391 C0.15739232 910.83186069 0.18670831 906.86394137 0.12304783 902.80191898 C0.131416 901.22815262 0.14373157 899.65440317 0.15963259 898.08069488 C0.19197453 893.74314417 0.16811859 889.40742518 0.13533494 885.0699445 C0.10960431 880.356397 0.13603788 875.64309963 0.15593141 870.92956394 C0.18359413 862.66450293 0.17778557 854.39998712 0.15022469 846.13493347 C0.10939377 833.84518557 0.12002049 821.55586128 0.14130635 809.26608325 C0.17564717 788.59399423 0.16808451 767.9221178 0.13676643 747.25003242 C0.10588727 726.77757848 0.0935552 706.30525226 0.10607719 685.83277702 C0.10684488 684.56059186 0.10761257 683.28840669 0.10840353 681.97767046 C0.11239886 675.51707175 0.11672637 669.05647331 0.12118178 662.5958749 C0.15215422 616.81720655 0.14142268 571.03866512 0.10620117 525.26000977 C0.09768182 514.16314719 0.089309 503.06628452 0.08154297 491.96942139 C0.08106117 491.28119439 0.08057938 490.5929674 0.08008298 489.88388505 C0.05788705 457.89088648 0.05923478 425.89790151 0.06665712 393.90489769 C0.06713855 391.82792867 0.06760983 389.75095965 0.06807904 387.67399063 C0.07120473 373.90982674 0.07473624 360.14566297 0.0785395 346.38149925 C0.08628375 318.34148631 0.09145158 290.30147314 0.09507751 262.26145935 C0.09524739 260.97218155 0.09541727 259.68290375 0.0955923 258.35455692 C0.10664576 172.23635861 0.05727764 86.11817627 0 0 Z " fill="#306667" transform="translate(115,0)"/>
<path d="M0 0 C51.48 0 102.96 0 156 0 C156 51.48 156 102.96 156 156 C104.52 156 53.04 156 0 156 C0 104.52 0 53.04 0 0 Z " fill="#212121" transform="translate(926,138)"/>
<path d="M0 0 C59.4 0 118.8 0 180 0 C180 14.85 180 29.7 180 45 C168.76923077 55.10769231 168.76923077 55.10769231 164.5625 58.5 C163.64082031 59.24636719 162.71914062 59.99273438 161.76953125 60.76171875 C160.39861328 61.86966797 160.39861328 61.86966797 159 63 C156.3778258 65.15182905 153.76260222 67.30162522 151.19440556 69.51778793 C148.97841199 71.34426748 146.77086779 72.6958198 144.2203207 74.00860977 C138.64465313 77.15139315 134.02685523 80.55101195 132.1368916 86.89899731 C130.81642141 95.29907713 131.02347365 103.80064203 131.17447269 112.27745819 C131.22724238 116.17109822 131.1927077 120.06412573 131.16912842 123.95791626 C131.14012741 130.69305432 131.16563083 137.42618436 131.22885323 144.16106415 C131.32017699 153.8980002 131.32821908 163.63362758 131.31636583 173.37091997 C131.2993748 189.1708693 131.34911881 204.96986842 131.44116211 220.76953125 C131.53039468 236.11138003 131.5879913 251.4528135 131.60327148 266.79492188 C131.60422534 267.74163379 131.6051792 268.6883457 131.60616196 269.66374585 C131.61075308 274.41343254 131.61472467 279.1631195 131.6183883 283.91280699 C131.64955113 323.27572249 131.7902748 362.63765745 132 402 C124.41 402 116.82 402 109 402 C109 284.19 109 166.38 109 45 C107.02 45 105.04 45 103 45 C103 155.88 103 266.76 103 381 C96.07 381 89.14 381 82 381 C82 270.12 82 159.24 82 45 C54.94 45 27.88 45 0 45 C0 30.15 0 15.3 0 0 Z " fill="#223341" transform="translate(72,1011)"/>
<path d="M0 0 C0.33 0 0.66 0 1 0 C1 316.47 1 632.94 1 959 C8.26 959 15.52 959 23 959 C23 642.53 23 326.06 23 0 C23.33 0 23.66 0 24 0 C24 316.8 24 633.6 24 960 C48.75 960 73.5 960 99 960 C99 974.52 99 989.04 99 1004 C39.93 1004 -19.14 1004 -80 1004 C-80 989.48 -80 974.96 -80 960 C-53.6 960 -27.2 960 0 960 C0 643.2 0 326.4 0 0 Z " fill="#2C3A45" transform="translate(145,0)"/>
<path d="M0 0 C23.1 0 46.2 0 70 0 C67.10597056 3.6175368 65.29467691 5.76885823 61.8125 8.4375 C56.41281789 12.65401647 51.12898337 16.9982006 45.85668945 21.37280273 C44.85448364 22.20146851 44.85448364 22.20146851 43.83203125 23.046875 C43.15159036 23.64420818 42.47114946 24.24154137 41.77008915 24.85697556 C39.57458988 26.55547995 37.73946621 27.69230188 35.30996609 28.93689346 C29.71156255 32.09848501 25.03780258 35.52659587 23.13285756 41.90222454 C21.81369325 50.30039998 22.02350737 58.80253461 22.17447269 67.27745819 C22.22724238 71.17109822 22.1927077 75.06412573 22.16912842 78.95791626 C22.14012741 85.69305432 22.16563083 92.42618436 22.22885323 99.16106415 C22.32017699 108.8980002 22.32821908 118.63362758 22.31636583 128.37091997 C22.2993748 144.1708693 22.34911881 159.96986842 22.44116211 175.76953125 C22.53039468 191.11138003 22.5879913 206.4528135 22.60327148 221.79492188 C22.60422534 222.74163379 22.6051792 223.6883457 22.60616196 224.66374585 C22.61075308 229.41343254 22.61472467 234.1631195 22.6183883 238.91280699 C22.64955113 278.27572249 22.7902748 317.63765745 23 357 C15.41 357 7.82 357 0 357 C0 239.19 0 121.38 0 0 Z " fill="#2A6263" transform="translate(181,1056)"/>
<path d="M0 0 C2.97 0 5.94 0 9 0 C9 316.47 9 632.94 9 959 C6.03 959 3.06 959 0 959 C0 642.53 0 326.06 0 0 Z " fill="#FCFCFC" transform="translate(136,0)"/>
<path d="M0 0 C6.6 0 13.2 0 20 0 C20 110.55 20 221.1 20 335 C13.4 335 6.8 335 0 335 C0 224.45 0 113.9 0 0 Z " fill="#202020" transform="translate(155,1056)"/>
<path d="M0 0 C7.59 0 15.18 0 23 0 C23 90.09 23 180.18 23 273 C15.41 273 7.82 273 0 273 C0 182.91 0 92.82 0 0 Z " fill="#2A6263" transform="translate(181,1424)"/>
<path d="M0 0 C6.93 0 13.86 0 21 0 C21 97.68 21 195.36 21 296 C14.07 296 7.14 296 0 296 C0 198.32 0 100.64 0 0 Z " fill="#242424" transform="translate(154,1402)"/>
<path d="M0 0 C56.76 0 113.52 0 172 0 C172 56.43 172 112.86 172 171 C115.24 171 58.48 171 0 171 C0 114.57 0 58.14 0 0 Z M8 8 C8 59.48 8 110.96 8 164 C59.48 164 110.96 164 164 164 C164 112.52 164 61.04 164 8 C112.52 8 61.04 8 8 8 Z " fill="#F3F3F3" transform="translate(918,130)"/>
<path d="M0 0 C5.55531701 3.96808358 9.27428273 8.527686 12.5390625 14.4921875 C12.879375 15.08257813 13.2196875 15.67296875 13.5703125 16.28125 C17.1652395 23.83725397 16.74681487 33.97085811 14.625 41.9140625 C10.3321926 52.82610195 4.92683841 59.10974255 -5.4609375 64.4921875 C-6.16992188 64.8634375 -6.87890625 65.2346875 -7.609375 65.6171875 C-15.53490335 69.36258486 -26.93719607 68.38815965 -35.01953125 65.5859375 C-44.64174477 61.27518584 -51.1472247 54.67584346 -55.5546875 45.12109375 C-58.70748631 36.23195267 -59.02527833 25.39058893 -55.4921875 16.57421875 C-50.48687366 6.46879347 -43.16161804 -0.97211203 -32.390625 -4.84765625 C-21.12772988 -7.38556195 -9.87758375 -6.05197988 0 0 Z " fill="#050505" transform="translate(799.4609375,766.5078125)"/>
<path d="M0 0 C1.12148438 0.63421875 1.12148438 0.63421875 2.265625 1.28125 C9.18878583 5.82622581 13.24660559 12.88333486 16.4375 20.375 C18.35118505 32.70763702 17.09369477 43.64780408 9.72265625 53.8984375 C3.39741594 61.61494382 -4.20263147 66.02562535 -14 68 C-24.95808217 68.8355136 -33.73428933 66.84142629 -43 61 C-43 60.34 -43 59.68 -43 59 C-43.59683594 58.75378906 -44.19367187 58.50757813 -44.80859375 58.25390625 C-50.32015137 55.10023424 -53.77643303 47.65824169 -55.53125 41.71484375 C-57.29345515 31.50873893 -57.17845429 20.58825067 -51.5234375 11.671875 C-47.71685141 6.42261017 -43.49879458 2.41985523 -38 -1 C-37.36964844 -1.41378906 -36.73929688 -1.82757812 -36.08984375 -2.25390625 C-25.01158001 -8.38003668 -10.50925877 -5.98709287 0 0 Z " fill="#050505" transform="translate(1018,766)"/>
<path d="M0 0 C7.40552439 5.49298656 13.13723364 12.90770031 14.9140625 22.125 C16.15661074 32.95846749 14.51360005 41.8537263 9.4765625 51.5546875 C3.37502649 58.81056817 -3.61634909 65.06930477 -13.24145508 66.71630859 C-15.72576364 66.91077404 -18.15689315 66.96277606 -20.6484375 66.9296875 C-21.52209961 66.9205835 -22.39576172 66.91147949 -23.29589844 66.90209961 C-33.31460732 66.54693805 -40.41547704 63.2163767 -47.3359375 55.9296875 C-55.77674217 45.50590793 -56.52968245 35.30598178 -55.8359375 22.3046875 C-54.34035114 13.33116936 -48.69154217 6.26956398 -41.765625 0.62109375 C-29.00204277 -8.08604636 -13.19756094 -7.88945103 0 0 Z " fill="#FBFBFB" transform="translate(951.8359375,868.6953125)"/>
<path d="M0 0 C24.75 0 49.5 0 75 0 C75 6.93 75 13.86 75 21 C67.41 21 59.82 21 52 21 C52 40.47 52 59.94 52 80 C43.42 80 34.84 80 26 80 C26 60.53 26 41.06 26 21 C17.42 21 8.84 21 0 21 C0 14.07 0 7.14 0 0 Z " fill="#FCFCFC" transform="translate(954,179)"/>
<path d="M0 0 C40.98637602 0 40.98637602 0 48 6 C53.30224993 12.07476316 54.91940069 17.8803147 54.5234375 25.875 C53.51427766 31.89983484 50.89753345 36.10246655 46.625 40.375 C39.70818644 44.65683696 34.58096968 45.41087589 26.5625 45.1875 C21.8290625 45.0946875 21.8290625 45.0946875 17 45 C17 53.58 17 62.16 17 71 C11.39 71 5.78 71 0 71 C0 47.57 0 24.14 0 0 Z " fill="#020202" transform="translate(825,762)"/>
<path d="M0 0 C7.74792967 5.55107547 13.29564582 11.4556166 15 21 C11.91716557 21.14554346 8.83521561 21.23413821 5.75 21.3125 C4.87730469 21.35439453 4.00460937 21.39628906 3.10546875 21.43945312 C0.64509091 21.4864069 -1.58200873 21.46339188 -4 21 C-6.296875 18.66796875 -6.296875 18.66796875 -8 16 C-13.31837914 12.0090324 -18.59224012 12.22619996 -25 13 C-29.93461319 15.29107041 -32.35281968 18.29390165 -35 23 C-37.13388491 29.84561736 -36.886509 36.91100466 -33.9375 43.4375 C-31.25533618 48.16321721 -29.11519729 50.12442766 -24 52 C-18.23791652 52.97592045 -13.86181172 51.92834682 -8.7265625 49.265625 C-6.84352783 48.07883005 -6.84352783 48.07883005 -5.87890625 45.875 C-3.5617834 43.56269445 -2.74858412 43.7004476 0.44921875 43.609375 C2.19573959 43.63593805 3.94203956 43.68360355 5.6875 43.75 C7.02651367 43.77707031 7.02651367 43.77707031 8.39257812 43.8046875 C10.59613504 43.85182241 12.79752601 43.91759343 15 44 C12.49281819 52.50712724 9.18892802 58.66773528 1.5 63.60546875 C-8.69161212 68.90324273 -18.98346965 70.80881145 -30.25 67.875 C-39.85655896 64.57034372 -47.9048107 56.78357025 -52.4375 47.75 C-54.30039308 42.56454436 -54.42049412 37.39190332 -54.5 31.9375 C-54.51861084 31.09864258 -54.53722168 30.25978516 -54.55639648 29.39550781 C-54.46125893 19.96303476 -50.47378922 11.80393811 -44 5 C-41.15783353 2.66931803 -38.21312558 0.77829881 -35 -1 C-34.39671875 -1.34160156 -33.7934375 -1.68320312 -33.171875 -2.03515625 C-23.16126901 -6.71402644 -9.54366738 -4.99207217 0 0 Z " fill="#040404" transform="translate(719,765)"/>
<path d="M0 0 C1.11930908 0.01353516 1.11930908 0.01353516 2.26123047 0.02734375 C9.44189303 0.25169077 15.40655227 1.38011593 20.80859375 6.4140625 C25.51699338 11.62456511 26.81953445 14.3076399 26.6875 21.4375 C23.74847651 21.57231759 20.81560441 21.67149416 17.875 21.75 C17.04162109 21.79189453 16.20824219 21.83378906 15.34960938 21.87695312 C13.02808232 21.92357013 10.96032729 21.91947528 8.6875 21.4375 C6.73828125 18.98046875 6.73828125 18.98046875 5.6875 16.4375 C2.70155576 14.94452788 -0.02103624 15.31994772 -3.3125 15.4375 C-4.3025 15.9325 -4.3025 15.9325 -5.3125 16.4375 C-5.3125 19.0775 -5.3125 21.7175 -5.3125 24.4375 C0.15518023 27.33796242 5.6285439 29.85248695 11.4375 32 C18.98478732 34.85573034 23.52393909 37.18981989 27.6875 44.4375 C29.83210698 50.87132094 28.57734052 56.10300262 25.93359375 62.140625 C22.58256902 68.31743548 17.09139724 70.57210486 10.68359375 72.7109375 C2.2888031 74.7467016 -6.44466371 74.05097767 -14.3125 70.4375 C-19.72063436 67.1054249 -23.4197757 62.53889077 -25.3125 56.4375 C-25.41015625 53.69140625 -25.41015625 53.69140625 -25.3125 51.4375 C-22.39360852 51.27533936 -19.48370775 51.15658798 -16.5625 51.0625 C-15.7375 51.01222656 -14.9125 50.96195313 -14.0625 50.91015625 C-11.67238872 50.85233098 -9.63740139 50.87036838 -7.3125 51.4375 C-4.796875 54.3984375 -4.796875 54.3984375 -3.3125 57.4375 C-1.43606239 59.31393761 1.18555701 58.61734987 3.6796875 58.66796875 C6.00424328 58.55581337 6.00424328 58.55581337 8.6875 56.4375 C9.27092353 52.97980809 9.27092353 52.97980809 8.6875 49.4375 C4.70245135 45.26935452 -1.81760748 44.00484154 -7.13867188 42.21875 C-13.53765668 39.97632754 -20.58986291 37.22476976 -23.75 30.75 C-26.1059694 25.33433008 -26.37026798 19.84256208 -24.6171875 14.19921875 C-21.67419297 7.63312591 -16.90511888 3.80523233 -10.27709961 1.05932617 C-6.86848414 -0.01955336 -3.55119948 -0.05138521 0 0 Z " fill="#050505" transform="translate(628.3125,760.5625)"/>
<path d="M0 0 C3.3 0 6.6 0 10 0 C10.76200119 3.04800475 11.52398526 6.09601377 12.28588867 9.14404297 C12.93157889 11.72647684 13.57752061 14.30884622 14.22387695 16.89111328 C16.98372516 27.92075646 16.98372516 27.92075646 18.21484375 32.9296875 C20.28715225 41.34694058 22.5570373 49.68353122 25 58 C25.16491943 57.41025391 25.32983887 56.82050781 25.49975586 56.21289062 C26.94736377 51.03728462 28.39670002 45.86216836 29.84765625 40.6875 C31.17501839 35.95197873 32.49730026 31.2151014 33.81428528 26.47668457 C34.63125205 23.53933205 35.45092903 20.60273952 36.27102661 17.66625977 C36.67412812 16.22046333 37.07604223 14.77433532 37.47677612 13.32788086 C38.04136721 11.29064048 38.61006241 9.25458762 39.1796875 7.21875 C39.50694824 6.04248047 39.83420898 4.86621094 40.17138672 3.65429688 C41 1 41 1 42 0 C43.85287502 -0.07226502 45.70833878 -0.0838122 47.5625 -0.0625 C48.57441406 -0.05347656 49.58632813 -0.04445313 50.62890625 -0.03515625 C51.41136719 -0.02355469 52.19382812 -0.01195312 53 0 C53.33209473 1.2986499 53.33209473 1.2986499 53.67089844 2.62353516 C54.51180018 5.90795209 55.35446696 9.19190652 56.19824219 12.47558594 C56.55960156 13.88328857 56.92030365 15.29116014 57.28027344 16.69921875 C59.70448806 26.17938767 62.26130303 35.60492521 65 45 C65.30196289 46.04043457 65.60392578 47.08086914 65.91503906 48.15283203 C66.85040826 52.40119605 66.85040826 52.40119605 69 56 C69.45439453 54.14761719 69.45439453 54.14761719 69.91796875 52.2578125 C72.39461642 42.22244814 74.99922781 32.23841113 77.80078125 22.2890625 C79.32894601 16.85586231 80.7665022 11.39939532 82.203125 5.94140625 C82.74416363 3.94433721 83.34570591 1.96288227 84 0 C87.3 0 90.6 0 94 0 C91.62274293 10.173479 88.79765496 20.14697564 85.7175293 30.12817383 C81.54247312 43.67393647 77.67763978 57.31100749 74 71 C70.37 71 66.74 71 63 71 C57.32709639 52.75915238 52.11552395 34.40296206 47 16 C44.11391339 23.57201805 41.73582978 31.17953861 39.625 39 C36.67262803 49.75501177 33.45063704 60.39529496 30 71 C26.37 71 22.74 71 19 71 C17.89285056 67.25085835 16.7892234 63.5007364 15.6875 59.75 C15.37876953 58.70585938 15.07003906 57.66171875 14.75195312 56.5859375 C12.92293466 50.34802189 11.24021436 44.09460173 9.69018555 37.78173828 C8.71609244 33.85573302 7.65120469 29.95802841 6.5625 26.0625 C6.35149658 25.30179199 6.14049316 24.54108398 5.9230957 23.75732422 C4.311872 17.99421743 2.55859266 12.28992378 0.69921875 6.6015625 C0 4 0 4 0 0 Z " fill="#090909" transform="translate(795,864)"/>
<path d="M0 0 C33.7027027 0 33.7027027 0 41.3125 5.3125 C46.08616724 10.08616724 47.19879329 13.70661251 47.4375 20.375 C47.28195784 26.06525063 46.64165608 30.50897807 43 35 C39.62718427 38.12239785 36.51832113 40.0586831 32 41 C33.29918137 44.46244091 34.81411942 47.53909206 36.75 50.6875 C37.2759375 51.55117188 37.801875 52.41484375 38.34375 53.3046875 C38.8903125 54.19414063 39.436875 55.08359375 40 56 C41.08684223 57.76868193 42.17029369 59.53945288 43.25 61.3125 C43.72953125 62.09238281 44.2090625 62.87226562 44.703125 63.67578125 C46 66 46 66 48 71 C44.37 71 40.74 71 37 71 C34.88134239 67.33424729 32.76344032 63.66805947 30.64624023 60.00146484 C29.92574531 58.75394874 29.20504332 57.5065522 28.48413086 56.25927734 C27.44851209 54.46743592 26.41363643 52.67516716 25.37890625 50.8828125 C24.7557251 49.80402832 24.13254395 48.72524414 23.49047852 47.61376953 C22.62474776 46.0955855 21.78158461 44.56316922 21 43 C17.04 42.67 13.08 42.34 9 42 C9 51.57 9 61.14 9 71 C6.03 71 3.06 71 0 71 C0 47.57 0 24.14 0 0 Z " fill="#060606" transform="translate(979,864)"/>
<path d="M0 0 C14.52 0 29.04 0 44 0 C44 4.62 44 9.24 44 14 C35.42 14 26.84 14 18 14 C18 18.62 18 23.24 18 28 C25.59 28 33.18 28 41 28 C41 32.62 41 37.24 41 42 C33.41 42 25.82 42 18 42 C18 46.95 18 51.9 18 57 C26.58 57 35.16 57 44 57 C44 61.62 44 66.24 44 71 C29.48 71 14.96 71 0 71 C0 47.57 0 24.14 0 0 Z " fill="#070707" transform="translate(888,762)"/>
<path d="M0 0 C15.51 0 31.02 0 47 0 C47 4.62 47 9.24 47 14 C37.43 14 27.86 14 18 14 C18 18.95 18 23.9 18 29 C25.26 29 32.52 29 40 29 C40 33.29 40 37.58 40 42 C32.74 42 25.48 42 18 42 C18 51.57 18 61.14 18 71 C12.06 71 6.12 71 0 71 C0 47.57 0 24.14 0 0 Z " fill="#080808" transform="translate(1044,762)"/>
<path d="M0 0 C7.40552439 5.49298656 13.13723364 12.90770031 14.9140625 22.125 C16.15661074 32.95846749 14.51360005 41.8537263 9.4765625 51.5546875 C3.37502649 58.81056817 -3.61634909 65.06930477 -13.24145508 66.71630859 C-15.72576364 66.91077404 -18.15689315 66.96277606 -20.6484375 66.9296875 C-21.52209961 66.9205835 -22.39576172 66.91147949 -23.29589844 66.90209961 C-33.31460732 66.54693805 -40.41547704 63.2163767 -47.3359375 55.9296875 C-55.77674217 45.50590793 -56.52968245 35.30598178 -55.8359375 22.3046875 C-54.34035114 13.33116936 -48.69154217 6.26956398 -41.765625 0.62109375 C-29.00204277 -8.08604636 -13.19756094 -7.88945103 0 0 Z M-42.20703125 12.82421875 C-47.04398875 20.18984948 -47.85012833 28.67836771 -46.8359375 37.3046875 C-44.79301415 45.39558732 -40.59095645 52.23488477 -33.4609375 56.7421875 C-26.67059683 59.77031239 -17.39436133 59.41480594 -10.26953125 57.6796875 C-3.82247567 54.85358095 0.67559601 49.18772189 3.8359375 43.06640625 C5.33611903 38.81736269 5.66426203 35.38988142 5.6015625 30.9296875 C5.59471436 30.18235352 5.58786621 29.43501953 5.58081055 28.66503906 C5.36550681 21.25601027 3.59053619 16.17814318 -1.2109375 10.4921875 C-8.12807769 4.72790401 -14.12527977 1.74537444 -23.1875 2.00390625 C-31.40783869 2.93748454 -37.04222848 6.42821047 -42.20703125 12.82421875 Z " fill="#090909" transform="translate(951.8359375,868.6953125)"/>
<path d="M0 0 C2.97 0 5.94 0 9 0 C9.33 10.23 9.66 20.46 10 31 C17.93439696 22.4883223 17.93439696 22.4883223 25.6875 13.8125 C26.22246094 13.21050781 26.75742188 12.60851562 27.30859375 11.98828125 C28.60329624 10.46633306 29.83442671 8.89010037 31.03515625 7.29296875 C36.58304328 0.296956 36.58304328 0.296956 41.01953125 -0.6328125 C43.75244791 -0.62579603 46.30734328 -0.45297029 49 0 C47.66000502 3.006818 46.20154709 4.99762609 43.8125 7.25 C40.7070904 10.26613705 37.85152857 13.4057213 35.03125 16.6875 C33.45118855 18.48633919 31.85080068 20.24917475 30.21875 22 C29.48446777 22.7895105 29.48446777 22.7895105 28.73535156 23.5949707 C27.76690608 24.6332958 26.79505243 25.66845567 25.81933594 26.69995117 C23.10615805 29.61530833 20.9154042 32.50757968 19 36 C19.58116577 36.61875 19.58116577 36.61875 20.17407227 37.25 C33.34071681 51.27980647 33.34071681 51.27980647 38.26953125 57.01953125 C41.45958721 60.67045308 44.77045997 64.21479046 48.05859375 67.77734375 C50 70 50 70 50 71 C45.63337384 72.26532917 42.37655372 72.28477501 38 71 C31.77917079 66.34694773 26.90602289 59.96457829 22 54 C21.02901165 52.84214104 20.0577019 51.68455146 19.0859375 50.52734375 C17.60439284 48.73452994 16.13861941 46.92838534 14.69921875 45.1015625 C12.87391462 42.76864463 12.87391462 42.76864463 10 40 C9.67 50.23 9.34 60.46 9 71 C6.03 71 3.06 71 0 71 C0 47.57 0 24.14 0 0 Z " fill="#060606" transform="translate(1041,864)"/>
<path d="M0 0 C5.6475042 2.62901058 9.66375082 7.20929689 12 13 C12.83240694 20.85947018 13.02580016 28.53825694 8 35 C3.45814573 39.42539647 -1.12072603 41.28540037 -7.4375 41.375 C-12.44490661 41.26745838 -15.19529492 40.44235222 -19 37 C-25.23067905 30.34488777 -25.50931015 25.01538784 -25.34375 16.23046875 C-25.07350648 11.08120359 -23.67570229 7.65599343 -20 4 C-19.195625 3.175 -18.39125 2.35 -17.5625 1.5 C-11.81860976 -0.9184801 -6.13360562 -0.72117216 0 0 Z " fill="#FBFBFB" transform="translate(1005,777)"/>
<path d="M0 0 C2.76223523 0.99052428 3.80723069 1.9226396 6 4 C7.11375 4.99 7.11375 4.99 8.25 6 C12.93843076 11.35820658 12.55949686 17.28649354 12.37890625 24.0625 C11.88563148 29.18848932 10.65814784 32.38948429 7 36 C0.58553546 41.00328234 -5.0457565 41.82049503 -13 41 C-18.14268183 38.47541074 -21.56898275 34.92358363 -24.08984375 29.7734375 C-25.18821108 26.42648124 -25.30103485 23.58230242 -25.3125 20.0625 C-25.32925781 18.87785156 -25.34601562 17.69320312 -25.36328125 16.47265625 C-24.69113904 10.04755487 -21.70274005 6.23246604 -17 2 C-11.91593864 -1.38937424 -5.93491331 -0.56002634 0 0 Z " fill="#FBFBFB" transform="translate(785,777)"/>
<path d="M0 0 C56.76 0 113.52 0 172 0 C172 56.43 172 112.86 172 171 C115.24 171 58.48 171 0 171 C0 114.57 0 58.14 0 0 Z M2 2 C2 57.44 2 112.88 2 170 C57.44 170 112.88 170 170 170 C170 114.56 170 59.12 170 2 C114.56 2 59.12 2 2 2 Z " fill="#484848" transform="translate(918,130)"/>
<path d="M0 0 C3.7434375 -0.061875 3.7434375 -0.061875 7.5625 -0.125 C8.33408447 -0.14320801 9.10566895 -0.16141602 9.90063477 -0.18017578 C15.99042879 -0.22829191 21.13011982 0.37401723 25.875 4.5 C29.13374322 8.33381556 29.34431321 10.7765228 29.28125 15.6796875 C28.8448012 19.28039012 27.36531761 21.31504488 25 24 C21.21876594 26.61085209 18.44598914 28.12990133 13.8671875 28.09765625 C13.14128418 28.09515869 12.41538086 28.09266113 11.66748047 28.09008789 C10.74596191 28.08098389 9.82444336 28.07187988 8.875 28.0625 C5.94625 28.041875 3.0175 28.02125 0 28 C0 18.76 0 9.52 0 0 Z " fill="#F3F3F3" transform="translate(988,871)"/>
<path d="M0 0 C3.42442476 2.23332049 6.15289268 4.13160571 7.875 7.875 C8.68456447 12.63445565 9.07077452 17.50163764 6.84765625 21.9140625 C4.21560079 25.16213094 1.38636769 27.6452014 -2.796875 28.28125 C-12.13372894 28.56562119 -12.13372894 28.56562119 -16.25 25.1875 C-19.77724371 21.51436057 -20.93745896 18.56286936 -21.5 13.5 C-20.97820278 8.45596022 -19.48057862 4.85741765 -15.546875 1.546875 C-10.38509076 -1.75480681 -5.82128607 -2.09566299 0 0 Z " fill="#F9F9F9" transform="translate(1047.125,231.125)"/>
<path d="M0 0 C3.40990297 0.487129 4.51618402 1.71945396 6.625 4.375 C6.625 5.035 6.625 5.695 6.625 6.375 C7.285 6.375 7.945 6.375 8.625 6.375 C8.74875 5.75625 8.8725 5.1375 9 4.5 C9.625 2.375 9.625 2.375 11.625 0.375 C14 -0.0625 14 -0.0625 16.625 0.375 C18.9375 2.875 18.9375 2.875 20.625 5.375 C21.7078125 4.1375 21.7078125 4.1375 22.8125 2.875 C25.625 0.375 25.625 0.375 28.25 -0.125 C30.625 0.375 30.625 0.375 32.5 1.4375 C33.625 3.375 33.625 3.375 33.625 6.75 C32.46941111 10.93900972 30.90042151 12.60348949 27.625 15.375 C29.935 15.705 32.245 16.035 34.625 16.375 C34.625 17.035 34.625 17.695 34.625 18.375 C21.425 18.375 8.225 18.375 -5.375 18.375 C-3.375 14.375 -3.375 14.375 -0.8125 12.0625 C2.13713586 8.81033738 2.37154656 6.68370856 2.625 2.375 C-1.10114153 3.49354586 -1.10114153 3.49354586 -3.375 6.375 C-4.035 6.375 -4.695 6.375 -5.375 6.375 C-4.64262429 2.71312147 -4.02451878 0.63545033 0 0 Z " fill="#EEEEEE" transform="translate(942.375,1566.625)"/>
<path d="M0 0 C13.3107415 -0.4033558 13.3107415 -0.4033558 18 3 C19.55950551 4.55950551 19.28196698 6.08877131 19.375 8.25 C19.28933153 11.60713324 18.99489226 13.00962612 17.375 16.0625 C11.79221824 19.26743027 6.34626959 18.29655465 0 18 C0 12.06 0 6.12 0 0 Z " fill="#F6F6F6" transform="translate(842,776)"/>
<path d="M0 0 C3 1.5 3 1.5 5 4 C5.81585672 8.26821885 5.4493569 11.32596466 3 15 C0.66832622 15.08798769 -1.66800612 15.07905064 -4 15 C-5.67557379 15.28520405 -7.34817245 15.59955696 -9 16 C-9 16.66 -9 17.32 -9 18 C-6.69 18 -4.38 18 -2 18 C-2 18.66 -2 19.32 -2 20 C-6.84435994 20.47493725 -9.9563259 20.72418203 -14.0625 17.875 C-16.37569274 14.44252045 -16.74481076 13.05508079 -16 9 C-12.12028562 1.93337737 -8.3340155 -1.43576109 0 0 Z " fill="#E0E0E0" transform="translate(855,1502)"/>
<path d="M0 0 C2.375 1.5 2.375 1.5 4 3 C6.6905528 1.77992056 6.6905528 1.77992056 9 0 C12.56299065 -0.39588785 14.37639795 -0.42667508 17.375 1.625 C19.46379841 4.67785921 19.54068562 6.36968224 19 10 C18 11.875 18 11.875 16 13 C13.28121737 13.24131207 10.7407889 13.1347929 8 13 C7.67 12.01 7.34 11.02 7 10 C6.154375 10.495 5.30875 10.99 4.4375 11.5 C0.5910193 13.1784643 -1.84771187 13.47007035 -6 13 C-7.9375 11.9375 -7.9375 11.9375 -9 10 C-9.63316583 4.09045226 -9.63316583 4.09045226 -7.875 1.0625 C-5.09808875 -0.51108304 -3.13770673 -0.38420899 0 0 Z " fill="#EAEAEA" transform="translate(1044,1504)"/>
<path d="M0 0 C2.375 0.5 2.375 0.5 4.25 1.5625 C5.375 3.5 5.375 3.5 5.375 6.875 C4.21941111 11.06400972 2.65042151 12.72848949 -0.625 15.5 C1.685 15.83 3.995 16.16 6.375 16.5 C6.375 17.16 6.375 17.82 6.375 18.5 C1.755 18.5 -2.865 18.5 -7.625 18.5 C-7.625 17.84 -7.625 17.18 -7.625 16.5 C-10.265 16.5 -12.905 16.5 -15.625 16.5 C-15.21507812 15.95730469 -14.80515625 15.41460938 -14.3828125 14.85546875 C-13.84398437 14.14003906 -13.30515625 13.42460938 -12.75 12.6875 C-12.21632813 11.97980469 -11.68265625 11.27210937 -11.1328125 10.54296875 C-9.91685219 8.89543703 -8.76083859 7.20375789 -7.625 5.5 C-3.45943709 0.6589404 -3.45943709 0.6589404 0 0 Z " fill="#F0F0F0" transform="translate(970.625,1566.5)"/>
<path d="M0 0 C9.15662651 -0.48192771 9.15662651 -0.48192771 12.625 1.5 C14.58535075 5.06427409 14.76550426 8.0258928 14 12 C12.625 14.5 12.625 14.5 10 16 C6.59261423 16.3204438 3.43812659 16.18095403 0 16 C0 10.72 0 5.44 0 0 Z " fill="#F0F0F0" transform="translate(781,1467)"/>
<path d="M0 0 C0.99 0 1.98 0 3 0 C3 6.27 3 12.54 3 19 C-6.21641791 19.48507463 -6.21641791 19.48507463 -9.625 17.375 C-11.42208081 14.27095134 -11.58890625 12.53343747 -11 9 C-9.4375 6.5625 -9.4375 6.5625 -7 5 C-3.25 5.25 -3.25 5.25 0 6 C0 4.02 0 2.04 0 0 Z " fill="#363636" transform="translate(1042,1465)"/>
<path d="M0 0 C0.99 0 1.98 0 3 0 C3 5.94 3 11.88 3 18 C-5.30078125 18.390625 -5.30078125 18.390625 -8 18 C-9.8671875 16.2109375 -9.8671875 16.2109375 -11 14 C-10.67272727 7.67272727 -10.67272727 7.67272727 -8 5 C-2.66666667 4.66666667 -2.66666667 4.66666667 0 6 C0 4.02 0 2.04 0 0 Z " fill="#353535" transform="translate(975,1499)"/>
<path d="M0 0 C0.99 0.33 1.98 0.66 3 1 C3.969375 0.79375 4.93875 0.5875 5.9375 0.375 C9 0 9 0 11.375 1 C13 3 13 3 13.5 6.4375 C13 10 13 10 11.3125 12.4375 C8.59999199 14.27027568 7.20957777 14.43372673 4 14 C3.67 13.67 3.34 13.34 3 13 C2.67 15.31 2.34 17.62 2 20 C1.34 20 0.68 20 0 20 C0 13.4 0 6.8 0 0 Z " fill="#181818" transform="translate(963,1470)"/>
<path d="M0 0 C0.66 0 1.32 0 2 0 C2 5.94 2 11.88 2 18 C-6.3984375 18.29296875 -6.3984375 18.29296875 -9 18 C-11.46324069 14.30513897 -11.38991688 12.36706908 -11 8 C-9.875 6.0625 -9.875 6.0625 -8 5 C-4.875 4.75 -4.875 4.75 -2 5 C-1.67 5.33 -1.34 5.66 -1 6 C-0.67 4.02 -0.34 2.04 0 0 Z " fill="#242424" transform="translate(959,1499)"/>
<path d="M0 0 C0 4.29 0 8.58 0 13 C-8.30078125 13.390625 -8.30078125 13.390625 -11 13 C-12.86328125 11.2109375 -12.86328125 11.2109375 -14 9 C-13.875 5.375 -13.875 5.375 -13 2 C-8.61501596 -0.92332269 -5.2225328 -0.1356502 0 0 Z " fill="#2F2F2F" transform="translate(917,1504)"/>
<path d="M0 0 C0.66 0 1.32 0 2 0 C2 5.61 2 11.22 2 17 C-6.3984375 17.29296875 -6.3984375 17.29296875 -9 17 C-11.46943529 13.29584707 -11.46913089 11.37855495 -11 7 C-9.375 5 -9.375 5 -7 4 C-3.75 4.3125 -3.75 4.3125 -1 5 C-0.67 3.35 -0.34 1.7 0 0 Z " fill="#171717" transform="translate(889,1466)"/>
<path d="M0 0 C1.134375 0.226875 2.26875 0.45375 3.4375 0.6875 C4.4275 0.3575 5.4175 0.0275 6.4375 -0.3125 C6.4375 3.9775 6.4375 8.2675 6.4375 12.6875 C5.1175 12.6875 3.7975 12.6875 2.4375 12.6875 C1.261875 12.77 0.08625 12.8525 -1.125 12.9375 C-4.5625 12.6875 -4.5625 12.6875 -6.5 11 C-7.77554072 8.22382314 -8.09076174 6.7061385 -7.5625 3.6875 C-5.20737606 0.10771161 -4.3333273 -0.38011643 0 0 Z " fill="#2F2F2F" transform="translate(938.5625,1504.3125)"/>
<path d="M0 0 C0.99 -0.33 1.98 -0.66 3 -1 C3 3.29 3 7.58 3 12 C-5.3984375 12.29296875 -5.3984375 12.29296875 -8 12 C-10.46943529 8.29584707 -10.46913089 6.37855495 -10 2 C-6.93631396 -1.77069052 -4.42931206 -0.94240682 0 0 Z " fill="#171717" transform="translate(1025,1471)"/>
<path d="M0 0 C2.4375 1.5625 2.4375 1.5625 4 4 C3.78571429 10.21428571 3.78571429 10.21428571 1 13 C-1.93188861 13.27922749 -4.15390647 13.47143881 -7 13 C-9.45636081 10.92744557 -9.88864581 9.63630966 -10.4375 6.5 C-9.41545969 0.65976965 -5.50319355 -0.91719892 0 0 Z " fill="#333333" transform="translate(833,1504)"/>
<path d="M0 0 C2.375 1.0625 2.375 1.0625 4 3 C4.46913089 7.37855495 4.46943529 9.29584707 2 13 C-0.09375 13.3984375 -0.09375 13.3984375 -2.5 13.375 C-3.2940625 13.38273437 -4.088125 13.39046875 -4.90625 13.3984375 C-5.5971875 13.26695313 -6.288125 13.13546875 -7 13 C-9.46324069 9.30513897 -9.38991688 7.36706908 -9 3 C-6.83831363 -0.7229043 -4.01644453 -0.49180953 0 0 Z " fill="#292929" transform="translate(763,1504)"/>
<path d="M0 0 C2.66266871 2.23320602 2.95347082 3.6200117 3.375 7.0625 C3 10 3 10 2 11.875 C-1.37806895 13.77516379 -4.16618269 13.36512546 -8 13 C-10.46324069 9.30513897 -10.38991688 7.36706908 -10 3 C-7.7810369 -1.04634448 -4.19567567 -0.52445946 0 0 Z " fill="#161616" transform="translate(836,1470)"/>
<path d="M0 0 C2.375 1.625 2.375 1.625 4 4 C4.44912849 7.14389944 4.504106 9.05480125 3 11.875 C-0.37806895 13.77516379 -3.16618269 13.36512546 -7 13 C-9.46324069 9.30513897 -9.38991688 7.36706908 -9 3 C-6.84532543 -0.71082843 -4.00794956 -0.57256422 0 0 Z " fill="#242424" transform="translate(1059,1504)"/>
<path d="M0 0 C0.99 0.33 1.98 0.66 3 1 C3.66 4.63 4.32 8.26 5 12 C5.66 12 6.32 12 7 12 C7.13277344 11.37351562 7.26554688 10.74703125 7.40234375 10.1015625 C7.57894531 9.28429688 7.75554688 8.46703125 7.9375 7.625 C8.11152344 6.81289062 8.28554688 6.00078125 8.46484375 5.1640625 C9 3 9 3 10 1 C10.99 1 11.98 1 13 1 C13.99 3.97 14.98 6.94 16 10 C16.33 10 16.66 10 17 10 C17.99 7.03 18.98 4.06 20 1 C20.66 1 21.32 1 22 1 C20.98408579 6.46864457 19.92908943 11.76390013 18 17 C17.01 17 16.02 17 15 17 C13.66666667 13 12.33333333 9 11 5 C10.01 8.96 9.02 12.92 8 17 C6.68 17 5.36 17 4 17 C3.32844651 14.73050898 2.6626037 12.4596039 2 10.1875 C1.443125 8.29064453 1.443125 8.29064453 0.875 6.35546875 C0 3 0 3 0 0 Z " fill="#2B2B2B" transform="translate(877,1534)"/>
<path d="M0 0 C0.99 0.33 1.98 0.66 3 1 C3.66 4.63 4.32 8.26 5 12 C5.66 12 6.32 12 7 12 C7.66 8.37 8.32 4.74 9 1 C9.99 0.67 10.98 0.34 12 0 C10.76123355 5.69305433 9.43723997 11.35370013 8 17 C6.68 17 5.36 17 4 17 C2.80712589 13.12315913 2 10.08378077 2 6 C1.34 6 0.68 6 0 6 C-0.99 9.63 -1.98 13.26 -3 17 C-3.99 17 -4.98 17 -6 17 C-6.67184618 14.89748139 -7.33730968 12.79292237 -8 10.6875 C-8.556875 8.92986328 -8.556875 8.92986328 -9.125 7.13671875 C-10 4 -10 4 -10 1 C-9.34 1 -8.68 1 -8 1 C-6.68 4.3 -5.36 7.6 -4 11 C-3.2884375 8.5559375 -3.2884375 8.5559375 -2.5625 6.0625 C-1.125 1.125 -1.125 1.125 0 0 Z " fill="#2E2E2E" transform="translate(911,1534)"/>
<path d="M0 0 C0.99 0 1.98 0 3 0 C2.54619105 1.89692143 2.08675008 3.79249595 1.625 5.6875 C1.24214844 7.27111328 1.24214844 7.27111328 0.8515625 8.88671875 C0.08094511 11.70406766 -0.85498543 14.31668325 -2 17 C-2.99 17 -3.98 17 -5 17 C-5.99 13.7 -6.98 10.4 -8 7 C-8.33 7 -8.66 7 -9 7 C-9.99 10.3 -10.98 13.6 -12 17 C-13.32 16.67 -14.64 16.34 -16 16 C-16.50435694 14.0636296 -17.00333874 12.12585854 -17.5 10.1875 C-17.7784375 9.10855469 -18.056875 8.02960938 -18.34375 6.91796875 C-19 4 -19 4 -19 1 C-18.01 1.33 -17.02 1.66 -16 2 C-15.26953125 3.84765625 -15.26953125 3.84765625 -14.8125 6.0625 C-14.65394531 6.79597656 -14.49539063 7.52945312 -14.33203125 8.28515625 C-14.16767578 9.13400391 -14.16767578 9.13400391 -14 10 C-12.00902154 7.01353231 -11.05875074 4.40312738 -10 1 C-8.68 1.33 -7.36 1.66 -6 2 C-5.01 5.63 -4.02 9.26 -3 13 C-2.01 8.71 -1.02 4.42 0 0 Z " fill="#242424" transform="translate(873,1534)"/>
<path d="M0 0 C0.99 0 1.98 0 3 0 C4.82421875 2.40625 4.82421875 2.40625 6.6875 5.5 C7.31011719 6.5209375 7.93273438 7.541875 8.57421875 8.59375 C9.04472656 9.3878125 9.51523438 10.181875 10 11 C10.33 7.37 10.66 3.74 11 0 C11.99 0 12.98 0 14 0 C14 5.61 14 11.22 14 17 C9.40804906 15.85201226 9.12179476 15.26471427 6.75 11.4375 C6.22921875 10.61121094 5.7084375 9.78492188 5.171875 8.93359375 C4.78515625 8.29550781 4.3984375 7.65742187 4 7 C3.67 10.3 3.34 13.6 3 17 C2.01 17 1.02 17 0 17 C0 11.39 0 5.78 0 0 Z " fill="#616161" transform="translate(1048,1534)"/>
<path d="M0 0 C6.8359375 -0.1953125 6.8359375 -0.1953125 9 0 C11 2 11 2 11.25 4.5 C11 7 11 7 9 9 C9.26676204 10.98491642 9.26676204 10.98491642 10 13 C10.33 13.99 10.66 14.98 11 16 C9.125 15.75 9.125 15.75 7 15 C6.30062468 13.68352881 5.63270867 12.34977849 5 11 C4.01 10.67 3.02 10.34 2 10 C2 11.98 2 13.96 2 16 C1.34 16 0.68 16 0 16 C0 10.72 0 5.44 0 0 Z " fill="#2A2A2A" transform="translate(864,1467)"/>
<path d="M0 0 C0.99 0 1.98 0 3 0 C4.65 3.63 6.3 7.26 8 11 C10.14799887 8.1360015 11.42041356 6.38754738 12.6875 3.25 C13.120625 2.1775 13.55375 1.105 14 0 C14.99 0 15.98 0 17 0 C17 5.28 17 10.56 17 16 C16.34 16 15.68 16 15 16 C14.67 13.03 14.34 10.06 14 7 C12.68 9.97 11.36 12.94 10 16 C9.01 16 8.02 16 7 16 C5.68 13.03 4.36 10.06 3 7 C2.67 9.97 2.34 12.94 2 16 C1.34 16 0.68 16 0 16 C0 10.72 0 5.44 0 0 Z " fill="#1D1D1D" transform="translate(956,1535)"/>
<path d="M0 0 C3 0.5625 3 0.5625 5.375 2.875 C7 5.5625 7 5.5625 7 8.5625 C3.37 8.5625 -0.26 8.5625 -4 8.5625 C-3.67 9.2225 -3.34 9.8825 -3 10.5625 C0.34252724 10.63677838 2.8035914 10.62796953 6 9.5625 C5.34 10.8825 4.68 12.2025 4 13.5625 C-3.42309859 14.04926056 -3.42309859 14.04926056 -6 11.875 C-7.19862599 9.1031774 -7.52258446 7.54869691 -7 4.5625 C-4.86907223 1.53002586 -3.65930734 0.68612013 0 0 Z " fill="#242424" transform="translate(996,1503.4375)"/>
<path d="M0 0 C3.375 0.875 3.375 0.875 5.375 2.875 C5.375 4.525 5.375 6.175 5.375 7.875 C2.075 7.875 -1.225 7.875 -4.625 7.875 C-4.295 8.535 -3.965 9.195 -3.625 9.875 C-0.59565509 10.53272428 -0.59565509 10.53272428 2.375 10.875 C2.375 10.215 2.375 9.555 2.375 8.875 C3.365 8.875 4.355 8.875 5.375 8.875 C4.715 10.195 4.055 11.515 3.375 12.875 C-4.04809859 13.36176056 -4.04809859 13.36176056 -6.625 11.1875 C-7.82362599 8.4156774 -8.14758446 6.86119691 -7.625 3.875 C-5.27446179 0.30218192 -4.32956596 -0.14929538 0 0 Z " fill="#454545" transform="translate(870.625,1504.125)"/>
<path d="M0 0 C1.828125 0.09765625 1.828125 0.09765625 4 1 C5.484375 3.87109375 5.484375 3.87109375 6.75 7.4375 C7.17796875 8.61183594 7.6059375 9.78617188 8.046875 10.99609375 C9 14 9 14 9 16 C8.01 16 7.02 16 6 16 C6 15.01 6 14.02 6 13 C3.36 13 0.72 13 -2 13 C-2.33 13.99 -2.66 14.98 -3 16 C-3.66 16 -4.32 16 -5 16 C-4.39363767 10.23955788 -2.24341721 5.27985631 0 0 Z " fill="#262626" transform="translate(1006,1535)"/>
<path d="M0 0 C3.375 0.9375 3.375 0.9375 5.375 3.9375 C5.375 5.2575 5.375 6.5775 5.375 7.9375 C2.075 7.9375 -1.225 7.9375 -4.625 7.9375 C-4.625 8.9275 -4.625 9.9175 -4.625 10.9375 C-1.28247276 11.01177838 1.1785914 11.00296953 4.375 9.9375 C4.045 10.9275 3.715 11.9175 3.375 12.9375 C0.125 13.6875 0.125 13.6875 -3.625 13.9375 C-6.0625 12.375 -6.0625 12.375 -7.625 9.9375 C-8.23475382 6.27897708 -8.07043026 4.63237121 -6.0625 1.5 C-3.625 -0.0625 -3.625 -0.0625 0 0 Z " fill="#323232" transform="translate(804.625,1470.0625)"/>
<path d="M0 0 C2.9026701 0 5.35753369 0.14304908 8.1875 0.5625 C9.445625 0.706875 10.70375 0.85125 12 1 C12.33 0.67 12.66 0.34 13 0 C19.72 0.72 19.72 0.72 21 2 C21.07226502 3.85287502 21.0838122 5.70833878 21.0625 7.5625 C21.05347656 8.57441406 21.04445313 9.58632812 21.03515625 10.62890625 C21.02355469 11.41136719 21.01195312 12.19382812 21 13 C20.34 13 19.68 13 19 13 C18.67 10.03 18.34 7.06 18 4 C16.68 3.67 15.36 3.34 14 3 C12.33657163 4.66342837 12.63951903 6.7825709 12.4375 9.0625 C12.35371094 9.98160156 12.26992188 10.90070313 12.18359375 11.84765625 C12.12300781 12.55792969 12.06242188 13.26820312 12 14 C11.01 14 10.02 14 9 14 C8.67 10.37 8.34 6.74 8 3 C6.35 3.33 4.7 3.66 3 4 C2.67 6.97 2.34 9.94 2 13 C1.34 13 0.68 13 0 13 C0 8.71 0 4.42 0 0 Z " fill="#252525" transform="translate(938,1470)"/>
<path d="M0 0 C3.375 0.875 3.375 0.875 5.375 2.875 C5.375 4.525 5.375 6.175 5.375 7.875 C2.075 7.875 -1.225 7.875 -4.625 7.875 C-4.295 8.865 -3.965 9.855 -3.625 10.875 C-0.58113276 10.95726668 1.44675348 10.85108217 4.375 9.875 C4.045 10.865 3.715 11.855 3.375 12.875 C0.125 13.625 0.125 13.625 -3.625 13.875 C-6.0625 12.3125 -6.0625 12.3125 -7.625 9.875 C-8.23475382 6.21647708 -8.07043026 4.56987121 -6.0625 1.4375 C-3.625 -0.125 -3.625 -0.125 0 0 Z " fill="#323232" transform="translate(929.625,1470.125)"/>
<path d="M0 0 C1.875 1.75 1.875 1.75 3 4 C3 5.32 3 6.64 3 8 C-0.3 8.33 -3.6 8.66 -7 9 C-6.67 9.66 -6.34 10.32 -6 11 C-3.36 10.67 -0.72 10.34 2 10 C1.67 10.99 1.34 11.98 1 13 C-2.25 13.75 -2.25 13.75 -6 14 C-8.4375 12.4375 -8.4375 12.4375 -10 10 C-10.61195145 6.3282913 -10.48706506 4.71186432 -8.375 1.625 C-5.30628876 -0.47464453 -3.64607289 -0.62060815 0 0 Z " fill="#2B2B2B" transform="translate(1010,1470)"/>
<path d="M0 0 C3 1.5 3 1.5 5 4 C5.81585672 8.26821885 5.4493569 11.32596466 3 15 C0.1796875 15.29296875 0.1796875 15.29296875 -3.125 15.1875 C-4.76855469 15.14689453 -4.76855469 15.14689453 -6.4453125 15.10546875 C-7.28835938 15.07066406 -8.13140625 15.03585937 -9 15 C-5.25 13 -5.25 13 -3 13 C-3 10.69 -3 8.38 -3 6 C-2.34 6 -1.68 6 -1 6 C-1 8.64 -1 11.28 -1 14 C-0.01 13.67 0.98 13.34 2 13 C3.19988045 7.71800407 3.19988045 7.71800407 1 3 C-2.03302087 2.35006696 -4.94814002 2.49497691 -8 3 C-10.50160818 4.87620613 -11.61945652 6.23891303 -13 9 C-13.25 12 -13.25 12 -13 15 C-10.60236815 17.39763185 -9.66726502 17.34280586 -6.375 17.625 C-5.55773437 17.69976563 -4.74046875 17.77453125 -3.8984375 17.8515625 C-3.27195312 17.90054687 -2.64546875 17.94953125 -2 18 C-2 18.66 -2 19.32 -2 20 C-6.84435994 20.47493725 -9.9563259 20.72418203 -14.0625 17.875 C-16.37569274 14.44252045 -16.74481076 13.05508079 -16 9 C-12.12028562 1.93337737 -8.3340155 -1.43576109 0 0 Z " fill="#2F2F2F" transform="translate(855,1502)"/>
<path d="M0 0 C4.33333333 0 8.66666667 0 13 0 C14.010625 -0.0825 15.02125 -0.165 16.0625 -0.25 C19 0 19 0 20.875 1.4375 C22.5494151 5.25144551 22.23678107 8.89579485 22 13 C21.01 13 20.02 13 19 13 C18.505 8.05 18.505 8.05 18 3 C16.35 3.33 14.7 3.66 13 4 C12.67 6.97 12.34 9.94 12 13 C11.34 13 10.68 13 10 13 C9.67 10.03 9.34 7.06 9 4 C7.34385343 3.61781233 5.67542976 3.28604898 4 3 C2.41727399 4.58272601 2.65264253 6.38034003 2.4375 8.5625 C2.35371094 9.38878906 2.26992188 10.21507812 2.18359375 11.06640625 C2.12300781 11.70449219 2.06242188 12.34257813 2 13 C1.34 13 0.68 13 0 13 C0 8.71 0 4.42 0 0 Z " fill="#262626" transform="translate(879,1504)"/>
<path d="M0 0 C14.11111111 0 14.11111111 0 20 1 C21 2 21 2 21.09765625 4.50390625 C21.08605469 5.51324219 21.07445312 6.52257813 21.0625 7.5625 C21.05347656 8.57441406 21.04445313 9.58632812 21.03515625 10.62890625 C21.02355469 11.41136719 21.01195312 12.19382812 21 13 C20.34 13 19.68 13 19 13 C19 9.7 19 6.4 19 3 C17.02 3 15.04 3 13 3 C12.67 6.3 12.34 9.6 12 13 C11.01 13 10.02 13 9 13 C8.67 9.7 8.34 6.4 8 3 C6.35 3.33 4.7 3.66 3 4 C2.67 6.97 2.34 9.94 2 13 C1.34 13 0.68 13 0 13 C0 8.71 0 4.42 0 0 Z " fill="#2D2D2D" transform="translate(1066,1504)"/>
<path d="M0 0 C6.8359375 -0.1953125 6.8359375 -0.1953125 9 0 C11 2 11 2 11.3125 4.5 C11.1578125 5.7375 11.1578125 5.7375 11 7 C7.5647952 9.29013653 6.014669 9.17842973 2 9 C2 11.31 2 13.62 2 16 C1.34 16 0.68 16 0 16 C0 10.72 0 5.44 0 0 Z " fill="#101010" transform="translate(977,1535)"/>
<path d="M0 0 C3.3 0 6.6 0 10 0 C9.67 0.99 9.34 1.98 9 3 C7.02 3 5.04 3 3 3 C3 4.32 3 5.64 3 7 C4.98 7 6.96 7 9 7 C9 7.99 9 8.98 9 10 C7.02 10 5.04 10 3 10 C3 11.65 3 13.3 3 15 C4.98 15 6.96 15 9 15 C9 15.66 9 16.32 9 17 C6.03 17 3.06 17 0 17 C0 11.39 0 5.78 0 0 Z " fill="#4F4F4F" transform="translate(1065,1534)"/>
<path d="M0 0 C3.63 0 7.26 0 11 0 C11 0.66 11 1.32 11 2 C8.36 2 5.72 2 3 2 C3.33 2.99 3.66 3.98 4 5 C4.763125 4.938125 5.52625 4.87625 6.3125 4.8125 C9 5 9 5 10.8125 6.125 C12.55198782 8.87155972 12.39769128 10.81846974 12 14 C10.875 15.875 10.875 15.875 9 17 C4.92205575 17.42478586 3.46923881 17.31282587 0 15 C0 14.01 0 13.02 0 12 C0.556875 12.350625 1.11375 12.70125 1.6875 13.0625 C4.53886783 14.21845993 6.08517222 13.80967438 9 13 C8.67 11.35 8.34 9.7 8 8 C5.36 8.33 2.72 8.66 0 9 C0 6.03 0 3.06 0 0 Z " fill="#474747" transform="translate(1001,1568)"/>
<path d="M0 0 C5.66748475 2.83374237 6.91171664 6.52531586 10 12 C10.33 8.04 10.66 4.08 11 0 C11.66 0 12.32 0 13 0 C13 5.28 13 10.56 13 16 C7.07470391 14.51867598 6.15897112 11.09743067 3 6 C2.67 9.63 2.34 13.26 2 17 C1.34 17 0.68 17 0 17 C0 11.39 0 5.78 0 0 Z " fill="#242424" transform="translate(1060,1467)"/>
<path d="M0 0 C9.15662651 -0.48192771 9.15662651 -0.48192771 12.625 1.5 C14.58535075 5.06427409 14.76550426 8.0258928 14 12 C12.625 14.5 12.625 14.5 10 16 C6.59261423 16.3204438 3.43812659 16.18095403 0 16 C0 10.72 0 5.44 0 0 Z M2 2 C2 6.29 2 10.58 2 15 C7.64067231 15.53966611 7.64067231 15.53966611 10.4375 13.4375 C12.34287189 10.97332719 12.34287189 10.97332719 11.875 7.375 C11.29259286 3.95457945 11.29259286 3.95457945 9 2 C5.41656024 1.83322718 5.41656024 1.83322718 2 2 Z " fill="#151515" transform="translate(781,1467)"/>
<path d="M0 0 C3.3 0 6.6 0 10 0 C10 0.66 10 1.32 10 2 C7.36 2 4.72 2 2 2 C2.33 2.99 2.66 3.98 3 5 C3.763125 4.938125 4.52625 4.87625 5.3125 4.8125 C8 5 8 5 9.8125 6.125 C11.55198782 8.87155972 11.39769128 10.81846974 11 14 C9.875 15.875 9.875 15.875 8 17 C4.71501168 17.41062354 2.84154581 17.6171336 0.125 15.625 C-1 14 -1 14 -1 12 C-0.01 12 0.98 12 2 12 C2.33 12.66 2.66 13.32 3 14 C4.65 14 6.3 14 8 14 C8 12.35 8 10.7 8 9 C4.71303767 8.20046862 3.28976808 7.90341064 0 9 C0 6.03 0 3.06 0 0 Z " fill="#262626" transform="translate(1017,1568)"/>
<path d="M0 0 C3.63 0 7.26 0 11 0 C11 0.33 11 0.66 11 1 C8.03 1 5.06 1 2 1 C2.33 2.65 2.66 4.3 3 6 C3.33 5.67 3.66 5.34 4 5 C6.77193929 4.70821692 8.41409825 4.63633684 10.8125 6.125 C12.55198782 8.87155972 12.39769128 10.81846974 12 14 C10.875 15.875 10.875 15.875 9 17 C5.71501168 17.41062354 3.84154581 17.6171336 1.125 15.625 C0 14 0 14 0 12 C0.99 12.33 1.98 12.66 3 13 C3 13.66 3 14.32 3 15 C4.65 14.67 6.3 14.34 8 14 C8 12.02 8 10.04 8 8 C5.36 8.33 2.72 8.66 0 9 C0 6.03 0 3.06 0 0 Z " fill="#434343" transform="translate(986,1568)"/>
<path d="M0 0 C0.66 0 1.32 0 2 0 C2 2.31 2 4.62 2 7 C4.97 7 7.94 7 11 7 C11 4.69 11 2.38 11 0 C11.66 0 12.32 0 13 0 C13 5.28 13 10.56 13 16 C12.34 16 11.68 16 11 16 C11 13.69 11 11.38 11 9 C8.03 9 5.06 9 2 9 C2 11.64 2 14.28 2 17 C1.34 17 0.68 17 0 17 C0 11.39 0 5.78 0 0 Z " fill="#202020" transform="translate(906,1467)"/>
<path d="M0 0 C2.5625 0.3125 2.5625 0.3125 4.4375 1.375 C5.5625 3.3125 5.5625 3.3125 5.5625 6.6875 C4.40691111 10.87650972 2.83792151 12.54098949 -0.4375 15.3125 C1.8725 15.6425 4.1825 15.9725 6.5625 16.3125 C6.5625 16.9725 6.5625 17.6325 6.5625 18.3125 C2.6025 18.3125 -1.3575 18.3125 -5.4375 18.3125 C-3.4375 14.3125 -3.4375 14.3125 -1.4375 13.375 C0.77932644 12.43068289 0.77932644 12.43068289 1.875 9.9375 C2.59020914 7.20670147 2.5284657 5.92060739 1.5625 3.3125 C-0.41286745 3.66036708 -0.41286745 3.66036708 -2.4375 4.3125 C-2.7675 4.9725 -3.0975 5.6325 -3.4375 6.3125 C-4.0975 6.3125 -4.7575 6.3125 -5.4375 6.3125 C-4.69883196 2.6191598 -4.09013702 0.52437654 0 0 Z " fill="#262626" transform="translate(970.4375,1566.6875)"/>
<path d="M0 0 C2.5625 0.3125 2.5625 0.3125 4.4375 1.375 C5.5625 3.3125 5.5625 3.3125 5.5625 6.6875 C4.40691111 10.87650972 2.83792151 12.54098949 -0.4375 15.3125 C1.8725 15.6425 4.1825 15.9725 6.5625 16.3125 C6.5625 16.9725 6.5625 17.6325 6.5625 18.3125 C2.6025 18.3125 -1.3575 18.3125 -5.4375 18.3125 C-3.4375 14.3125 -3.4375 14.3125 -0.875 12 C2.07463586 8.74783738 2.30904656 6.62120856 2.5625 2.3125 C-1.16364153 3.43104586 -1.16364153 3.43104586 -3.4375 6.3125 C-4.0975 6.3125 -4.7575 6.3125 -5.4375 6.3125 C-4.69883196 2.6191598 -4.09013702 0.52437654 0 0 Z " fill="#252525" transform="translate(956.4375,1566.6875)"/>
<path d="M0 0 C2.5625 0.3125 2.5625 0.3125 4.4375 1.375 C5.5625 3.3125 5.5625 3.3125 5.5625 6.6875 C4.40691111 10.87650972 2.83792151 12.54098949 -0.4375 15.3125 C1.8725 15.6425 4.1825 15.9725 6.5625 16.3125 C6.5625 16.9725 6.5625 17.6325 6.5625 18.3125 C2.6025 18.3125 -1.3575 18.3125 -5.4375 18.3125 C-3.4375 14.3125 -3.4375 14.3125 -0.875 12 C2.07463586 8.74783738 2.30904656 6.62120856 2.5625 2.3125 C-1.16364153 3.43104586 -1.16364153 3.43104586 -3.4375 6.3125 C-4.0975 6.3125 -4.7575 6.3125 -5.4375 6.3125 C-4.69883196 2.6191598 -4.09013702 0.52437654 0 0 Z " fill="#212121" transform="translate(942.4375,1566.6875)"/>
<path d="M0 0 C0 2.97 0 5.94 0 9 C-0.33 9 -0.66 9 -1 9 C-1 6.36 -1 3.72 -1 1 C-1.185625 2.11375 -1.37125 3.2275 -1.5625 4.375 C-2.036875 5.57125 -2.51125 6.7675 -3 8 C-6.625 9.4375 -6.625 9.4375 -10 10 C-10.80239884 6.79040466 -11.29531307 4.74812645 -10.0625 1.625 C-6.82221366 -0.92795288 -4.04581568 -0.26529939 0 0 Z " fill="#3E3E3E" transform="translate(855,1507)"/>
<path d="M0 0 C0.66 0 1.32 0 2 0 C2.33 3.3 2.66 6.6 3 10 C5.97 10.495 5.97 10.495 9 11 C9 7.37 9 3.74 9 0 C9.99 0 10.98 0 12 0 C12 4.29 12 8.58 12 13 C10.39125 13.04125 8.7825 13.0825 7.125 13.125 C6.22007812 13.14820313 5.31515625 13.17140625 4.3828125 13.1953125 C2 13 2 13 0 11 C-0.1953125 8.3984375 -0.1953125 8.3984375 -0.125 5.375 C-0.10695313 4.37210938 -0.08890625 3.36921875 -0.0703125 2.3359375 C-0.04710937 1.56507812 -0.02390625 0.79421875 0 0 Z " fill="#2B2B2B" transform="translate(770,1504)"/>
<path d="M0 0 C2.97 0 5.94 0 9 0 C9 0.66 9 1.32 9 2 C6.69 2 4.38 2 2 2 C2 3.98 2 5.96 2 8 C3.98 8 5.96 8 8 8 C8 8.66 8 9.32 8 10 C6.02 10 4.04 10 2 10 C2 11.65 2 13.3 2 15 C4.31 15 6.62 15 9 15 C9 15.66 9 16.32 9 17 C6.03 17 3.06 17 0 17 C0 11.39 0 5.78 0 0 Z " fill="#292929" transform="translate(1031,1534)"/>
<path d="M0 0 C1.423125 -0.061875 2.84625 -0.12375 4.3125 -0.1875 C5.51326172 -0.23970703 5.51326172 -0.23970703 6.73828125 -0.29296875 C9 0 9 0 10.78125 1.1875 C12.42341401 3.62969263 12.30107677 5.27236294 12.1875 8.1875 C12.16042969 9.08855469 12.13335938 9.98960938 12.10546875 10.91796875 C12.07066406 11.60503906 12.03585937 12.29210938 12 13 C11.01 13 10.02 13 9 13 C8.67 9.7 8.34 6.4 8 3 C6.35 3 4.7 3 3 3 C2.67 6.3 2.34 9.6 2 13 C1.34 13 0.68 13 0 13 C0 8.71 0 4.42 0 0 Z " fill="#2F2F2F" transform="translate(801,1504)"/>
<path d="M0 0 C5.56818182 0.56818182 5.56818182 0.56818182 7 2 C6.71269945 4.33944736 6.38063221 6.6739143 6 9 C3.6875 9.6875 3.6875 9.6875 1 10 C-0.8125 8.875 -0.8125 8.875 -2 7 C-2.3125 4.4375 -2.3125 4.4375 -2 2 C-1.34 1.34 -0.68 0.68 0 0 Z " fill="#E8E8E8" transform="translate(1019,1472)"/>
<path d="M0 0 C2.375 0.6875 2.375 0.6875 3.375 1.6875 C3.08769945 4.02694736 2.75563221 6.3614143 2.375 8.6875 C0.0625 9.375 0.0625 9.375 -2.625 9.6875 C-4.4375 8.5625 -4.4375 8.5625 -5.625 6.6875 C-6 4.125 -6 4.125 -5.625 1.6875 C-2.625 -0.3125 -2.625 -0.3125 0 0 Z " fill="#E9E9E9" transform="translate(970.625,1472.3125)"/>
<path d="M0 0 C3 1 3 1 4.1875 3.375 C5 6 5 6 5 9 C5.66 9 6.32 9 7 9 C7.99 6.03 8.98 3.06 10 0 C10.66 0 11.32 0 12 0 C10.07443364 6.85618326 7.7527517 13.43252132 5 20 C4.01 20 3.02 20 2 20 C2.350625 19.278125 2.70125 18.55625 3.0625 17.8125 C4.57381698 13.27854905 3.29706359 10.68918753 1.4375 6.375 C0 3 0 3 0 0 Z " fill="#2D2D2D" transform="translate(740,1504)"/>
<path d="M0 0 C4.55555556 0.55555556 4.55555556 0.55555556 6 2 C6.1875 4.9375 6.1875 4.9375 6 8 C5.34 8.66 4.68 9.32 4 10 C0.70285207 9.67028521 -0.6226839 9.3773161 -3 7 C-2.67028521 3.70285207 -2.3773161 2.3773161 0 0 Z " fill="#EBEBEB" transform="translate(1036,1472)"/>
<path d="M0 0 C3.125 0.375 3.125 0.375 6 1 C7.32841008 6.43440487 7.32841008 6.43440487 5.875 8.9375 C4 10 4 10 1.3125 9.6875 C0.549375 9.460625 -0.21375 9.23375 -1 9 C-1.625 5.625 -1.625 5.625 -2 2 C-1.34 1.34 -0.68 0.68 0 0 Z " fill="#ECECEC" transform="translate(830,1472)"/>
<path d="M0 0 C2.5 0.25 2.5 0.25 4.5 2.25 C4.75 4.75 4.75 4.75 4.5 7.25 C2.5 9.25 2.5 9.25 -0.625 9.375 C-2.048125 9.313125 -2.048125 9.313125 -3.5 9.25 C-4.125 5.875 -4.125 5.875 -4.5 2.25 C-2.5 0.25 -2.5 0.25 0 0 Z " fill="#EEEEEE" transform="translate(954.5,1505.75)"/>
<path d="M0 0 C2.5 0.25 2.5 0.25 4.5 2.25 C4.75 4.75 4.75 4.75 4.5 7.25 C2.5 9.25 2.5 9.25 -0.625 9.375 C-2.048125 9.313125 -2.048125 9.313125 -3.5 9.25 C-4.125 5.875 -4.125 5.875 -4.5 2.25 C-2.5 0.25 -2.5 0.25 0 0 Z " fill="#EEEEEE" transform="translate(760.5,1505.75)"/>
<path d="M0 0 C5.875 0.875 5.875 0.875 7 2 C7.125 5 7.125 5 7 8 C6 9 6 9 2.4375 9.0625 C1.303125 9.041875 0.16875 9.02125 -1 9 C-1.625 6.1875 -1.625 6.1875 -2 3 C-1.34 2.01 -0.68 1.02 0 0 Z " fill="#EDEDED" transform="translate(882,1472)"/>
<path d="M0 0 C3.625 0.375 3.625 0.375 7 1 C7 1.99 7 2.98 7 4 C6.34 4 5.68 4 5 4 C5 3.34 5 2.68 5 2 C3.35 2 1.7 2 0 2 C0 2.99 0 3.98 0 5 C1.1446875 5.185625 1.1446875 5.185625 2.3125 5.375 C5 6 5 6 8 8 C7.67 9.65 7.34 11.3 7 13 C4.36 13 1.72 13 -1 13 C-1.33 12.01 -1.66 11.02 -2 10 C0.31 10.33 2.62 10.66 5 11 C5 10.01 5 9.02 5 8 C2.03 7.505 2.03 7.505 -1 7 C-1.625 4.625 -1.625 4.625 -2 2 C-1.34 1.34 -0.68 0.68 0 0 Z " fill="#313131" transform="translate(1007,1504)"/>
<path d="M0 0 C3.125 0.375 3.125 0.375 6 1 C6.625 3.875 6.625 3.875 7 7 C5 9 5 9 1.875 9.125 C0.451875 9.063125 0.451875 9.063125 -1 9 C-1.625 5.625 -1.625 5.625 -2 2 C-1.34 1.34 -0.68 0.68 0 0 Z " fill="#F2F2F2" transform="translate(1054,1506)"/>
<path d="M0 0 C3.29714793 0.32971479 4.6226839 0.6226839 7 3 C6.44444444 7.55555556 6.44444444 7.55555556 5 9 C2 9.125 2 9.125 -1 9 C-2 8 -2 8 -2.1875 5.0625 C-2 2 -2 2 0 0 Z " fill="#F2F2F2" transform="translate(936,1506)"/>
<path d="M0 0 C2.5625 0.375 2.5625 0.375 4.375 2.375 C4.766875 3.035 5.15875 3.695 5.5625 4.375 C3.2525 4.045 0.9425 3.715 -1.4375 3.375 C-1.4375 4.035 -1.4375 4.695 -1.4375 5.375 C2.0275 6.86 2.0275 6.86 5.5625 8.375 C5.2325 10.025 4.9025 11.675 4.5625 13.375 C2.2525 13.705 -0.0575 14.035 -2.4375 14.375 C-3.0975 13.055 -3.7575 11.735 -4.4375 10.375 C-2.1275 10.705 0.1825 11.035 2.5625 11.375 C2.8925 10.715 3.2225 10.055 3.5625 9.375 C1.2525 8.715 -1.0575 8.055 -3.4375 7.375 C-4.0625 5 -4.0625 5 -4.4375 2.375 C-2.4375 0.375 -2.4375 0.375 0 0 Z " fill="#333333" transform="translate(983.4375,1469.625)"/>
<path d="M0 0 C2.5625 0.1875 2.5625 0.1875 4.5625 2.1875 C4.75 5.25 4.75 5.25 4.5625 8.1875 C3.5625 9.1875 3.5625 9.1875 0.5625 9.3125 C-2.4375 9.1875 -2.4375 9.1875 -3.4375 8.1875 C-3.5625 4.6875 -3.5625 4.6875 -3.4375 1.1875 C-2.4375 0.1875 -2.4375 0.1875 0 0 Z " fill="#F3F3F3" transform="translate(970.4375,1505.8125)"/>
<path d="M0 0 C7.30769231 -0.36538462 7.30769231 -0.36538462 10.25 1.1875 C12 3 12 3 12.390625 5.48046875 C12.32101562 6.82044922 12.32101562 6.82044922 12.25 8.1875 C12.21390625 9.08855469 12.1778125 9.98960938 12.140625 10.91796875 C12.07101562 11.94857422 12.07101562 11.94857422 12 13 C11.34 13 10.68 13 10 13 C9.67 10.03 9.34 7.06 9 4 C7.34385343 3.61781233 5.67542976 3.28604898 4 3 C2.41727399 4.58272601 2.65264253 6.38034003 2.4375 8.5625 C2.35371094 9.38878906 2.26992188 10.21507812 2.18359375 11.06640625 C2.12300781 11.70449219 2.06242188 12.34257813 2 13 C1.34 13 0.68 13 0 13 C0 8.71 0 4.42 0 0 Z " fill="#191919" transform="translate(842,1470)"/>
<path d="M0 0 C4.55555556 0.55555556 4.55555556 0.55555556 6 2 C6.125 5 6.125 5 6 8 C5 9 5 9 2 9.125 C-1 9 -1 9 -2 8 C-2.1875 5.0625 -2.1875 5.0625 -2 2 C-1.34 1.34 -0.68 0.68 0 0 Z " fill="#F7F7F7" transform="translate(908,1506)"/>
<path d="M0 0 C4.55555556 0.55555556 4.55555556 0.55555556 6 2 C6.125 5 6.125 5 6 8 C5 9 5 9 2 9.125 C-1 9 -1 9 -2 8 C-2.1875 5.0625 -2.1875 5.0625 -2 2 C-1.34 1.34 -0.68 0.68 0 0 Z " fill="#F7F7F7" transform="translate(828,1506)"/>
<path d="M0 0 C1.4540625 0.0309375 1.4540625 0.0309375 2.9375 0.0625 C3.5975 1.3825 4.2575 2.7025 4.9375 4.0625 C2.6275 3.4025 0.3175 2.7425 -2.0625 2.0625 C-1.7325 3.0525 -1.4025 4.0425 -1.0625 5.0625 C1.94597418 6.28770264 1.94597418 6.28770264 4.9375 7.0625 C4.980221 8.72861905 4.97813832 10.39632885 4.9375 12.0625 C3.9375 13.0625 3.9375 13.0625 0.375 13.125 C-0.759375 13.104375 -1.89375 13.08375 -3.0625 13.0625 C-3.3925 12.0725 -3.7225 11.0825 -4.0625 10.0625 C-1.0925 10.5575 -1.0925 10.5575 1.9375 11.0625 C1.9375 10.4025 1.9375 9.7425 1.9375 9.0625 C-0.0425 8.0725 -2.0225 7.0825 -4.0625 6.0625 C-4.105221 4.39638095 -4.10313832 2.72867115 -4.0625 1.0625 C-3.0625 0.0625 -3.0625 0.0625 0 0 Z " fill="#212121" transform="translate(1022.0625,1503.9375)"/>
<path d="M0 0 C0.99 0.66 1.98 1.32 3 2 C3 2.66 3 3.32 3 4 C1.700625 3.814375 0.40125 3.62875 -0.9375 3.4375 C-3.08575543 3.1018371 -3.08575543 3.1018371 -5 3 C-6.41577477 4.18424326 -6.41577477 4.18424326 -6.0625 7.5625 C-6.041875 8.696875 -6.02125 9.83125 -6 11 C-2.37471432 11.20140476 -0.13498292 10.85776765 3 9 C2.34 10.32 1.68 11.64 1 13 C-5.34507042 13.35915493 -5.34507042 13.35915493 -7.9375 11.9375 C-9.6140629 8.88023824 -9.36528977 6.4093712 -9 3 C-6.83464775 -0.72921777 -4.01926187 -0.41867311 0 0 Z " fill="#212121" transform="translate(1044,1504)"/>
<path d="M0 0 C0.66 0 1.32 0 2 0 C5 6.625 5 6.625 5 10 C5.66 10 6.32 10 7 10 C7.185625 8.63875 7.185625 8.63875 7.375 7.25 C7.92109677 4.41029677 8.57263803 2.47409409 10 0 C10.66 0 11.32 0 12 0 C11.52140759 1.60433809 11.04210442 3.20846416 10.5625 4.8125 C10.29566406 5.70582031 10.02882813 6.59914063 9.75390625 7.51953125 C9.19612127 9.35473055 8.60655425 11.18033726 8 13 C6.68 13 5.36 13 4 13 C3.32694982 11.39850114 2.66177773 9.79368971 2 8.1875 C1.62875 7.29417969 1.2575 6.40085937 0.875 5.48046875 C0 3 0 3 0 0 Z " fill="#323232" transform="translate(812,1470)"/>
<path d="M0 0 C3.96 0 7.92 0 12 0 C10.11994266 6.01618347 7.93937169 11.42532955 5 17 C4.34 17 3.68 17 3 17 C4.63958758 11.76727367 6.38952035 6.84803364 9 2 C6.03 2 3.06 2 0 2 C0 1.34 0 0.68 0 0 Z " fill="#313131" transform="translate(1063,1568)"/>
<path d="M0 0 C0.99 0 1.98 0 3 0 C3 0.66 3 1.32 3 2 C2.34 2 1.68 2 1 2 C1 2.99 1 3.98 1 5 C1.66 5 2.32 5 3 5 C3 5.66 3 6.32 3 7 C2.34 7 1.68 7 1 7 C1 10.63 1 14.26 1 18 C0.01 18 -0.98 18 -2 18 C-2.33 13.71 -2.66 9.42 -3 5 C-2.34 5 -1.68 5 -1 5 C-0.67 3.35 -0.34 1.7 0 0 Z " fill="#333333" transform="translate(818,1499)"/>
<path d="M0 0 C0.99 0 1.98 0 3 0 C3 0.99 3 1.98 3 3 C3.99 3 4.98 3 6 3 C6 3.66 6 4.32 6 5 C5.01 5 4.02 5 3 5 C3 8.3 3 11.6 3 15 C3.99 15.33 4.98 15.66 6 16 C4.33388095 16.042721 2.66617115 16.04063832 1 16 C-0.78989392 14.21010608 -0.42127056 11.55229071 -0.625 9.125 C-0.72039063 8.05507812 -0.81578125 6.98515625 -0.9140625 5.8828125 C-1 3 -1 3 0 0 Z " fill="#252525" transform="translate(992,1467)"/>
<path d="M0 0 C3.63 0 7.26 0 11 0 C10.35956665 6.24422521 7.77121909 11.45756182 5 17 C4.34 17 3.68 17 3 17 C3.65419099 11.93001981 5.8546409 7.58009223 8 3 C5.36 2.67 2.72 2.34 0 2 C0 1.34 0 0.68 0 0 Z " fill="#313131" transform="translate(1037,1568)"/>
<path d="M0 0 C3.63 0 7.26 0 11 0 C10.49487476 6.22987798 7.67395877 11.45474233 5 17 C4.34 17 3.68 17 3 17 C4.54269924 12.27934033 6.07794619 7.58335908 8 3 C5.36 2.67 2.72 2.34 0 2 C0 1.34 0 0.68 0 0 Z " fill="#2F2F2F" transform="translate(1050,1568)"/>
<path d="M0 0 C2.64 0 5.28 0 8 0 C8 0.33 8 0.66 8 1 C6.02 1 4.04 1 2 1 C2 2.98 2 4.96 2 7 C3.98 7 5.96 7 8 7 C8 7.66 8 8.32 8 9 C6.02 9 4.04 9 2 9 C2 10.98 2 12.96 2 15 C3.98 15 5.96 15 8 15 C8 15.33 8 15.66 8 16 C5.36 16 2.72 16 0 16 C0 10.72 0 5.44 0 0 Z " fill="#101010" transform="translate(944,1535)"/>
<path d="M0 0 C0.99 0.33 1.98 0.66 3 1 C4.1875 4.0625 4.1875 4.0625 5 7 C5.66 7 6.32 7 7 7 C7.268125 6.030625 7.53625 5.06125 7.8125 4.0625 C8.4003125 2.5465625 8.4003125 2.5465625 9 1 C9.99 0.67 10.98 0.34 12 0 C10.17708333 4.6875 10.17708333 4.6875 8.9375 6.875 C7.62876356 9.84146927 7.36953746 12.79734198 7 16 C6.34 16 5.68 16 5 16 C4.87625 14.4840625 4.87625 14.4840625 4.75 12.9375 C4.16227462 8.62166584 2.24385159 5.69149778 0 2 C0 1.34 0 0.68 0 0 Z " fill="#141414" transform="translate(1076,1467)"/>
<path d="M0 0 C0.66 0 1.32 0 2 0 C0.98408579 5.46864457 -0.07091057 10.76390013 -2 16 C-2.99 16 -3.98 16 -5 16 C-6.80411967 13.24075815 -7.0127245 12.11027897 -6.625 8.75 C-6.41875 7.8425 -6.2125 6.935 -6 6 C-5.01 6.99 -4.02 7.98 -3 9 C-2.01 6.03 -1.02 3.06 0 0 Z " fill="#2E2E2E" transform="translate(897,1535)"/>
<path d="M0 0 C3.96 0 7.92 0 12 0 C10.11994266 6.01618347 7.93937169 11.42532955 5 17 C3.67169385 13.01508155 4.76795596 11.59951452 6.4375 7.8125 C6.91058594 6.72582031 7.38367187 5.63914062 7.87109375 4.51953125 C8.24363281 3.68808594 8.61617187 2.85664062 9 2 C6.03 2 3.06 2 0 2 C0 1.34 0 0.68 0 0 Z " fill="#2D2D2D" transform="translate(1076,1568)"/>
<path d="M0 0 C0.99 0 1.98 0 3 0 C3 5.94 3 11.88 3 18 C2.01 18 1.02 18 0 18 C0 12.06 0 6.12 0 0 Z " fill="#3B3B3B" transform="translate(926,1499)"/>
<path d="M0 0 C6.3833448 -0.48176187 6.3833448 -0.48176187 9 1.5625 C10.39537637 4.96372991 9.74768043 7.4655107 9 11 C8.01 11.33 7.02 11.66 6 12 C6 9.03 6 6.06 6 3 C3.69 2.67 1.38 2.34 -1 2 C-0.67 1.34 -0.34 0.68 0 0 Z " fill="#E1E1E1" transform="translate(849,1504)"/>
<path d="M0 0 C3.63 0 7.26 0 11 0 C11 0.66 11 1.32 11 2 C9.35 2 7.7 2 6 2 C6 6.95 6 11.9 6 17 C5.34 17 4.68 17 4 17 C4 12.05 4 7.1 4 2 C2.68 2 1.36 2 0 2 C0 1.34 0 0.68 0 0 Z " fill="#191919" transform="translate(1077,1534)"/>
<path d="M0 0 C3.63 0 7.26 0 11 0 C11 0.66 11 1.32 11 2 C9.35 2 7.7 2 6 2 C6 6.95 6 11.9 6 17 C5.34 17 4.68 17 4 17 C4 12.05 4 7.1 4 2 C2.68 2 1.36 2 0 2 C0 1.34 0 0.68 0 0 Z " fill="#191919" transform="translate(1017,1534)"/>
<path d="M0 0 C0.99 0 1.98 0 3 0 C2.54619105 1.89692143 2.08675008 3.79249595 1.625 5.6875 C1.36976563 6.74324219 1.11453125 7.79898437 0.8515625 8.88671875 C0.08094511 11.70406766 -0.85498543 14.31668325 -2 17 C-2.99 17 -3.98 17 -5 17 C-5.625 14.125 -5.625 14.125 -6 11 C-5.34 10.34 -4.68 9.68 -4 9 C-3.67 10.32 -3.34 11.64 -3 13 C-2.01 8.71 -1.02 4.42 0 0 Z " fill="#2D2D2D" transform="translate(873,1534)"/>
<path d="M0 0 C2.31 0 4.62 0 7 0 C7 0.66 7 1.32 7 2 C6.01 2.33 5.02 2.66 4 3 C3.67 6.3 3.34 9.6 3 13 C2.01 13 1.02 13 0 13 C0 8.71 0 4.42 0 0 Z " fill="#3A3A3A" transform="translate(981,1504)"/>
<path d="M0 0 C0.66 0 1.32 0 2 0 C3.32 3.3 4.64 6.6 6 10 C6.66 9.67 7.32 9.34 8 9 C7.67 11.31 7.34 13.62 7 16 C6.01 16 5.02 16 4 16 C3.32815382 13.89748139 2.66269032 11.79292237 2 9.6875 C1.443125 7.92986328 1.443125 7.92986328 0.875 6.13671875 C0 3 0 3 0 0 Z " fill="#262626" transform="translate(901,1535)"/>
<path d="M0 0 C0.66 0 1.32 0 2 0 C2 4.62 2 9.24 2 14 C3.98 14 5.96 14 8 14 C8 14.66 8 15.32 8 16 C5.36 16 2.72 16 0 16 C0 10.72 0 5.44 0 0 Z " fill="#212121" transform="translate(991,1535)"/>
<path d="M0 0 C2.375 -0.125 2.375 -0.125 5 0 C5.66 0.66 6.32 1.32 7 2 C6.46428571 5.53571429 6.46428571 5.53571429 5 7 C3.33382885 7.04063832 1.66611905 7.042721 0 7 C0 4.69 0 2.38 0 0 Z " fill="#DBDBDB" transform="translate(979,1536)"/>
<path d="M0 0 C0.99 0 1.98 0 3 0 C3.33 1.65 3.66 3.3 4 5 C3.34 5 2.68 5 2 5 C2 8.96 2 12.92 2 17 C1.34 17 0.68 17 0 17 C0 11.39 0 5.78 0 0 Z " fill="#252525" transform="translate(1048,1534)"/>
<path d="M0 0 C0.33 0.99 0.66 1.98 1 3 C-2.63 3 -6.26 3 -10 3 C-9.67 3.66 -9.34 4.32 -9 5 C-5.65747276 5.07427838 -3.1964086 5.06546953 0 4 C-0.66 5.32 -1.32 6.64 -2 8 C-4.64 8 -7.28 8 -10 8 C-11.0625 6.125 -11.0625 6.125 -12 4 C-11.67 3.34 -11.34 2.68 -11 2 C-7.37 2 -3.74 2 0 2 C0 1.34 0 0.68 0 0 Z " fill="#494949" transform="translate(1002,1509)"/>
<path d="M0 0 C3.63 1.32 7.26 2.64 11 4 C10.67 4.99 10.34 5.98 10 7 C5.25 6.125 5.25 6.125 3 5 C2.67 5.66 2.34 6.32 2 7 C1.34 6.34 0.68 5.68 0 5 C0 3.35 0 1.7 0 0 Z " fill="#DEDEDE" transform="translate(976,1475)"/>
<path d="M0 0 C2 3 2 3 2 6 C-1.63 6 -5.26 6 -9 6 C-9 5.67 -9 5.34 -9 5 C-6.03 5 -3.06 5 0 5 C-0.99 4.01 -1.98 3.02 -3 2 C-4.32 2 -5.64 2 -7 2 C-7.66 2.66 -8.32 3.32 -9 4 C-9 2.68 -9 1.36 -9 0 C-5.85135005 -1.57432497 -3.35512575 -0.71895552 0 0 Z " fill="#212121" transform="translate(808,1471)"/>
<path d="M0 0 C2 2 2 2 2 6 C-1.3 6 -4.6 6 -8 6 C-8 5.67 -8 5.34 -8 5 C-5.36 5 -2.72 5 0 5 C-0.66 4.01 -1.32 3.02 -2 2 C-4.45741537 1.49985047 -4.45741537 1.49985047 -7 2 C-8.81476003 3.39585785 -8.81476003 3.39585785 -10 5 C-9.625 2.5625 -9.625 2.5625 -9 0 C-5.88135455 -1.55932272 -3.33704665 -0.65549131 0 0 Z " fill="#181818" transform="translate(874,1505)"/>
<path d="M0 0 C2.31 0 4.62 0 7 0 C7 0.33 7 0.66 7 1 C5.35 1 3.7 1 2 1 C2 3.31 2 5.62 2 8 C2.99 8.33 3.98 8.66 5 9 C4.01 9 3.02 9 2 9 C2 11.31 2 13.62 2 16 C1.34 16 0.68 16 0 16 C0 10.72 0 5.44 0 0 Z " fill="#0B0B0B" transform="translate(864,1467)"/>
<path d="M0 0 C0.99 0 1.98 0 3 0 C3 4.29 3 8.58 3 13 C2.01 13 1.02 13 0 13 C0 8.71 0 4.42 0 0 Z " fill="#494949" transform="translate(920,1504)"/>
<path d="M0 0 C1.98 0 3.96 0 6 0 C6.33 1.65 6.66 3.3 7 5 C4.69 5.33 2.38 5.66 0 6 C0 4.02 0 2.04 0 0 Z " fill="#ECECEC" transform="translate(866,1469)"/>
<path d="M0 0 C2.125 0.375 2.125 0.375 4 1 C3.67 2.98 3.34 4.96 3 7 C1.0625 7.5625 1.0625 7.5625 -1 8 C-2 7 -2 7 -2.1875 4.5625 C-2 2 -2 2 0 0 Z " fill="#E8E8E8" transform="translate(849,1508)"/>
<path d="M0 0 C0.99 0 1.98 0 3 0 C2.67 5.28 2.34 10.56 2 16 C1.34 16 0.68 16 0 16 C0 10.72 0 5.44 0 0 Z " fill="#070707" transform="translate(956,1535)"/>
<path d="M0 0 C0.66 0 1.32 0 2 0 C2 5.28 2 10.56 2 16 C1.01 16 0.02 16 -1 16 C-0.67 10.72 -0.34 5.44 0 0 Z " fill="#181818" transform="translate(1071,1467)"/>
<path d="M0 0 C3.63 0 7.26 0 11 0 C11 0.33 11 0.66 11 1 C8.03 1 5.06 1 2 1 C2.33 2.65 2.66 4.3 3 6 C4.32 6.33 5.64 6.66 7 7 C4.35261084 8.4606285 3.10551666 9 0 9 C0 6.03 0 3.06 0 0 Z " fill="#121212" transform="translate(986,1568)"/>
<path d="M0 0 C1.98 0 3.96 0 6 0 C6 0.66 6 1.32 6 2 C5.01 2.33 4.02 2.66 3 3 C2.67 6.3 2.34 9.6 2 13 C1.34 13 0.68 13 0 13 C0 8.71 0 4.42 0 0 Z " fill="#1E1E1E" transform="translate(786,1504)"/>
<path d="M0 0 C0.33 0 0.66 0 1 0 C1.33 2.31 1.66 4.62 2 7 C4.97 7 7.94 7 11 7 C10.67 7.66 10.34 8.32 10 9 C8.54257537 9.08096803 7.08387193 9.13917774 5.625 9.1875 C4.81289063 9.22230469 4.00078125 9.25710938 3.1640625 9.29296875 C2.44992187 9.19628906 1.73578125 9.09960938 1 9 C-1.14809171 5.77786243 -1.29386153 4.72224599 -1 1 C-0.67 0.67 -0.34 0.34 0 0 Z " fill="#272727" transform="translate(879,1474)"/>
<path d="M0 0 C2.625 0.3125 2.625 0.3125 4.4375 2.3125 C4.829375 2.9725 5.22125 3.6325 5.625 4.3125 C3.315 3.9825 1.005 3.6525 -1.375 3.3125 C-1.375 3.9725 -1.375 4.6325 -1.375 5.3125 C-0.715 5.9725 -0.055 6.6325 0.625 7.3125 C-1.025 6.9825 -2.675 6.6525 -4.375 6.3125 C-3.32040428 0.4368953 -3.32040428 0.4368953 0 0 Z " fill="#232323" transform="translate(983.375,1469.6875)"/>
<path d="M0 0 C0.66 0 1.32 0 2 0 C3.20272819 2.40545638 3.10071472 3.94996953 3.0625 6.625 C3.05347656 7.44226562 3.04445313 8.25953125 3.03515625 9.1015625 C3.02355469 9.72804688 3.01195312 10.35453125 3 11 C2.01 11 1.02 11 0 11 C0 7.37 0 3.74 0 0 Z " fill="#383838" transform="translate(898,1506)"/>
<path d="M0 0 C1.45823212 -0.0270043 2.91660675 -0.04639787 4.375 -0.0625 C5.18710937 -0.07410156 5.99921875 -0.08570313 6.8359375 -0.09765625 C9 0 9 0 11 1 C10.67 1.66 10.34 2.32 10 3 C7.35139573 3.59355614 4.70802678 3.74209269 2 4 C1.34 2.68 0.68 1.36 0 0 Z " fill="#DEDEDE" transform="translate(1002,1478)"/>
<path d="M0 0 C7.75 -0.125 7.75 -0.125 10 1 C9.67 1.66 9.34 2.32 9 3 C6.35139573 3.59355614 3.70802678 3.74209269 1 4 C0.67 2.68 0.34 1.36 0 0 Z " fill="#DADADA" transform="translate(925,1478)"/>
<path d="M0 0 C0.66 0 1.32 0 2 0 C2 4.29 2 8.58 2 13 C1.34 13 0.68 13 0 13 C-0.96661363 9.87819599 -0.98988909 7.47916205 -0.5625 4.25 C-0.46066406 3.45078125 -0.35882812 2.6515625 -0.25390625 1.828125 C-0.17011719 1.22484375 -0.08632813 0.6215625 0 0 Z " fill="#1B1B1B" transform="translate(943,1504)"/>
<path d="M0 0 C0.268125 0.598125 0.53625 1.19625 0.8125 1.8125 C2.05958595 4.1097636 2.83117019 5.52829405 5 7 C8.14921909 6.76716851 8.14921909 6.76716851 11 6 C11.33 6.66 11.66 7.32 12 8 C9.58978936 9.51754003 8.31664378 10.02316906 5.4375 9.8125 C2.71800513 8.90600171 1.57172691 8.3989516 0 6 C-0.1875 2.8125 -0.1875 2.8125 0 0 Z " fill="#313131" transform="translate(1031,1474)"/>
<path d="M0 0 C7.75 -0.125 7.75 -0.125 10 1 C9.67 1.66 9.34 2.32 9 3 C2.57142857 4.28571429 2.57142857 4.28571429 0 3 C0 2.01 0 1.02 0 0 Z " fill="#DEDEDE" transform="translate(800,1478)"/>
<path d="M0 0 C6.57692308 0.57692308 6.57692308 0.57692308 8 2 C8.04063832 3.66617115 8.042721 5.33388095 8 7 C5.36 7 2.72 7 0 7 C0 6.67 0 6.34 0 6 C2.31 6 4.62 6 7 6 C5.02579865 3.47740939 4.03254358 3.0070192 0.8125 2.3125 C-0.115625 2.209375 -1.04375 2.10625 -2 2 C-1.34 1.34 -0.68 0.68 0 0 Z " fill="#212121" transform="translate(926,1470)"/>
<path d="M0 0 C2.04404368 3.16826771 1.432379 6.22912692 1.25 9.9375 C0.92 9.9375 0.59 9.9375 0.25 9.9375 C0.25 7.9575 0.25 5.9775 0.25 3.9375 C-0.41 3.9375 -1.07 3.9375 -1.75 3.9375 C-2.41 2.9475 -3.07 1.9575 -3.75 0.9375 C-7.31769552 0.20143501 -7.31769552 0.20143501 -10.75 -0.0625 C-10.75 -0.3925 -10.75 -0.7225 -10.75 -1.0625 C-6.47332478 -2.13166881 -3.81146637 -2.31410458 0 0 Z " fill="#3A3A3A" transform="translate(793.75,1469.0625)"/>
<path d="M0 0 C3.63 0 7.26 0 11 0 C11 0.33 11 0.66 11 1 C8.03 1 5.06 1 2 1 C2.33 3.64 2.66 6.28 3 9 C2.01 9 1.02 9 0 9 C0 6.03 0 3.06 0 0 Z " fill="#1F1F1F" transform="translate(1001,1568)"/>
<path d="M0 0 C0.33 0 0.66 0 1 0 C1 1.98 1 3.96 1 6 C1.66 6 2.32 6 3 6 C3 6.66 3 7.32 3 8 C5.91652174 8.16681109 5.91652174 8.16681109 9 8 C9.66 7.34 10.32 6.68 11 6 C11.33 7.32 11.66 8.64 12 10 C10.37581255 10.08090971 8.75048255 10.13914995 7.125 10.1875 C5.76761719 10.23970703 5.76761719 10.23970703 4.3828125 10.29296875 C3.20332031 10.14794922 3.20332031 10.14794922 2 10 C-0.4294516 6.3558226 -0.16179575 4.28758728 0 0 Z " fill="#2A2A2A" transform="translate(1015,1473)"/>
<path d="M0 0 C0.66 0 1.32 0 2 0 C5.42857143 7.28571429 5.42857143 7.28571429 5 12 C5.66 12.33 6.32 12.66 7 13 C6.01 13 5.02 13 4 13 C3.32694982 11.39850114 2.66177773 9.79368971 2 8.1875 C1.62875 7.29417969 1.2575 6.40085937 0.875 5.48046875 C0 3 0 3 0 0 Z " fill="#292929" transform="translate(812,1470)"/>
<path d="M0 0 C0.66 0 1.32 0 2 0 C2.96661363 3.12180401 2.98988909 5.52083795 2.5625 8.75 C2.40974609 9.94882813 2.40974609 9.94882813 2.25390625 11.171875 C2.12822266 12.07679687 2.12822266 12.07679687 2 13 C1.34 13 0.68 13 0 13 C0 8.71 0 4.42 0 0 Z " fill="#1F1F1F" transform="translate(879,1504)"/>
<path d="M0 0 C1.65 0 3.3 0 5 0 C5.66 1.32 6.32 2.64 7 4 C4.36 4 1.72 4 -1 4 C-0.67 2.68 -0.34 1.36 0 0 Z " fill="#DCDCDC" transform="translate(867,1506)"/>
<path d="M0 0 C0.66 0 1.32 0 2 0 C2.96661363 3.12180401 2.98988909 5.52083795 2.5625 8.75 C2.40974609 9.94882813 2.40974609 9.94882813 2.25390625 11.171875 C2.12822266 12.07679687 2.12822266 12.07679687 2 13 C1.34 13 0.68 13 0 13 C0 8.71 0 4.42 0 0 Z " fill="#080808" transform="translate(1066,1504)"/>
<path d="M0 0 C2.97 0.495 2.97 0.495 6 1 C6.33 1.99 6.66 2.98 7 4 C4.03 4 1.06 4 -2 4 C-1.34 2.68 -0.68 1.36 0 0 Z " fill="#DDDDDD" transform="translate(801,1472)"/>
<path d="M0 0 C0.99 0 1.98 0 3 0 C3 0.99 3 1.98 3 3 C3.99 3.33 4.98 3.66 6 4 C4.35 4 2.7 4 1 4 C1 7.63 1 11.26 1 15 C0.67 15 0.34 15 0 15 C-0.19517554 13.06325815 -0.38087873 11.12555991 -0.5625 9.1875 C-0.66691406 8.10855469 -0.77132812 7.02960938 -0.87890625 5.91796875 C-1 3 -1 3 0 0 Z " fill="#535353" transform="translate(992,1467)"/>
<path d="M0 0 C0.53625 0.350625 1.0725 0.70125 1.625 1.0625 C4.73274763 2.28924249 6.79431703 1.72856431 10 1 C9.67 2.32 9.34 3.64 9 5 C3.375 5.25 3.375 5.25 0 3 C0 2.01 0 1.02 0 0 Z " fill="#3B3B3B" transform="translate(1001,1580)"/>
<path d="M0 0 C0.66 0.33 1.32 0.66 2 1 C2.40729228 3.32156597 2.74438677 5.6568787 3 8 C1.35 8 -0.3 8 -2 8 C-1.47731534 5.23723823 -0.89130413 2.6739124 0 0 Z " fill="#D9D9D9" transform="translate(1007,1538)"/>
<path d="M0 0 C0.33 0 0.66 0 1 0 C1.33 1.65 1.66 3.3 2 5 C4.31 5 6.62 5 9 5 C9 5.99 9 6.98 9 8 C7.72125 8.061875 6.4425 8.12375 5.125 8.1875 C4.40570312 8.22230469 3.68640625 8.25710938 2.9453125 8.29296875 C2.30335938 8.19628906 1.66140625 8.09960938 1 8 C-1 5 -1 5 -0.625 2.3125 C-0.41875 1.549375 -0.2125 0.78625 0 0 Z " fill="#3A3A3A" transform="translate(905,1509)"/>
<path d="M0 0 C1.65 0 3.3 0 5 0 C5.66 1.32 6.32 2.64 7 4 C4.36 4 1.72 4 -1 4 C-0.67 2.68 -0.34 1.36 0 0 Z " fill="#DEDEDE" transform="translate(993,1506)"/>
<path d="M0 0 C2.97 0.495 2.97 0.495 6 1 C6 1.99 6 2.98 6 4 C3.36 4 0.72 4 -2 4 C-1.34 2.68 -0.68 1.36 0 0 Z " fill="#E2E2E2" transform="translate(1004,1472)"/>
<path d="M0 0 C2.97 0.495 2.97 0.495 6 1 C6.33 1.99 6.66 2.98 7 4 C4.36 4 1.72 4 -1 4 C-0.67 2.68 -0.34 1.36 0 0 Z " fill="#E2E2E2" transform="translate(926,1472)"/>
<path d="M0 0 C1.2375 0.1546875 1.2375 0.1546875 2.5 0.3125 C3.16 1.3025 3.82 2.2925 4.5 3.3125 C3.51 3.3125 2.52 3.3125 1.5 3.3125 C-0.60820797 3.6310177 -0.60820797 3.6310177 -2.5 4.3125 C-2.83 4.9725 -3.16 5.6325 -3.5 6.3125 C-4.16 6.3125 -4.82 6.3125 -5.5 6.3125 C-4.75209413 2.57297064 -4.13310341 0.51663793 0 0 Z " fill="#343434" transform="translate(970.5,1566.6875)"/>
<path d="M0 0 C2 3 2 3 2 6 C2.66 6 3.32 6 4 6 C4 7.32 4 8.64 4 10 C3.01 10 2.02 10 1 10 C-0.80411967 7.24075815 -1.0127245 6.11027897 -0.625 2.75 C-0.41875 1.8425 -0.2125 0.935 0 0 Z " fill="#343434" transform="translate(891,1541)"/>
<path d="M0 0 C1.32 1.65 2.64 3.3 4 5 C3.34 5.66 2.68 6.32 2 7 C1.34 6.01 0.68 5.02 0 4 C-0.33 7.3 -0.66 10.6 -1 14 C-1.33 14 -1.66 14 -2 14 C-2 10.04 -2 6.08 -2 2 C-1.34 2 -0.68 2 0 2 C0 1.34 0 0.68 0 0 Z " fill="#535353" transform="translate(1052,1537)"/>
<path d="M0 0 C1.32 0.33 2.64 0.66 4 1 C4.33 3.97 4.66 6.94 5 10 C4.34 9.67 3.68 9.34 3 9 C2.375 6.4375 2.375 6.4375 2 4 C1.34 4 0.68 4 0 4 C0 2.68 0 1.36 0 0 Z " fill="#1B1B1B" transform="translate(863,1535)"/>
<path d="M0 0 C1.2375 0.1546875 1.2375 0.1546875 2.5 0.3125 C3.16 1.3025 3.82 2.2925 4.5 3.3125 C3.51 3.8075 3.51 3.8075 2.5 4.3125 C2.5 3.6525 2.5 2.9925 2.5 2.3125 C-1.22614153 3.43104586 -1.22614153 3.43104586 -3.5 6.3125 C-4.16 6.3125 -4.82 6.3125 -5.5 6.3125 C-4.75209413 2.57297064 -4.13310341 0.51663793 0 0 Z " fill="#353535" transform="translate(956.5,1566.6875)"/>
<path d="M0 0 C0.99 0 1.98 0 3 0 C4.4783226 2.95664519 4.06032783 5.74229737 4 9 C2 7 2 7 1 4 C0.34 4.66 -0.32 5.32 -1 6 C-0.67 4.02 -0.34 2.04 0 0 Z " fill="#181818" transform="translate(887,1535)"/>
<path d="M0 0 C0.66 0 1.32 0 2 0 C2.36 5.4 2.36 5.4 0.875 7.875 C-1.78034983 9.4682099 -3.96789518 9.20214032 -7 9 C-6.38125 8.71125 -5.7625 8.4225 -5.125 8.125 C-2.86674235 7.06279958 -2.86674235 7.06279958 -1 5 C-0.35232207 2.42938689 -0.35232207 2.42938689 0 0 Z " fill="#191919" transform="translate(1061,1508)"/>
<path d="M0 0 C1.65 0 3.3 0 5 0 C5 0.66 5 1.32 5 2 C5.66 2 6.32 2 7 2 C7.33 1.34 7.66 0.68 8 0 C7.67 1.65 7.34 3.3 7 5 C4.69 4.34 2.38 3.68 0 3 C0 2.01 0 1.02 0 0 Z " fill="#DCDCDC" transform="translate(1007,1506)"/>
<path d="M0 0 C2.64 0.33 5.28 0.66 8 1 C8 1.66 8 2.32 8 3 C7.34 3 6.68 3 6 3 C6 3.66 6 4.32 6 5 C4.02 4.34 2.04 3.68 0 3 C0 2.01 0 1.02 0 0 Z " fill="#DFDFDF" transform="translate(1020,1506)"/>
<path d="M0 0 C0.33 0 0.66 0 1 0 C1.33 2.31 1.66 4.62 2 7 C3.65 7.33 5.3 7.66 7 8 C7 8.33 7 8.66 7 9 C4.125 9.1875 4.125 9.1875 1 9 C-1.14809171 5.77786243 -1.29386153 4.72224599 -1 1 C-0.67 0.67 -0.34 0.34 0 0 Z " fill="#171717" transform="translate(949,1508)"/>
<path d="M0 0 C0.33 0 0.66 0 1 0 C1.33 2.31 1.66 4.62 2 7 C4.97 7.495 4.97 7.495 8 8 C8 8.33 8 8.66 8 9 C4.625 9.1875 4.625 9.1875 1 9 C-1.14809171 5.77786243 -1.29386153 4.72224599 -1 1 C-0.67 0.67 -0.34 0.34 0 0 Z " fill="#171717" transform="translate(755,1508)"/>
<path d="M0 0 C3.3 0 6.6 0 10 0 C7 3 7 3 3.8125 3.1875 C2.4203125 3.0946875 2.4203125 3.0946875 1 3 C0.67 2.01 0.34 1.02 0 0 Z " fill="#F3F3F3" transform="translate(992,1512)"/>
<path d="M0 0 C2.31 0 4.62 0 7 0 C8.33332095 2.6666419 7.67102033 4.16680303 7 7 C6.67 5.68 6.34 4.36 6 3 C3.69 2.67 1.38 2.34 -1 2 C-0.67 1.34 -0.34 0.68 0 0 Z " fill="#EAEAEA" transform="translate(849,1504)"/>
<path d="M0 0 C2.35953094 2.35953094 2.49141413 3.77895617 3 7 C2.01 7 1.02 7 0 7 C0 6.01 0 5.02 0 4 C-2.64 4 -5.28 4 -8 4 C-8 3.67 -8 3.34 -8 3 C-6.865625 2.87625 -5.73125 2.7525 -4.5625 2.625 C-3.386875 2.41875 -2.21125 2.2125 -1 2 C-0.67 1.34 -0.34 0.68 0 0 Z " fill="#505050" transform="translate(1012,1544)"/>
<path d="M0 0 C3.63 0 7.26 0 11 0 C11 0.66 11 1.32 11 2 C6.98195309 2.84098656 3.98196457 3.05404945 0 2 C0 1.34 0 0.68 0 0 Z " fill="#3D3D3D" transform="translate(1077,1534)"/>
<path d="M0 0 C3.63 0 7.26 0 11 0 C11 0.66 11 1.32 11 2 C6.98195309 2.84098656 3.98196457 3.05404945 0 2 C0 1.34 0 0.68 0 0 Z " fill="#3D3D3D" transform="translate(1017,1534)"/>
<path d="M0 0 C2.475 0.99 2.475 0.99 5 2 C4.67 2.99 4.34 3.98 4 5 C1.69 4.67 -0.62 4.34 -3 4 C-3 3.34 -3 2.68 -3 2 C-2.01 2 -1.02 2 0 2 C0 1.34 0 0.68 0 0 Z " fill="#D3D3D3" transform="translate(1020,1511)"/>
<path d="M0 0 C3.3 0 6.6 0 10 0 C9.01 0.33 8.02 0.66 7 1 C7 1.66 7 2.32 7 3 C5.02 3 3.04 3 1 3 C0.67 2.01 0.34 1.02 0 0 Z " fill="#F8F8F8" transform="translate(866,1512)"/>
<path d="M0 0 C0.33 0.66 0.66 1.32 1 2 C3.91652174 2.16681109 3.91652174 2.16681109 7 2 C7.66 1.34 8.32 0.68 9 0 C9.33 0.99 9.66 1.98 10 3 C6.77626323 5.14915785 5.73296326 5.38286803 2 5 C1.34 4.34 0.68 3.68 0 3 C0 2.01 0 1.02 0 0 Z " fill="#383838" transform="translate(965,1479)"/>
<path d="M0 0 C2.96175123 0.61277612 4.38058783 1.25372522 7 3 C6.34 3 5.68 3 5 3 C5 3.66 5 4.32 5 5 C3.02 4.34 1.04 3.68 -1 3 C-0.67 2.01 -0.34 1.02 0 0 Z " fill="#DDDDDD" transform="translate(982,1472)"/>
<path d="M0 0 C6.42210386 -0.48468708 6.42210386 -0.48468708 8.9375 1.625 C10.25066255 4.56030453 10.21691118 6.81863606 10 10 C9.67 10 9.34 10 9 10 C9 8.35 9 6.7 9 5 C8.34 5 7.68 5 7 5 C7 4.34 7 3.68 7 3 C4.69 2.34 2.38 1.68 0 1 C0 0.67 0 0.34 0 0 Z " fill="#3E3E3E" transform="translate(829,1470)"/>
<path d="M0 0 C0.99 0.33 1.98 0.66 3 1 C3 1.66 3 2.32 3 3 C5.31 3 7.62 3 10 3 C9.67 3.66 9.34 4.32 9 5 C3.5 5.36666667 3.5 5.36666667 1.125 3.625 C0 2 0 2 0 0 Z " fill="#2D2D2D" transform="translate(986,1580)"/>
<path d="M0 0 C0.99 0.33 1.98 0.66 3 1 C4.25 7.625 4.25 7.625 2 11 C1.34 7.37 0.68 3.74 0 0 Z " fill="#404040" transform="translate(877,1534)"/>
<path d="M0 0 C2 4 2 4 1.125 7.75 C0.75375 8.8225 0.3825 9.895 0 11 C-0.66 10.67 -1.32 10.34 -2 10 C-1.34 6.7 -0.68 3.4 0 0 Z " fill="#3D3D3D" transform="translate(862,1537)"/>
<path d="M0 0 C0.33 0 0.66 0 1 0 C1 5.28 1 10.56 1 16 C0.01 15.67 -0.98 15.34 -2 15 C-2 14.34 -2 13.68 -2 13 C-1.34 13 -0.68 13 0 13 C0 8.71 0 4.42 0 0 Z " fill="#060606" transform="translate(1060,1535)"/>
<path d="M0 0 C0.66 0 1.32 0 2 0 C1.67 1.65 1.34 3.3 1 5 C-1.31 5 -3.62 5 -6 5 C-6.33 4.01 -6.66 3.02 -7 2 C-4.03 2.495 -4.03 2.495 -1 3 C-0.67 2.01 -0.34 1.02 0 0 Z " fill="#151515" transform="translate(1025,1512)"/>
<path d="M0 0 C-0.99 1.485 -0.99 1.485 -2 3 C-2.61875 2.814375 -3.2375 2.62875 -3.875 2.4375 C-6.04160178 1.76313824 -6.04160178 1.76313824 -8 3 C-8.66 2.34 -9.32 1.68 -10 1 C-6.1496895 -1.56687367 -4.41430237 -0.83288724 0 0 Z " fill="#393939" transform="translate(958,1471)"/>
<path d="M0 0 C0.66 0 1.32 0 2 0 C1.34 2.97 0.68 5.94 0 9 C-0.66 8.67 -1.32 8.34 -2 8 C-1.125 1.125 -1.125 1.125 0 0 Z " fill="#373737" transform="translate(921,1534)"/>
<path d="M0 0 C0.66 0 1.32 0 2 0 C1.34 1.32 0.68 2.64 0 4 C-3.375 4.1875 -3.375 4.1875 -7 4 C-7.66 3.01 -8.32 2.02 -9 1 C-7.88625 1.20625 -6.7725 1.4125 -5.625 1.625 C-3.830625 1.810625 -3.830625 1.810625 -2 2 C-1.34 1.34 -0.68 0.68 0 0 Z " fill="#1C1C1C" transform="translate(1045,1513)"/>
<path d="M0 0 C0.66 0 1.32 0 2 0 C1.125 4.75 1.125 4.75 0 7 C-2.97 6.505 -2.97 6.505 -6 6 C-5.38125 5.7525 -4.7625 5.505 -4.125 5.25 C-1.64931313 3.79371361 -1.04874998 2.62187494 0 0 Z " fill="#363636" transform="translate(765,1510)"/>
<path d="M0 0 C0.66 0 1.32 0 2 0 C0.7508258 3.45925163 -0.67527795 6.14693203 -3 9 C-3.66 8.34 -4.32 7.68 -5 7 C-4.34 7 -3.68 7 -3 7 C-2.690625 6.030625 -2.38125 5.06125 -2.0625 4.0625 C-1 1 -1 1 0 0 Z " fill="#2B2B2B" transform="translate(1086,1467)"/>
<path d="M0 0 C1.98 0.495 1.98 0.495 4 1 C3.67 2.32 3.34 3.64 3 5 C2.67 4.67 2.34 4.34 2 4 C1.34 4.66 0.68 5.32 0 6 C-1.125 2.25 -1.125 2.25 0 0 Z " fill="#1E1E1E" transform="translate(1006,1535)"/>
<path d="M0 0 C1.4540625 0.0309375 1.4540625 0.0309375 2.9375 0.0625 C1.632261 2.67297801 0.57923426 2.74316423 -2.125 3.6875 C-3.22521484 4.07808594 -3.22521484 4.07808594 -4.34765625 4.4765625 C-4.91355469 4.66992188 -5.47945312 4.86328125 -6.0625 5.0625 C-3.64893617 0.07446809 -3.64893617 0.07446809 0 0 Z " fill="#2B2B2B" transform="translate(954.0625,1503.9375)"/>
<path d="M0 0 C1.98 0 3.96 0 6 0 C6.66 1.32 7.32 2.64 8 4 C3.545 3.01 3.545 3.01 -1 2 C-0.67 1.34 -0.34 0.68 0 0 Z " fill="#2D2D2D" transform="translate(1019,1504)"/>
<path d="M0 0 C0.93423645 3.01031744 1.04449911 3.86650268 0 7 C-0.99 7 -1.98 7 -3 7 C-3 5.68 -3 4.36 -3 3 C-2.34 3 -1.68 3 -1 3 C-0.67 2.01 -0.34 1.02 0 0 Z " fill="#1E1E1E" transform="translate(908,1544)"/>
<path d="M0 0 C0.33 0 0.66 0 1 0 C1 3.63 1 7.26 1 11 C-2 7 -2 7 -1.75 4.375 C-1 2 -1 2 0 0 Z " fill="#DADADA" transform="translate(970,1540)"/>
<path d="M0 0 C0.66 0.66 1.32 1.32 2 2 C1.01 4.31 0.02 6.62 -1 9 C-1.99 8.34 -2.98 7.68 -4 7 C-2.68 4.69 -1.36 2.38 0 0 Z " fill="#353535" transform="translate(968,1540)"/>
<path d="M0 0 C0.33 0 0.66 0 1 0 C1.625 2.875 1.625 2.875 2 6 C0 8 0 8 -3.625 8.125 C-4.73875 8.08375 -5.8525 8.0425 -7 8 C-7 7.67 -7 7.34 -7 7 C-5.02 6.34 -3.04 5.68 -1 5 C-0.67 3.35 -0.34 1.7 0 0 Z " fill="#242424" transform="translate(834,1509)"/>
<path d="M0 0 C2 3 2 3 2 5 C3.65 5 5.3 5 7 5 C5.1875 6.0625 5.1875 6.0625 3 7 C2.01 6.67 1.02 6.34 0 6 C-0.75 4.0625 -0.75 4.0625 -1 2 C-0.67 1.34 -0.34 0.68 0 0 Z " fill="#333333" transform="translate(1051,1510)"/>
<path d="M0 0 C0 0.99 0 1.98 0 3 C-2.64 3 -5.28 3 -8 3 C-8 2.34 -8 1.68 -8 1 C-5.10765685 0.17361624 -3.11257569 0 0 0 Z " fill="#DFDFDF" transform="translate(1012,1512)"/>
<path d="M0 0 C2.75 0.8125 2.75 0.8125 5 2 C5 2.33 5 2.66 5 3 C2.69 3.66 0.38 4.32 -2 5 C-2.66 4.34 -3.32 3.68 -4 3 C-2.3125 1.375 -2.3125 1.375 0 0 Z " fill="#D5D5D5" transform="translate(847,1504)"/>
<path d="M0 0 C0.99 0.33 1.98 0.66 3 1 C4.1875 4.0625 4.1875 4.0625 5 7 C4.01 7.495 4.01 7.495 3 8 C0 2.25 0 2.25 0 0 Z " fill="#2B2B2B" transform="translate(1076,1467)"/>
<path d="M0 0 C0.99 0 1.98 0 3 0 C3.33 0.66 3.66 1.32 4 2 C6.01669827 3.13350534 6.01669827 3.13350534 8 4 C5.6875 4.6875 5.6875 4.6875 3 5 C1.1875 3.6875 1.1875 3.6875 0 2 C0 1.34 0 0.68 0 0 Z " fill="#444444" transform="translate(1016,1580)"/>
<path d="M0 0 C0.78375 0.04125 1.5675 0.0825 2.375 0.125 C1.75625 0.186875 1.1375 0.24875 0.5 0.3125 C-1.90261141 0.953919 -1.90261141 0.953919 -2.875 3.6875 C-3.1225 4.491875 -3.37 5.29625 -3.625 6.125 C-4.285 6.125 -4.945 6.125 -5.625 6.125 C-4.86443086 2.32215429 -4.27658992 0.20364714 0 0 Z " fill="#494949" transform="translate(942.625,1566.875)"/>
<path d="M0 0 C1.485 0.99 1.485 0.99 3 2 C3.1875 4.625 3.1875 4.625 3 7 C2.01 7 1.02 7 0 7 C-0.38133299 5.0085944 -0.71325582 3.00720923 -1 1 C-0.67 0.67 -0.34 0.34 0 0 Z " fill="#212121" transform="translate(985,1535)"/>
<path d="M0 0 C5.625 -0.25 5.625 -0.25 9 2 C9 2.66 9 3.32 9 4 C6.03 3.01 3.06 2.02 0 1 C0 0.67 0 0.34 0 0 Z " fill="#2B2B2B" transform="translate(1038,1504)"/>
</svg>
